<?xml version="1.0" encoding="utf-8" standalone="no"?>
<!DOCTYPE svg PUBLIC "-//W3C//DTD SVG 1.1//EN"
  "http://www.w3.org/Graphics/SVG/1.1/DTD/svg11.dtd">
<svg height="345.6pt" version="1.1" viewBox="0 0 460.8 345.6" width="460.8pt" xmlns="http://www.w3.org/2000/svg" xmlns:xlink="http://www.w3.org/1999/xlink">
 <metadata>
  <rdf:RDF xmlns:cc="http://creativecommons.org/ns#" xmlns:dc="http://purl.org/dc/elements/1.1/" xmlns:rdf="http://www.w3.org/1999/02/22-rdf-syntax-ns#">
   <cc:Work>
    <dc:type rdf:resource="http://purl.org/dc/dcmitype/StillImage"/>
    <dc:date>2021-05-12T08:09:37.405319</dc:date>
    <dc:format>image/svg+xml</dc:format>
    <dc:creator>
     <cc:Agent>
      <dc:title>Matplotlib v3.4.1, https://matplotlib.org/</dc:title>
     </cc:Agent>
    </dc:creator>
   </cc:Work>
  </rdf:RDF>
 </metadata>
 <defs>
  <style type="text/css">*{stroke-linecap:butt;stroke-linejoin:round;}</style>
 </defs>
 <g id="figure_1">
  <g id="patch_1">
   <path d="M 0 345.6 
L 460.8 345.6 
L 460.8 0 
L 0 0 
z
" style="fill:#ffffff;"/>
  </g>
  <g id="axes_1">
   <g id="patch_2">
    <path d="M 57.6 307.584 
L 414.72 307.584 
L 414.72 41.472 
L 57.6 41.472 
z
" style="fill:#ffffff;"/>
   </g>
   <g id="patch_3">
    <path clip-path="url(#p09167a428e)" d="M 57.840792 307.584 
L 59.248917 307.584 
L 59.248917 216.504 
L 57.840792 216.504 
z
" style="fill:#1f77b4;"/>
   </g>
   <g id="patch_4">
    <path clip-path="url(#p09167a428e)" d="M 59.248917 307.584 
L 60.657041 307.584 
L 60.657041 99.684 
L 59.248917 99.684 
z
" style="fill:#1f77b4;"/>
   </g>
   <g id="patch_5">
    <path clip-path="url(#p09167a428e)" d="M 60.657041 307.584 
L 62.065166 307.584 
L 62.065166 54.144 
L 60.657041 54.144 
z
" style="fill:#1f77b4;"/>
   </g>
   <g id="patch_6">
    <path clip-path="url(#p09167a428e)" d="M 62.065166 307.584 
L 63.473291 307.584 
L 63.473291 115.524 
L 62.065166 115.524 
z
" style="fill:#1f77b4;"/>
   </g>
   <g id="patch_7">
    <path clip-path="url(#p09167a428e)" d="M 63.473291 307.584 
L 64.881415 307.584 
L 64.881415 93.744 
L 63.473291 93.744 
z
" style="fill:#1f77b4;"/>
   </g>
   <g id="patch_8">
    <path clip-path="url(#p09167a428e)" d="M 64.881415 307.584 
L 66.28954 307.584 
L 66.28954 170.964 
L 64.881415 170.964 
z
" style="fill:#1f77b4;"/>
   </g>
   <g id="patch_9">
    <path clip-path="url(#p09167a428e)" d="M 66.28954 307.584 
L 67.697665 307.584 
L 67.697665 182.844 
L 66.28954 182.844 
z
" style="fill:#1f77b4;"/>
   </g>
   <g id="patch_10">
    <path clip-path="url(#p09167a428e)" d="M 67.697665 307.584 
L 69.10579 307.584 
L 69.10579 208.584 
L 67.697665 208.584 
z
" style="fill:#1f77b4;"/>
   </g>
   <g id="patch_11">
    <path clip-path="url(#p09167a428e)" d="M 69.10579 307.584 
L 70.513914 307.584 
L 70.513914 242.244 
L 69.10579 242.244 
z
" style="fill:#1f77b4;"/>
   </g>
   <g id="patch_12">
    <path clip-path="url(#p09167a428e)" d="M 70.513914 307.584 
L 71.922039 307.584 
L 71.922039 230.364 
L 70.513914 230.364 
z
" style="fill:#1f77b4;"/>
   </g>
   <g id="patch_13">
    <path clip-path="url(#p09167a428e)" d="M 71.922039 307.584 
L 73.330164 307.584 
L 73.330164 244.224 
L 71.922039 244.224 
z
" style="fill:#1f77b4;"/>
   </g>
   <g id="patch_14">
    <path clip-path="url(#p09167a428e)" d="M 73.330164 307.584 
L 74.738288 307.584 
L 74.738288 262.044 
L 73.330164 262.044 
z
" style="fill:#1f77b4;"/>
   </g>
   <g id="patch_15">
    <path clip-path="url(#p09167a428e)" d="M 74.738288 307.584 
L 76.146413 307.584 
L 76.146413 271.944 
L 74.738288 271.944 
z
" style="fill:#1f77b4;"/>
   </g>
   <g id="patch_16">
    <path clip-path="url(#p09167a428e)" d="M 76.146413 307.584 
L 77.554538 307.584 
L 77.554538 275.904 
L 76.146413 275.904 
z
" style="fill:#1f77b4;"/>
   </g>
   <g id="patch_17">
    <path clip-path="url(#p09167a428e)" d="M 77.554538 307.584 
L 78.962663 307.584 
L 78.962663 264.024 
L 77.554538 264.024 
z
" style="fill:#1f77b4;"/>
   </g>
   <g id="patch_18">
    <path clip-path="url(#p09167a428e)" d="M 78.962663 307.584 
L 80.370787 307.584 
L 80.370787 271.944 
L 78.962663 271.944 
z
" style="fill:#1f77b4;"/>
   </g>
   <g id="patch_19">
    <path clip-path="url(#p09167a428e)" d="M 80.370787 307.584 
L 81.778912 307.584 
L 81.778912 281.844 
L 80.370787 281.844 
z
" style="fill:#1f77b4;"/>
   </g>
   <g id="patch_20">
    <path clip-path="url(#p09167a428e)" d="M 81.778912 307.584 
L 83.187037 307.584 
L 83.187037 285.804 
L 81.778912 285.804 
z
" style="fill:#1f77b4;"/>
   </g>
   <g id="patch_21">
    <path clip-path="url(#p09167a428e)" d="M 83.187037 307.584 
L 84.595161 307.584 
L 84.595161 281.844 
L 83.187037 281.844 
z
" style="fill:#1f77b4;"/>
   </g>
   <g id="patch_22">
    <path clip-path="url(#p09167a428e)" d="M 84.595161 307.584 
L 86.003286 307.584 
L 86.003286 289.764 
L 84.595161 289.764 
z
" style="fill:#1f77b4;"/>
   </g>
   <g id="patch_23">
    <path clip-path="url(#p09167a428e)" d="M 86.003286 307.584 
L 87.411411 307.584 
L 87.411411 293.724 
L 86.003286 293.724 
z
" style="fill:#1f77b4;"/>
   </g>
   <g id="patch_24">
    <path clip-path="url(#p09167a428e)" d="M 87.411411 307.584 
L 88.819536 307.584 
L 88.819536 303.624 
L 87.411411 303.624 
z
" style="fill:#1f77b4;"/>
   </g>
   <g id="patch_25">
    <path clip-path="url(#p09167a428e)" d="M 88.819536 307.584 
L 90.22766 307.584 
L 90.22766 297.684 
L 88.819536 297.684 
z
" style="fill:#1f77b4;"/>
   </g>
   <g id="patch_26">
    <path clip-path="url(#p09167a428e)" d="M 90.22766 307.584 
L 91.635785 307.584 
L 91.635785 281.844 
L 90.22766 281.844 
z
" style="fill:#1f77b4;"/>
   </g>
   <g id="patch_27">
    <path clip-path="url(#p09167a428e)" d="M 91.635785 307.584 
L 93.04391 307.584 
L 93.04391 297.684 
L 91.635785 297.684 
z
" style="fill:#1f77b4;"/>
   </g>
   <g id="patch_28">
    <path clip-path="url(#p09167a428e)" d="M 93.04391 307.584 
L 94.452034 307.584 
L 94.452034 299.664 
L 93.04391 299.664 
z
" style="fill:#1f77b4;"/>
   </g>
   <g id="patch_29">
    <path clip-path="url(#p09167a428e)" d="M 94.452034 307.584 
L 95.860159 307.584 
L 95.860159 295.704 
L 94.452034 295.704 
z
" style="fill:#1f77b4;"/>
   </g>
   <g id="patch_30">
    <path clip-path="url(#p09167a428e)" d="M 95.860159 307.584 
L 97.268284 307.584 
L 97.268284 301.644 
L 95.860159 301.644 
z
" style="fill:#1f77b4;"/>
   </g>
   <g id="patch_31">
    <path clip-path="url(#p09167a428e)" d="M 97.268284 307.584 
L 98.676409 307.584 
L 98.676409 305.604 
L 97.268284 305.604 
z
" style="fill:#1f77b4;"/>
   </g>
   <g id="patch_32">
    <path clip-path="url(#p09167a428e)" d="M 98.676409 307.584 
L 100.084533 307.584 
L 100.084533 301.644 
L 98.676409 301.644 
z
" style="fill:#1f77b4;"/>
   </g>
   <g id="patch_33">
    <path clip-path="url(#p09167a428e)" d="M 100.084533 307.584 
L 101.492658 307.584 
L 101.492658 303.624 
L 100.084533 303.624 
z
" style="fill:#1f77b4;"/>
   </g>
   <g id="patch_34">
    <path clip-path="url(#p09167a428e)" d="M 101.492658 307.584 
L 102.900783 307.584 
L 102.900783 303.624 
L 101.492658 303.624 
z
" style="fill:#1f77b4;"/>
   </g>
   <g id="patch_35">
    <path clip-path="url(#p09167a428e)" d="M 102.900783 307.584 
L 104.308907 307.584 
L 104.308907 305.604 
L 102.900783 305.604 
z
" style="fill:#1f77b4;"/>
   </g>
   <g id="patch_36">
    <path clip-path="url(#p09167a428e)" d="M 104.308907 307.584 
L 105.717032 307.584 
L 105.717032 301.644 
L 104.308907 301.644 
z
" style="fill:#1f77b4;"/>
   </g>
   <g id="patch_37">
    <path clip-path="url(#p09167a428e)" d="M 105.717032 307.584 
L 107.125157 307.584 
L 107.125157 307.584 
L 105.717032 307.584 
z
" style="fill:#1f77b4;"/>
   </g>
   <g id="patch_38">
    <path clip-path="url(#p09167a428e)" d="M 107.125157 307.584 
L 108.533281 307.584 
L 108.533281 305.604 
L 107.125157 305.604 
z
" style="fill:#1f77b4;"/>
   </g>
   <g id="patch_39">
    <path clip-path="url(#p09167a428e)" d="M 108.533281 307.584 
L 109.941406 307.584 
L 109.941406 297.684 
L 108.533281 297.684 
z
" style="fill:#1f77b4;"/>
   </g>
   <g id="patch_40">
    <path clip-path="url(#p09167a428e)" d="M 109.941406 307.584 
L 111.349531 307.584 
L 111.349531 305.604 
L 109.941406 305.604 
z
" style="fill:#1f77b4;"/>
   </g>
   <g id="patch_41">
    <path clip-path="url(#p09167a428e)" d="M 111.349531 307.584 
L 112.757656 307.584 
L 112.757656 305.604 
L 111.349531 305.604 
z
" style="fill:#1f77b4;"/>
   </g>
   <g id="patch_42">
    <path clip-path="url(#p09167a428e)" d="M 112.757656 307.584 
L 114.16578 307.584 
L 114.16578 307.584 
L 112.757656 307.584 
z
" style="fill:#1f77b4;"/>
   </g>
   <g id="patch_43">
    <path clip-path="url(#p09167a428e)" d="M 114.16578 307.584 
L 115.573905 307.584 
L 115.573905 305.604 
L 114.16578 305.604 
z
" style="fill:#1f77b4;"/>
   </g>
   <g id="patch_44">
    <path clip-path="url(#p09167a428e)" d="M 115.573905 307.584 
L 116.98203 307.584 
L 116.98203 305.604 
L 115.573905 305.604 
z
" style="fill:#1f77b4;"/>
   </g>
   <g id="patch_45">
    <path clip-path="url(#p09167a428e)" d="M 116.98203 307.584 
L 118.390154 307.584 
L 118.390154 307.584 
L 116.98203 307.584 
z
" style="fill:#1f77b4;"/>
   </g>
   <g id="patch_46">
    <path clip-path="url(#p09167a428e)" d="M 118.390154 307.584 
L 119.798279 307.584 
L 119.798279 301.644 
L 118.390154 301.644 
z
" style="fill:#1f77b4;"/>
   </g>
   <g id="patch_47">
    <path clip-path="url(#p09167a428e)" d="M 119.798279 307.584 
L 121.206404 307.584 
L 121.206404 305.604 
L 119.798279 305.604 
z
" style="fill:#1f77b4;"/>
   </g>
   <g id="patch_48">
    <path clip-path="url(#p09167a428e)" d="M 121.206404 307.584 
L 122.614529 307.584 
L 122.614529 305.604 
L 121.206404 305.604 
z
" style="fill:#1f77b4;"/>
   </g>
   <g id="patch_49">
    <path clip-path="url(#p09167a428e)" d="M 122.614529 307.584 
L 124.022653 307.584 
L 124.022653 301.644 
L 122.614529 301.644 
z
" style="fill:#1f77b4;"/>
   </g>
   <g id="patch_50">
    <path clip-path="url(#p09167a428e)" d="M 124.022653 307.584 
L 125.430778 307.584 
L 125.430778 307.584 
L 124.022653 307.584 
z
" style="fill:#1f77b4;"/>
   </g>
   <g id="patch_51">
    <path clip-path="url(#p09167a428e)" d="M 125.430778 307.584 
L 126.838903 307.584 
L 126.838903 307.584 
L 125.430778 307.584 
z
" style="fill:#1f77b4;"/>
   </g>
   <g id="patch_52">
    <path clip-path="url(#p09167a428e)" d="M 126.838903 307.584 
L 128.247027 307.584 
L 128.247027 307.584 
L 126.838903 307.584 
z
" style="fill:#1f77b4;"/>
   </g>
   <g id="patch_53">
    <path clip-path="url(#p09167a428e)" d="M 128.247027 307.584 
L 129.655152 307.584 
L 129.655152 307.584 
L 128.247027 307.584 
z
" style="fill:#1f77b4;"/>
   </g>
   <g id="patch_54">
    <path clip-path="url(#p09167a428e)" d="M 129.655152 307.584 
L 131.063277 307.584 
L 131.063277 303.624 
L 129.655152 303.624 
z
" style="fill:#1f77b4;"/>
   </g>
   <g id="patch_55">
    <path clip-path="url(#p09167a428e)" d="M 131.063277 307.584 
L 132.471402 307.584 
L 132.471402 305.604 
L 131.063277 305.604 
z
" style="fill:#1f77b4;"/>
   </g>
   <g id="patch_56">
    <path clip-path="url(#p09167a428e)" d="M 132.471402 307.584 
L 133.879526 307.584 
L 133.879526 307.584 
L 132.471402 307.584 
z
" style="fill:#1f77b4;"/>
   </g>
   <g id="patch_57">
    <path clip-path="url(#p09167a428e)" d="M 133.879526 307.584 
L 135.287651 307.584 
L 135.287651 307.584 
L 133.879526 307.584 
z
" style="fill:#1f77b4;"/>
   </g>
   <g id="patch_58">
    <path clip-path="url(#p09167a428e)" d="M 135.287651 307.584 
L 136.695776 307.584 
L 136.695776 307.584 
L 135.287651 307.584 
z
" style="fill:#1f77b4;"/>
   </g>
   <g id="patch_59">
    <path clip-path="url(#p09167a428e)" d="M 136.695776 307.584 
L 138.1039 307.584 
L 138.1039 307.584 
L 136.695776 307.584 
z
" style="fill:#1f77b4;"/>
   </g>
   <g id="patch_60">
    <path clip-path="url(#p09167a428e)" d="M 138.1039 307.584 
L 139.512025 307.584 
L 139.512025 305.604 
L 138.1039 305.604 
z
" style="fill:#1f77b4;"/>
   </g>
   <g id="patch_61">
    <path clip-path="url(#p09167a428e)" d="M 139.512025 307.584 
L 140.92015 307.584 
L 140.92015 305.604 
L 139.512025 305.604 
z
" style="fill:#1f77b4;"/>
   </g>
   <g id="patch_62">
    <path clip-path="url(#p09167a428e)" d="M 140.92015 307.584 
L 142.328275 307.584 
L 142.328275 307.584 
L 140.92015 307.584 
z
" style="fill:#1f77b4;"/>
   </g>
   <g id="patch_63">
    <path clip-path="url(#p09167a428e)" d="M 142.328275 307.584 
L 143.736399 307.584 
L 143.736399 307.584 
L 142.328275 307.584 
z
" style="fill:#1f77b4;"/>
   </g>
   <g id="patch_64">
    <path clip-path="url(#p09167a428e)" d="M 143.736399 307.584 
L 145.144524 307.584 
L 145.144524 307.584 
L 143.736399 307.584 
z
" style="fill:#1f77b4;"/>
   </g>
   <g id="patch_65">
    <path clip-path="url(#p09167a428e)" d="M 145.144524 307.584 
L 146.552649 307.584 
L 146.552649 307.584 
L 145.144524 307.584 
z
" style="fill:#1f77b4;"/>
   </g>
   <g id="patch_66">
    <path clip-path="url(#p09167a428e)" d="M 146.552649 307.584 
L 147.960773 307.584 
L 147.960773 307.584 
L 146.552649 307.584 
z
" style="fill:#1f77b4;"/>
   </g>
   <g id="patch_67">
    <path clip-path="url(#p09167a428e)" d="M 147.960773 307.584 
L 149.368898 307.584 
L 149.368898 307.584 
L 147.960773 307.584 
z
" style="fill:#1f77b4;"/>
   </g>
   <g id="patch_68">
    <path clip-path="url(#p09167a428e)" d="M 149.368898 307.584 
L 150.777023 307.584 
L 150.777023 307.584 
L 149.368898 307.584 
z
" style="fill:#1f77b4;"/>
   </g>
   <g id="patch_69">
    <path clip-path="url(#p09167a428e)" d="M 150.777023 307.584 
L 152.185148 307.584 
L 152.185148 307.584 
L 150.777023 307.584 
z
" style="fill:#1f77b4;"/>
   </g>
   <g id="patch_70">
    <path clip-path="url(#p09167a428e)" d="M 152.185148 307.584 
L 153.593272 307.584 
L 153.593272 305.604 
L 152.185148 305.604 
z
" style="fill:#1f77b4;"/>
   </g>
   <g id="patch_71">
    <path clip-path="url(#p09167a428e)" d="M 153.593272 307.584 
L 155.001397 307.584 
L 155.001397 307.584 
L 153.593272 307.584 
z
" style="fill:#1f77b4;"/>
   </g>
   <g id="patch_72">
    <path clip-path="url(#p09167a428e)" d="M 155.001397 307.584 
L 156.409522 307.584 
L 156.409522 307.584 
L 155.001397 307.584 
z
" style="fill:#1f77b4;"/>
   </g>
   <g id="patch_73">
    <path clip-path="url(#p09167a428e)" d="M 156.409522 307.584 
L 157.817646 307.584 
L 157.817646 307.584 
L 156.409522 307.584 
z
" style="fill:#1f77b4;"/>
   </g>
   <g id="patch_74">
    <path clip-path="url(#p09167a428e)" d="M 157.817646 307.584 
L 159.225771 307.584 
L 159.225771 307.584 
L 157.817646 307.584 
z
" style="fill:#1f77b4;"/>
   </g>
   <g id="patch_75">
    <path clip-path="url(#p09167a428e)" d="M 159.225771 307.584 
L 160.633896 307.584 
L 160.633896 305.604 
L 159.225771 305.604 
z
" style="fill:#1f77b4;"/>
   </g>
   <g id="patch_76">
    <path clip-path="url(#p09167a428e)" d="M 160.633896 307.584 
L 162.042021 307.584 
L 162.042021 307.584 
L 160.633896 307.584 
z
" style="fill:#1f77b4;"/>
   </g>
   <g id="patch_77">
    <path clip-path="url(#p09167a428e)" d="M 162.042021 307.584 
L 163.450145 307.584 
L 163.450145 307.584 
L 162.042021 307.584 
z
" style="fill:#1f77b4;"/>
   </g>
   <g id="patch_78">
    <path clip-path="url(#p09167a428e)" d="M 163.450145 307.584 
L 164.85827 307.584 
L 164.85827 303.624 
L 163.450145 303.624 
z
" style="fill:#1f77b4;"/>
   </g>
   <g id="patch_79">
    <path clip-path="url(#p09167a428e)" d="M 164.85827 307.584 
L 166.266395 307.584 
L 166.266395 307.584 
L 164.85827 307.584 
z
" style="fill:#1f77b4;"/>
   </g>
   <g id="patch_80">
    <path clip-path="url(#p09167a428e)" d="M 166.266395 307.584 
L 167.674519 307.584 
L 167.674519 307.584 
L 166.266395 307.584 
z
" style="fill:#1f77b4;"/>
   </g>
   <g id="patch_81">
    <path clip-path="url(#p09167a428e)" d="M 167.674519 307.584 
L 169.082644 307.584 
L 169.082644 307.584 
L 167.674519 307.584 
z
" style="fill:#1f77b4;"/>
   </g>
   <g id="patch_82">
    <path clip-path="url(#p09167a428e)" d="M 169.082644 307.584 
L 170.490769 307.584 
L 170.490769 307.584 
L 169.082644 307.584 
z
" style="fill:#1f77b4;"/>
   </g>
   <g id="patch_83">
    <path clip-path="url(#p09167a428e)" d="M 170.490769 307.584 
L 171.898894 307.584 
L 171.898894 307.584 
L 170.490769 307.584 
z
" style="fill:#1f77b4;"/>
   </g>
   <g id="patch_84">
    <path clip-path="url(#p09167a428e)" d="M 171.898894 307.584 
L 173.307018 307.584 
L 173.307018 307.584 
L 171.898894 307.584 
z
" style="fill:#1f77b4;"/>
   </g>
   <g id="patch_85">
    <path clip-path="url(#p09167a428e)" d="M 173.307018 307.584 
L 174.715143 307.584 
L 174.715143 307.584 
L 173.307018 307.584 
z
" style="fill:#1f77b4;"/>
   </g>
   <g id="patch_86">
    <path clip-path="url(#p09167a428e)" d="M 174.715143 307.584 
L 176.123268 307.584 
L 176.123268 307.584 
L 174.715143 307.584 
z
" style="fill:#1f77b4;"/>
   </g>
   <g id="patch_87">
    <path clip-path="url(#p09167a428e)" d="M 176.123268 307.584 
L 177.531392 307.584 
L 177.531392 307.584 
L 176.123268 307.584 
z
" style="fill:#1f77b4;"/>
   </g>
   <g id="patch_88">
    <path clip-path="url(#p09167a428e)" d="M 177.531392 307.584 
L 178.939517 307.584 
L 178.939517 307.584 
L 177.531392 307.584 
z
" style="fill:#1f77b4;"/>
   </g>
   <g id="patch_89">
    <path clip-path="url(#p09167a428e)" d="M 178.939517 307.584 
L 180.347642 307.584 
L 180.347642 305.604 
L 178.939517 305.604 
z
" style="fill:#1f77b4;"/>
   </g>
   <g id="patch_90">
    <path clip-path="url(#p09167a428e)" d="M 180.347642 307.584 
L 181.755766 307.584 
L 181.755766 307.584 
L 180.347642 307.584 
z
" style="fill:#1f77b4;"/>
   </g>
   <g id="patch_91">
    <path clip-path="url(#p09167a428e)" d="M 181.755766 307.584 
L 183.163891 307.584 
L 183.163891 307.584 
L 181.755766 307.584 
z
" style="fill:#1f77b4;"/>
   </g>
   <g id="patch_92">
    <path clip-path="url(#p09167a428e)" d="M 183.163891 307.584 
L 184.572016 307.584 
L 184.572016 307.584 
L 183.163891 307.584 
z
" style="fill:#1f77b4;"/>
   </g>
   <g id="patch_93">
    <path clip-path="url(#p09167a428e)" d="M 184.572016 307.584 
L 185.980141 307.584 
L 185.980141 307.584 
L 184.572016 307.584 
z
" style="fill:#1f77b4;"/>
   </g>
   <g id="patch_94">
    <path clip-path="url(#p09167a428e)" d="M 185.980141 307.584 
L 187.388265 307.584 
L 187.388265 305.604 
L 185.980141 305.604 
z
" style="fill:#1f77b4;"/>
   </g>
   <g id="patch_95">
    <path clip-path="url(#p09167a428e)" d="M 187.388265 307.584 
L 188.79639 307.584 
L 188.79639 307.584 
L 187.388265 307.584 
z
" style="fill:#1f77b4;"/>
   </g>
   <g id="patch_96">
    <path clip-path="url(#p09167a428e)" d="M 188.79639 307.584 
L 190.204515 307.584 
L 190.204515 307.584 
L 188.79639 307.584 
z
" style="fill:#1f77b4;"/>
   </g>
   <g id="patch_97">
    <path clip-path="url(#p09167a428e)" d="M 190.204515 307.584 
L 191.612639 307.584 
L 191.612639 307.584 
L 190.204515 307.584 
z
" style="fill:#1f77b4;"/>
   </g>
   <g id="patch_98">
    <path clip-path="url(#p09167a428e)" d="M 191.612639 307.584 
L 193.020764 307.584 
L 193.020764 307.584 
L 191.612639 307.584 
z
" style="fill:#1f77b4;"/>
   </g>
   <g id="patch_99">
    <path clip-path="url(#p09167a428e)" d="M 193.020764 307.584 
L 194.428889 307.584 
L 194.428889 307.584 
L 193.020764 307.584 
z
" style="fill:#1f77b4;"/>
   </g>
   <g id="patch_100">
    <path clip-path="url(#p09167a428e)" d="M 194.428889 307.584 
L 195.837014 307.584 
L 195.837014 307.584 
L 194.428889 307.584 
z
" style="fill:#1f77b4;"/>
   </g>
   <g id="patch_101">
    <path clip-path="url(#p09167a428e)" d="M 195.837014 307.584 
L 197.245138 307.584 
L 197.245138 307.584 
L 195.837014 307.584 
z
" style="fill:#1f77b4;"/>
   </g>
   <g id="patch_102">
    <path clip-path="url(#p09167a428e)" d="M 197.245138 307.584 
L 198.653263 307.584 
L 198.653263 305.604 
L 197.245138 305.604 
z
" style="fill:#1f77b4;"/>
   </g>
   <g id="matplotlib.axis_1">
    <g id="xtick_1">
     <g id="line2d_1">
      <defs>
       <path d="M 0 0 
L 0 3.5 
" id="md656af2428" style="stroke:#000000;stroke-width:0.8;"/>
      </defs>
      <g>
       <use style="stroke:#000000;stroke-width:0.8;" x="57.6" xlink:href="#md656af2428" y="307.584"/>
      </g>
     </g>
     <g id="text_1">
      <!-- 0 -->
      <g transform="translate(54.41875 322.182437)scale(0.1 -0.1)">
       <defs>
        <path d="M 2034 4250 
Q 1547 4250 1301 3770 
Q 1056 3291 1056 2328 
Q 1056 1369 1301 889 
Q 1547 409 2034 409 
Q 2525 409 2770 889 
Q 3016 1369 3016 2328 
Q 3016 3291 2770 3770 
Q 2525 4250 2034 4250 
z
M 2034 4750 
Q 2819 4750 3233 4129 
Q 3647 3509 3647 2328 
Q 3647 1150 3233 529 
Q 2819 -91 2034 -91 
Q 1250 -91 836 529 
Q 422 1150 422 2328 
Q 422 3509 836 4129 
Q 1250 4750 2034 4750 
z
" id="DejaVuSans-30" transform="scale(0.015625)"/>
       </defs>
       <use xlink:href="#DejaVuSans-30"/>
      </g>
     </g>
    </g>
    <g id="xtick_2">
     <g id="line2d_2">
      <g>
       <use style="stroke:#000000;stroke-width:0.8;" x="129.024" xlink:href="#md656af2428" y="307.584"/>
      </g>
     </g>
     <g id="text_2">
      <!-- 2 -->
      <g transform="translate(125.84275 322.182437)scale(0.1 -0.1)">
       <defs>
        <path d="M 1228 531 
L 3431 531 
L 3431 0 
L 469 0 
L 469 531 
Q 828 903 1448 1529 
Q 2069 2156 2228 2338 
Q 2531 2678 2651 2914 
Q 2772 3150 2772 3378 
Q 2772 3750 2511 3984 
Q 2250 4219 1831 4219 
Q 1534 4219 1204 4116 
Q 875 4013 500 3803 
L 500 4441 
Q 881 4594 1212 4672 
Q 1544 4750 1819 4750 
Q 2544 4750 2975 4387 
Q 3406 4025 3406 3419 
Q 3406 3131 3298 2873 
Q 3191 2616 2906 2266 
Q 2828 2175 2409 1742 
Q 1991 1309 1228 531 
z
" id="DejaVuSans-32" transform="scale(0.015625)"/>
       </defs>
       <use xlink:href="#DejaVuSans-32"/>
      </g>
     </g>
    </g>
    <g id="xtick_3">
     <g id="line2d_3">
      <g>
       <use style="stroke:#000000;stroke-width:0.8;" x="200.448" xlink:href="#md656af2428" y="307.584"/>
      </g>
     </g>
     <g id="text_3">
      <!-- 4 -->
      <g transform="translate(197.26675 322.182437)scale(0.1 -0.1)">
       <defs>
        <path d="M 2419 4116 
L 825 1625 
L 2419 1625 
L 2419 4116 
z
M 2253 4666 
L 3047 4666 
L 3047 1625 
L 3713 1625 
L 3713 1100 
L 3047 1100 
L 3047 0 
L 2419 0 
L 2419 1100 
L 313 1100 
L 313 1709 
L 2253 4666 
z
" id="DejaVuSans-34" transform="scale(0.015625)"/>
       </defs>
       <use xlink:href="#DejaVuSans-34"/>
      </g>
     </g>
    </g>
    <g id="xtick_4">
     <g id="line2d_4">
      <g>
       <use style="stroke:#000000;stroke-width:0.8;" x="271.872" xlink:href="#md656af2428" y="307.584"/>
      </g>
     </g>
     <g id="text_4">
      <!-- 6 -->
      <g transform="translate(268.69075 322.182437)scale(0.1 -0.1)">
       <defs>
        <path d="M 2113 2584 
Q 1688 2584 1439 2293 
Q 1191 2003 1191 1497 
Q 1191 994 1439 701 
Q 1688 409 2113 409 
Q 2538 409 2786 701 
Q 3034 994 3034 1497 
Q 3034 2003 2786 2293 
Q 2538 2584 2113 2584 
z
M 3366 4563 
L 3366 3988 
Q 3128 4100 2886 4159 
Q 2644 4219 2406 4219 
Q 1781 4219 1451 3797 
Q 1122 3375 1075 2522 
Q 1259 2794 1537 2939 
Q 1816 3084 2150 3084 
Q 2853 3084 3261 2657 
Q 3669 2231 3669 1497 
Q 3669 778 3244 343 
Q 2819 -91 2113 -91 
Q 1303 -91 875 529 
Q 447 1150 447 2328 
Q 447 3434 972 4092 
Q 1497 4750 2381 4750 
Q 2619 4750 2861 4703 
Q 3103 4656 3366 4563 
z
" id="DejaVuSans-36" transform="scale(0.015625)"/>
       </defs>
       <use xlink:href="#DejaVuSans-36"/>
      </g>
     </g>
    </g>
    <g id="xtick_5">
     <g id="line2d_5">
      <g>
       <use style="stroke:#000000;stroke-width:0.8;" x="343.296" xlink:href="#md656af2428" y="307.584"/>
      </g>
     </g>
     <g id="text_5">
      <!-- 8 -->
      <g transform="translate(340.11475 322.182437)scale(0.1 -0.1)">
       <defs>
        <path d="M 2034 2216 
Q 1584 2216 1326 1975 
Q 1069 1734 1069 1313 
Q 1069 891 1326 650 
Q 1584 409 2034 409 
Q 2484 409 2743 651 
Q 3003 894 3003 1313 
Q 3003 1734 2745 1975 
Q 2488 2216 2034 2216 
z
M 1403 2484 
Q 997 2584 770 2862 
Q 544 3141 544 3541 
Q 544 4100 942 4425 
Q 1341 4750 2034 4750 
Q 2731 4750 3128 4425 
Q 3525 4100 3525 3541 
Q 3525 3141 3298 2862 
Q 3072 2584 2669 2484 
Q 3125 2378 3379 2068 
Q 3634 1759 3634 1313 
Q 3634 634 3220 271 
Q 2806 -91 2034 -91 
Q 1263 -91 848 271 
Q 434 634 434 1313 
Q 434 1759 690 2068 
Q 947 2378 1403 2484 
z
M 1172 3481 
Q 1172 3119 1398 2916 
Q 1625 2713 2034 2713 
Q 2441 2713 2670 2916 
Q 2900 3119 2900 3481 
Q 2900 3844 2670 4047 
Q 2441 4250 2034 4250 
Q 1625 4250 1398 4047 
Q 1172 3844 1172 3481 
z
" id="DejaVuSans-38" transform="scale(0.015625)"/>
       </defs>
       <use xlink:href="#DejaVuSans-38"/>
      </g>
     </g>
    </g>
    <g id="xtick_6">
     <g id="line2d_6">
      <g>
       <use style="stroke:#000000;stroke-width:0.8;" x="414.72" xlink:href="#md656af2428" y="307.584"/>
      </g>
     </g>
     <g id="text_6">
      <!-- 10 -->
      <g transform="translate(408.3575 322.182437)scale(0.1 -0.1)">
       <defs>
        <path d="M 794 531 
L 1825 531 
L 1825 4091 
L 703 3866 
L 703 4441 
L 1819 4666 
L 2450 4666 
L 2450 531 
L 3481 531 
L 3481 0 
L 794 0 
L 794 531 
z
" id="DejaVuSans-31" transform="scale(0.015625)"/>
       </defs>
       <use xlink:href="#DejaVuSans-31"/>
       <use x="63.623047" xlink:href="#DejaVuSans-30"/>
      </g>
     </g>
    </g>
   </g>
   <g id="matplotlib.axis_2">
    <g id="ytick_1">
     <g id="line2d_7">
      <defs>
       <path d="M 0 0 
L -3.5 0 
" id="md8d0108ce6" style="stroke:#000000;stroke-width:0.8;"/>
      </defs>
      <g>
       <use style="stroke:#000000;stroke-width:0.8;" x="57.6" xlink:href="#md8d0108ce6" y="307.584"/>
      </g>
     </g>
     <g id="text_7">
      <!-- 0.0 -->
      <g transform="translate(34.696875 311.383219)scale(0.1 -0.1)">
       <defs>
        <path d="M 684 794 
L 1344 794 
L 1344 0 
L 684 0 
L 684 794 
z
" id="DejaVuSans-2e" transform="scale(0.015625)"/>
       </defs>
       <use xlink:href="#DejaVuSans-30"/>
       <use x="63.623047" xlink:href="#DejaVuSans-2e"/>
       <use x="95.410156" xlink:href="#DejaVuSans-30"/>
      </g>
     </g>
    </g>
    <g id="ytick_2">
     <g id="line2d_8">
      <g>
       <use style="stroke:#000000;stroke-width:0.8;" x="57.6" xlink:href="#md8d0108ce6" y="268.548285"/>
      </g>
     </g>
     <g id="text_8">
      <!-- 0.5 -->
      <g transform="translate(34.696875 272.347503)scale(0.1 -0.1)">
       <defs>
        <path d="M 691 4666 
L 3169 4666 
L 3169 4134 
L 1269 4134 
L 1269 2991 
Q 1406 3038 1543 3061 
Q 1681 3084 1819 3084 
Q 2600 3084 3056 2656 
Q 3513 2228 3513 1497 
Q 3513 744 3044 326 
Q 2575 -91 1722 -91 
Q 1428 -91 1123 -41 
Q 819 9 494 109 
L 494 744 
Q 775 591 1075 516 
Q 1375 441 1709 441 
Q 2250 441 2565 725 
Q 2881 1009 2881 1497 
Q 2881 1984 2565 2268 
Q 2250 2553 1709 2553 
Q 1456 2553 1204 2497 
Q 953 2441 691 2322 
L 691 4666 
z
" id="DejaVuSans-35" transform="scale(0.015625)"/>
       </defs>
       <use xlink:href="#DejaVuSans-30"/>
       <use x="63.623047" xlink:href="#DejaVuSans-2e"/>
       <use x="95.410156" xlink:href="#DejaVuSans-35"/>
      </g>
     </g>
    </g>
    <g id="ytick_3">
     <g id="line2d_9">
      <g>
       <use style="stroke:#000000;stroke-width:0.8;" x="57.6" xlink:href="#md8d0108ce6" y="229.512569"/>
      </g>
     </g>
     <g id="text_9">
      <!-- 1.0 -->
      <g transform="translate(34.696875 233.311788)scale(0.1 -0.1)">
       <use xlink:href="#DejaVuSans-31"/>
       <use x="63.623047" xlink:href="#DejaVuSans-2e"/>
       <use x="95.410156" xlink:href="#DejaVuSans-30"/>
      </g>
     </g>
    </g>
    <g id="ytick_4">
     <g id="line2d_10">
      <g>
       <use style="stroke:#000000;stroke-width:0.8;" x="57.6" xlink:href="#md8d0108ce6" y="190.476854"/>
      </g>
     </g>
     <g id="text_10">
      <!-- 1.5 -->
      <g transform="translate(34.696875 194.276073)scale(0.1 -0.1)">
       <use xlink:href="#DejaVuSans-31"/>
       <use x="63.623047" xlink:href="#DejaVuSans-2e"/>
       <use x="95.410156" xlink:href="#DejaVuSans-35"/>
      </g>
     </g>
    </g>
    <g id="ytick_5">
     <g id="line2d_11">
      <g>
       <use style="stroke:#000000;stroke-width:0.8;" x="57.6" xlink:href="#md8d0108ce6" y="151.441139"/>
      </g>
     </g>
     <g id="text_11">
      <!-- 2.0 -->
      <g transform="translate(34.696875 155.240358)scale(0.1 -0.1)">
       <use xlink:href="#DejaVuSans-32"/>
       <use x="63.623047" xlink:href="#DejaVuSans-2e"/>
       <use x="95.410156" xlink:href="#DejaVuSans-30"/>
      </g>
     </g>
    </g>
    <g id="ytick_6">
     <g id="line2d_12">
      <g>
       <use style="stroke:#000000;stroke-width:0.8;" x="57.6" xlink:href="#md8d0108ce6" y="112.405424"/>
      </g>
     </g>
     <g id="text_12">
      <!-- 2.5 -->
      <g transform="translate(34.696875 116.204642)scale(0.1 -0.1)">
       <use xlink:href="#DejaVuSans-32"/>
       <use x="63.623047" xlink:href="#DejaVuSans-2e"/>
       <use x="95.410156" xlink:href="#DejaVuSans-35"/>
      </g>
     </g>
    </g>
    <g id="ytick_7">
     <g id="line2d_13">
      <g>
       <use style="stroke:#000000;stroke-width:0.8;" x="57.6" xlink:href="#md8d0108ce6" y="73.369708"/>
      </g>
     </g>
     <g id="text_13">
      <!-- 3.0 -->
      <g transform="translate(34.696875 77.168927)scale(0.1 -0.1)">
       <defs>
        <path d="M 2597 2516 
Q 3050 2419 3304 2112 
Q 3559 1806 3559 1356 
Q 3559 666 3084 287 
Q 2609 -91 1734 -91 
Q 1441 -91 1130 -33 
Q 819 25 488 141 
L 488 750 
Q 750 597 1062 519 
Q 1375 441 1716 441 
Q 2309 441 2620 675 
Q 2931 909 2931 1356 
Q 2931 1769 2642 2001 
Q 2353 2234 1838 2234 
L 1294 2234 
L 1294 2753 
L 1863 2753 
Q 2328 2753 2575 2939 
Q 2822 3125 2822 3475 
Q 2822 3834 2567 4026 
Q 2313 4219 1838 4219 
Q 1578 4219 1281 4162 
Q 984 4106 628 3988 
L 628 4550 
Q 988 4650 1302 4700 
Q 1616 4750 1894 4750 
Q 2613 4750 3031 4423 
Q 3450 4097 3450 3541 
Q 3450 3153 3228 2886 
Q 3006 2619 2597 2516 
z
" id="DejaVuSans-33" transform="scale(0.015625)"/>
       </defs>
       <use xlink:href="#DejaVuSans-33"/>
       <use x="63.623047" xlink:href="#DejaVuSans-2e"/>
       <use x="95.410156" xlink:href="#DejaVuSans-30"/>
      </g>
     </g>
    </g>
   </g>
   <g id="line2d_14">
    <path clip-path="url(#p09167a428e)" d="M 57.95712 307.032157 
L 58.31424 302.969203 
L 59.02848 285.296211 
L 60.45696 245.417182 
L 61.1712 230.627973 
L 61.88544 219.75691 
L 62.59968 212.243363 
L 63.31392 207.439394 
L 64.02816 204.755242 
L 64.38528 204.050194 
L 64.7424 203.698104 
L 65.09952 203.652441 
L 65.45664 203.871935 
L 65.81376 204.32009 
L 66.528 205.777376 
L 67.24224 207.810104 
L 68.3136 211.586636 
L 70.0992 218.906032 
L 74.74176 238.336052 
L 76.88448 246.252894 
L 79.0272 253.298708 
L 81.16992 259.500783 
L 83.31264 264.93034 
L 85.45536 269.672677 
L 87.59808 273.813123 
L 89.7408 277.430843 
L 91.88352 280.596539 
L 94.02624 283.372048 
L 96.16896 285.810816 
L 98.6688 288.291292 
L 101.16864 290.437234 
L 103.66848 292.299936 
L 106.52544 294.136364 
L 109.3824 295.710943 
L 112.59648 297.222362 
L 116.16768 298.636006 
L 120.096 299.929216 
L 124.38144 301.089956 
L 129.024 302.114891 
L 134.3808 303.063981 
L 140.45184 303.909177 
L 147.59424 304.671364 
L 156.16512 305.348844 
L 166.5216 305.930899 
L 179.37792 306.419478 
L 196.16256 306.82131 
L 219.37536 307.136328 
L 254.016 307.363045 
L 314.36928 307.506356 
L 414.36288 307.564774 
L 414.36288 307.564774 
" style="fill:none;stroke:#ff7f0e;stroke-linecap:square;stroke-width:1.5;"/>
   </g>
   <g id="patch_103">
    <path d="M 57.6 307.584 
L 57.6 41.472 
" style="fill:none;stroke:#000000;stroke-linecap:square;stroke-linejoin:miter;stroke-width:0.8;"/>
   </g>
   <g id="patch_104">
    <path d="M 414.72 307.584 
L 414.72 41.472 
" style="fill:none;stroke:#000000;stroke-linecap:square;stroke-linejoin:miter;stroke-width:0.8;"/>
   </g>
   <g id="patch_105">
    <path d="M 57.6 307.584 
L 414.72 307.584 
" style="fill:none;stroke:#000000;stroke-linecap:square;stroke-linejoin:miter;stroke-width:0.8;"/>
   </g>
   <g id="patch_106">
    <path d="M 57.6 41.472 
L 414.72 41.472 
" style="fill:none;stroke:#000000;stroke-linecap:square;stroke-linejoin:miter;stroke-width:0.8;"/>
   </g>
  </g>
 </g>
 <defs>
  <clipPath id="p09167a428e">
   <rect height="266.112" width="357.12" x="57.6" y="41.472"/>
  </clipPath>
 </defs>
</svg>
