<?xml version="1.0" encoding="utf-8" standalone="no"?>
<!DOCTYPE svg PUBLIC "-//W3C//DTD SVG 1.1//EN"
  "http://www.w3.org/Graphics/SVG/1.1/DTD/svg11.dtd">
<!-- Created with matplotlib (https://matplotlib.org/) -->
<svg height="345.6pt" version="1.1" viewBox="0 0 460.8 345.6" width="460.8pt" xmlns="http://www.w3.org/2000/svg" xmlns:xlink="http://www.w3.org/1999/xlink">
 <defs>
  <style type="text/css">
*{stroke-linecap:butt;stroke-linejoin:round;}
  </style>
 </defs>
 <g id="figure_1">
  <g id="patch_1">
   <path d="M 0 345.6 
L 460.8 345.6 
L 460.8 0 
L 0 0 
z
" style="fill:#ffffff;"/>
  </g>
  <g id="axes_1">
   <g id="patch_2">
    <path d="M 57.6 162.432 
L 414.72 162.432 
L 414.72 41.472 
L 57.6 41.472 
z
" style="fill:#ffffff;"/>
   </g>
   <g id="patch_3">
    <path clip-path="url(#p822d7a83a2)" d="M 58.407903 162.432 
L 61.541547 162.432 
L 61.541547 102.789447 
L 58.407903 102.789447 
z
" style="fill:#1f77b4;"/>
   </g>
   <g id="patch_4">
    <path clip-path="url(#p822d7a83a2)" d="M 61.541547 162.432 
L 64.675191 162.432 
L 64.675191 57.036255 
L 61.541547 57.036255 
z
" style="fill:#1f77b4;"/>
   </g>
   <g id="patch_5">
    <path clip-path="url(#p822d7a83a2)" d="M 64.675191 162.432 
L 67.808835 162.432 
L 67.808835 47.232 
L 64.675191 47.232 
z
" style="fill:#1f77b4;"/>
   </g>
   <g id="patch_6">
    <path clip-path="url(#p822d7a83a2)" d="M 67.808835 162.432 
L 70.942479 162.432 
L 70.942479 71.742638 
L 67.808835 71.742638 
z
" style="fill:#1f77b4;"/>
   </g>
   <g id="patch_7">
    <path clip-path="url(#p822d7a83a2)" d="M 70.942479 162.432 
L 74.076123 162.432 
L 74.076123 92.985191 
L 70.942479 92.985191 
z
" style="fill:#1f77b4;"/>
   </g>
   <g id="patch_8">
    <path clip-path="url(#p822d7a83a2)" d="M 74.076123 162.432 
L 77.209767 162.432 
L 77.209767 106.874553 
L 74.076123 106.874553 
z
" style="fill:#1f77b4;"/>
   </g>
   <g id="patch_9">
    <path clip-path="url(#p822d7a83a2)" d="M 77.209767 162.432 
L 80.343411 162.432 
L 80.343411 113.410723 
L 77.209767 113.410723 
z
" style="fill:#1f77b4;"/>
   </g>
   <g id="patch_10">
    <path clip-path="url(#p822d7a83a2)" d="M 80.343411 162.432 
L 83.477055 162.432 
L 83.477055 128.934128 
L 80.343411 128.934128 
z
" style="fill:#1f77b4;"/>
   </g>
   <g id="patch_11">
    <path clip-path="url(#p822d7a83a2)" d="M 83.477055 162.432 
L 86.610699 162.432 
L 86.610699 130.56817 
L 83.477055 130.56817 
z
" style="fill:#1f77b4;"/>
   </g>
   <g id="patch_12">
    <path clip-path="url(#p822d7a83a2)" d="M 86.610699 162.432 
L 89.744343 162.432 
L 89.744343 133.836255 
L 86.610699 133.836255 
z
" style="fill:#1f77b4;"/>
   </g>
   <g id="patch_13">
    <path clip-path="url(#p822d7a83a2)" d="M 89.744343 162.432 
L 92.877987 162.432 
L 92.877987 137.10434 
L 89.744343 137.10434 
z
" style="fill:#1f77b4;"/>
   </g>
   <g id="patch_14">
    <path clip-path="url(#p822d7a83a2)" d="M 92.877987 162.432 
L 96.011631 162.432 
L 96.011631 140.372426 
L 92.877987 140.372426 
z
" style="fill:#1f77b4;"/>
   </g>
   <g id="patch_15">
    <path clip-path="url(#p822d7a83a2)" d="M 96.011631 162.432 
L 99.145275 162.432 
L 99.145275 146.908596 
L 96.011631 146.908596 
z
" style="fill:#1f77b4;"/>
   </g>
   <g id="patch_16">
    <path clip-path="url(#p822d7a83a2)" d="M 99.145275 162.432 
L 102.278919 162.432 
L 102.278919 150.993702 
L 99.145275 150.993702 
z
" style="fill:#1f77b4;"/>
   </g>
   <g id="patch_17">
    <path clip-path="url(#p822d7a83a2)" d="M 102.278919 162.432 
L 105.412563 162.432 
L 105.412563 154.261787 
L 102.278919 154.261787 
z
" style="fill:#1f77b4;"/>
   </g>
   <g id="patch_18">
    <path clip-path="url(#p822d7a83a2)" d="M 105.412563 162.432 
L 108.546207 162.432 
L 108.546207 143.640511 
L 105.412563 143.640511 
z
" style="fill:#1f77b4;"/>
   </g>
   <g id="patch_19">
    <path clip-path="url(#p822d7a83a2)" d="M 108.546207 162.432 
L 111.679851 162.432 
L 111.679851 155.078809 
L 108.546207 155.078809 
z
" style="fill:#1f77b4;"/>
   </g>
   <g id="patch_20">
    <path clip-path="url(#p822d7a83a2)" d="M 111.679851 162.432 
L 114.813496 162.432 
L 114.813496 154.261787 
L 111.679851 154.261787 
z
" style="fill:#1f77b4;"/>
   </g>
   <g id="patch_21">
    <path clip-path="url(#p822d7a83a2)" d="M 114.813496 162.432 
L 117.94714 162.432 
L 117.94714 151.810723 
L 114.813496 151.810723 
z
" style="fill:#1f77b4;"/>
   </g>
   <g id="patch_22">
    <path clip-path="url(#p822d7a83a2)" d="M 117.94714 162.432 
L 121.080784 162.432 
L 121.080784 155.078809 
L 117.94714 155.078809 
z
" style="fill:#1f77b4;"/>
   </g>
   <g id="patch_23">
    <path clip-path="url(#p822d7a83a2)" d="M 121.080784 162.432 
L 124.214428 162.432 
L 124.214428 159.163915 
L 121.080784 159.163915 
z
" style="fill:#1f77b4;"/>
   </g>
   <g id="patch_24">
    <path clip-path="url(#p822d7a83a2)" d="M 124.214428 162.432 
L 127.348072 162.432 
L 127.348072 157.529872 
L 124.214428 157.529872 
z
" style="fill:#1f77b4;"/>
   </g>
   <g id="patch_25">
    <path clip-path="url(#p822d7a83a2)" d="M 127.348072 162.432 
L 130.481716 162.432 
L 130.481716 158.346894 
L 127.348072 158.346894 
z
" style="fill:#1f77b4;"/>
   </g>
   <g id="patch_26">
    <path clip-path="url(#p822d7a83a2)" d="M 130.481716 162.432 
L 133.61536 162.432 
L 133.61536 160.797957 
L 130.481716 160.797957 
z
" style="fill:#1f77b4;"/>
   </g>
   <g id="patch_27">
    <path clip-path="url(#p822d7a83a2)" d="M 133.61536 162.432 
L 136.749004 162.432 
L 136.749004 158.346894 
L 133.61536 158.346894 
z
" style="fill:#1f77b4;"/>
   </g>
   <g id="patch_28">
    <path clip-path="url(#p822d7a83a2)" d="M 136.749004 162.432 
L 139.882648 162.432 
L 139.882648 160.797957 
L 136.749004 160.797957 
z
" style="fill:#1f77b4;"/>
   </g>
   <g id="patch_29">
    <path clip-path="url(#p822d7a83a2)" d="M 139.882648 162.432 
L 143.016292 162.432 
L 143.016292 160.797957 
L 139.882648 160.797957 
z
" style="fill:#1f77b4;"/>
   </g>
   <g id="patch_30">
    <path clip-path="url(#p822d7a83a2)" d="M 143.016292 162.432 
L 146.149936 162.432 
L 146.149936 161.614979 
L 143.016292 161.614979 
z
" style="fill:#1f77b4;"/>
   </g>
   <g id="patch_31">
    <path clip-path="url(#p822d7a83a2)" d="M 146.149936 162.432 
L 149.28358 162.432 
L 149.28358 160.797957 
L 146.149936 160.797957 
z
" style="fill:#1f77b4;"/>
   </g>
   <g id="patch_32">
    <path clip-path="url(#p822d7a83a2)" d="M 149.28358 162.432 
L 152.417224 162.432 
L 152.417224 161.614979 
L 149.28358 161.614979 
z
" style="fill:#1f77b4;"/>
   </g>
   <g id="patch_33">
    <path clip-path="url(#p822d7a83a2)" d="M 152.417224 162.432 
L 155.550868 162.432 
L 155.550868 161.614979 
L 152.417224 161.614979 
z
" style="fill:#1f77b4;"/>
   </g>
   <g id="patch_34">
    <path clip-path="url(#p822d7a83a2)" d="M 155.550868 162.432 
L 158.684512 162.432 
L 158.684512 159.980936 
L 155.550868 159.980936 
z
" style="fill:#1f77b4;"/>
   </g>
   <g id="patch_35">
    <path clip-path="url(#p822d7a83a2)" d="M 158.684512 162.432 
L 161.818156 162.432 
L 161.818156 162.432 
L 158.684512 162.432 
z
" style="fill:#1f77b4;"/>
   </g>
   <g id="patch_36">
    <path clip-path="url(#p822d7a83a2)" d="M 161.818156 162.432 
L 164.9518 162.432 
L 164.9518 160.797957 
L 161.818156 160.797957 
z
" style="fill:#1f77b4;"/>
   </g>
   <g id="patch_37">
    <path clip-path="url(#p822d7a83a2)" d="M 164.9518 162.432 
L 168.085444 162.432 
L 168.085444 161.614979 
L 164.9518 161.614979 
z
" style="fill:#1f77b4;"/>
   </g>
   <g id="patch_38">
    <path clip-path="url(#p822d7a83a2)" d="M 168.085444 162.432 
L 171.219088 162.432 
L 171.219088 162.432 
L 168.085444 162.432 
z
" style="fill:#1f77b4;"/>
   </g>
   <g id="patch_39">
    <path clip-path="url(#p822d7a83a2)" d="M 171.219088 162.432 
L 174.352732 162.432 
L 174.352732 160.797957 
L 171.219088 160.797957 
z
" style="fill:#1f77b4;"/>
   </g>
   <g id="patch_40">
    <path clip-path="url(#p822d7a83a2)" d="M 174.352732 162.432 
L 177.486376 162.432 
L 177.486376 161.614979 
L 174.352732 161.614979 
z
" style="fill:#1f77b4;"/>
   </g>
   <g id="patch_41">
    <path clip-path="url(#p822d7a83a2)" d="M 177.486376 162.432 
L 180.62002 162.432 
L 180.62002 162.432 
L 177.486376 162.432 
z
" style="fill:#1f77b4;"/>
   </g>
   <g id="patch_42">
    <path clip-path="url(#p822d7a83a2)" d="M 180.62002 162.432 
L 183.753664 162.432 
L 183.753664 162.432 
L 180.62002 162.432 
z
" style="fill:#1f77b4;"/>
   </g>
   <g id="patch_43">
    <path clip-path="url(#p822d7a83a2)" d="M 183.753664 162.432 
L 186.887308 162.432 
L 186.887308 162.432 
L 183.753664 162.432 
z
" style="fill:#1f77b4;"/>
   </g>
   <g id="patch_44">
    <path clip-path="url(#p822d7a83a2)" d="M 186.887308 162.432 
L 190.020952 162.432 
L 190.020952 162.432 
L 186.887308 162.432 
z
" style="fill:#1f77b4;"/>
   </g>
   <g id="patch_45">
    <path clip-path="url(#p822d7a83a2)" d="M 190.020952 162.432 
L 193.154596 162.432 
L 193.154596 160.797957 
L 190.020952 160.797957 
z
" style="fill:#1f77b4;"/>
   </g>
   <g id="patch_46">
    <path clip-path="url(#p822d7a83a2)" d="M 193.154596 162.432 
L 196.28824 162.432 
L 196.28824 162.432 
L 193.154596 162.432 
z
" style="fill:#1f77b4;"/>
   </g>
   <g id="patch_47">
    <path clip-path="url(#p822d7a83a2)" d="M 196.28824 162.432 
L 199.421884 162.432 
L 199.421884 161.614979 
L 196.28824 161.614979 
z
" style="fill:#1f77b4;"/>
   </g>
   <g id="patch_48">
    <path clip-path="url(#p822d7a83a2)" d="M 199.421884 162.432 
L 202.555529 162.432 
L 202.555529 162.432 
L 199.421884 162.432 
z
" style="fill:#1f77b4;"/>
   </g>
   <g id="patch_49">
    <path clip-path="url(#p822d7a83a2)" d="M 202.555529 162.432 
L 205.689173 162.432 
L 205.689173 162.432 
L 202.555529 162.432 
z
" style="fill:#1f77b4;"/>
   </g>
   <g id="patch_50">
    <path clip-path="url(#p822d7a83a2)" d="M 205.689173 162.432 
L 208.822817 162.432 
L 208.822817 161.614979 
L 205.689173 161.614979 
z
" style="fill:#1f77b4;"/>
   </g>
   <g id="patch_51">
    <path clip-path="url(#p822d7a83a2)" d="M 208.822817 162.432 
L 211.956461 162.432 
L 211.956461 160.797957 
L 208.822817 160.797957 
z
" style="fill:#1f77b4;"/>
   </g>
   <g id="patch_52">
    <path clip-path="url(#p822d7a83a2)" d="M 211.956461 162.432 
L 215.090105 162.432 
L 215.090105 162.432 
L 211.956461 162.432 
z
" style="fill:#1f77b4;"/>
   </g>
   <g id="patch_53">
    <path clip-path="url(#p822d7a83a2)" d="M 215.090105 162.432 
L 218.223749 162.432 
L 218.223749 161.614979 
L 215.090105 161.614979 
z
" style="fill:#1f77b4;"/>
   </g>
   <g id="patch_54">
    <path clip-path="url(#p822d7a83a2)" d="M 218.223749 162.432 
L 221.357393 162.432 
L 221.357393 162.432 
L 218.223749 162.432 
z
" style="fill:#1f77b4;"/>
   </g>
   <g id="patch_55">
    <path clip-path="url(#p822d7a83a2)" d="M 221.357393 162.432 
L 224.491037 162.432 
L 224.491037 161.614979 
L 221.357393 161.614979 
z
" style="fill:#1f77b4;"/>
   </g>
   <g id="patch_56">
    <path clip-path="url(#p822d7a83a2)" d="M 224.491037 162.432 
L 227.624681 162.432 
L 227.624681 162.432 
L 224.491037 162.432 
z
" style="fill:#1f77b4;"/>
   </g>
   <g id="patch_57">
    <path clip-path="url(#p822d7a83a2)" d="M 227.624681 162.432 
L 230.758325 162.432 
L 230.758325 162.432 
L 227.624681 162.432 
z
" style="fill:#1f77b4;"/>
   </g>
   <g id="patch_58">
    <path clip-path="url(#p822d7a83a2)" d="M 230.758325 162.432 
L 233.891969 162.432 
L 233.891969 162.432 
L 230.758325 162.432 
z
" style="fill:#1f77b4;"/>
   </g>
   <g id="patch_59">
    <path clip-path="url(#p822d7a83a2)" d="M 233.891969 162.432 
L 237.025613 162.432 
L 237.025613 162.432 
L 233.891969 162.432 
z
" style="fill:#1f77b4;"/>
   </g>
   <g id="patch_60">
    <path clip-path="url(#p822d7a83a2)" d="M 237.025613 162.432 
L 240.159257 162.432 
L 240.159257 162.432 
L 237.025613 162.432 
z
" style="fill:#1f77b4;"/>
   </g>
   <g id="patch_61">
    <path clip-path="url(#p822d7a83a2)" d="M 240.159257 162.432 
L 243.292901 162.432 
L 243.292901 162.432 
L 240.159257 162.432 
z
" style="fill:#1f77b4;"/>
   </g>
   <g id="patch_62">
    <path clip-path="url(#p822d7a83a2)" d="M 243.292901 162.432 
L 246.426545 162.432 
L 246.426545 162.432 
L 243.292901 162.432 
z
" style="fill:#1f77b4;"/>
   </g>
   <g id="patch_63">
    <path clip-path="url(#p822d7a83a2)" d="M 246.426545 162.432 
L 249.560189 162.432 
L 249.560189 162.432 
L 246.426545 162.432 
z
" style="fill:#1f77b4;"/>
   </g>
   <g id="patch_64">
    <path clip-path="url(#p822d7a83a2)" d="M 249.560189 162.432 
L 252.693833 162.432 
L 252.693833 162.432 
L 249.560189 162.432 
z
" style="fill:#1f77b4;"/>
   </g>
   <g id="patch_65">
    <path clip-path="url(#p822d7a83a2)" d="M 252.693833 162.432 
L 255.827477 162.432 
L 255.827477 162.432 
L 252.693833 162.432 
z
" style="fill:#1f77b4;"/>
   </g>
   <g id="patch_66">
    <path clip-path="url(#p822d7a83a2)" d="M 255.827477 162.432 
L 258.961121 162.432 
L 258.961121 162.432 
L 255.827477 162.432 
z
" style="fill:#1f77b4;"/>
   </g>
   <g id="patch_67">
    <path clip-path="url(#p822d7a83a2)" d="M 258.961121 162.432 
L 262.094765 162.432 
L 262.094765 162.432 
L 258.961121 162.432 
z
" style="fill:#1f77b4;"/>
   </g>
   <g id="patch_68">
    <path clip-path="url(#p822d7a83a2)" d="M 262.094765 162.432 
L 265.228409 162.432 
L 265.228409 162.432 
L 262.094765 162.432 
z
" style="fill:#1f77b4;"/>
   </g>
   <g id="patch_69">
    <path clip-path="url(#p822d7a83a2)" d="M 265.228409 162.432 
L 268.362053 162.432 
L 268.362053 162.432 
L 265.228409 162.432 
z
" style="fill:#1f77b4;"/>
   </g>
   <g id="patch_70">
    <path clip-path="url(#p822d7a83a2)" d="M 268.362053 162.432 
L 271.495697 162.432 
L 271.495697 161.614979 
L 268.362053 161.614979 
z
" style="fill:#1f77b4;"/>
   </g>
   <g id="patch_71">
    <path clip-path="url(#p822d7a83a2)" d="M 271.495697 162.432 
L 274.629341 162.432 
L 274.629341 162.432 
L 271.495697 162.432 
z
" style="fill:#1f77b4;"/>
   </g>
   <g id="patch_72">
    <path clip-path="url(#p822d7a83a2)" d="M 274.629341 162.432 
L 277.762985 162.432 
L 277.762985 162.432 
L 274.629341 162.432 
z
" style="fill:#1f77b4;"/>
   </g>
   <g id="patch_73">
    <path clip-path="url(#p822d7a83a2)" d="M 277.762985 162.432 
L 280.896629 162.432 
L 280.896629 162.432 
L 277.762985 162.432 
z
" style="fill:#1f77b4;"/>
   </g>
   <g id="patch_74">
    <path clip-path="url(#p822d7a83a2)" d="M 280.896629 162.432 
L 284.030273 162.432 
L 284.030273 162.432 
L 280.896629 162.432 
z
" style="fill:#1f77b4;"/>
   </g>
   <g id="patch_75">
    <path clip-path="url(#p822d7a83a2)" d="M 284.030273 162.432 
L 287.163917 162.432 
L 287.163917 162.432 
L 284.030273 162.432 
z
" style="fill:#1f77b4;"/>
   </g>
   <g id="patch_76">
    <path clip-path="url(#p822d7a83a2)" d="M 287.163917 162.432 
L 290.297561 162.432 
L 290.297561 162.432 
L 287.163917 162.432 
z
" style="fill:#1f77b4;"/>
   </g>
   <g id="patch_77">
    <path clip-path="url(#p822d7a83a2)" d="M 290.297561 162.432 
L 293.431206 162.432 
L 293.431206 162.432 
L 290.297561 162.432 
z
" style="fill:#1f77b4;"/>
   </g>
   <g id="patch_78">
    <path clip-path="url(#p822d7a83a2)" d="M 293.431206 162.432 
L 296.56485 162.432 
L 296.56485 162.432 
L 293.431206 162.432 
z
" style="fill:#1f77b4;"/>
   </g>
   <g id="patch_79">
    <path clip-path="url(#p822d7a83a2)" d="M 296.56485 162.432 
L 299.698494 162.432 
L 299.698494 162.432 
L 296.56485 162.432 
z
" style="fill:#1f77b4;"/>
   </g>
   <g id="patch_80">
    <path clip-path="url(#p822d7a83a2)" d="M 299.698494 162.432 
L 302.832138 162.432 
L 302.832138 162.432 
L 299.698494 162.432 
z
" style="fill:#1f77b4;"/>
   </g>
   <g id="patch_81">
    <path clip-path="url(#p822d7a83a2)" d="M 302.832138 162.432 
L 305.965782 162.432 
L 305.965782 162.432 
L 302.832138 162.432 
z
" style="fill:#1f77b4;"/>
   </g>
   <g id="patch_82">
    <path clip-path="url(#p822d7a83a2)" d="M 305.965782 162.432 
L 309.099426 162.432 
L 309.099426 162.432 
L 305.965782 162.432 
z
" style="fill:#1f77b4;"/>
   </g>
   <g id="patch_83">
    <path clip-path="url(#p822d7a83a2)" d="M 309.099426 162.432 
L 312.23307 162.432 
L 312.23307 162.432 
L 309.099426 162.432 
z
" style="fill:#1f77b4;"/>
   </g>
   <g id="patch_84">
    <path clip-path="url(#p822d7a83a2)" d="M 312.23307 162.432 
L 315.366714 162.432 
L 315.366714 162.432 
L 312.23307 162.432 
z
" style="fill:#1f77b4;"/>
   </g>
   <g id="patch_85">
    <path clip-path="url(#p822d7a83a2)" d="M 315.366714 162.432 
L 318.500358 162.432 
L 318.500358 162.432 
L 315.366714 162.432 
z
" style="fill:#1f77b4;"/>
   </g>
   <g id="patch_86">
    <path clip-path="url(#p822d7a83a2)" d="M 318.500358 162.432 
L 321.634002 162.432 
L 321.634002 162.432 
L 318.500358 162.432 
z
" style="fill:#1f77b4;"/>
   </g>
   <g id="patch_87">
    <path clip-path="url(#p822d7a83a2)" d="M 321.634002 162.432 
L 324.767646 162.432 
L 324.767646 162.432 
L 321.634002 162.432 
z
" style="fill:#1f77b4;"/>
   </g>
   <g id="patch_88">
    <path clip-path="url(#p822d7a83a2)" d="M 324.767646 162.432 
L 327.90129 162.432 
L 327.90129 162.432 
L 324.767646 162.432 
z
" style="fill:#1f77b4;"/>
   </g>
   <g id="patch_89">
    <path clip-path="url(#p822d7a83a2)" d="M 327.90129 162.432 
L 331.034934 162.432 
L 331.034934 162.432 
L 327.90129 162.432 
z
" style="fill:#1f77b4;"/>
   </g>
   <g id="patch_90">
    <path clip-path="url(#p822d7a83a2)" d="M 331.034934 162.432 
L 334.168578 162.432 
L 334.168578 162.432 
L 331.034934 162.432 
z
" style="fill:#1f77b4;"/>
   </g>
   <g id="patch_91">
    <path clip-path="url(#p822d7a83a2)" d="M 334.168578 162.432 
L 337.302222 162.432 
L 337.302222 162.432 
L 334.168578 162.432 
z
" style="fill:#1f77b4;"/>
   </g>
   <g id="patch_92">
    <path clip-path="url(#p822d7a83a2)" d="M 337.302222 162.432 
L 340.435866 162.432 
L 340.435866 162.432 
L 337.302222 162.432 
z
" style="fill:#1f77b4;"/>
   </g>
   <g id="patch_93">
    <path clip-path="url(#p822d7a83a2)" d="M 340.435866 162.432 
L 343.56951 162.432 
L 343.56951 162.432 
L 340.435866 162.432 
z
" style="fill:#1f77b4;"/>
   </g>
   <g id="patch_94">
    <path clip-path="url(#p822d7a83a2)" d="M 343.56951 162.432 
L 346.703154 162.432 
L 346.703154 162.432 
L 343.56951 162.432 
z
" style="fill:#1f77b4;"/>
   </g>
   <g id="patch_95">
    <path clip-path="url(#p822d7a83a2)" d="M 346.703154 162.432 
L 349.836798 162.432 
L 349.836798 162.432 
L 346.703154 162.432 
z
" style="fill:#1f77b4;"/>
   </g>
   <g id="patch_96">
    <path clip-path="url(#p822d7a83a2)" d="M 349.836798 162.432 
L 352.970442 162.432 
L 352.970442 162.432 
L 349.836798 162.432 
z
" style="fill:#1f77b4;"/>
   </g>
   <g id="patch_97">
    <path clip-path="url(#p822d7a83a2)" d="M 352.970442 162.432 
L 356.104086 162.432 
L 356.104086 162.432 
L 352.970442 162.432 
z
" style="fill:#1f77b4;"/>
   </g>
   <g id="patch_98">
    <path clip-path="url(#p822d7a83a2)" d="M 356.104086 162.432 
L 359.23773 162.432 
L 359.23773 161.614979 
L 356.104086 161.614979 
z
" style="fill:#1f77b4;"/>
   </g>
   <g id="patch_99">
    <path clip-path="url(#p822d7a83a2)" d="M 359.23773 162.432 
L 362.371374 162.432 
L 362.371374 162.432 
L 359.23773 162.432 
z
" style="fill:#1f77b4;"/>
   </g>
   <g id="patch_100">
    <path clip-path="url(#p822d7a83a2)" d="M 362.371374 162.432 
L 365.505018 162.432 
L 365.505018 162.432 
L 362.371374 162.432 
z
" style="fill:#1f77b4;"/>
   </g>
   <g id="patch_101">
    <path clip-path="url(#p822d7a83a2)" d="M 365.505018 162.432 
L 368.638662 162.432 
L 368.638662 162.432 
L 365.505018 162.432 
z
" style="fill:#1f77b4;"/>
   </g>
   <g id="patch_102">
    <path clip-path="url(#p822d7a83a2)" d="M 368.638662 162.432 
L 371.772306 162.432 
L 371.772306 161.614979 
L 368.638662 161.614979 
z
" style="fill:#1f77b4;"/>
   </g>
   <g id="matplotlib.axis_1">
    <g id="xtick_1">
     <g id="line2d_1">
      <defs>
       <path d="M 0 0 
L 0 3.5 
" id="m8e9286678a" style="stroke:#000000;stroke-width:0.8;"/>
      </defs>
      <g>
       <use style="stroke:#000000;stroke-width:0.8;" x="57.6" xlink:href="#m8e9286678a" y="162.432"/>
      </g>
     </g>
     <g id="text_1">
      <!-- 0 -->
      <defs>
       <path d="M 31.78125 66.40625 
Q 24.171875 66.40625 20.328125 58.90625 
Q 16.5 51.421875 16.5 36.375 
Q 16.5 21.390625 20.328125 13.890625 
Q 24.171875 6.390625 31.78125 6.390625 
Q 39.453125 6.390625 43.28125 13.890625 
Q 47.125 21.390625 47.125 36.375 
Q 47.125 51.421875 43.28125 58.90625 
Q 39.453125 66.40625 31.78125 66.40625 
z
M 31.78125 74.21875 
Q 44.046875 74.21875 50.515625 64.515625 
Q 56.984375 54.828125 56.984375 36.375 
Q 56.984375 17.96875 50.515625 8.265625 
Q 44.046875 -1.421875 31.78125 -1.421875 
Q 19.53125 -1.421875 13.0625 8.265625 
Q 6.59375 17.96875 6.59375 36.375 
Q 6.59375 54.828125 13.0625 64.515625 
Q 19.53125 74.21875 31.78125 74.21875 
z
" id="DejaVuSans-48"/>
      </defs>
      <g transform="translate(54.41875 177.030437)scale(0.1 -0.1)">
       <use xlink:href="#DejaVuSans-48"/>
      </g>
     </g>
    </g>
    <g id="xtick_2">
     <g id="line2d_2">
      <g>
       <use style="stroke:#000000;stroke-width:0.8;" x="129.024" xlink:href="#m8e9286678a" y="162.432"/>
      </g>
     </g>
     <g id="text_2">
      <!-- 2 -->
      <defs>
       <path d="M 19.1875 8.296875 
L 53.609375 8.296875 
L 53.609375 0 
L 7.328125 0 
L 7.328125 8.296875 
Q 12.9375 14.109375 22.625 23.890625 
Q 32.328125 33.6875 34.8125 36.53125 
Q 39.546875 41.84375 41.421875 45.53125 
Q 43.3125 49.21875 43.3125 52.78125 
Q 43.3125 58.59375 39.234375 62.25 
Q 35.15625 65.921875 28.609375 65.921875 
Q 23.96875 65.921875 18.8125 64.3125 
Q 13.671875 62.703125 7.8125 59.421875 
L 7.8125 69.390625 
Q 13.765625 71.78125 18.9375 73 
Q 24.125 74.21875 28.421875 74.21875 
Q 39.75 74.21875 46.484375 68.546875 
Q 53.21875 62.890625 53.21875 53.421875 
Q 53.21875 48.921875 51.53125 44.890625 
Q 49.859375 40.875 45.40625 35.40625 
Q 44.1875 33.984375 37.640625 27.21875 
Q 31.109375 20.453125 19.1875 8.296875 
z
" id="DejaVuSans-50"/>
      </defs>
      <g transform="translate(125.84275 177.030437)scale(0.1 -0.1)">
       <use xlink:href="#DejaVuSans-50"/>
      </g>
     </g>
    </g>
    <g id="xtick_3">
     <g id="line2d_3">
      <g>
       <use style="stroke:#000000;stroke-width:0.8;" x="200.448" xlink:href="#m8e9286678a" y="162.432"/>
      </g>
     </g>
     <g id="text_3">
      <!-- 4 -->
      <defs>
       <path d="M 37.796875 64.3125 
L 12.890625 25.390625 
L 37.796875 25.390625 
z
M 35.203125 72.90625 
L 47.609375 72.90625 
L 47.609375 25.390625 
L 58.015625 25.390625 
L 58.015625 17.1875 
L 47.609375 17.1875 
L 47.609375 0 
L 37.796875 0 
L 37.796875 17.1875 
L 4.890625 17.1875 
L 4.890625 26.703125 
z
" id="DejaVuSans-52"/>
      </defs>
      <g transform="translate(197.26675 177.030437)scale(0.1 -0.1)">
       <use xlink:href="#DejaVuSans-52"/>
      </g>
     </g>
    </g>
    <g id="xtick_4">
     <g id="line2d_4">
      <g>
       <use style="stroke:#000000;stroke-width:0.8;" x="271.872" xlink:href="#m8e9286678a" y="162.432"/>
      </g>
     </g>
     <g id="text_4">
      <!-- 6 -->
      <defs>
       <path d="M 33.015625 40.375 
Q 26.375 40.375 22.484375 35.828125 
Q 18.609375 31.296875 18.609375 23.390625 
Q 18.609375 15.53125 22.484375 10.953125 
Q 26.375 6.390625 33.015625 6.390625 
Q 39.65625 6.390625 43.53125 10.953125 
Q 47.40625 15.53125 47.40625 23.390625 
Q 47.40625 31.296875 43.53125 35.828125 
Q 39.65625 40.375 33.015625 40.375 
z
M 52.59375 71.296875 
L 52.59375 62.3125 
Q 48.875 64.0625 45.09375 64.984375 
Q 41.3125 65.921875 37.59375 65.921875 
Q 27.828125 65.921875 22.671875 59.328125 
Q 17.53125 52.734375 16.796875 39.40625 
Q 19.671875 43.65625 24.015625 45.921875 
Q 28.375 48.1875 33.59375 48.1875 
Q 44.578125 48.1875 50.953125 41.515625 
Q 57.328125 34.859375 57.328125 23.390625 
Q 57.328125 12.15625 50.6875 5.359375 
Q 44.046875 -1.421875 33.015625 -1.421875 
Q 20.359375 -1.421875 13.671875 8.265625 
Q 6.984375 17.96875 6.984375 36.375 
Q 6.984375 53.65625 15.1875 63.9375 
Q 23.390625 74.21875 37.203125 74.21875 
Q 40.921875 74.21875 44.703125 73.484375 
Q 48.484375 72.75 52.59375 71.296875 
z
" id="DejaVuSans-54"/>
      </defs>
      <g transform="translate(268.69075 177.030437)scale(0.1 -0.1)">
       <use xlink:href="#DejaVuSans-54"/>
      </g>
     </g>
    </g>
    <g id="xtick_5">
     <g id="line2d_5">
      <g>
       <use style="stroke:#000000;stroke-width:0.8;" x="343.296" xlink:href="#m8e9286678a" y="162.432"/>
      </g>
     </g>
     <g id="text_5">
      <!-- 8 -->
      <defs>
       <path d="M 31.78125 34.625 
Q 24.75 34.625 20.71875 30.859375 
Q 16.703125 27.09375 16.703125 20.515625 
Q 16.703125 13.921875 20.71875 10.15625 
Q 24.75 6.390625 31.78125 6.390625 
Q 38.8125 6.390625 42.859375 10.171875 
Q 46.921875 13.96875 46.921875 20.515625 
Q 46.921875 27.09375 42.890625 30.859375 
Q 38.875 34.625 31.78125 34.625 
z
M 21.921875 38.8125 
Q 15.578125 40.375 12.03125 44.71875 
Q 8.5 49.078125 8.5 55.328125 
Q 8.5 64.0625 14.71875 69.140625 
Q 20.953125 74.21875 31.78125 74.21875 
Q 42.671875 74.21875 48.875 69.140625 
Q 55.078125 64.0625 55.078125 55.328125 
Q 55.078125 49.078125 51.53125 44.71875 
Q 48 40.375 41.703125 38.8125 
Q 48.828125 37.15625 52.796875 32.3125 
Q 56.78125 27.484375 56.78125 20.515625 
Q 56.78125 9.90625 50.3125 4.234375 
Q 43.84375 -1.421875 31.78125 -1.421875 
Q 19.734375 -1.421875 13.25 4.234375 
Q 6.78125 9.90625 6.78125 20.515625 
Q 6.78125 27.484375 10.78125 32.3125 
Q 14.796875 37.15625 21.921875 38.8125 
z
M 18.3125 54.390625 
Q 18.3125 48.734375 21.84375 45.5625 
Q 25.390625 42.390625 31.78125 42.390625 
Q 38.140625 42.390625 41.71875 45.5625 
Q 45.3125 48.734375 45.3125 54.390625 
Q 45.3125 60.0625 41.71875 63.234375 
Q 38.140625 66.40625 31.78125 66.40625 
Q 25.390625 66.40625 21.84375 63.234375 
Q 18.3125 60.0625 18.3125 54.390625 
z
" id="DejaVuSans-56"/>
      </defs>
      <g transform="translate(340.11475 177.030437)scale(0.1 -0.1)">
       <use xlink:href="#DejaVuSans-56"/>
      </g>
     </g>
    </g>
    <g id="xtick_6">
     <g id="line2d_6">
      <g>
       <use style="stroke:#000000;stroke-width:0.8;" x="414.72" xlink:href="#m8e9286678a" y="162.432"/>
      </g>
     </g>
     <g id="text_6">
      <!-- 10 -->
      <defs>
       <path d="M 12.40625 8.296875 
L 28.515625 8.296875 
L 28.515625 63.921875 
L 10.984375 60.40625 
L 10.984375 69.390625 
L 28.421875 72.90625 
L 38.28125 72.90625 
L 38.28125 8.296875 
L 54.390625 8.296875 
L 54.390625 0 
L 12.40625 0 
z
" id="DejaVuSans-49"/>
      </defs>
      <g transform="translate(408.3575 177.030437)scale(0.1 -0.1)">
       <use xlink:href="#DejaVuSans-49"/>
       <use x="63.623047" xlink:href="#DejaVuSans-48"/>
      </g>
     </g>
    </g>
   </g>
   <g id="matplotlib.axis_2">
    <g id="ytick_1">
     <g id="line2d_7">
      <defs>
       <path d="M 0 0 
L -3.5 0 
" id="mc30cf7683a" style="stroke:#000000;stroke-width:0.8;"/>
      </defs>
      <g>
       <use style="stroke:#000000;stroke-width:0.8;" x="57.6" xlink:href="#mc30cf7683a" y="162.432"/>
      </g>
     </g>
     <g id="text_7">
      <!-- 0.0 -->
      <defs>
       <path d="M 10.6875 12.40625 
L 21 12.40625 
L 21 0 
L 10.6875 0 
z
" id="DejaVuSans-46"/>
      </defs>
      <g transform="translate(34.696875 166.231219)scale(0.1 -0.1)">
       <use xlink:href="#DejaVuSans-48"/>
       <use x="63.623047" xlink:href="#DejaVuSans-46"/>
       <use x="95.410156" xlink:href="#DejaVuSans-48"/>
      </g>
     </g>
    </g>
    <g id="ytick_2">
     <g id="line2d_8">
      <g>
       <use style="stroke:#000000;stroke-width:0.8;" x="57.6" xlink:href="#mc30cf7683a" y="126.657844"/>
      </g>
     </g>
     <g id="text_8">
      <!-- 0.5 -->
      <defs>
       <path d="M 10.796875 72.90625 
L 49.515625 72.90625 
L 49.515625 64.59375 
L 19.828125 64.59375 
L 19.828125 46.734375 
Q 21.96875 47.46875 24.109375 47.828125 
Q 26.265625 48.1875 28.421875 48.1875 
Q 40.625 48.1875 47.75 41.5 
Q 54.890625 34.8125 54.890625 23.390625 
Q 54.890625 11.625 47.5625 5.09375 
Q 40.234375 -1.421875 26.90625 -1.421875 
Q 22.3125 -1.421875 17.546875 -0.640625 
Q 12.796875 0.140625 7.71875 1.703125 
L 7.71875 11.625 
Q 12.109375 9.234375 16.796875 8.0625 
Q 21.484375 6.890625 26.703125 6.890625 
Q 35.15625 6.890625 40.078125 11.328125 
Q 45.015625 15.765625 45.015625 23.390625 
Q 45.015625 31 40.078125 35.4375 
Q 35.15625 39.890625 26.703125 39.890625 
Q 22.75 39.890625 18.8125 39.015625 
Q 14.890625 38.140625 10.796875 36.28125 
z
" id="DejaVuSans-53"/>
      </defs>
      <g transform="translate(34.696875 130.457062)scale(0.1 -0.1)">
       <use xlink:href="#DejaVuSans-48"/>
       <use x="63.623047" xlink:href="#DejaVuSans-46"/>
       <use x="95.410156" xlink:href="#DejaVuSans-53"/>
      </g>
     </g>
    </g>
    <g id="ytick_3">
     <g id="line2d_9">
      <g>
       <use style="stroke:#000000;stroke-width:0.8;" x="57.6" xlink:href="#mc30cf7683a" y="90.883687"/>
      </g>
     </g>
     <g id="text_9">
      <!-- 1.0 -->
      <g transform="translate(34.696875 94.682906)scale(0.1 -0.1)">
       <use xlink:href="#DejaVuSans-49"/>
       <use x="63.623047" xlink:href="#DejaVuSans-46"/>
       <use x="95.410156" xlink:href="#DejaVuSans-48"/>
      </g>
     </g>
    </g>
    <g id="ytick_4">
     <g id="line2d_10">
      <g>
       <use style="stroke:#000000;stroke-width:0.8;" x="57.6" xlink:href="#mc30cf7683a" y="55.109531"/>
      </g>
     </g>
     <g id="text_10">
      <!-- 1.5 -->
      <g transform="translate(34.696875 58.90875)scale(0.1 -0.1)">
       <use xlink:href="#DejaVuSans-49"/>
       <use x="63.623047" xlink:href="#DejaVuSans-46"/>
       <use x="95.410156" xlink:href="#DejaVuSans-53"/>
      </g>
     </g>
    </g>
   </g>
   <g id="line2d_11">
    <path clip-path="url(#p822d7a83a2)" d="M 57.95712 161.925733 
L 58.31424 158.198335 
L 59.02848 141.984938 
L 60.45696 105.399479 
L 61.1712 91.831696 
L 61.88544 81.858463 
L 62.59968 74.965453 
L 63.31392 70.558239 
L 64.02816 68.095768 
L 64.38528 67.448949 
L 64.7424 67.125938 
L 65.09952 67.084046 
L 65.45664 67.285413 
L 65.81376 67.696555 
L 66.528 69.033486 
L 67.24224 70.898332 
L 68.3136 74.362964 
L 70.0992 81.077858 
L 74.74176 98.903172 
L 76.88448 106.16617 
L 79.0272 112.630077 
L 81.16992 118.319929 
L 83.31264 123.301064 
L 85.45536 127.651736 
L 87.59808 131.450227 
L 89.7408 134.769163 
L 91.88352 137.673407 
L 94.02624 140.219689 
L 96.16896 142.457042 
L 98.6688 144.732658 
L 101.16864 146.701369 
L 103.66848 148.410232 
L 106.52544 150.094991 
L 109.73952 151.705244 
L 112.9536 153.066536 
L 116.5248 154.340477 
L 120.45312 155.506569 
L 124.73856 156.553842 
L 129.73824 157.542712 
L 135.45216 158.436718 
L 141.88032 159.216788 
L 149.73696 159.934509 
L 159.02208 160.548738 
L 170.44992 161.073013 
L 185.09184 161.510726 
L 204.73344 161.860965 
L 232.94592 162.12405 
L 278.65728 162.302902 
L 371.15136 162.401038 
L 414.36288 162.414362 
L 414.36288 162.414362 
" style="fill:none;stroke:#ff7f0e;stroke-linecap:square;stroke-width:1.5;"/>
   </g>
   <g id="patch_103">
    <path d="M 57.6 162.432 
L 57.6 41.472 
" style="fill:none;stroke:#000000;stroke-linecap:square;stroke-linejoin:miter;stroke-width:0.8;"/>
   </g>
   <g id="patch_104">
    <path d="M 414.72 162.432 
L 414.72 41.472 
" style="fill:none;stroke:#000000;stroke-linecap:square;stroke-linejoin:miter;stroke-width:0.8;"/>
   </g>
   <g id="patch_105">
    <path d="M 57.6 162.432 
L 414.72 162.432 
" style="fill:none;stroke:#000000;stroke-linecap:square;stroke-linejoin:miter;stroke-width:0.8;"/>
   </g>
   <g id="patch_106">
    <path d="M 57.6 41.472 
L 414.72 41.472 
" style="fill:none;stroke:#000000;stroke-linecap:square;stroke-linejoin:miter;stroke-width:0.8;"/>
   </g>
   <g id="legend_1">
    <g id="patch_107">
     <path d="M 252.6825 78.82825 
L 407.72 78.82825 
Q 409.72 78.82825 409.72 76.82825 
L 409.72 48.472 
Q 409.72 46.472 407.72 46.472 
L 252.6825 46.472 
Q 250.6825 46.472 250.6825 48.472 
L 250.6825 76.82825 
Q 250.6825 78.82825 252.6825 78.82825 
z
" style="fill:#ffffff;opacity:0.8;stroke:#cccccc;stroke-linejoin:miter;"/>
    </g>
    <g id="line2d_12">
     <path d="M 254.6825 54.570437 
L 274.6825 54.570437 
" style="fill:none;stroke:#ff7f0e;stroke-linecap:square;stroke-width:1.5;"/>
    </g>
    <g id="line2d_13"/>
    <g id="text_11">
     <!-- EPSPs Song et al. (2005) -->
     <defs>
      <path d="M 9.8125 72.90625 
L 55.90625 72.90625 
L 55.90625 64.59375 
L 19.671875 64.59375 
L 19.671875 43.015625 
L 54.390625 43.015625 
L 54.390625 34.71875 
L 19.671875 34.71875 
L 19.671875 8.296875 
L 56.78125 8.296875 
L 56.78125 0 
L 9.8125 0 
z
" id="DejaVuSans-69"/>
      <path d="M 19.671875 64.796875 
L 19.671875 37.40625 
L 32.078125 37.40625 
Q 38.96875 37.40625 42.71875 40.96875 
Q 46.484375 44.53125 46.484375 51.125 
Q 46.484375 57.671875 42.71875 61.234375 
Q 38.96875 64.796875 32.078125 64.796875 
z
M 9.8125 72.90625 
L 32.078125 72.90625 
Q 44.34375 72.90625 50.609375 67.359375 
Q 56.890625 61.8125 56.890625 51.125 
Q 56.890625 40.328125 50.609375 34.8125 
Q 44.34375 29.296875 32.078125 29.296875 
L 19.671875 29.296875 
L 19.671875 0 
L 9.8125 0 
z
" id="DejaVuSans-80"/>
      <path d="M 53.515625 70.515625 
L 53.515625 60.890625 
Q 47.90625 63.578125 42.921875 64.890625 
Q 37.9375 66.21875 33.296875 66.21875 
Q 25.25 66.21875 20.875 63.09375 
Q 16.5 59.96875 16.5 54.203125 
Q 16.5 49.359375 19.40625 46.890625 
Q 22.3125 44.4375 30.421875 42.921875 
L 36.375 41.703125 
Q 47.40625 39.59375 52.65625 34.296875 
Q 57.90625 29 57.90625 20.125 
Q 57.90625 9.515625 50.796875 4.046875 
Q 43.703125 -1.421875 29.984375 -1.421875 
Q 24.8125 -1.421875 18.96875 -0.25 
Q 13.140625 0.921875 6.890625 3.21875 
L 6.890625 13.375 
Q 12.890625 10.015625 18.65625 8.296875 
Q 24.421875 6.59375 29.984375 6.59375 
Q 38.421875 6.59375 43.015625 9.90625 
Q 47.609375 13.234375 47.609375 19.390625 
Q 47.609375 24.75 44.3125 27.78125 
Q 41.015625 30.8125 33.5 32.328125 
L 27.484375 33.5 
Q 16.453125 35.6875 11.515625 40.375 
Q 6.59375 45.0625 6.59375 53.421875 
Q 6.59375 63.09375 13.40625 68.65625 
Q 20.21875 74.21875 32.171875 74.21875 
Q 37.3125 74.21875 42.625 73.28125 
Q 47.953125 72.359375 53.515625 70.515625 
z
" id="DejaVuSans-83"/>
      <path d="M 44.28125 53.078125 
L 44.28125 44.578125 
Q 40.484375 46.53125 36.375 47.5 
Q 32.28125 48.484375 27.875 48.484375 
Q 21.1875 48.484375 17.84375 46.4375 
Q 14.5 44.390625 14.5 40.28125 
Q 14.5 37.15625 16.890625 35.375 
Q 19.28125 33.59375 26.515625 31.984375 
L 29.59375 31.296875 
Q 39.15625 29.25 43.1875 25.515625 
Q 47.21875 21.78125 47.21875 15.09375 
Q 47.21875 7.46875 41.1875 3.015625 
Q 35.15625 -1.421875 24.609375 -1.421875 
Q 20.21875 -1.421875 15.453125 -0.5625 
Q 10.6875 0.296875 5.421875 2 
L 5.421875 11.28125 
Q 10.40625 8.6875 15.234375 7.390625 
Q 20.0625 6.109375 24.8125 6.109375 
Q 31.15625 6.109375 34.5625 8.28125 
Q 37.984375 10.453125 37.984375 14.40625 
Q 37.984375 18.0625 35.515625 20.015625 
Q 33.0625 21.96875 24.703125 23.78125 
L 21.578125 24.515625 
Q 13.234375 26.265625 9.515625 29.90625 
Q 5.8125 33.546875 5.8125 39.890625 
Q 5.8125 47.609375 11.28125 51.796875 
Q 16.75 56 26.8125 56 
Q 31.78125 56 36.171875 55.265625 
Q 40.578125 54.546875 44.28125 53.078125 
z
" id="DejaVuSans-115"/>
      <path id="DejaVuSans-32"/>
      <path d="M 30.609375 48.390625 
Q 23.390625 48.390625 19.1875 42.75 
Q 14.984375 37.109375 14.984375 27.296875 
Q 14.984375 17.484375 19.15625 11.84375 
Q 23.34375 6.203125 30.609375 6.203125 
Q 37.796875 6.203125 41.984375 11.859375 
Q 46.1875 17.53125 46.1875 27.296875 
Q 46.1875 37.015625 41.984375 42.703125 
Q 37.796875 48.390625 30.609375 48.390625 
z
M 30.609375 56 
Q 42.328125 56 49.015625 48.375 
Q 55.71875 40.765625 55.71875 27.296875 
Q 55.71875 13.875 49.015625 6.21875 
Q 42.328125 -1.421875 30.609375 -1.421875 
Q 18.84375 -1.421875 12.171875 6.21875 
Q 5.515625 13.875 5.515625 27.296875 
Q 5.515625 40.765625 12.171875 48.375 
Q 18.84375 56 30.609375 56 
z
" id="DejaVuSans-111"/>
      <path d="M 54.890625 33.015625 
L 54.890625 0 
L 45.90625 0 
L 45.90625 32.71875 
Q 45.90625 40.484375 42.875 44.328125 
Q 39.84375 48.1875 33.796875 48.1875 
Q 26.515625 48.1875 22.3125 43.546875 
Q 18.109375 38.921875 18.109375 30.90625 
L 18.109375 0 
L 9.078125 0 
L 9.078125 54.6875 
L 18.109375 54.6875 
L 18.109375 46.1875 
Q 21.34375 51.125 25.703125 53.5625 
Q 30.078125 56 35.796875 56 
Q 45.21875 56 50.046875 50.171875 
Q 54.890625 44.34375 54.890625 33.015625 
z
" id="DejaVuSans-110"/>
      <path d="M 45.40625 27.984375 
Q 45.40625 37.75 41.375 43.109375 
Q 37.359375 48.484375 30.078125 48.484375 
Q 22.859375 48.484375 18.828125 43.109375 
Q 14.796875 37.75 14.796875 27.984375 
Q 14.796875 18.265625 18.828125 12.890625 
Q 22.859375 7.515625 30.078125 7.515625 
Q 37.359375 7.515625 41.375 12.890625 
Q 45.40625 18.265625 45.40625 27.984375 
z
M 54.390625 6.78125 
Q 54.390625 -7.171875 48.1875 -13.984375 
Q 42 -20.796875 29.203125 -20.796875 
Q 24.46875 -20.796875 20.265625 -20.09375 
Q 16.0625 -19.390625 12.109375 -17.921875 
L 12.109375 -9.1875 
Q 16.0625 -11.328125 19.921875 -12.34375 
Q 23.78125 -13.375 27.78125 -13.375 
Q 36.625 -13.375 41.015625 -8.765625 
Q 45.40625 -4.15625 45.40625 5.171875 
L 45.40625 9.625 
Q 42.625 4.78125 38.28125 2.390625 
Q 33.9375 0 27.875 0 
Q 17.828125 0 11.671875 7.65625 
Q 5.515625 15.328125 5.515625 27.984375 
Q 5.515625 40.671875 11.671875 48.328125 
Q 17.828125 56 27.875 56 
Q 33.9375 56 38.28125 53.609375 
Q 42.625 51.21875 45.40625 46.390625 
L 45.40625 54.6875 
L 54.390625 54.6875 
z
" id="DejaVuSans-103"/>
      <path d="M 56.203125 29.59375 
L 56.203125 25.203125 
L 14.890625 25.203125 
Q 15.484375 15.921875 20.484375 11.0625 
Q 25.484375 6.203125 34.421875 6.203125 
Q 39.59375 6.203125 44.453125 7.46875 
Q 49.3125 8.734375 54.109375 11.28125 
L 54.109375 2.78125 
Q 49.265625 0.734375 44.1875 -0.34375 
Q 39.109375 -1.421875 33.890625 -1.421875 
Q 20.796875 -1.421875 13.15625 6.1875 
Q 5.515625 13.8125 5.515625 26.8125 
Q 5.515625 40.234375 12.765625 48.109375 
Q 20.015625 56 32.328125 56 
Q 43.359375 56 49.78125 48.890625 
Q 56.203125 41.796875 56.203125 29.59375 
z
M 47.21875 32.234375 
Q 47.125 39.59375 43.09375 43.984375 
Q 39.0625 48.390625 32.421875 48.390625 
Q 24.90625 48.390625 20.390625 44.140625 
Q 15.875 39.890625 15.1875 32.171875 
z
" id="DejaVuSans-101"/>
      <path d="M 18.3125 70.21875 
L 18.3125 54.6875 
L 36.8125 54.6875 
L 36.8125 47.703125 
L 18.3125 47.703125 
L 18.3125 18.015625 
Q 18.3125 11.328125 20.140625 9.421875 
Q 21.96875 7.515625 27.59375 7.515625 
L 36.8125 7.515625 
L 36.8125 0 
L 27.59375 0 
Q 17.1875 0 13.234375 3.875 
Q 9.28125 7.765625 9.28125 18.015625 
L 9.28125 47.703125 
L 2.6875 47.703125 
L 2.6875 54.6875 
L 9.28125 54.6875 
L 9.28125 70.21875 
z
" id="DejaVuSans-116"/>
      <path d="M 34.28125 27.484375 
Q 23.390625 27.484375 19.1875 25 
Q 14.984375 22.515625 14.984375 16.5 
Q 14.984375 11.71875 18.140625 8.90625 
Q 21.296875 6.109375 26.703125 6.109375 
Q 34.1875 6.109375 38.703125 11.40625 
Q 43.21875 16.703125 43.21875 25.484375 
L 43.21875 27.484375 
z
M 52.203125 31.203125 
L 52.203125 0 
L 43.21875 0 
L 43.21875 8.296875 
Q 40.140625 3.328125 35.546875 0.953125 
Q 30.953125 -1.421875 24.3125 -1.421875 
Q 15.921875 -1.421875 10.953125 3.296875 
Q 6 8.015625 6 15.921875 
Q 6 25.140625 12.171875 29.828125 
Q 18.359375 34.515625 30.609375 34.515625 
L 43.21875 34.515625 
L 43.21875 35.40625 
Q 43.21875 41.609375 39.140625 45 
Q 35.0625 48.390625 27.6875 48.390625 
Q 23 48.390625 18.546875 47.265625 
Q 14.109375 46.140625 10.015625 43.890625 
L 10.015625 52.203125 
Q 14.9375 54.109375 19.578125 55.046875 
Q 24.21875 56 28.609375 56 
Q 40.484375 56 46.34375 49.84375 
Q 52.203125 43.703125 52.203125 31.203125 
z
" id="DejaVuSans-97"/>
      <path d="M 9.421875 75.984375 
L 18.40625 75.984375 
L 18.40625 0 
L 9.421875 0 
z
" id="DejaVuSans-108"/>
      <path d="M 31 75.875 
Q 24.46875 64.65625 21.28125 53.65625 
Q 18.109375 42.671875 18.109375 31.390625 
Q 18.109375 20.125 21.3125 9.0625 
Q 24.515625 -2 31 -13.1875 
L 23.1875 -13.1875 
Q 15.875 -1.703125 12.234375 9.375 
Q 8.59375 20.453125 8.59375 31.390625 
Q 8.59375 42.28125 12.203125 53.3125 
Q 15.828125 64.359375 23.1875 75.875 
z
" id="DejaVuSans-40"/>
      <path d="M 8.015625 75.875 
L 15.828125 75.875 
Q 23.140625 64.359375 26.78125 53.3125 
Q 30.421875 42.28125 30.421875 31.390625 
Q 30.421875 20.453125 26.78125 9.375 
Q 23.140625 -1.703125 15.828125 -13.1875 
L 8.015625 -13.1875 
Q 14.5 -2 17.703125 9.0625 
Q 20.90625 20.125 20.90625 31.390625 
Q 20.90625 42.671875 17.703125 53.65625 
Q 14.5 64.65625 8.015625 75.875 
z
" id="DejaVuSans-41"/>
     </defs>
     <g transform="translate(282.6825 58.070437)scale(0.1 -0.1)">
      <use xlink:href="#DejaVuSans-69"/>
      <use x="63.183594" xlink:href="#DejaVuSans-80"/>
      <use x="123.486328" xlink:href="#DejaVuSans-83"/>
      <use x="186.962891" xlink:href="#DejaVuSans-80"/>
      <use x="245.515625" xlink:href="#DejaVuSans-115"/>
      <use x="297.615234" xlink:href="#DejaVuSans-32"/>
      <use x="329.402344" xlink:href="#DejaVuSans-83"/>
      <use x="392.878906" xlink:href="#DejaVuSans-111"/>
      <use x="454.060547" xlink:href="#DejaVuSans-110"/>
      <use x="517.439453" xlink:href="#DejaVuSans-103"/>
      <use x="580.916016" xlink:href="#DejaVuSans-32"/>
      <use x="612.703125" xlink:href="#DejaVuSans-101"/>
      <use x="674.226562" xlink:href="#DejaVuSans-116"/>
      <use x="713.435547" xlink:href="#DejaVuSans-32"/>
      <use x="745.222656" xlink:href="#DejaVuSans-97"/>
      <use x="806.501953" xlink:href="#DejaVuSans-108"/>
      <use x="834.285156" xlink:href="#DejaVuSans-46"/>
      <use x="866.072266" xlink:href="#DejaVuSans-32"/>
      <use x="897.859375" xlink:href="#DejaVuSans-40"/>
      <use x="936.873047" xlink:href="#DejaVuSans-50"/>
      <use x="1000.496094" xlink:href="#DejaVuSans-48"/>
      <use x="1064.119141" xlink:href="#DejaVuSans-48"/>
      <use x="1127.742188" xlink:href="#DejaVuSans-53"/>
      <use x="1191.365234" xlink:href="#DejaVuSans-41"/>
     </g>
    </g>
    <g id="patch_108">
     <path d="M 254.6825 72.748562 
L 274.6825 72.748562 
L 274.6825 65.748562 
L 254.6825 65.748562 
z
" style="fill:#1f77b4;"/>
    </g>
    <g id="text_12">
     <!-- EPSPs in CorE -->
     <defs>
      <path d="M 9.421875 54.6875 
L 18.40625 54.6875 
L 18.40625 0 
L 9.421875 0 
z
M 9.421875 75.984375 
L 18.40625 75.984375 
L 18.40625 64.59375 
L 9.421875 64.59375 
z
" id="DejaVuSans-105"/>
      <path d="M 64.40625 67.28125 
L 64.40625 56.890625 
Q 59.421875 61.53125 53.78125 63.8125 
Q 48.140625 66.109375 41.796875 66.109375 
Q 29.296875 66.109375 22.65625 58.46875 
Q 16.015625 50.828125 16.015625 36.375 
Q 16.015625 21.96875 22.65625 14.328125 
Q 29.296875 6.6875 41.796875 6.6875 
Q 48.140625 6.6875 53.78125 8.984375 
Q 59.421875 11.28125 64.40625 15.921875 
L 64.40625 5.609375 
Q 59.234375 2.09375 53.4375 0.328125 
Q 47.65625 -1.421875 41.21875 -1.421875 
Q 24.65625 -1.421875 15.125 8.703125 
Q 5.609375 18.84375 5.609375 36.375 
Q 5.609375 53.953125 15.125 64.078125 
Q 24.65625 74.21875 41.21875 74.21875 
Q 47.75 74.21875 53.53125 72.484375 
Q 59.328125 70.75 64.40625 67.28125 
z
" id="DejaVuSans-67"/>
      <path d="M 41.109375 46.296875 
Q 39.59375 47.171875 37.8125 47.578125 
Q 36.03125 48 33.890625 48 
Q 26.265625 48 22.1875 43.046875 
Q 18.109375 38.09375 18.109375 28.8125 
L 18.109375 0 
L 9.078125 0 
L 9.078125 54.6875 
L 18.109375 54.6875 
L 18.109375 46.1875 
Q 20.953125 51.171875 25.484375 53.578125 
Q 30.03125 56 36.53125 56 
Q 37.453125 56 38.578125 55.875 
Q 39.703125 55.765625 41.0625 55.515625 
z
" id="DejaVuSans-114"/>
     </defs>
     <g transform="translate(282.6825 72.748562)scale(0.1 -0.1)">
      <use xlink:href="#DejaVuSans-69"/>
      <use x="63.183594" xlink:href="#DejaVuSans-80"/>
      <use x="123.486328" xlink:href="#DejaVuSans-83"/>
      <use x="186.962891" xlink:href="#DejaVuSans-80"/>
      <use x="245.515625" xlink:href="#DejaVuSans-115"/>
      <use x="297.615234" xlink:href="#DejaVuSans-32"/>
      <use x="329.402344" xlink:href="#DejaVuSans-105"/>
      <use x="357.185547" xlink:href="#DejaVuSans-110"/>
      <use x="420.564453" xlink:href="#DejaVuSans-32"/>
      <use x="452.351562" xlink:href="#DejaVuSans-67"/>
      <use x="522.175781" xlink:href="#DejaVuSans-111"/>
      <use x="583.357422" xlink:href="#DejaVuSans-114"/>
      <use x="624.470703" xlink:href="#DejaVuSans-69"/>
     </g>
    </g>
   </g>
  </g>
  <g id="axes_2">
   <g id="patch_109">
    <path d="M 57.6 307.584 
L 414.72 307.584 
L 414.72 186.624 
L 57.6 186.624 
z
" style="fill:#ffffff;"/>
   </g>
   <g id="patch_110">
    <path clip-path="url(#p2c47ed4f91)" d="M 58.351469 307.584 
L 61.413887 307.584 
L 61.413887 272.124285 
L 58.351469 272.124285 
z
" style="fill:#1f77b4;"/>
   </g>
   <g id="patch_111">
    <path clip-path="url(#p2c47ed4f91)" d="M 61.413887 307.584 
L 64.476304 307.584 
L 64.476304 223.493818 
L 61.413887 223.493818 
z
" style="fill:#1f77b4;"/>
   </g>
   <g id="patch_112">
    <path clip-path="url(#p2c47ed4f91)" d="M 64.476304 307.584 
L 67.538722 307.584 
L 67.538722 211.336201 
L 64.476304 211.336201 
z
" style="fill:#1f77b4;"/>
   </g>
   <g id="patch_113">
    <path clip-path="url(#p2c47ed4f91)" d="M 67.538722 307.584 
L 70.601139 307.584 
L 70.601139 237.677704 
L 67.538722 237.677704 
z
" style="fill:#1f77b4;"/>
   </g>
   <g id="patch_114">
    <path clip-path="url(#p2c47ed4f91)" d="M 70.601139 307.584 
L 73.663557 307.584 
L 73.663557 228.559491 
L 70.601139 228.559491 
z
" style="fill:#1f77b4;"/>
   </g>
   <g id="patch_115">
    <path clip-path="url(#p2c47ed4f91)" d="M 73.663557 307.584 
L 76.725974 307.584 
L 76.725974 242.743378 
L 73.663557 242.743378 
z
" style="fill:#1f77b4;"/>
   </g>
   <g id="patch_116">
    <path clip-path="url(#p2c47ed4f91)" d="M 76.725974 307.584 
L 79.788392 307.584 
L 79.788392 247.809051 
L 76.725974 247.809051 
z
" style="fill:#1f77b4;"/>
   </g>
   <g id="patch_117">
    <path clip-path="url(#p2c47ed4f91)" d="M 79.788392 307.584 
L 82.850809 307.584 
L 82.850809 252.874725 
L 79.788392 252.874725 
z
" style="fill:#1f77b4;"/>
   </g>
   <g id="patch_118">
    <path clip-path="url(#p2c47ed4f91)" d="M 82.850809 307.584 
L 85.913226 307.584 
L 85.913226 260.979803 
L 82.850809 260.979803 
z
" style="fill:#1f77b4;"/>
   </g>
   <g id="patch_119">
    <path clip-path="url(#p2c47ed4f91)" d="M 85.913226 307.584 
L 88.975644 307.584 
L 88.975644 268.071746 
L 85.913226 268.071746 
z
" style="fill:#1f77b4;"/>
   </g>
   <g id="patch_120">
    <path clip-path="url(#p2c47ed4f91)" d="M 88.975644 307.584 
L 92.038061 307.584 
L 92.038061 264.019207 
L 88.975644 264.019207 
z
" style="fill:#1f77b4;"/>
   </g>
   <g id="patch_121">
    <path clip-path="url(#p2c47ed4f91)" d="M 92.038061 307.584 
L 95.100479 307.584 
L 95.100479 281.242497 
L 92.038061 281.242497 
z
" style="fill:#1f77b4;"/>
   </g>
   <g id="patch_122">
    <path clip-path="url(#p2c47ed4f91)" d="M 95.100479 307.584 
L 98.162896 307.584 
L 98.162896 278.203093 
L 95.100479 278.203093 
z
" style="fill:#1f77b4;"/>
   </g>
   <g id="patch_123">
    <path clip-path="url(#p2c47ed4f91)" d="M 98.162896 307.584 
L 101.225314 307.584 
L 101.225314 282.255632 
L 98.162896 282.255632 
z
" style="fill:#1f77b4;"/>
   </g>
   <g id="patch_124">
    <path clip-path="url(#p2c47ed4f91)" d="M 101.225314 307.584 
L 104.287731 307.584 
L 104.287731 284.281901 
L 101.225314 284.281901 
z
" style="fill:#1f77b4;"/>
   </g>
   <g id="patch_125">
    <path clip-path="url(#p2c47ed4f91)" d="M 104.287731 307.584 
L 107.350149 307.584 
L 107.350149 293.400114 
L 104.287731 293.400114 
z
" style="fill:#1f77b4;"/>
   </g>
   <g id="patch_126">
    <path clip-path="url(#p2c47ed4f91)" d="M 107.350149 307.584 
L 110.412566 307.584 
L 110.412566 292.386979 
L 107.350149 292.386979 
z
" style="fill:#1f77b4;"/>
   </g>
   <g id="patch_127">
    <path clip-path="url(#p2c47ed4f91)" d="M 110.412566 307.584 
L 113.474983 307.584 
L 113.474983 291.373844 
L 110.412566 291.373844 
z
" style="fill:#1f77b4;"/>
   </g>
   <g id="patch_128">
    <path clip-path="url(#p2c47ed4f91)" d="M 113.474983 307.584 
L 116.537401 307.584 
L 116.537401 287.321305 
L 113.474983 287.321305 
z
" style="fill:#1f77b4;"/>
   </g>
   <g id="patch_129">
    <path clip-path="url(#p2c47ed4f91)" d="M 116.537401 307.584 
L 119.599818 307.584 
L 119.599818 291.373844 
L 116.537401 291.373844 
z
" style="fill:#1f77b4;"/>
   </g>
   <g id="patch_130">
    <path clip-path="url(#p2c47ed4f91)" d="M 119.599818 307.584 
L 122.662236 307.584 
L 122.662236 294.413249 
L 119.599818 294.413249 
z
" style="fill:#1f77b4;"/>
   </g>
   <g id="patch_131">
    <path clip-path="url(#p2c47ed4f91)" d="M 122.662236 307.584 
L 125.724653 307.584 
L 125.724653 301.505192 
L 122.662236 301.505192 
z
" style="fill:#1f77b4;"/>
   </g>
   <g id="patch_132">
    <path clip-path="url(#p2c47ed4f91)" d="M 125.724653 307.584 
L 128.787071 307.584 
L 128.787071 296.439518 
L 125.724653 296.439518 
z
" style="fill:#1f77b4;"/>
   </g>
   <g id="patch_133">
    <path clip-path="url(#p2c47ed4f91)" d="M 128.787071 307.584 
L 131.849488 307.584 
L 131.849488 300.492057 
L 128.787071 300.492057 
z
" style="fill:#1f77b4;"/>
   </g>
   <g id="patch_134">
    <path clip-path="url(#p2c47ed4f91)" d="M 131.849488 307.584 
L 134.911906 307.584 
L 134.911906 301.505192 
L 131.849488 301.505192 
z
" style="fill:#1f77b4;"/>
   </g>
   <g id="patch_135">
    <path clip-path="url(#p2c47ed4f91)" d="M 134.911906 307.584 
L 137.974323 307.584 
L 137.974323 304.544596 
L 134.911906 304.544596 
z
" style="fill:#1f77b4;"/>
   </g>
   <g id="patch_136">
    <path clip-path="url(#p2c47ed4f91)" d="M 137.974323 307.584 
L 141.03674 307.584 
L 141.03674 296.439518 
L 137.974323 296.439518 
z
" style="fill:#1f77b4;"/>
   </g>
   <g id="patch_137">
    <path clip-path="url(#p2c47ed4f91)" d="M 141.03674 307.584 
L 144.099158 307.584 
L 144.099158 301.505192 
L 141.03674 301.505192 
z
" style="fill:#1f77b4;"/>
   </g>
   <g id="patch_138">
    <path clip-path="url(#p2c47ed4f91)" d="M 144.099158 307.584 
L 147.161575 307.584 
L 147.161575 302.518326 
L 144.099158 302.518326 
z
" style="fill:#1f77b4;"/>
   </g>
   <g id="patch_139">
    <path clip-path="url(#p2c47ed4f91)" d="M 147.161575 307.584 
L 150.223993 307.584 
L 150.223993 301.505192 
L 147.161575 301.505192 
z
" style="fill:#1f77b4;"/>
   </g>
   <g id="patch_140">
    <path clip-path="url(#p2c47ed4f91)" d="M 150.223993 307.584 
L 153.28641 307.584 
L 153.28641 301.505192 
L 150.223993 301.505192 
z
" style="fill:#1f77b4;"/>
   </g>
   <g id="patch_141">
    <path clip-path="url(#p2c47ed4f91)" d="M 153.28641 307.584 
L 156.348828 307.584 
L 156.348828 302.518326 
L 153.28641 302.518326 
z
" style="fill:#1f77b4;"/>
   </g>
   <g id="patch_142">
    <path clip-path="url(#p2c47ed4f91)" d="M 156.348828 307.584 
L 159.411245 307.584 
L 159.411245 302.518326 
L 156.348828 302.518326 
z
" style="fill:#1f77b4;"/>
   </g>
   <g id="patch_143">
    <path clip-path="url(#p2c47ed4f91)" d="M 159.411245 307.584 
L 162.473663 307.584 
L 162.473663 304.544596 
L 159.411245 304.544596 
z
" style="fill:#1f77b4;"/>
   </g>
   <g id="patch_144">
    <path clip-path="url(#p2c47ed4f91)" d="M 162.473663 307.584 
L 165.53608 307.584 
L 165.53608 303.531461 
L 162.473663 303.531461 
z
" style="fill:#1f77b4;"/>
   </g>
   <g id="patch_145">
    <path clip-path="url(#p2c47ed4f91)" d="M 165.53608 307.584 
L 168.598497 307.584 
L 168.598497 304.544596 
L 165.53608 304.544596 
z
" style="fill:#1f77b4;"/>
   </g>
   <g id="patch_146">
    <path clip-path="url(#p2c47ed4f91)" d="M 168.598497 307.584 
L 171.660915 307.584 
L 171.660915 305.557731 
L 168.598497 305.557731 
z
" style="fill:#1f77b4;"/>
   </g>
   <g id="patch_147">
    <path clip-path="url(#p2c47ed4f91)" d="M 171.660915 307.584 
L 174.723332 307.584 
L 174.723332 306.570865 
L 171.660915 306.570865 
z
" style="fill:#1f77b4;"/>
   </g>
   <g id="patch_148">
    <path clip-path="url(#p2c47ed4f91)" d="M 174.723332 307.584 
L 177.78575 307.584 
L 177.78575 307.584 
L 174.723332 307.584 
z
" style="fill:#1f77b4;"/>
   </g>
   <g id="patch_149">
    <path clip-path="url(#p2c47ed4f91)" d="M 177.78575 307.584 
L 180.848167 307.584 
L 180.848167 304.544596 
L 177.78575 304.544596 
z
" style="fill:#1f77b4;"/>
   </g>
   <g id="patch_150">
    <path clip-path="url(#p2c47ed4f91)" d="M 180.848167 307.584 
L 183.910585 307.584 
L 183.910585 305.557731 
L 180.848167 305.557731 
z
" style="fill:#1f77b4;"/>
   </g>
   <g id="patch_151">
    <path clip-path="url(#p2c47ed4f91)" d="M 183.910585 307.584 
L 186.973002 307.584 
L 186.973002 306.570865 
L 183.910585 306.570865 
z
" style="fill:#1f77b4;"/>
   </g>
   <g id="patch_152">
    <path clip-path="url(#p2c47ed4f91)" d="M 186.973002 307.584 
L 190.03542 307.584 
L 190.03542 303.531461 
L 186.973002 303.531461 
z
" style="fill:#1f77b4;"/>
   </g>
   <g id="patch_153">
    <path clip-path="url(#p2c47ed4f91)" d="M 190.03542 307.584 
L 193.097837 307.584 
L 193.097837 305.557731 
L 190.03542 305.557731 
z
" style="fill:#1f77b4;"/>
   </g>
   <g id="patch_154">
    <path clip-path="url(#p2c47ed4f91)" d="M 193.097837 307.584 
L 196.160254 307.584 
L 196.160254 306.570865 
L 193.097837 306.570865 
z
" style="fill:#1f77b4;"/>
   </g>
   <g id="patch_155">
    <path clip-path="url(#p2c47ed4f91)" d="M 196.160254 307.584 
L 199.222672 307.584 
L 199.222672 303.531461 
L 196.160254 303.531461 
z
" style="fill:#1f77b4;"/>
   </g>
   <g id="patch_156">
    <path clip-path="url(#p2c47ed4f91)" d="M 199.222672 307.584 
L 202.285089 307.584 
L 202.285089 306.570865 
L 199.222672 306.570865 
z
" style="fill:#1f77b4;"/>
   </g>
   <g id="patch_157">
    <path clip-path="url(#p2c47ed4f91)" d="M 202.285089 307.584 
L 205.347507 307.584 
L 205.347507 305.557731 
L 202.285089 305.557731 
z
" style="fill:#1f77b4;"/>
   </g>
   <g id="patch_158">
    <path clip-path="url(#p2c47ed4f91)" d="M 205.347507 307.584 
L 208.409924 307.584 
L 208.409924 306.570865 
L 205.347507 306.570865 
z
" style="fill:#1f77b4;"/>
   </g>
   <g id="patch_159">
    <path clip-path="url(#p2c47ed4f91)" d="M 208.409924 307.584 
L 211.472342 307.584 
L 211.472342 305.557731 
L 208.409924 305.557731 
z
" style="fill:#1f77b4;"/>
   </g>
   <g id="patch_160">
    <path clip-path="url(#p2c47ed4f91)" d="M 211.472342 307.584 
L 214.534759 307.584 
L 214.534759 307.584 
L 211.472342 307.584 
z
" style="fill:#1f77b4;"/>
   </g>
   <g id="patch_161">
    <path clip-path="url(#p2c47ed4f91)" d="M 214.534759 307.584 
L 217.597177 307.584 
L 217.597177 307.584 
L 214.534759 307.584 
z
" style="fill:#1f77b4;"/>
   </g>
   <g id="patch_162">
    <path clip-path="url(#p2c47ed4f91)" d="M 217.597177 307.584 
L 220.659594 307.584 
L 220.659594 306.570865 
L 217.597177 306.570865 
z
" style="fill:#1f77b4;"/>
   </g>
   <g id="patch_163">
    <path clip-path="url(#p2c47ed4f91)" d="M 220.659594 307.584 
L 223.722012 307.584 
L 223.722012 304.544596 
L 220.659594 304.544596 
z
" style="fill:#1f77b4;"/>
   </g>
   <g id="patch_164">
    <path clip-path="url(#p2c47ed4f91)" d="M 223.722012 307.584 
L 226.784429 307.584 
L 226.784429 306.570865 
L 223.722012 306.570865 
z
" style="fill:#1f77b4;"/>
   </g>
   <g id="patch_165">
    <path clip-path="url(#p2c47ed4f91)" d="M 226.784429 307.584 
L 229.846846 307.584 
L 229.846846 307.584 
L 226.784429 307.584 
z
" style="fill:#1f77b4;"/>
   </g>
   <g id="patch_166">
    <path clip-path="url(#p2c47ed4f91)" d="M 229.846846 307.584 
L 232.909264 307.584 
L 232.909264 306.570865 
L 229.846846 306.570865 
z
" style="fill:#1f77b4;"/>
   </g>
   <g id="patch_167">
    <path clip-path="url(#p2c47ed4f91)" d="M 232.909264 307.584 
L 235.971681 307.584 
L 235.971681 306.570865 
L 232.909264 306.570865 
z
" style="fill:#1f77b4;"/>
   </g>
   <g id="patch_168">
    <path clip-path="url(#p2c47ed4f91)" d="M 235.971681 307.584 
L 239.034099 307.584 
L 239.034099 305.557731 
L 235.971681 305.557731 
z
" style="fill:#1f77b4;"/>
   </g>
   <g id="patch_169">
    <path clip-path="url(#p2c47ed4f91)" d="M 239.034099 307.584 
L 242.096516 307.584 
L 242.096516 307.584 
L 239.034099 307.584 
z
" style="fill:#1f77b4;"/>
   </g>
   <g id="patch_170">
    <path clip-path="url(#p2c47ed4f91)" d="M 242.096516 307.584 
L 245.158934 307.584 
L 245.158934 307.584 
L 242.096516 307.584 
z
" style="fill:#1f77b4;"/>
   </g>
   <g id="patch_171">
    <path clip-path="url(#p2c47ed4f91)" d="M 245.158934 307.584 
L 248.221351 307.584 
L 248.221351 307.584 
L 245.158934 307.584 
z
" style="fill:#1f77b4;"/>
   </g>
   <g id="patch_172">
    <path clip-path="url(#p2c47ed4f91)" d="M 248.221351 307.584 
L 251.283769 307.584 
L 251.283769 307.584 
L 248.221351 307.584 
z
" style="fill:#1f77b4;"/>
   </g>
   <g id="patch_173">
    <path clip-path="url(#p2c47ed4f91)" d="M 251.283769 307.584 
L 254.346186 307.584 
L 254.346186 306.570865 
L 251.283769 306.570865 
z
" style="fill:#1f77b4;"/>
   </g>
   <g id="patch_174">
    <path clip-path="url(#p2c47ed4f91)" d="M 254.346186 307.584 
L 257.408603 307.584 
L 257.408603 307.584 
L 254.346186 307.584 
z
" style="fill:#1f77b4;"/>
   </g>
   <g id="patch_175">
    <path clip-path="url(#p2c47ed4f91)" d="M 257.408603 307.584 
L 260.471021 307.584 
L 260.471021 307.584 
L 257.408603 307.584 
z
" style="fill:#1f77b4;"/>
   </g>
   <g id="patch_176">
    <path clip-path="url(#p2c47ed4f91)" d="M 260.471021 307.584 
L 263.533438 307.584 
L 263.533438 306.570865 
L 260.471021 306.570865 
z
" style="fill:#1f77b4;"/>
   </g>
   <g id="patch_177">
    <path clip-path="url(#p2c47ed4f91)" d="M 263.533438 307.584 
L 266.595856 307.584 
L 266.595856 306.570865 
L 263.533438 306.570865 
z
" style="fill:#1f77b4;"/>
   </g>
   <g id="patch_178">
    <path clip-path="url(#p2c47ed4f91)" d="M 266.595856 307.584 
L 269.658273 307.584 
L 269.658273 306.570865 
L 266.595856 306.570865 
z
" style="fill:#1f77b4;"/>
   </g>
   <g id="patch_179">
    <path clip-path="url(#p2c47ed4f91)" d="M 269.658273 307.584 
L 272.720691 307.584 
L 272.720691 307.584 
L 269.658273 307.584 
z
" style="fill:#1f77b4;"/>
   </g>
   <g id="patch_180">
    <path clip-path="url(#p2c47ed4f91)" d="M 272.720691 307.584 
L 275.783108 307.584 
L 275.783108 307.584 
L 272.720691 307.584 
z
" style="fill:#1f77b4;"/>
   </g>
   <g id="patch_181">
    <path clip-path="url(#p2c47ed4f91)" d="M 275.783108 307.584 
L 278.845526 307.584 
L 278.845526 307.584 
L 275.783108 307.584 
z
" style="fill:#1f77b4;"/>
   </g>
   <g id="patch_182">
    <path clip-path="url(#p2c47ed4f91)" d="M 278.845526 307.584 
L 281.907943 307.584 
L 281.907943 306.570865 
L 278.845526 306.570865 
z
" style="fill:#1f77b4;"/>
   </g>
   <g id="patch_183">
    <path clip-path="url(#p2c47ed4f91)" d="M 281.907943 307.584 
L 284.97036 307.584 
L 284.97036 307.584 
L 281.907943 307.584 
z
" style="fill:#1f77b4;"/>
   </g>
   <g id="patch_184">
    <path clip-path="url(#p2c47ed4f91)" d="M 284.97036 307.584 
L 288.032778 307.584 
L 288.032778 307.584 
L 284.97036 307.584 
z
" style="fill:#1f77b4;"/>
   </g>
   <g id="patch_185">
    <path clip-path="url(#p2c47ed4f91)" d="M 288.032778 307.584 
L 291.095195 307.584 
L 291.095195 307.584 
L 288.032778 307.584 
z
" style="fill:#1f77b4;"/>
   </g>
   <g id="patch_186">
    <path clip-path="url(#p2c47ed4f91)" d="M 291.095195 307.584 
L 294.157613 307.584 
L 294.157613 307.584 
L 291.095195 307.584 
z
" style="fill:#1f77b4;"/>
   </g>
   <g id="patch_187">
    <path clip-path="url(#p2c47ed4f91)" d="M 294.157613 307.584 
L 297.22003 307.584 
L 297.22003 307.584 
L 294.157613 307.584 
z
" style="fill:#1f77b4;"/>
   </g>
   <g id="patch_188">
    <path clip-path="url(#p2c47ed4f91)" d="M 297.22003 307.584 
L 300.282448 307.584 
L 300.282448 307.584 
L 297.22003 307.584 
z
" style="fill:#1f77b4;"/>
   </g>
   <g id="patch_189">
    <path clip-path="url(#p2c47ed4f91)" d="M 300.282448 307.584 
L 303.344865 307.584 
L 303.344865 307.584 
L 300.282448 307.584 
z
" style="fill:#1f77b4;"/>
   </g>
   <g id="patch_190">
    <path clip-path="url(#p2c47ed4f91)" d="M 303.344865 307.584 
L 306.407283 307.584 
L 306.407283 307.584 
L 303.344865 307.584 
z
" style="fill:#1f77b4;"/>
   </g>
   <g id="patch_191">
    <path clip-path="url(#p2c47ed4f91)" d="M 306.407283 307.584 
L 309.4697 307.584 
L 309.4697 306.570865 
L 306.407283 306.570865 
z
" style="fill:#1f77b4;"/>
   </g>
   <g id="patch_192">
    <path clip-path="url(#p2c47ed4f91)" d="M 309.4697 307.584 
L 312.532117 307.584 
L 312.532117 307.584 
L 309.4697 307.584 
z
" style="fill:#1f77b4;"/>
   </g>
   <g id="patch_193">
    <path clip-path="url(#p2c47ed4f91)" d="M 312.532117 307.584 
L 315.594535 307.584 
L 315.594535 306.570865 
L 312.532117 306.570865 
z
" style="fill:#1f77b4;"/>
   </g>
   <g id="patch_194">
    <path clip-path="url(#p2c47ed4f91)" d="M 315.594535 307.584 
L 318.656952 307.584 
L 318.656952 306.570865 
L 315.594535 306.570865 
z
" style="fill:#1f77b4;"/>
   </g>
   <g id="patch_195">
    <path clip-path="url(#p2c47ed4f91)" d="M 318.656952 307.584 
L 321.71937 307.584 
L 321.71937 307.584 
L 318.656952 307.584 
z
" style="fill:#1f77b4;"/>
   </g>
   <g id="patch_196">
    <path clip-path="url(#p2c47ed4f91)" d="M 321.71937 307.584 
L 324.781787 307.584 
L 324.781787 307.584 
L 321.71937 307.584 
z
" style="fill:#1f77b4;"/>
   </g>
   <g id="patch_197">
    <path clip-path="url(#p2c47ed4f91)" d="M 324.781787 307.584 
L 327.844205 307.584 
L 327.844205 307.584 
L 324.781787 307.584 
z
" style="fill:#1f77b4;"/>
   </g>
   <g id="patch_198">
    <path clip-path="url(#p2c47ed4f91)" d="M 327.844205 307.584 
L 330.906622 307.584 
L 330.906622 307.584 
L 327.844205 307.584 
z
" style="fill:#1f77b4;"/>
   </g>
   <g id="patch_199">
    <path clip-path="url(#p2c47ed4f91)" d="M 330.906622 307.584 
L 333.96904 307.584 
L 333.96904 307.584 
L 330.906622 307.584 
z
" style="fill:#1f77b4;"/>
   </g>
   <g id="patch_200">
    <path clip-path="url(#p2c47ed4f91)" d="M 333.96904 307.584 
L 337.031457 307.584 
L 337.031457 307.584 
L 333.96904 307.584 
z
" style="fill:#1f77b4;"/>
   </g>
   <g id="patch_201">
    <path clip-path="url(#p2c47ed4f91)" d="M 337.031457 307.584 
L 340.093874 307.584 
L 340.093874 307.584 
L 337.031457 307.584 
z
" style="fill:#1f77b4;"/>
   </g>
   <g id="patch_202">
    <path clip-path="url(#p2c47ed4f91)" d="M 340.093874 307.584 
L 343.156292 307.584 
L 343.156292 307.584 
L 340.093874 307.584 
z
" style="fill:#1f77b4;"/>
   </g>
   <g id="patch_203">
    <path clip-path="url(#p2c47ed4f91)" d="M 343.156292 307.584 
L 346.218709 307.584 
L 346.218709 306.570865 
L 343.156292 306.570865 
z
" style="fill:#1f77b4;"/>
   </g>
   <g id="patch_204">
    <path clip-path="url(#p2c47ed4f91)" d="M 346.218709 307.584 
L 349.281127 307.584 
L 349.281127 307.584 
L 346.218709 307.584 
z
" style="fill:#1f77b4;"/>
   </g>
   <g id="patch_205">
    <path clip-path="url(#p2c47ed4f91)" d="M 349.281127 307.584 
L 352.343544 307.584 
L 352.343544 307.584 
L 349.281127 307.584 
z
" style="fill:#1f77b4;"/>
   </g>
   <g id="patch_206">
    <path clip-path="url(#p2c47ed4f91)" d="M 352.343544 307.584 
L 355.405962 307.584 
L 355.405962 306.570865 
L 352.343544 306.570865 
z
" style="fill:#1f77b4;"/>
   </g>
   <g id="patch_207">
    <path clip-path="url(#p2c47ed4f91)" d="M 355.405962 307.584 
L 358.468379 307.584 
L 358.468379 307.584 
L 355.405962 307.584 
z
" style="fill:#1f77b4;"/>
   </g>
   <g id="patch_208">
    <path clip-path="url(#p2c47ed4f91)" d="M 358.468379 307.584 
L 361.530797 307.584 
L 361.530797 307.584 
L 358.468379 307.584 
z
" style="fill:#1f77b4;"/>
   </g>
   <g id="patch_209">
    <path clip-path="url(#p2c47ed4f91)" d="M 361.530797 307.584 
L 364.593214 307.584 
L 364.593214 306.570865 
L 361.530797 306.570865 
z
" style="fill:#1f77b4;"/>
   </g>
   <g id="matplotlib.axis_3">
    <g id="xtick_7">
     <g id="line2d_14">
      <g>
       <use style="stroke:#000000;stroke-width:0.8;" x="57.6" xlink:href="#m8e9286678a" y="307.584"/>
      </g>
     </g>
     <g id="text_13">
      <!-- 0 -->
      <g transform="translate(54.41875 322.182437)scale(0.1 -0.1)">
       <use xlink:href="#DejaVuSans-48"/>
      </g>
     </g>
    </g>
    <g id="xtick_8">
     <g id="line2d_15">
      <g>
       <use style="stroke:#000000;stroke-width:0.8;" x="129.024" xlink:href="#m8e9286678a" y="307.584"/>
      </g>
     </g>
     <g id="text_14">
      <!-- 2 -->
      <g transform="translate(125.84275 322.182437)scale(0.1 -0.1)">
       <use xlink:href="#DejaVuSans-50"/>
      </g>
     </g>
    </g>
    <g id="xtick_9">
     <g id="line2d_16">
      <g>
       <use style="stroke:#000000;stroke-width:0.8;" x="200.448" xlink:href="#m8e9286678a" y="307.584"/>
      </g>
     </g>
     <g id="text_15">
      <!-- 4 -->
      <g transform="translate(197.26675 322.182437)scale(0.1 -0.1)">
       <use xlink:href="#DejaVuSans-52"/>
      </g>
     </g>
    </g>
    <g id="xtick_10">
     <g id="line2d_17">
      <g>
       <use style="stroke:#000000;stroke-width:0.8;" x="271.872" xlink:href="#m8e9286678a" y="307.584"/>
      </g>
     </g>
     <g id="text_16">
      <!-- 6 -->
      <g transform="translate(268.69075 322.182437)scale(0.1 -0.1)">
       <use xlink:href="#DejaVuSans-54"/>
      </g>
     </g>
    </g>
    <g id="xtick_11">
     <g id="line2d_18">
      <g>
       <use style="stroke:#000000;stroke-width:0.8;" x="343.296" xlink:href="#m8e9286678a" y="307.584"/>
      </g>
     </g>
     <g id="text_17">
      <!-- 8 -->
      <g transform="translate(340.11475 322.182437)scale(0.1 -0.1)">
       <use xlink:href="#DejaVuSans-56"/>
      </g>
     </g>
    </g>
    <g id="xtick_12">
     <g id="line2d_19">
      <g>
       <use style="stroke:#000000;stroke-width:0.8;" x="414.72" xlink:href="#m8e9286678a" y="307.584"/>
      </g>
     </g>
     <g id="text_18">
      <!-- 10 -->
      <g transform="translate(408.3575 322.182437)scale(0.1 -0.1)">
       <use xlink:href="#DejaVuSans-49"/>
       <use x="63.623047" xlink:href="#DejaVuSans-48"/>
      </g>
     </g>
    </g>
   </g>
   <g id="matplotlib.axis_4">
    <g id="ytick_5">
     <g id="line2d_20">
      <g>
       <use style="stroke:#000000;stroke-width:0.8;" x="57.6" xlink:href="#mc30cf7683a" y="307.584"/>
      </g>
     </g>
     <g id="text_19">
      <!-- 0.00 -->
      <g transform="translate(28.334375 311.383219)scale(0.1 -0.1)">
       <use xlink:href="#DejaVuSans-48"/>
       <use x="63.623047" xlink:href="#DejaVuSans-46"/>
       <use x="95.410156" xlink:href="#DejaVuSans-48"/>
       <use x="159.033203" xlink:href="#DejaVuSans-48"/>
      </g>
     </g>
    </g>
    <g id="ytick_6">
     <g id="line2d_21">
      <g>
       <use style="stroke:#000000;stroke-width:0.8;" x="57.6" xlink:href="#mc30cf7683a" y="285.972719"/>
      </g>
     </g>
     <g id="text_20">
      <!-- 0.25 -->
      <g transform="translate(28.334375 289.771938)scale(0.1 -0.1)">
       <use xlink:href="#DejaVuSans-48"/>
       <use x="63.623047" xlink:href="#DejaVuSans-46"/>
       <use x="95.410156" xlink:href="#DejaVuSans-50"/>
       <use x="159.033203" xlink:href="#DejaVuSans-53"/>
      </g>
     </g>
    </g>
    <g id="ytick_7">
     <g id="line2d_22">
      <g>
       <use style="stroke:#000000;stroke-width:0.8;" x="57.6" xlink:href="#mc30cf7683a" y="264.361438"/>
      </g>
     </g>
     <g id="text_21">
      <!-- 0.50 -->
      <g transform="translate(28.334375 268.160657)scale(0.1 -0.1)">
       <use xlink:href="#DejaVuSans-48"/>
       <use x="63.623047" xlink:href="#DejaVuSans-46"/>
       <use x="95.410156" xlink:href="#DejaVuSans-53"/>
       <use x="159.033203" xlink:href="#DejaVuSans-48"/>
      </g>
     </g>
    </g>
    <g id="ytick_8">
     <g id="line2d_23">
      <g>
       <use style="stroke:#000000;stroke-width:0.8;" x="57.6" xlink:href="#mc30cf7683a" y="242.750157"/>
      </g>
     </g>
     <g id="text_22">
      <!-- 0.75 -->
      <defs>
       <path d="M 8.203125 72.90625 
L 55.078125 72.90625 
L 55.078125 68.703125 
L 28.609375 0 
L 18.3125 0 
L 43.21875 64.59375 
L 8.203125 64.59375 
z
" id="DejaVuSans-55"/>
      </defs>
      <g transform="translate(28.334375 246.549376)scale(0.1 -0.1)">
       <use xlink:href="#DejaVuSans-48"/>
       <use x="63.623047" xlink:href="#DejaVuSans-46"/>
       <use x="95.410156" xlink:href="#DejaVuSans-55"/>
       <use x="159.033203" xlink:href="#DejaVuSans-53"/>
      </g>
     </g>
    </g>
    <g id="ytick_9">
     <g id="line2d_24">
      <g>
       <use style="stroke:#000000;stroke-width:0.8;" x="57.6" xlink:href="#mc30cf7683a" y="221.138877"/>
      </g>
     </g>
     <g id="text_23">
      <!-- 1.00 -->
      <g transform="translate(28.334375 224.938095)scale(0.1 -0.1)">
       <use xlink:href="#DejaVuSans-49"/>
       <use x="63.623047" xlink:href="#DejaVuSans-46"/>
       <use x="95.410156" xlink:href="#DejaVuSans-48"/>
       <use x="159.033203" xlink:href="#DejaVuSans-48"/>
      </g>
     </g>
    </g>
    <g id="ytick_10">
     <g id="line2d_25">
      <g>
       <use style="stroke:#000000;stroke-width:0.8;" x="57.6" xlink:href="#mc30cf7683a" y="199.527596"/>
      </g>
     </g>
     <g id="text_24">
      <!-- 1.25 -->
      <g transform="translate(28.334375 203.326814)scale(0.1 -0.1)">
       <use xlink:href="#DejaVuSans-49"/>
       <use x="63.623047" xlink:href="#DejaVuSans-46"/>
       <use x="95.410156" xlink:href="#DejaVuSans-50"/>
       <use x="159.033203" xlink:href="#DejaVuSans-53"/>
      </g>
     </g>
    </g>
   </g>
   <g id="line2d_26">
    <path clip-path="url(#p2c47ed4f91)" d="M 57.95712 306.972325 
L 58.31424 302.468859 
L 59.02848 282.87973 
L 60.45696 238.676947 
L 61.1712 222.284266 
L 61.88544 210.234544 
L 62.59968 201.906365 
L 63.31392 196.581541 
L 64.02816 193.606369 
L 64.38528 192.824878 
L 64.7424 192.434614 
L 65.09952 192.384 
L 65.45664 192.627293 
L 65.81376 193.124037 
L 66.528 194.739325 
L 67.24224 196.992444 
L 68.3136 201.178434 
L 70.0992 209.291412 
L 74.38464 229.27506 
L 76.52736 238.207397 
L 78.67008 246.177994 
L 80.8128 253.203672 
L 82.95552 259.358222 
L 85.09824 264.735003 
L 87.24096 269.429229 
L 89.38368 273.530046 
L 91.5264 277.117456 
L 93.66912 280.261618 
L 95.81184 283.023264 
L 97.95456 285.454588 
L 100.4544 287.932877 
L 102.95424 290.082023 
L 105.45408 291.951902 
L 108.31104 293.799949 
L 111.168 295.388543 
L 114.38208 296.917384 
L 117.95328 298.351289 
L 121.8816 299.666836 
L 126.16704 300.851142 
L 130.8096 301.900041 
L 136.1664 302.874353 
L 142.23744 303.744849 
L 149.37984 304.532542 
L 157.5936 305.210163 
L 167.59296 305.806116 
L 180.09216 306.317203 
L 196.16256 306.738618 
L 217.94688 307.07204 
L 249.73056 307.318041 
L 302.94144 307.480605 
L 414.36288 307.562689 
L 414.36288 307.562689 
" style="fill:none;stroke:#ff7f0e;stroke-linecap:square;stroke-width:1.5;"/>
   </g>
   <g id="patch_210">
    <path d="M 57.6 307.584 
L 57.6 186.624 
" style="fill:none;stroke:#000000;stroke-linecap:square;stroke-linejoin:miter;stroke-width:0.8;"/>
   </g>
   <g id="patch_211">
    <path d="M 414.72 307.584 
L 414.72 186.624 
" style="fill:none;stroke:#000000;stroke-linecap:square;stroke-linejoin:miter;stroke-width:0.8;"/>
   </g>
   <g id="patch_212">
    <path d="M 57.6 307.584 
L 414.72 307.584 
" style="fill:none;stroke:#000000;stroke-linecap:square;stroke-linejoin:miter;stroke-width:0.8;"/>
   </g>
   <g id="patch_213">
    <path d="M 57.6 186.624 
L 414.72 186.624 
" style="fill:none;stroke:#000000;stroke-linecap:square;stroke-linejoin:miter;stroke-width:0.8;"/>
   </g>
   <g id="legend_2">
    <g id="patch_214">
     <path d="M 252.6825 223.98025 
L 407.72 223.98025 
Q 409.72 223.98025 409.72 221.98025 
L 409.72 193.624 
Q 409.72 191.624 407.72 191.624 
L 252.6825 191.624 
Q 250.6825 191.624 250.6825 193.624 
L 250.6825 221.98025 
Q 250.6825 223.98025 252.6825 223.98025 
z
" style="fill:#ffffff;opacity:0.8;stroke:#cccccc;stroke-linejoin:miter;"/>
    </g>
    <g id="line2d_27">
     <path d="M 254.6825 199.722437 
L 274.6825 199.722437 
" style="fill:none;stroke:#ff7f0e;stroke-linecap:square;stroke-width:1.5;"/>
    </g>
    <g id="line2d_28"/>
    <g id="text_25">
     <!-- EPSPs Song et al. (2005) -->
     <g transform="translate(282.6825 203.222437)scale(0.1 -0.1)">
      <use xlink:href="#DejaVuSans-69"/>
      <use x="63.183594" xlink:href="#DejaVuSans-80"/>
      <use x="123.486328" xlink:href="#DejaVuSans-83"/>
      <use x="186.962891" xlink:href="#DejaVuSans-80"/>
      <use x="245.515625" xlink:href="#DejaVuSans-115"/>
      <use x="297.615234" xlink:href="#DejaVuSans-32"/>
      <use x="329.402344" xlink:href="#DejaVuSans-83"/>
      <use x="392.878906" xlink:href="#DejaVuSans-111"/>
      <use x="454.060547" xlink:href="#DejaVuSans-110"/>
      <use x="517.439453" xlink:href="#DejaVuSans-103"/>
      <use x="580.916016" xlink:href="#DejaVuSans-32"/>
      <use x="612.703125" xlink:href="#DejaVuSans-101"/>
      <use x="674.226562" xlink:href="#DejaVuSans-116"/>
      <use x="713.435547" xlink:href="#DejaVuSans-32"/>
      <use x="745.222656" xlink:href="#DejaVuSans-97"/>
      <use x="806.501953" xlink:href="#DejaVuSans-108"/>
      <use x="834.285156" xlink:href="#DejaVuSans-46"/>
      <use x="866.072266" xlink:href="#DejaVuSans-32"/>
      <use x="897.859375" xlink:href="#DejaVuSans-40"/>
      <use x="936.873047" xlink:href="#DejaVuSans-50"/>
      <use x="1000.496094" xlink:href="#DejaVuSans-48"/>
      <use x="1064.119141" xlink:href="#DejaVuSans-48"/>
      <use x="1127.742188" xlink:href="#DejaVuSans-53"/>
      <use x="1191.365234" xlink:href="#DejaVuSans-41"/>
     </g>
    </g>
    <g id="patch_215">
     <path d="M 254.6825 217.900562 
L 274.6825 217.900562 
L 274.6825 210.900562 
L 254.6825 210.900562 
z
" style="fill:#1f77b4;"/>
    </g>
    <g id="text_26">
     <!-- EPSPs in CorI -->
     <defs>
      <path d="M 9.8125 72.90625 
L 19.671875 72.90625 
L 19.671875 0 
L 9.8125 0 
z
" id="DejaVuSans-73"/>
     </defs>
     <g transform="translate(282.6825 217.900562)scale(0.1 -0.1)">
      <use xlink:href="#DejaVuSans-69"/>
      <use x="63.183594" xlink:href="#DejaVuSans-80"/>
      <use x="123.486328" xlink:href="#DejaVuSans-83"/>
      <use x="186.962891" xlink:href="#DejaVuSans-80"/>
      <use x="245.515625" xlink:href="#DejaVuSans-115"/>
      <use x="297.615234" xlink:href="#DejaVuSans-32"/>
      <use x="329.402344" xlink:href="#DejaVuSans-105"/>
      <use x="357.185547" xlink:href="#DejaVuSans-110"/>
      <use x="420.564453" xlink:href="#DejaVuSans-32"/>
      <use x="452.351562" xlink:href="#DejaVuSans-67"/>
      <use x="522.175781" xlink:href="#DejaVuSans-111"/>
      <use x="583.357422" xlink:href="#DejaVuSans-114"/>
      <use x="624.470703" xlink:href="#DejaVuSans-73"/>
     </g>
    </g>
   </g>
  </g>
 </g>
 <defs>
  <clipPath id="p822d7a83a2">
   <rect height="120.96" width="357.12" x="57.6" y="41.472"/>
  </clipPath>
  <clipPath id="p2c47ed4f91">
   <rect height="120.96" width="357.12" x="57.6" y="186.624"/>
  </clipPath>
 </defs>
</svg>
