<?xml version="1.0" encoding="utf-8" standalone="no"?>
<!DOCTYPE svg PUBLIC "-//W3C//DTD SVG 1.1//EN"
  "http://www.w3.org/Graphics/SVG/1.1/DTD/svg11.dtd">
<svg height="345.6pt" version="1.1" viewBox="0 0 460.8 345.6" width="460.8pt" xmlns="http://www.w3.org/2000/svg" xmlns:xlink="http://www.w3.org/1999/xlink">
 <metadata>
  <rdf:RDF xmlns:cc="http://creativecommons.org/ns#" xmlns:dc="http://purl.org/dc/elements/1.1/" xmlns:rdf="http://www.w3.org/1999/02/22-rdf-syntax-ns#">
   <cc:Work>
    <dc:type rdf:resource="http://purl.org/dc/dcmitype/StillImage"/>
    <dc:date>2021-05-12T08:09:37.984488</dc:date>
    <dc:format>image/svg+xml</dc:format>
    <dc:creator>
     <cc:Agent>
      <dc:title>Matplotlib v3.4.1, https://matplotlib.org/</dc:title>
     </cc:Agent>
    </dc:creator>
   </cc:Work>
  </rdf:RDF>
 </metadata>
 <defs>
  <style type="text/css">*{stroke-linecap:butt;stroke-linejoin:round;}</style>
 </defs>
 <g id="figure_1">
  <g id="patch_1">
   <path d="M 0 345.6 
L 460.8 345.6 
L 460.8 0 
L 0 0 
z
" style="fill:#ffffff;"/>
  </g>
  <g id="axes_1">
   <g id="patch_2">
    <path d="M 57.6 162.432 
L 414.72 162.432 
L 414.72 41.472 
L 57.6 41.472 
z
" style="fill:#ffffff;"/>
   </g>
   <g id="patch_3">
    <path clip-path="url(#p6a80b35d24)" d="M 58.046865 162.432 
L 61.039334 162.432 
L 61.039334 118.706453 
L 58.046865 118.706453 
z
" style="fill:#1f77b4;"/>
   </g>
   <g id="patch_4">
    <path clip-path="url(#p6a80b35d24)" d="M 61.039334 162.432 
L 64.031803 162.432 
L 64.031803 50.595504 
L 61.039334 50.595504 
z
" style="fill:#1f77b4;"/>
   </g>
   <g id="patch_5">
    <path clip-path="url(#p6a80b35d24)" d="M 64.031803 162.432 
L 67.024272 162.432 
L 67.024272 47.232 
L 64.031803 47.232 
z
" style="fill:#1f77b4;"/>
   </g>
   <g id="patch_6">
    <path clip-path="url(#p6a80b35d24)" d="M 67.024272 162.432 
L 70.016742 162.432 
L 70.016742 59.845139 
L 67.024272 59.845139 
z
" style="fill:#1f77b4;"/>
   </g>
   <g id="patch_7">
    <path clip-path="url(#p6a80b35d24)" d="M 70.016742 162.432 
L 73.009211 162.432 
L 73.009211 88.43492 
L 70.016742 88.43492 
z
" style="fill:#1f77b4;"/>
   </g>
   <g id="patch_8">
    <path clip-path="url(#p6a80b35d24)" d="M 73.009211 162.432 
L 76.00168 162.432 
L 76.00168 102.72981 
L 73.009211 102.72981 
z
" style="fill:#1f77b4;"/>
   </g>
   <g id="patch_9">
    <path clip-path="url(#p6a80b35d24)" d="M 76.00168 162.432 
L 78.994149 162.432 
L 78.994149 109.456818 
L 76.00168 109.456818 
z
" style="fill:#1f77b4;"/>
   </g>
   <g id="patch_10">
    <path clip-path="url(#p6a80b35d24)" d="M 78.994149 162.432 
L 81.986618 162.432 
L 81.986618 132.160467 
L 78.994149 132.160467 
z
" style="fill:#1f77b4;"/>
   </g>
   <g id="patch_11">
    <path clip-path="url(#p6a80b35d24)" d="M 81.986618 162.432 
L 84.979088 162.432 
L 84.979088 130.478715 
L 81.986618 130.478715 
z
" style="fill:#1f77b4;"/>
   </g>
   <g id="patch_12">
    <path clip-path="url(#p6a80b35d24)" d="M 84.979088 162.432 
L 87.971557 162.432 
L 87.971557 130.478715 
L 84.979088 130.478715 
z
" style="fill:#1f77b4;"/>
   </g>
   <g id="patch_13">
    <path clip-path="url(#p6a80b35d24)" d="M 87.971557 162.432 
L 90.964026 162.432 
L 90.964026 141.410102 
L 87.971557 141.410102 
z
" style="fill:#1f77b4;"/>
   </g>
   <g id="patch_14">
    <path clip-path="url(#p6a80b35d24)" d="M 90.964026 162.432 
L 93.956495 162.432 
L 93.956495 150.659737 
L 90.964026 150.659737 
z
" style="fill:#1f77b4;"/>
   </g>
   <g id="patch_15">
    <path clip-path="url(#p6a80b35d24)" d="M 93.956495 162.432 
L 96.948964 162.432 
L 96.948964 140.569226 
L 93.956495 140.569226 
z
" style="fill:#1f77b4;"/>
   </g>
   <g id="patch_16">
    <path clip-path="url(#p6a80b35d24)" d="M 96.948964 162.432 
L 99.941433 162.432 
L 99.941433 145.614482 
L 96.948964 145.614482 
z
" style="fill:#1f77b4;"/>
   </g>
   <g id="patch_17">
    <path clip-path="url(#p6a80b35d24)" d="M 99.941433 162.432 
L 102.933903 162.432 
L 102.933903 150.659737 
L 99.941433 150.659737 
z
" style="fill:#1f77b4;"/>
   </g>
   <g id="patch_18">
    <path clip-path="url(#p6a80b35d24)" d="M 102.933903 162.432 
L 105.926372 162.432 
L 105.926372 149.818861 
L 102.933903 149.818861 
z
" style="fill:#1f77b4;"/>
   </g>
   <g id="patch_19">
    <path clip-path="url(#p6a80b35d24)" d="M 105.926372 162.432 
L 108.918841 162.432 
L 108.918841 151.500613 
L 105.926372 151.500613 
z
" style="fill:#1f77b4;"/>
   </g>
   <g id="patch_20">
    <path clip-path="url(#p6a80b35d24)" d="M 108.918841 162.432 
L 111.91131 162.432 
L 111.91131 154.023241 
L 108.918841 154.023241 
z
" style="fill:#1f77b4;"/>
   </g>
   <g id="patch_21">
    <path clip-path="url(#p6a80b35d24)" d="M 111.91131 162.432 
L 114.903779 162.432 
L 114.903779 157.386745 
L 111.91131 157.386745 
z
" style="fill:#1f77b4;"/>
   </g>
   <g id="patch_22">
    <path clip-path="url(#p6a80b35d24)" d="M 114.903779 162.432 
L 117.896249 162.432 
L 117.896249 160.750248 
L 114.903779 160.750248 
z
" style="fill:#1f77b4;"/>
   </g>
   <g id="patch_23">
    <path clip-path="url(#p6a80b35d24)" d="M 117.896249 162.432 
L 120.888718 162.432 
L 120.888718 153.182365 
L 117.896249 153.182365 
z
" style="fill:#1f77b4;"/>
   </g>
   <g id="patch_24">
    <path clip-path="url(#p6a80b35d24)" d="M 120.888718 162.432 
L 123.881187 162.432 
L 123.881187 154.864117 
L 120.888718 154.864117 
z
" style="fill:#1f77b4;"/>
   </g>
   <g id="patch_25">
    <path clip-path="url(#p6a80b35d24)" d="M 123.881187 162.432 
L 126.873656 162.432 
L 126.873656 158.22762 
L 123.881187 158.22762 
z
" style="fill:#1f77b4;"/>
   </g>
   <g id="patch_26">
    <path clip-path="url(#p6a80b35d24)" d="M 126.873656 162.432 
L 129.866125 162.432 
L 129.866125 157.386745 
L 126.873656 157.386745 
z
" style="fill:#1f77b4;"/>
   </g>
   <g id="patch_27">
    <path clip-path="url(#p6a80b35d24)" d="M 129.866125 162.432 
L 132.858594 162.432 
L 132.858594 159.068496 
L 129.866125 159.068496 
z
" style="fill:#1f77b4;"/>
   </g>
   <g id="patch_28">
    <path clip-path="url(#p6a80b35d24)" d="M 132.858594 162.432 
L 135.851064 162.432 
L 135.851064 161.591124 
L 132.858594 161.591124 
z
" style="fill:#1f77b4;"/>
   </g>
   <g id="patch_29">
    <path clip-path="url(#p6a80b35d24)" d="M 135.851064 162.432 
L 138.843533 162.432 
L 138.843533 159.909372 
L 135.851064 159.909372 
z
" style="fill:#1f77b4;"/>
   </g>
   <g id="patch_30">
    <path clip-path="url(#p6a80b35d24)" d="M 138.843533 162.432 
L 141.836002 162.432 
L 141.836002 160.750248 
L 138.843533 160.750248 
z
" style="fill:#1f77b4;"/>
   </g>
   <g id="patch_31">
    <path clip-path="url(#p6a80b35d24)" d="M 141.836002 162.432 
L 144.828471 162.432 
L 144.828471 160.750248 
L 141.836002 160.750248 
z
" style="fill:#1f77b4;"/>
   </g>
   <g id="patch_32">
    <path clip-path="url(#p6a80b35d24)" d="M 144.828471 162.432 
L 147.82094 162.432 
L 147.82094 160.750248 
L 144.828471 160.750248 
z
" style="fill:#1f77b4;"/>
   </g>
   <g id="patch_33">
    <path clip-path="url(#p6a80b35d24)" d="M 147.82094 162.432 
L 150.81341 162.432 
L 150.81341 160.750248 
L 147.82094 160.750248 
z
" style="fill:#1f77b4;"/>
   </g>
   <g id="patch_34">
    <path clip-path="url(#p6a80b35d24)" d="M 150.81341 162.432 
L 153.805879 162.432 
L 153.805879 162.432 
L 150.81341 162.432 
z
" style="fill:#1f77b4;"/>
   </g>
   <g id="patch_35">
    <path clip-path="url(#p6a80b35d24)" d="M 153.805879 162.432 
L 156.798348 162.432 
L 156.798348 160.750248 
L 153.805879 160.750248 
z
" style="fill:#1f77b4;"/>
   </g>
   <g id="patch_36">
    <path clip-path="url(#p6a80b35d24)" d="M 156.798348 162.432 
L 159.790817 162.432 
L 159.790817 158.22762 
L 156.798348 158.22762 
z
" style="fill:#1f77b4;"/>
   </g>
   <g id="patch_37">
    <path clip-path="url(#p6a80b35d24)" d="M 159.790817 162.432 
L 162.783286 162.432 
L 162.783286 162.432 
L 159.790817 162.432 
z
" style="fill:#1f77b4;"/>
   </g>
   <g id="patch_38">
    <path clip-path="url(#p6a80b35d24)" d="M 162.783286 162.432 
L 165.775755 162.432 
L 165.775755 161.591124 
L 162.783286 161.591124 
z
" style="fill:#1f77b4;"/>
   </g>
   <g id="patch_39">
    <path clip-path="url(#p6a80b35d24)" d="M 165.775755 162.432 
L 168.768225 162.432 
L 168.768225 161.591124 
L 165.775755 161.591124 
z
" style="fill:#1f77b4;"/>
   </g>
   <g id="patch_40">
    <path clip-path="url(#p6a80b35d24)" d="M 168.768225 162.432 
L 171.760694 162.432 
L 171.760694 161.591124 
L 168.768225 161.591124 
z
" style="fill:#1f77b4;"/>
   </g>
   <g id="patch_41">
    <path clip-path="url(#p6a80b35d24)" d="M 171.760694 162.432 
L 174.753163 162.432 
L 174.753163 162.432 
L 171.760694 162.432 
z
" style="fill:#1f77b4;"/>
   </g>
   <g id="patch_42">
    <path clip-path="url(#p6a80b35d24)" d="M 174.753163 162.432 
L 177.745632 162.432 
L 177.745632 161.591124 
L 174.753163 161.591124 
z
" style="fill:#1f77b4;"/>
   </g>
   <g id="patch_43">
    <path clip-path="url(#p6a80b35d24)" d="M 177.745632 162.432 
L 180.738101 162.432 
L 180.738101 159.909372 
L 177.745632 159.909372 
z
" style="fill:#1f77b4;"/>
   </g>
   <g id="patch_44">
    <path clip-path="url(#p6a80b35d24)" d="M 180.738101 162.432 
L 183.730571 162.432 
L 183.730571 161.591124 
L 180.738101 161.591124 
z
" style="fill:#1f77b4;"/>
   </g>
   <g id="patch_45">
    <path clip-path="url(#p6a80b35d24)" d="M 183.730571 162.432 
L 186.72304 162.432 
L 186.72304 159.909372 
L 183.730571 159.909372 
z
" style="fill:#1f77b4;"/>
   </g>
   <g id="patch_46">
    <path clip-path="url(#p6a80b35d24)" d="M 186.72304 162.432 
L 189.715509 162.432 
L 189.715509 162.432 
L 186.72304 162.432 
z
" style="fill:#1f77b4;"/>
   </g>
   <g id="patch_47">
    <path clip-path="url(#p6a80b35d24)" d="M 189.715509 162.432 
L 192.707978 162.432 
L 192.707978 162.432 
L 189.715509 162.432 
z
" style="fill:#1f77b4;"/>
   </g>
   <g id="patch_48">
    <path clip-path="url(#p6a80b35d24)" d="M 192.707978 162.432 
L 195.700447 162.432 
L 195.700447 162.432 
L 192.707978 162.432 
z
" style="fill:#1f77b4;"/>
   </g>
   <g id="patch_49">
    <path clip-path="url(#p6a80b35d24)" d="M 195.700447 162.432 
L 198.692916 162.432 
L 198.692916 162.432 
L 195.700447 162.432 
z
" style="fill:#1f77b4;"/>
   </g>
   <g id="patch_50">
    <path clip-path="url(#p6a80b35d24)" d="M 198.692916 162.432 
L 201.685386 162.432 
L 201.685386 160.750248 
L 198.692916 160.750248 
z
" style="fill:#1f77b4;"/>
   </g>
   <g id="patch_51">
    <path clip-path="url(#p6a80b35d24)" d="M 201.685386 162.432 
L 204.677855 162.432 
L 204.677855 161.591124 
L 201.685386 161.591124 
z
" style="fill:#1f77b4;"/>
   </g>
   <g id="patch_52">
    <path clip-path="url(#p6a80b35d24)" d="M 204.677855 162.432 
L 207.670324 162.432 
L 207.670324 162.432 
L 204.677855 162.432 
z
" style="fill:#1f77b4;"/>
   </g>
   <g id="patch_53">
    <path clip-path="url(#p6a80b35d24)" d="M 207.670324 162.432 
L 210.662793 162.432 
L 210.662793 162.432 
L 207.670324 162.432 
z
" style="fill:#1f77b4;"/>
   </g>
   <g id="patch_54">
    <path clip-path="url(#p6a80b35d24)" d="M 210.662793 162.432 
L 213.655262 162.432 
L 213.655262 162.432 
L 210.662793 162.432 
z
" style="fill:#1f77b4;"/>
   </g>
   <g id="patch_55">
    <path clip-path="url(#p6a80b35d24)" d="M 213.655262 162.432 
L 216.647732 162.432 
L 216.647732 162.432 
L 213.655262 162.432 
z
" style="fill:#1f77b4;"/>
   </g>
   <g id="patch_56">
    <path clip-path="url(#p6a80b35d24)" d="M 216.647732 162.432 
L 219.640201 162.432 
L 219.640201 161.591124 
L 216.647732 161.591124 
z
" style="fill:#1f77b4;"/>
   </g>
   <g id="patch_57">
    <path clip-path="url(#p6a80b35d24)" d="M 219.640201 162.432 
L 222.63267 162.432 
L 222.63267 161.591124 
L 219.640201 161.591124 
z
" style="fill:#1f77b4;"/>
   </g>
   <g id="patch_58">
    <path clip-path="url(#p6a80b35d24)" d="M 222.63267 162.432 
L 225.625139 162.432 
L 225.625139 162.432 
L 222.63267 162.432 
z
" style="fill:#1f77b4;"/>
   </g>
   <g id="patch_59">
    <path clip-path="url(#p6a80b35d24)" d="M 225.625139 162.432 
L 228.617608 162.432 
L 228.617608 162.432 
L 225.625139 162.432 
z
" style="fill:#1f77b4;"/>
   </g>
   <g id="patch_60">
    <path clip-path="url(#p6a80b35d24)" d="M 228.617608 162.432 
L 231.610077 162.432 
L 231.610077 162.432 
L 228.617608 162.432 
z
" style="fill:#1f77b4;"/>
   </g>
   <g id="patch_61">
    <path clip-path="url(#p6a80b35d24)" d="M 231.610077 162.432 
L 234.602547 162.432 
L 234.602547 162.432 
L 231.610077 162.432 
z
" style="fill:#1f77b4;"/>
   </g>
   <g id="patch_62">
    <path clip-path="url(#p6a80b35d24)" d="M 234.602547 162.432 
L 237.595016 162.432 
L 237.595016 162.432 
L 234.602547 162.432 
z
" style="fill:#1f77b4;"/>
   </g>
   <g id="patch_63">
    <path clip-path="url(#p6a80b35d24)" d="M 237.595016 162.432 
L 240.587485 162.432 
L 240.587485 162.432 
L 237.595016 162.432 
z
" style="fill:#1f77b4;"/>
   </g>
   <g id="patch_64">
    <path clip-path="url(#p6a80b35d24)" d="M 240.587485 162.432 
L 243.579954 162.432 
L 243.579954 162.432 
L 240.587485 162.432 
z
" style="fill:#1f77b4;"/>
   </g>
   <g id="patch_65">
    <path clip-path="url(#p6a80b35d24)" d="M 243.579954 162.432 
L 246.572423 162.432 
L 246.572423 162.432 
L 243.579954 162.432 
z
" style="fill:#1f77b4;"/>
   </g>
   <g id="patch_66">
    <path clip-path="url(#p6a80b35d24)" d="M 246.572423 162.432 
L 249.564892 162.432 
L 249.564892 161.591124 
L 246.572423 161.591124 
z
" style="fill:#1f77b4;"/>
   </g>
   <g id="patch_67">
    <path clip-path="url(#p6a80b35d24)" d="M 249.564892 162.432 
L 252.557362 162.432 
L 252.557362 162.432 
L 249.564892 162.432 
z
" style="fill:#1f77b4;"/>
   </g>
   <g id="patch_68">
    <path clip-path="url(#p6a80b35d24)" d="M 252.557362 162.432 
L 255.549831 162.432 
L 255.549831 162.432 
L 252.557362 162.432 
z
" style="fill:#1f77b4;"/>
   </g>
   <g id="patch_69">
    <path clip-path="url(#p6a80b35d24)" d="M 255.549831 162.432 
L 258.5423 162.432 
L 258.5423 162.432 
L 255.549831 162.432 
z
" style="fill:#1f77b4;"/>
   </g>
   <g id="patch_70">
    <path clip-path="url(#p6a80b35d24)" d="M 258.5423 162.432 
L 261.534769 162.432 
L 261.534769 162.432 
L 258.5423 162.432 
z
" style="fill:#1f77b4;"/>
   </g>
   <g id="patch_71">
    <path clip-path="url(#p6a80b35d24)" d="M 261.534769 162.432 
L 264.527238 162.432 
L 264.527238 161.591124 
L 261.534769 161.591124 
z
" style="fill:#1f77b4;"/>
   </g>
   <g id="patch_72">
    <path clip-path="url(#p6a80b35d24)" d="M 264.527238 162.432 
L 267.519708 162.432 
L 267.519708 162.432 
L 264.527238 162.432 
z
" style="fill:#1f77b4;"/>
   </g>
   <g id="patch_73">
    <path clip-path="url(#p6a80b35d24)" d="M 267.519708 162.432 
L 270.512177 162.432 
L 270.512177 162.432 
L 267.519708 162.432 
z
" style="fill:#1f77b4;"/>
   </g>
   <g id="patch_74">
    <path clip-path="url(#p6a80b35d24)" d="M 270.512177 162.432 
L 273.504646 162.432 
L 273.504646 162.432 
L 270.512177 162.432 
z
" style="fill:#1f77b4;"/>
   </g>
   <g id="patch_75">
    <path clip-path="url(#p6a80b35d24)" d="M 273.504646 162.432 
L 276.497115 162.432 
L 276.497115 160.750248 
L 273.504646 160.750248 
z
" style="fill:#1f77b4;"/>
   </g>
   <g id="patch_76">
    <path clip-path="url(#p6a80b35d24)" d="M 276.497115 162.432 
L 279.489584 162.432 
L 279.489584 162.432 
L 276.497115 162.432 
z
" style="fill:#1f77b4;"/>
   </g>
   <g id="patch_77">
    <path clip-path="url(#p6a80b35d24)" d="M 279.489584 162.432 
L 282.482053 162.432 
L 282.482053 162.432 
L 279.489584 162.432 
z
" style="fill:#1f77b4;"/>
   </g>
   <g id="patch_78">
    <path clip-path="url(#p6a80b35d24)" d="M 282.482053 162.432 
L 285.474523 162.432 
L 285.474523 162.432 
L 282.482053 162.432 
z
" style="fill:#1f77b4;"/>
   </g>
   <g id="patch_79">
    <path clip-path="url(#p6a80b35d24)" d="M 285.474523 162.432 
L 288.466992 162.432 
L 288.466992 162.432 
L 285.474523 162.432 
z
" style="fill:#1f77b4;"/>
   </g>
   <g id="patch_80">
    <path clip-path="url(#p6a80b35d24)" d="M 288.466992 162.432 
L 291.459461 162.432 
L 291.459461 162.432 
L 288.466992 162.432 
z
" style="fill:#1f77b4;"/>
   </g>
   <g id="patch_81">
    <path clip-path="url(#p6a80b35d24)" d="M 291.459461 162.432 
L 294.45193 162.432 
L 294.45193 162.432 
L 291.459461 162.432 
z
" style="fill:#1f77b4;"/>
   </g>
   <g id="patch_82">
    <path clip-path="url(#p6a80b35d24)" d="M 294.45193 162.432 
L 297.444399 162.432 
L 297.444399 162.432 
L 294.45193 162.432 
z
" style="fill:#1f77b4;"/>
   </g>
   <g id="patch_83">
    <path clip-path="url(#p6a80b35d24)" d="M 297.444399 162.432 
L 300.436869 162.432 
L 300.436869 162.432 
L 297.444399 162.432 
z
" style="fill:#1f77b4;"/>
   </g>
   <g id="patch_84">
    <path clip-path="url(#p6a80b35d24)" d="M 300.436869 162.432 
L 303.429338 162.432 
L 303.429338 162.432 
L 300.436869 162.432 
z
" style="fill:#1f77b4;"/>
   </g>
   <g id="patch_85">
    <path clip-path="url(#p6a80b35d24)" d="M 303.429338 162.432 
L 306.421807 162.432 
L 306.421807 162.432 
L 303.429338 162.432 
z
" style="fill:#1f77b4;"/>
   </g>
   <g id="patch_86">
    <path clip-path="url(#p6a80b35d24)" d="M 306.421807 162.432 
L 309.414276 162.432 
L 309.414276 162.432 
L 306.421807 162.432 
z
" style="fill:#1f77b4;"/>
   </g>
   <g id="patch_87">
    <path clip-path="url(#p6a80b35d24)" d="M 309.414276 162.432 
L 312.406745 162.432 
L 312.406745 161.591124 
L 309.414276 161.591124 
z
" style="fill:#1f77b4;"/>
   </g>
   <g id="patch_88">
    <path clip-path="url(#p6a80b35d24)" d="M 312.406745 162.432 
L 315.399214 162.432 
L 315.399214 162.432 
L 312.406745 162.432 
z
" style="fill:#1f77b4;"/>
   </g>
   <g id="patch_89">
    <path clip-path="url(#p6a80b35d24)" d="M 315.399214 162.432 
L 318.391684 162.432 
L 318.391684 162.432 
L 315.399214 162.432 
z
" style="fill:#1f77b4;"/>
   </g>
   <g id="patch_90">
    <path clip-path="url(#p6a80b35d24)" d="M 318.391684 162.432 
L 321.384153 162.432 
L 321.384153 162.432 
L 318.391684 162.432 
z
" style="fill:#1f77b4;"/>
   </g>
   <g id="patch_91">
    <path clip-path="url(#p6a80b35d24)" d="M 321.384153 162.432 
L 324.376622 162.432 
L 324.376622 162.432 
L 321.384153 162.432 
z
" style="fill:#1f77b4;"/>
   </g>
   <g id="patch_92">
    <path clip-path="url(#p6a80b35d24)" d="M 324.376622 162.432 
L 327.369091 162.432 
L 327.369091 161.591124 
L 324.376622 161.591124 
z
" style="fill:#1f77b4;"/>
   </g>
   <g id="patch_93">
    <path clip-path="url(#p6a80b35d24)" d="M 327.369091 162.432 
L 330.36156 162.432 
L 330.36156 162.432 
L 327.369091 162.432 
z
" style="fill:#1f77b4;"/>
   </g>
   <g id="patch_94">
    <path clip-path="url(#p6a80b35d24)" d="M 330.36156 162.432 
L 333.35403 162.432 
L 333.35403 162.432 
L 330.36156 162.432 
z
" style="fill:#1f77b4;"/>
   </g>
   <g id="patch_95">
    <path clip-path="url(#p6a80b35d24)" d="M 333.35403 162.432 
L 336.346499 162.432 
L 336.346499 162.432 
L 333.35403 162.432 
z
" style="fill:#1f77b4;"/>
   </g>
   <g id="patch_96">
    <path clip-path="url(#p6a80b35d24)" d="M 336.346499 162.432 
L 339.338968 162.432 
L 339.338968 162.432 
L 336.346499 162.432 
z
" style="fill:#1f77b4;"/>
   </g>
   <g id="patch_97">
    <path clip-path="url(#p6a80b35d24)" d="M 339.338968 162.432 
L 342.331437 162.432 
L 342.331437 162.432 
L 339.338968 162.432 
z
" style="fill:#1f77b4;"/>
   </g>
   <g id="patch_98">
    <path clip-path="url(#p6a80b35d24)" d="M 342.331437 162.432 
L 345.323906 162.432 
L 345.323906 162.432 
L 342.331437 162.432 
z
" style="fill:#1f77b4;"/>
   </g>
   <g id="patch_99">
    <path clip-path="url(#p6a80b35d24)" d="M 345.323906 162.432 
L 348.316375 162.432 
L 348.316375 162.432 
L 345.323906 162.432 
z
" style="fill:#1f77b4;"/>
   </g>
   <g id="patch_100">
    <path clip-path="url(#p6a80b35d24)" d="M 348.316375 162.432 
L 351.308845 162.432 
L 351.308845 162.432 
L 348.316375 162.432 
z
" style="fill:#1f77b4;"/>
   </g>
   <g id="patch_101">
    <path clip-path="url(#p6a80b35d24)" d="M 351.308845 162.432 
L 354.301314 162.432 
L 354.301314 162.432 
L 351.308845 162.432 
z
" style="fill:#1f77b4;"/>
   </g>
   <g id="patch_102">
    <path clip-path="url(#p6a80b35d24)" d="M 354.301314 162.432 
L 357.293783 162.432 
L 357.293783 161.591124 
L 354.301314 161.591124 
z
" style="fill:#1f77b4;"/>
   </g>
   <g id="matplotlib.axis_1">
    <g id="xtick_1">
     <g id="line2d_1">
      <defs>
       <path d="M 0 0 
L 0 3.5 
" id="m6d98389932" style="stroke:#000000;stroke-width:0.8;"/>
      </defs>
      <g>
       <use style="stroke:#000000;stroke-width:0.8;" x="57.6" xlink:href="#m6d98389932" y="162.432"/>
      </g>
     </g>
     <g id="text_1">
      <!-- 0 -->
      <g transform="translate(54.41875 177.030437)scale(0.1 -0.1)">
       <defs>
        <path d="M 2034 4250 
Q 1547 4250 1301 3770 
Q 1056 3291 1056 2328 
Q 1056 1369 1301 889 
Q 1547 409 2034 409 
Q 2525 409 2770 889 
Q 3016 1369 3016 2328 
Q 3016 3291 2770 3770 
Q 2525 4250 2034 4250 
z
M 2034 4750 
Q 2819 4750 3233 4129 
Q 3647 3509 3647 2328 
Q 3647 1150 3233 529 
Q 2819 -91 2034 -91 
Q 1250 -91 836 529 
Q 422 1150 422 2328 
Q 422 3509 836 4129 
Q 1250 4750 2034 4750 
z
" id="DejaVuSans-30" transform="scale(0.015625)"/>
       </defs>
       <use xlink:href="#DejaVuSans-30"/>
      </g>
     </g>
    </g>
    <g id="xtick_2">
     <g id="line2d_2">
      <g>
       <use style="stroke:#000000;stroke-width:0.8;" x="129.024" xlink:href="#m6d98389932" y="162.432"/>
      </g>
     </g>
     <g id="text_2">
      <!-- 2 -->
      <g transform="translate(125.84275 177.030437)scale(0.1 -0.1)">
       <defs>
        <path d="M 1228 531 
L 3431 531 
L 3431 0 
L 469 0 
L 469 531 
Q 828 903 1448 1529 
Q 2069 2156 2228 2338 
Q 2531 2678 2651 2914 
Q 2772 3150 2772 3378 
Q 2772 3750 2511 3984 
Q 2250 4219 1831 4219 
Q 1534 4219 1204 4116 
Q 875 4013 500 3803 
L 500 4441 
Q 881 4594 1212 4672 
Q 1544 4750 1819 4750 
Q 2544 4750 2975 4387 
Q 3406 4025 3406 3419 
Q 3406 3131 3298 2873 
Q 3191 2616 2906 2266 
Q 2828 2175 2409 1742 
Q 1991 1309 1228 531 
z
" id="DejaVuSans-32" transform="scale(0.015625)"/>
       </defs>
       <use xlink:href="#DejaVuSans-32"/>
      </g>
     </g>
    </g>
    <g id="xtick_3">
     <g id="line2d_3">
      <g>
       <use style="stroke:#000000;stroke-width:0.8;" x="200.448" xlink:href="#m6d98389932" y="162.432"/>
      </g>
     </g>
     <g id="text_3">
      <!-- 4 -->
      <g transform="translate(197.26675 177.030437)scale(0.1 -0.1)">
       <defs>
        <path d="M 2419 4116 
L 825 1625 
L 2419 1625 
L 2419 4116 
z
M 2253 4666 
L 3047 4666 
L 3047 1625 
L 3713 1625 
L 3713 1100 
L 3047 1100 
L 3047 0 
L 2419 0 
L 2419 1100 
L 313 1100 
L 313 1709 
L 2253 4666 
z
" id="DejaVuSans-34" transform="scale(0.015625)"/>
       </defs>
       <use xlink:href="#DejaVuSans-34"/>
      </g>
     </g>
    </g>
    <g id="xtick_4">
     <g id="line2d_4">
      <g>
       <use style="stroke:#000000;stroke-width:0.8;" x="271.872" xlink:href="#m6d98389932" y="162.432"/>
      </g>
     </g>
     <g id="text_4">
      <!-- 6 -->
      <g transform="translate(268.69075 177.030437)scale(0.1 -0.1)">
       <defs>
        <path d="M 2113 2584 
Q 1688 2584 1439 2293 
Q 1191 2003 1191 1497 
Q 1191 994 1439 701 
Q 1688 409 2113 409 
Q 2538 409 2786 701 
Q 3034 994 3034 1497 
Q 3034 2003 2786 2293 
Q 2538 2584 2113 2584 
z
M 3366 4563 
L 3366 3988 
Q 3128 4100 2886 4159 
Q 2644 4219 2406 4219 
Q 1781 4219 1451 3797 
Q 1122 3375 1075 2522 
Q 1259 2794 1537 2939 
Q 1816 3084 2150 3084 
Q 2853 3084 3261 2657 
Q 3669 2231 3669 1497 
Q 3669 778 3244 343 
Q 2819 -91 2113 -91 
Q 1303 -91 875 529 
Q 447 1150 447 2328 
Q 447 3434 972 4092 
Q 1497 4750 2381 4750 
Q 2619 4750 2861 4703 
Q 3103 4656 3366 4563 
z
" id="DejaVuSans-36" transform="scale(0.015625)"/>
       </defs>
       <use xlink:href="#DejaVuSans-36"/>
      </g>
     </g>
    </g>
    <g id="xtick_5">
     <g id="line2d_5">
      <g>
       <use style="stroke:#000000;stroke-width:0.8;" x="343.296" xlink:href="#m6d98389932" y="162.432"/>
      </g>
     </g>
     <g id="text_5">
      <!-- 8 -->
      <g transform="translate(340.11475 177.030437)scale(0.1 -0.1)">
       <defs>
        <path d="M 2034 2216 
Q 1584 2216 1326 1975 
Q 1069 1734 1069 1313 
Q 1069 891 1326 650 
Q 1584 409 2034 409 
Q 2484 409 2743 651 
Q 3003 894 3003 1313 
Q 3003 1734 2745 1975 
Q 2488 2216 2034 2216 
z
M 1403 2484 
Q 997 2584 770 2862 
Q 544 3141 544 3541 
Q 544 4100 942 4425 
Q 1341 4750 2034 4750 
Q 2731 4750 3128 4425 
Q 3525 4100 3525 3541 
Q 3525 3141 3298 2862 
Q 3072 2584 2669 2484 
Q 3125 2378 3379 2068 
Q 3634 1759 3634 1313 
Q 3634 634 3220 271 
Q 2806 -91 2034 -91 
Q 1263 -91 848 271 
Q 434 634 434 1313 
Q 434 1759 690 2068 
Q 947 2378 1403 2484 
z
M 1172 3481 
Q 1172 3119 1398 2916 
Q 1625 2713 2034 2713 
Q 2441 2713 2670 2916 
Q 2900 3119 2900 3481 
Q 2900 3844 2670 4047 
Q 2441 4250 2034 4250 
Q 1625 4250 1398 4047 
Q 1172 3844 1172 3481 
z
" id="DejaVuSans-38" transform="scale(0.015625)"/>
       </defs>
       <use xlink:href="#DejaVuSans-38"/>
      </g>
     </g>
    </g>
    <g id="xtick_6">
     <g id="line2d_6">
      <g>
       <use style="stroke:#000000;stroke-width:0.8;" x="414.72" xlink:href="#m6d98389932" y="162.432"/>
      </g>
     </g>
     <g id="text_6">
      <!-- 10 -->
      <g transform="translate(408.3575 177.030437)scale(0.1 -0.1)">
       <defs>
        <path d="M 794 531 
L 1825 531 
L 1825 4091 
L 703 3866 
L 703 4441 
L 1819 4666 
L 2450 4666 
L 2450 531 
L 3481 531 
L 3481 0 
L 794 0 
L 794 531 
z
" id="DejaVuSans-31" transform="scale(0.015625)"/>
       </defs>
       <use xlink:href="#DejaVuSans-31"/>
       <use x="63.623047" xlink:href="#DejaVuSans-30"/>
      </g>
     </g>
    </g>
   </g>
   <g id="matplotlib.axis_2">
    <g id="ytick_1">
     <g id="line2d_7">
      <defs>
       <path d="M 0 0 
L -3.5 0 
" id="mff9012e447" style="stroke:#000000;stroke-width:0.8;"/>
      </defs>
      <g>
       <use style="stroke:#000000;stroke-width:0.8;" x="57.6" xlink:href="#mff9012e447" y="162.432"/>
      </g>
     </g>
     <g id="text_7">
      <!-- 0.0 -->
      <g transform="translate(34.696875 166.231219)scale(0.1 -0.1)">
       <defs>
        <path d="M 684 794 
L 1344 794 
L 1344 0 
L 684 0 
L 684 794 
z
" id="DejaVuSans-2e" transform="scale(0.015625)"/>
       </defs>
       <use xlink:href="#DejaVuSans-30"/>
       <use x="63.623047" xlink:href="#DejaVuSans-2e"/>
       <use x="95.410156" xlink:href="#DejaVuSans-30"/>
      </g>
     </g>
    </g>
    <g id="ytick_2">
     <g id="line2d_8">
      <g>
       <use style="stroke:#000000;stroke-width:0.8;" x="57.6" xlink:href="#mff9012e447" y="127.201612"/>
      </g>
     </g>
     <g id="text_8">
      <!-- 0.5 -->
      <g transform="translate(34.696875 131.00083)scale(0.1 -0.1)">
       <defs>
        <path d="M 691 4666 
L 3169 4666 
L 3169 4134 
L 1269 4134 
L 1269 2991 
Q 1406 3038 1543 3061 
Q 1681 3084 1819 3084 
Q 2600 3084 3056 2656 
Q 3513 2228 3513 1497 
Q 3513 744 3044 326 
Q 2575 -91 1722 -91 
Q 1428 -91 1123 -41 
Q 819 9 494 109 
L 494 744 
Q 775 591 1075 516 
Q 1375 441 1709 441 
Q 2250 441 2565 725 
Q 2881 1009 2881 1497 
Q 2881 1984 2565 2268 
Q 2250 2553 1709 2553 
Q 1456 2553 1204 2497 
Q 953 2441 691 2322 
L 691 4666 
z
" id="DejaVuSans-35" transform="scale(0.015625)"/>
       </defs>
       <use xlink:href="#DejaVuSans-30"/>
       <use x="63.623047" xlink:href="#DejaVuSans-2e"/>
       <use x="95.410156" xlink:href="#DejaVuSans-35"/>
      </g>
     </g>
    </g>
    <g id="ytick_3">
     <g id="line2d_9">
      <g>
       <use style="stroke:#000000;stroke-width:0.8;" x="57.6" xlink:href="#mff9012e447" y="91.971223"/>
      </g>
     </g>
     <g id="text_9">
      <!-- 1.0 -->
      <g transform="translate(34.696875 95.770442)scale(0.1 -0.1)">
       <use xlink:href="#DejaVuSans-31"/>
       <use x="63.623047" xlink:href="#DejaVuSans-2e"/>
       <use x="95.410156" xlink:href="#DejaVuSans-30"/>
      </g>
     </g>
    </g>
    <g id="ytick_4">
     <g id="line2d_10">
      <g>
       <use style="stroke:#000000;stroke-width:0.8;" x="57.6" xlink:href="#mff9012e447" y="56.740835"/>
      </g>
     </g>
     <g id="text_10">
      <!-- 1.5 -->
      <g transform="translate(34.696875 60.540054)scale(0.1 -0.1)">
       <use xlink:href="#DejaVuSans-31"/>
       <use x="63.623047" xlink:href="#DejaVuSans-2e"/>
       <use x="95.410156" xlink:href="#DejaVuSans-35"/>
      </g>
     </g>
    </g>
   </g>
   <g id="line2d_11">
    <path clip-path="url(#p6a80b35d24)" d="M 57.95712 161.933952 
L 58.31424 158.267068 
L 59.02848 142.316896 
L 60.45696 106.325403 
L 61.1712 92.977894 
L 61.88544 83.166577 
L 62.59968 76.385475 
L 63.31392 72.049812 
L 64.02816 69.62732 
L 64.38528 68.991002 
L 64.7424 68.673235 
L 65.09952 68.632023 
L 65.45664 68.830121 
L 65.81376 69.234588 
L 66.528 70.549813 
L 67.24224 72.384384 
L 68.3136 75.792767 
L 70.0992 82.398645 
L 74.74176 99.934564 
L 76.88448 107.079647 
L 79.0272 113.438612 
L 81.16992 119.03609 
L 83.31264 123.936356 
L 85.45536 128.216395 
L 87.59808 131.953217 
L 89.7408 135.21827 
L 91.88352 138.075363 
L 94.02624 140.580307 
L 96.16896 142.781336 
L 98.6688 145.020007 
L 101.16864 146.956756 
L 104.0256 148.859501 
L 106.88256 150.484973 
L 110.09664 152.039408 
L 113.31072 153.354242 
L 116.88192 154.585393 
L 120.81024 155.712972 
L 125.4528 156.802009 
L 130.45248 157.744251 
L 136.1664 158.597236 
L 142.95168 159.378538 
L 150.80832 160.055835 
L 160.45056 160.655512 
L 172.23552 161.159098 
L 187.59168 161.581398 
L 208.30464 161.914642 
L 238.65984 162.162414 
L 289.37088 162.326464 
L 398.6496 162.410839 
L 414.36288 162.414648 
L 414.36288 162.414648 
" style="fill:none;stroke:#ff7f0e;stroke-linecap:square;stroke-width:1.5;"/>
   </g>
   <g id="patch_103">
    <path d="M 57.6 162.432 
L 57.6 41.472 
" style="fill:none;stroke:#000000;stroke-linecap:square;stroke-linejoin:miter;stroke-width:0.8;"/>
   </g>
   <g id="patch_104">
    <path d="M 414.72 162.432 
L 414.72 41.472 
" style="fill:none;stroke:#000000;stroke-linecap:square;stroke-linejoin:miter;stroke-width:0.8;"/>
   </g>
   <g id="patch_105">
    <path d="M 57.6 162.432 
L 414.72 162.432 
" style="fill:none;stroke:#000000;stroke-linecap:square;stroke-linejoin:miter;stroke-width:0.8;"/>
   </g>
   <g id="patch_106">
    <path d="M 57.6 41.472 
L 414.72 41.472 
" style="fill:none;stroke:#000000;stroke-linecap:square;stroke-linejoin:miter;stroke-width:0.8;"/>
   </g>
  </g>
  <g id="axes_2">
   <g id="patch_107">
    <path d="M 57.6 307.584 
L 414.72 307.584 
L 414.72 186.624 
L 57.6 186.624 
z
" style="fill:#ffffff;"/>
   </g>
   <g id="patch_108">
    <path clip-path="url(#pe41011c1fb)" d="M 58.892794 307.584 
L 62.324026 307.584 
L 62.324026 265.86155 
L 58.892794 265.86155 
z
" style="fill:#1f77b4;"/>
   </g>
   <g id="patch_109">
    <path clip-path="url(#pe41011c1fb)" d="M 62.324026 307.584 
L 65.755259 307.584 
L 65.755259 208.719935 
L 62.324026 208.719935 
z
" style="fill:#1f77b4;"/>
   </g>
   <g id="patch_110">
    <path clip-path="url(#pe41011c1fb)" d="M 65.755259 307.584 
L 69.186491 307.584 
L 69.186491 204.184886 
L 65.755259 204.184886 
z
" style="fill:#1f77b4;"/>
   </g>
   <g id="patch_111">
    <path clip-path="url(#pe41011c1fb)" d="M 69.186491 307.584 
L 72.617723 307.584 
L 72.617723 229.58116 
L 69.186491 229.58116 
z
" style="fill:#1f77b4;"/>
   </g>
   <g id="patch_112">
    <path clip-path="url(#pe41011c1fb)" d="M 72.617723 307.584 
L 76.048956 307.584 
L 76.048956 227.76714 
L 72.617723 227.76714 
z
" style="fill:#1f77b4;"/>
   </g>
   <g id="patch_113">
    <path clip-path="url(#pe41011c1fb)" d="M 76.048956 307.584 
L 79.480188 307.584 
L 79.480188 248.628365 
L 76.048956 248.628365 
z
" style="fill:#1f77b4;"/>
   </g>
   <g id="patch_114">
    <path clip-path="url(#pe41011c1fb)" d="M 79.480188 307.584 
L 82.911421 307.584 
L 82.911421 244.093316 
L 79.480188 244.093316 
z
" style="fill:#1f77b4;"/>
   </g>
   <g id="patch_115">
    <path clip-path="url(#pe41011c1fb)" d="M 82.911421 307.584 
L 86.342653 307.584 
L 86.342653 260.419492 
L 82.911421 260.419492 
z
" style="fill:#1f77b4;"/>
   </g>
   <g id="patch_116">
    <path clip-path="url(#pe41011c1fb)" d="M 86.342653 307.584 
L 89.773885 307.584 
L 89.773885 266.76856 
L 86.342653 266.76856 
z
" style="fill:#1f77b4;"/>
   </g>
   <g id="patch_117">
    <path clip-path="url(#pe41011c1fb)" d="M 89.773885 307.584 
L 93.205118 307.584 
L 93.205118 272.210619 
L 89.773885 272.210619 
z
" style="fill:#1f77b4;"/>
   </g>
   <g id="patch_118">
    <path clip-path="url(#pe41011c1fb)" d="M 93.205118 307.584 
L 96.63635 307.584 
L 96.63635 278.559687 
L 93.205118 278.559687 
z
" style="fill:#1f77b4;"/>
   </g>
   <g id="patch_119">
    <path clip-path="url(#pe41011c1fb)" d="M 96.63635 307.584 
L 100.067582 307.584 
L 100.067582 286.722775 
L 96.63635 286.722775 
z
" style="fill:#1f77b4;"/>
   </g>
   <g id="patch_120">
    <path clip-path="url(#pe41011c1fb)" d="M 100.067582 307.584 
L 103.498815 307.584 
L 103.498815 286.722775 
L 100.067582 286.722775 
z
" style="fill:#1f77b4;"/>
   </g>
   <g id="patch_121">
    <path clip-path="url(#pe41011c1fb)" d="M 103.498815 307.584 
L 106.930047 307.584 
L 106.930047 292.164834 
L 103.498815 292.164834 
z
" style="fill:#1f77b4;"/>
   </g>
   <g id="patch_122">
    <path clip-path="url(#pe41011c1fb)" d="M 106.930047 307.584 
L 110.36128 307.584 
L 110.36128 288.536795 
L 106.930047 288.536795 
z
" style="fill:#1f77b4;"/>
   </g>
   <g id="patch_123">
    <path clip-path="url(#pe41011c1fb)" d="M 110.36128 307.584 
L 113.792512 307.584 
L 113.792512 295.792873 
L 110.36128 295.792873 
z
" style="fill:#1f77b4;"/>
   </g>
   <g id="patch_124">
    <path clip-path="url(#pe41011c1fb)" d="M 113.792512 307.584 
L 117.223744 307.584 
L 117.223744 298.513902 
L 113.792512 298.513902 
z
" style="fill:#1f77b4;"/>
   </g>
   <g id="patch_125">
    <path clip-path="url(#pe41011c1fb)" d="M 117.223744 307.584 
L 120.654977 307.584 
L 120.654977 293.978853 
L 117.223744 293.978853 
z
" style="fill:#1f77b4;"/>
   </g>
   <g id="patch_126">
    <path clip-path="url(#pe41011c1fb)" d="M 120.654977 307.584 
L 124.086209 307.584 
L 124.086209 293.071844 
L 120.654977 293.071844 
z
" style="fill:#1f77b4;"/>
   </g>
   <g id="patch_127">
    <path clip-path="url(#pe41011c1fb)" d="M 124.086209 307.584 
L 127.517441 307.584 
L 127.517441 300.327922 
L 124.086209 300.327922 
z
" style="fill:#1f77b4;"/>
   </g>
   <g id="patch_128">
    <path clip-path="url(#pe41011c1fb)" d="M 127.517441 307.584 
L 130.948674 307.584 
L 130.948674 300.327922 
L 127.517441 300.327922 
z
" style="fill:#1f77b4;"/>
   </g>
   <g id="patch_129">
    <path clip-path="url(#pe41011c1fb)" d="M 130.948674 307.584 
L 134.379906 307.584 
L 134.379906 301.234932 
L 130.948674 301.234932 
z
" style="fill:#1f77b4;"/>
   </g>
   <g id="patch_130">
    <path clip-path="url(#pe41011c1fb)" d="M 134.379906 307.584 
L 137.811139 307.584 
L 137.811139 302.141941 
L 134.379906 302.141941 
z
" style="fill:#1f77b4;"/>
   </g>
   <g id="patch_131">
    <path clip-path="url(#pe41011c1fb)" d="M 137.811139 307.584 
L 141.242371 307.584 
L 141.242371 303.955961 
L 137.811139 303.955961 
z
" style="fill:#1f77b4;"/>
   </g>
   <g id="patch_132">
    <path clip-path="url(#pe41011c1fb)" d="M 141.242371 307.584 
L 144.673603 307.584 
L 144.673603 299.420912 
L 141.242371 299.420912 
z
" style="fill:#1f77b4;"/>
   </g>
   <g id="patch_133">
    <path clip-path="url(#pe41011c1fb)" d="M 144.673603 307.584 
L 148.104836 307.584 
L 148.104836 304.862971 
L 144.673603 304.862971 
z
" style="fill:#1f77b4;"/>
   </g>
   <g id="patch_134">
    <path clip-path="url(#pe41011c1fb)" d="M 148.104836 307.584 
L 151.536068 307.584 
L 151.536068 304.862971 
L 148.104836 304.862971 
z
" style="fill:#1f77b4;"/>
   </g>
   <g id="patch_135">
    <path clip-path="url(#pe41011c1fb)" d="M 151.536068 307.584 
L 154.967301 307.584 
L 154.967301 303.048951 
L 151.536068 303.048951 
z
" style="fill:#1f77b4;"/>
   </g>
   <g id="patch_136">
    <path clip-path="url(#pe41011c1fb)" d="M 154.967301 307.584 
L 158.398533 307.584 
L 158.398533 304.862971 
L 154.967301 304.862971 
z
" style="fill:#1f77b4;"/>
   </g>
   <g id="patch_137">
    <path clip-path="url(#pe41011c1fb)" d="M 158.398533 307.584 
L 161.829765 307.584 
L 161.829765 304.862971 
L 158.398533 304.862971 
z
" style="fill:#1f77b4;"/>
   </g>
   <g id="patch_138">
    <path clip-path="url(#pe41011c1fb)" d="M 161.829765 307.584 
L 165.260998 307.584 
L 165.260998 303.955961 
L 161.829765 303.955961 
z
" style="fill:#1f77b4;"/>
   </g>
   <g id="patch_139">
    <path clip-path="url(#pe41011c1fb)" d="M 165.260998 307.584 
L 168.69223 307.584 
L 168.69223 301.234932 
L 165.260998 301.234932 
z
" style="fill:#1f77b4;"/>
   </g>
   <g id="patch_140">
    <path clip-path="url(#pe41011c1fb)" d="M 168.69223 307.584 
L 172.123462 307.584 
L 172.123462 303.048951 
L 168.69223 303.048951 
z
" style="fill:#1f77b4;"/>
   </g>
   <g id="patch_141">
    <path clip-path="url(#pe41011c1fb)" d="M 172.123462 307.584 
L 175.554695 307.584 
L 175.554695 304.862971 
L 172.123462 304.862971 
z
" style="fill:#1f77b4;"/>
   </g>
   <g id="patch_142">
    <path clip-path="url(#pe41011c1fb)" d="M 175.554695 307.584 
L 178.985927 307.584 
L 178.985927 306.67699 
L 175.554695 306.67699 
z
" style="fill:#1f77b4;"/>
   </g>
   <g id="patch_143">
    <path clip-path="url(#pe41011c1fb)" d="M 178.985927 307.584 
L 182.41716 307.584 
L 182.41716 307.584 
L 178.985927 307.584 
z
" style="fill:#1f77b4;"/>
   </g>
   <g id="patch_144">
    <path clip-path="url(#pe41011c1fb)" d="M 182.41716 307.584 
L 185.848392 307.584 
L 185.848392 306.67699 
L 182.41716 306.67699 
z
" style="fill:#1f77b4;"/>
   </g>
   <g id="patch_145">
    <path clip-path="url(#pe41011c1fb)" d="M 185.848392 307.584 
L 189.279624 307.584 
L 189.279624 307.584 
L 185.848392 307.584 
z
" style="fill:#1f77b4;"/>
   </g>
   <g id="patch_146">
    <path clip-path="url(#pe41011c1fb)" d="M 189.279624 307.584 
L 192.710857 307.584 
L 192.710857 303.955961 
L 189.279624 303.955961 
z
" style="fill:#1f77b4;"/>
   </g>
   <g id="patch_147">
    <path clip-path="url(#pe41011c1fb)" d="M 192.710857 307.584 
L 196.142089 307.584 
L 196.142089 305.76998 
L 192.710857 305.76998 
z
" style="fill:#1f77b4;"/>
   </g>
   <g id="patch_148">
    <path clip-path="url(#pe41011c1fb)" d="M 196.142089 307.584 
L 199.573321 307.584 
L 199.573321 306.67699 
L 196.142089 306.67699 
z
" style="fill:#1f77b4;"/>
   </g>
   <g id="patch_149">
    <path clip-path="url(#pe41011c1fb)" d="M 199.573321 307.584 
L 203.004554 307.584 
L 203.004554 307.584 
L 199.573321 307.584 
z
" style="fill:#1f77b4;"/>
   </g>
   <g id="patch_150">
    <path clip-path="url(#pe41011c1fb)" d="M 203.004554 307.584 
L 206.435786 307.584 
L 206.435786 307.584 
L 203.004554 307.584 
z
" style="fill:#1f77b4;"/>
   </g>
   <g id="patch_151">
    <path clip-path="url(#pe41011c1fb)" d="M 206.435786 307.584 
L 209.867019 307.584 
L 209.867019 307.584 
L 206.435786 307.584 
z
" style="fill:#1f77b4;"/>
   </g>
   <g id="patch_152">
    <path clip-path="url(#pe41011c1fb)" d="M 209.867019 307.584 
L 213.298251 307.584 
L 213.298251 306.67699 
L 209.867019 306.67699 
z
" style="fill:#1f77b4;"/>
   </g>
   <g id="patch_153">
    <path clip-path="url(#pe41011c1fb)" d="M 213.298251 307.584 
L 216.729483 307.584 
L 216.729483 307.584 
L 213.298251 307.584 
z
" style="fill:#1f77b4;"/>
   </g>
   <g id="patch_154">
    <path clip-path="url(#pe41011c1fb)" d="M 216.729483 307.584 
L 220.160716 307.584 
L 220.160716 306.67699 
L 216.729483 306.67699 
z
" style="fill:#1f77b4;"/>
   </g>
   <g id="patch_155">
    <path clip-path="url(#pe41011c1fb)" d="M 220.160716 307.584 
L 223.591948 307.584 
L 223.591948 306.67699 
L 220.160716 306.67699 
z
" style="fill:#1f77b4;"/>
   </g>
   <g id="patch_156">
    <path clip-path="url(#pe41011c1fb)" d="M 223.591948 307.584 
L 227.023181 307.584 
L 227.023181 307.584 
L 223.591948 307.584 
z
" style="fill:#1f77b4;"/>
   </g>
   <g id="patch_157">
    <path clip-path="url(#pe41011c1fb)" d="M 227.023181 307.584 
L 230.454413 307.584 
L 230.454413 306.67699 
L 227.023181 306.67699 
z
" style="fill:#1f77b4;"/>
   </g>
   <g id="patch_158">
    <path clip-path="url(#pe41011c1fb)" d="M 230.454413 307.584 
L 233.885645 307.584 
L 233.885645 307.584 
L 230.454413 307.584 
z
" style="fill:#1f77b4;"/>
   </g>
   <g id="patch_159">
    <path clip-path="url(#pe41011c1fb)" d="M 233.885645 307.584 
L 237.316878 307.584 
L 237.316878 306.67699 
L 233.885645 306.67699 
z
" style="fill:#1f77b4;"/>
   </g>
   <g id="patch_160">
    <path clip-path="url(#pe41011c1fb)" d="M 237.316878 307.584 
L 240.74811 307.584 
L 240.74811 307.584 
L 237.316878 307.584 
z
" style="fill:#1f77b4;"/>
   </g>
   <g id="patch_161">
    <path clip-path="url(#pe41011c1fb)" d="M 240.74811 307.584 
L 244.179342 307.584 
L 244.179342 307.584 
L 240.74811 307.584 
z
" style="fill:#1f77b4;"/>
   </g>
   <g id="patch_162">
    <path clip-path="url(#pe41011c1fb)" d="M 244.179342 307.584 
L 247.610575 307.584 
L 247.610575 306.67699 
L 244.179342 306.67699 
z
" style="fill:#1f77b4;"/>
   </g>
   <g id="patch_163">
    <path clip-path="url(#pe41011c1fb)" d="M 247.610575 307.584 
L 251.041807 307.584 
L 251.041807 306.67699 
L 247.610575 306.67699 
z
" style="fill:#1f77b4;"/>
   </g>
   <g id="patch_164">
    <path clip-path="url(#pe41011c1fb)" d="M 251.041807 307.584 
L 254.47304 307.584 
L 254.47304 306.67699 
L 251.041807 306.67699 
z
" style="fill:#1f77b4;"/>
   </g>
   <g id="patch_165">
    <path clip-path="url(#pe41011c1fb)" d="M 254.47304 307.584 
L 257.904272 307.584 
L 257.904272 306.67699 
L 254.47304 306.67699 
z
" style="fill:#1f77b4;"/>
   </g>
   <g id="patch_166">
    <path clip-path="url(#pe41011c1fb)" d="M 257.904272 307.584 
L 261.335504 307.584 
L 261.335504 307.584 
L 257.904272 307.584 
z
" style="fill:#1f77b4;"/>
   </g>
   <g id="patch_167">
    <path clip-path="url(#pe41011c1fb)" d="M 261.335504 307.584 
L 264.766737 307.584 
L 264.766737 306.67699 
L 261.335504 306.67699 
z
" style="fill:#1f77b4;"/>
   </g>
   <g id="patch_168">
    <path clip-path="url(#pe41011c1fb)" d="M 264.766737 307.584 
L 268.197969 307.584 
L 268.197969 307.584 
L 264.766737 307.584 
z
" style="fill:#1f77b4;"/>
   </g>
   <g id="patch_169">
    <path clip-path="url(#pe41011c1fb)" d="M 268.197969 307.584 
L 271.629202 307.584 
L 271.629202 306.67699 
L 268.197969 306.67699 
z
" style="fill:#1f77b4;"/>
   </g>
   <g id="patch_170">
    <path clip-path="url(#pe41011c1fb)" d="M 271.629202 307.584 
L 275.060434 307.584 
L 275.060434 307.584 
L 271.629202 307.584 
z
" style="fill:#1f77b4;"/>
   </g>
   <g id="patch_171">
    <path clip-path="url(#pe41011c1fb)" d="M 275.060434 307.584 
L 278.491666 307.584 
L 278.491666 306.67699 
L 275.060434 306.67699 
z
" style="fill:#1f77b4;"/>
   </g>
   <g id="patch_172">
    <path clip-path="url(#pe41011c1fb)" d="M 278.491666 307.584 
L 281.922899 307.584 
L 281.922899 307.584 
L 278.491666 307.584 
z
" style="fill:#1f77b4;"/>
   </g>
   <g id="patch_173">
    <path clip-path="url(#pe41011c1fb)" d="M 281.922899 307.584 
L 285.354131 307.584 
L 285.354131 307.584 
L 281.922899 307.584 
z
" style="fill:#1f77b4;"/>
   </g>
   <g id="patch_174">
    <path clip-path="url(#pe41011c1fb)" d="M 285.354131 307.584 
L 288.785363 307.584 
L 288.785363 307.584 
L 285.354131 307.584 
z
" style="fill:#1f77b4;"/>
   </g>
   <g id="patch_175">
    <path clip-path="url(#pe41011c1fb)" d="M 288.785363 307.584 
L 292.216596 307.584 
L 292.216596 305.76998 
L 288.785363 305.76998 
z
" style="fill:#1f77b4;"/>
   </g>
   <g id="patch_176">
    <path clip-path="url(#pe41011c1fb)" d="M 292.216596 307.584 
L 295.647828 307.584 
L 295.647828 307.584 
L 292.216596 307.584 
z
" style="fill:#1f77b4;"/>
   </g>
   <g id="patch_177">
    <path clip-path="url(#pe41011c1fb)" d="M 295.647828 307.584 
L 299.079061 307.584 
L 299.079061 307.584 
L 295.647828 307.584 
z
" style="fill:#1f77b4;"/>
   </g>
   <g id="patch_178">
    <path clip-path="url(#pe41011c1fb)" d="M 299.079061 307.584 
L 302.510293 307.584 
L 302.510293 306.67699 
L 299.079061 306.67699 
z
" style="fill:#1f77b4;"/>
   </g>
   <g id="patch_179">
    <path clip-path="url(#pe41011c1fb)" d="M 302.510293 307.584 
L 305.941525 307.584 
L 305.941525 307.584 
L 302.510293 307.584 
z
" style="fill:#1f77b4;"/>
   </g>
   <g id="patch_180">
    <path clip-path="url(#pe41011c1fb)" d="M 305.941525 307.584 
L 309.372758 307.584 
L 309.372758 307.584 
L 305.941525 307.584 
z
" style="fill:#1f77b4;"/>
   </g>
   <g id="patch_181">
    <path clip-path="url(#pe41011c1fb)" d="M 309.372758 307.584 
L 312.80399 307.584 
L 312.80399 307.584 
L 309.372758 307.584 
z
" style="fill:#1f77b4;"/>
   </g>
   <g id="patch_182">
    <path clip-path="url(#pe41011c1fb)" d="M 312.80399 307.584 
L 316.235222 307.584 
L 316.235222 307.584 
L 312.80399 307.584 
z
" style="fill:#1f77b4;"/>
   </g>
   <g id="patch_183">
    <path clip-path="url(#pe41011c1fb)" d="M 316.235222 307.584 
L 319.666455 307.584 
L 319.666455 307.584 
L 316.235222 307.584 
z
" style="fill:#1f77b4;"/>
   </g>
   <g id="patch_184">
    <path clip-path="url(#pe41011c1fb)" d="M 319.666455 307.584 
L 323.097687 307.584 
L 323.097687 307.584 
L 319.666455 307.584 
z
" style="fill:#1f77b4;"/>
   </g>
   <g id="patch_185">
    <path clip-path="url(#pe41011c1fb)" d="M 323.097687 307.584 
L 326.52892 307.584 
L 326.52892 307.584 
L 323.097687 307.584 
z
" style="fill:#1f77b4;"/>
   </g>
   <g id="patch_186">
    <path clip-path="url(#pe41011c1fb)" d="M 326.52892 307.584 
L 329.960152 307.584 
L 329.960152 305.76998 
L 326.52892 305.76998 
z
" style="fill:#1f77b4;"/>
   </g>
   <g id="patch_187">
    <path clip-path="url(#pe41011c1fb)" d="M 329.960152 307.584 
L 333.391384 307.584 
L 333.391384 307.584 
L 329.960152 307.584 
z
" style="fill:#1f77b4;"/>
   </g>
   <g id="patch_188">
    <path clip-path="url(#pe41011c1fb)" d="M 333.391384 307.584 
L 336.822617 307.584 
L 336.822617 307.584 
L 333.391384 307.584 
z
" style="fill:#1f77b4;"/>
   </g>
   <g id="patch_189">
    <path clip-path="url(#pe41011c1fb)" d="M 336.822617 307.584 
L 340.253849 307.584 
L 340.253849 307.584 
L 336.822617 307.584 
z
" style="fill:#1f77b4;"/>
   </g>
   <g id="patch_190">
    <path clip-path="url(#pe41011c1fb)" d="M 340.253849 307.584 
L 343.685082 307.584 
L 343.685082 307.584 
L 340.253849 307.584 
z
" style="fill:#1f77b4;"/>
   </g>
   <g id="patch_191">
    <path clip-path="url(#pe41011c1fb)" d="M 343.685082 307.584 
L 347.116314 307.584 
L 347.116314 305.76998 
L 343.685082 305.76998 
z
" style="fill:#1f77b4;"/>
   </g>
   <g id="patch_192">
    <path clip-path="url(#pe41011c1fb)" d="M 347.116314 307.584 
L 350.547546 307.584 
L 350.547546 307.584 
L 347.116314 307.584 
z
" style="fill:#1f77b4;"/>
   </g>
   <g id="patch_193">
    <path clip-path="url(#pe41011c1fb)" d="M 350.547546 307.584 
L 353.978779 307.584 
L 353.978779 307.584 
L 350.547546 307.584 
z
" style="fill:#1f77b4;"/>
   </g>
   <g id="patch_194">
    <path clip-path="url(#pe41011c1fb)" d="M 353.978779 307.584 
L 357.410011 307.584 
L 357.410011 307.584 
L 353.978779 307.584 
z
" style="fill:#1f77b4;"/>
   </g>
   <g id="patch_195">
    <path clip-path="url(#pe41011c1fb)" d="M 357.410011 307.584 
L 360.841243 307.584 
L 360.841243 307.584 
L 357.410011 307.584 
z
" style="fill:#1f77b4;"/>
   </g>
   <g id="patch_196">
    <path clip-path="url(#pe41011c1fb)" d="M 360.841243 307.584 
L 364.272476 307.584 
L 364.272476 307.584 
L 360.841243 307.584 
z
" style="fill:#1f77b4;"/>
   </g>
   <g id="patch_197">
    <path clip-path="url(#pe41011c1fb)" d="M 364.272476 307.584 
L 367.703708 307.584 
L 367.703708 307.584 
L 364.272476 307.584 
z
" style="fill:#1f77b4;"/>
   </g>
   <g id="patch_198">
    <path clip-path="url(#pe41011c1fb)" d="M 367.703708 307.584 
L 371.134941 307.584 
L 371.134941 307.584 
L 367.703708 307.584 
z
" style="fill:#1f77b4;"/>
   </g>
   <g id="patch_199">
    <path clip-path="url(#pe41011c1fb)" d="M 371.134941 307.584 
L 374.566173 307.584 
L 374.566173 307.584 
L 371.134941 307.584 
z
" style="fill:#1f77b4;"/>
   </g>
   <g id="patch_200">
    <path clip-path="url(#pe41011c1fb)" d="M 374.566173 307.584 
L 377.997405 307.584 
L 377.997405 306.67699 
L 374.566173 306.67699 
z
" style="fill:#1f77b4;"/>
   </g>
   <g id="patch_201">
    <path clip-path="url(#pe41011c1fb)" d="M 377.997405 307.584 
L 381.428638 307.584 
L 381.428638 307.584 
L 377.997405 307.584 
z
" style="fill:#1f77b4;"/>
   </g>
   <g id="patch_202">
    <path clip-path="url(#pe41011c1fb)" d="M 381.428638 307.584 
L 384.85987 307.584 
L 384.85987 307.584 
L 381.428638 307.584 
z
" style="fill:#1f77b4;"/>
   </g>
   <g id="patch_203">
    <path clip-path="url(#pe41011c1fb)" d="M 384.85987 307.584 
L 388.291102 307.584 
L 388.291102 307.584 
L 384.85987 307.584 
z
" style="fill:#1f77b4;"/>
   </g>
   <g id="patch_204">
    <path clip-path="url(#pe41011c1fb)" d="M 388.291102 307.584 
L 391.722335 307.584 
L 391.722335 306.67699 
L 388.291102 306.67699 
z
" style="fill:#1f77b4;"/>
   </g>
   <g id="patch_205">
    <path clip-path="url(#pe41011c1fb)" d="M 391.722335 307.584 
L 395.153567 307.584 
L 395.153567 307.584 
L 391.722335 307.584 
z
" style="fill:#1f77b4;"/>
   </g>
   <g id="patch_206">
    <path clip-path="url(#pe41011c1fb)" d="M 395.153567 307.584 
L 398.5848 307.584 
L 398.5848 307.584 
L 395.153567 307.584 
z
" style="fill:#1f77b4;"/>
   </g>
   <g id="patch_207">
    <path clip-path="url(#pe41011c1fb)" d="M 398.5848 307.584 
L 402.016032 307.584 
L 402.016032 306.67699 
L 398.5848 306.67699 
z
" style="fill:#1f77b4;"/>
   </g>
   <g id="matplotlib.axis_3">
    <g id="xtick_7">
     <g id="line2d_12">
      <g>
       <use style="stroke:#000000;stroke-width:0.8;" x="57.6" xlink:href="#m6d98389932" y="307.584"/>
      </g>
     </g>
     <g id="text_11">
      <!-- 0 -->
      <g transform="translate(54.41875 322.182437)scale(0.1 -0.1)">
       <use xlink:href="#DejaVuSans-30"/>
      </g>
     </g>
    </g>
    <g id="xtick_8">
     <g id="line2d_13">
      <g>
       <use style="stroke:#000000;stroke-width:0.8;" x="129.024" xlink:href="#m6d98389932" y="307.584"/>
      </g>
     </g>
     <g id="text_12">
      <!-- 2 -->
      <g transform="translate(125.84275 322.182437)scale(0.1 -0.1)">
       <use xlink:href="#DejaVuSans-32"/>
      </g>
     </g>
    </g>
    <g id="xtick_9">
     <g id="line2d_14">
      <g>
       <use style="stroke:#000000;stroke-width:0.8;" x="200.448" xlink:href="#m6d98389932" y="307.584"/>
      </g>
     </g>
     <g id="text_13">
      <!-- 4 -->
      <g transform="translate(197.26675 322.182437)scale(0.1 -0.1)">
       <use xlink:href="#DejaVuSans-34"/>
      </g>
     </g>
    </g>
    <g id="xtick_10">
     <g id="line2d_15">
      <g>
       <use style="stroke:#000000;stroke-width:0.8;" x="271.872" xlink:href="#m6d98389932" y="307.584"/>
      </g>
     </g>
     <g id="text_14">
      <!-- 6 -->
      <g transform="translate(268.69075 322.182437)scale(0.1 -0.1)">
       <use xlink:href="#DejaVuSans-36"/>
      </g>
     </g>
    </g>
    <g id="xtick_11">
     <g id="line2d_16">
      <g>
       <use style="stroke:#000000;stroke-width:0.8;" x="343.296" xlink:href="#m6d98389932" y="307.584"/>
      </g>
     </g>
     <g id="text_15">
      <!-- 8 -->
      <g transform="translate(340.11475 322.182437)scale(0.1 -0.1)">
       <use xlink:href="#DejaVuSans-38"/>
      </g>
     </g>
    </g>
    <g id="xtick_12">
     <g id="line2d_17">
      <g>
       <use style="stroke:#000000;stroke-width:0.8;" x="414.72" xlink:href="#m6d98389932" y="307.584"/>
      </g>
     </g>
     <g id="text_16">
      <!-- 10 -->
      <g transform="translate(408.3575 322.182437)scale(0.1 -0.1)">
       <use xlink:href="#DejaVuSans-31"/>
       <use x="63.623047" xlink:href="#DejaVuSans-30"/>
      </g>
     </g>
    </g>
   </g>
   <g id="matplotlib.axis_4">
    <g id="ytick_5">
     <g id="line2d_18">
      <g>
       <use style="stroke:#000000;stroke-width:0.8;" x="57.6" xlink:href="#mff9012e447" y="307.584"/>
      </g>
     </g>
     <g id="text_17">
      <!-- 0.00 -->
      <g transform="translate(28.334375 311.383219)scale(0.1 -0.1)">
       <use xlink:href="#DejaVuSans-30"/>
       <use x="63.623047" xlink:href="#DejaVuSans-2e"/>
       <use x="95.410156" xlink:href="#DejaVuSans-30"/>
       <use x="159.033203" xlink:href="#DejaVuSans-30"/>
      </g>
     </g>
    </g>
    <g id="ytick_6">
     <g id="line2d_19">
      <g>
       <use style="stroke:#000000;stroke-width:0.8;" x="57.6" xlink:href="#mff9012e447" y="285.949982"/>
      </g>
     </g>
     <g id="text_18">
      <!-- 0.25 -->
      <g transform="translate(28.334375 289.749201)scale(0.1 -0.1)">
       <use xlink:href="#DejaVuSans-30"/>
       <use x="63.623047" xlink:href="#DejaVuSans-2e"/>
       <use x="95.410156" xlink:href="#DejaVuSans-32"/>
       <use x="159.033203" xlink:href="#DejaVuSans-35"/>
      </g>
     </g>
    </g>
    <g id="ytick_7">
     <g id="line2d_20">
      <g>
       <use style="stroke:#000000;stroke-width:0.8;" x="57.6" xlink:href="#mff9012e447" y="264.315964"/>
      </g>
     </g>
     <g id="text_19">
      <!-- 0.50 -->
      <g transform="translate(28.334375 268.115183)scale(0.1 -0.1)">
       <use xlink:href="#DejaVuSans-30"/>
       <use x="63.623047" xlink:href="#DejaVuSans-2e"/>
       <use x="95.410156" xlink:href="#DejaVuSans-35"/>
       <use x="159.033203" xlink:href="#DejaVuSans-30"/>
      </g>
     </g>
    </g>
    <g id="ytick_8">
     <g id="line2d_21">
      <g>
       <use style="stroke:#000000;stroke-width:0.8;" x="57.6" xlink:href="#mff9012e447" y="242.681947"/>
      </g>
     </g>
     <g id="text_20">
      <!-- 0.75 -->
      <g transform="translate(28.334375 246.481165)scale(0.1 -0.1)">
       <defs>
        <path d="M 525 4666 
L 3525 4666 
L 3525 4397 
L 1831 0 
L 1172 0 
L 2766 4134 
L 525 4134 
L 525 4666 
z
" id="DejaVuSans-37" transform="scale(0.015625)"/>
       </defs>
       <use xlink:href="#DejaVuSans-30"/>
       <use x="63.623047" xlink:href="#DejaVuSans-2e"/>
       <use x="95.410156" xlink:href="#DejaVuSans-37"/>
       <use x="159.033203" xlink:href="#DejaVuSans-35"/>
      </g>
     </g>
    </g>
    <g id="ytick_9">
     <g id="line2d_22">
      <g>
       <use style="stroke:#000000;stroke-width:0.8;" x="57.6" xlink:href="#mff9012e447" y="221.047929"/>
      </g>
     </g>
     <g id="text_21">
      <!-- 1.00 -->
      <g transform="translate(28.334375 224.847148)scale(0.1 -0.1)">
       <use xlink:href="#DejaVuSans-31"/>
       <use x="63.623047" xlink:href="#DejaVuSans-2e"/>
       <use x="95.410156" xlink:href="#DejaVuSans-30"/>
       <use x="159.033203" xlink:href="#DejaVuSans-30"/>
      </g>
     </g>
    </g>
    <g id="ytick_10">
     <g id="line2d_23">
      <g>
       <use style="stroke:#000000;stroke-width:0.8;" x="57.6" xlink:href="#mff9012e447" y="199.413911"/>
      </g>
     </g>
     <g id="text_22">
      <!-- 1.25 -->
      <g transform="translate(28.334375 203.21313)scale(0.1 -0.1)">
       <use xlink:href="#DejaVuSans-31"/>
       <use x="63.623047" xlink:href="#DejaVuSans-2e"/>
       <use x="95.410156" xlink:href="#DejaVuSans-32"/>
       <use x="159.033203" xlink:href="#DejaVuSans-35"/>
      </g>
     </g>
    </g>
   </g>
   <g id="line2d_24">
    <path clip-path="url(#pe41011c1fb)" d="M 57.95712 306.972325 
L 58.31424 302.468859 
L 59.02848 282.87973 
L 60.45696 238.676947 
L 61.1712 222.284266 
L 61.88544 210.234544 
L 62.59968 201.906365 
L 63.31392 196.581541 
L 64.02816 193.606369 
L 64.38528 192.824878 
L 64.7424 192.434614 
L 65.09952 192.384 
L 65.45664 192.627293 
L 65.81376 193.124037 
L 66.528 194.739325 
L 67.24224 196.992444 
L 68.3136 201.178434 
L 70.0992 209.291412 
L 74.38464 229.27506 
L 76.52736 238.207397 
L 78.67008 246.177994 
L 80.8128 253.203672 
L 82.95552 259.358222 
L 85.09824 264.735003 
L 87.24096 269.429229 
L 89.38368 273.530046 
L 91.5264 277.117456 
L 93.66912 280.261618 
L 95.81184 283.023264 
L 97.95456 285.454588 
L 100.4544 287.932877 
L 102.95424 290.082023 
L 105.45408 291.951902 
L 108.31104 293.799949 
L 111.168 295.388543 
L 114.38208 296.917384 
L 117.95328 298.351289 
L 121.8816 299.666836 
L 126.16704 300.851142 
L 130.8096 301.900041 
L 136.1664 302.874353 
L 142.23744 303.744849 
L 149.37984 304.532542 
L 157.5936 305.210163 
L 167.59296 305.806116 
L 180.09216 306.317203 
L 196.16256 306.738618 
L 217.94688 307.07204 
L 249.73056 307.318041 
L 302.94144 307.480605 
L 414.36288 307.562689 
L 414.36288 307.562689 
" style="fill:none;stroke:#ff7f0e;stroke-linecap:square;stroke-width:1.5;"/>
   </g>
   <g id="patch_208">
    <path d="M 57.6 307.584 
L 57.6 186.624 
" style="fill:none;stroke:#000000;stroke-linecap:square;stroke-linejoin:miter;stroke-width:0.8;"/>
   </g>
   <g id="patch_209">
    <path d="M 414.72 307.584 
L 414.72 186.624 
" style="fill:none;stroke:#000000;stroke-linecap:square;stroke-linejoin:miter;stroke-width:0.8;"/>
   </g>
   <g id="patch_210">
    <path d="M 57.6 307.584 
L 414.72 307.584 
" style="fill:none;stroke:#000000;stroke-linecap:square;stroke-linejoin:miter;stroke-width:0.8;"/>
   </g>
   <g id="patch_211">
    <path d="M 57.6 186.624 
L 414.72 186.624 
" style="fill:none;stroke:#000000;stroke-linecap:square;stroke-linejoin:miter;stroke-width:0.8;"/>
   </g>
  </g>
 </g>
 <defs>
  <clipPath id="p6a80b35d24">
   <rect height="120.96" width="357.12" x="57.6" y="41.472"/>
  </clipPath>
  <clipPath id="pe41011c1fb">
   <rect height="120.96" width="357.12" x="57.6" y="186.624"/>
  </clipPath>
 </defs>
</svg>
