<?xml version="1.0" encoding="utf-8" standalone="no"?>
<!DOCTYPE svg PUBLIC "-//W3C//DTD SVG 1.1//EN"
  "http://www.w3.org/Graphics/SVG/1.1/DTD/svg11.dtd">
<!-- Created with matplotlib (https://matplotlib.org/) -->
<svg height="345.6pt" version="1.1" viewBox="0 0 460.8 345.6" width="460.8pt" xmlns="http://www.w3.org/2000/svg" xmlns:xlink="http://www.w3.org/1999/xlink">
 <defs>
  <style type="text/css">
*{stroke-linecap:butt;stroke-linejoin:round;}
  </style>
 </defs>
 <g id="figure_1">
  <g id="patch_1">
   <path d="M 0 345.6 
L 460.8 345.6 
L 460.8 0 
L 0 0 
z
" style="fill:#ffffff;"/>
  </g>
  <g id="axes_1">
   <g id="patch_2">
    <path d="M 57.6 162.432 
L 414.72 162.432 
L 414.72 41.472 
L 57.6 41.472 
z
" style="fill:#ffffff;"/>
   </g>
   <g id="patch_3">
    <path clip-path="url(#p360793e19d)" d="M 73.832727 162.432 
L 76.882857 162.432 
L 76.882857 47.232 
L 73.832727 47.232 
z
" style="fill:#1f77b4;"/>
   </g>
   <g id="patch_4">
    <path clip-path="url(#p360793e19d)" d="M 76.882857 162.432 
L 79.932986 162.432 
L 79.932986 142.102588 
L 76.882857 142.102588 
z
" style="fill:#1f77b4;"/>
   </g>
   <g id="patch_5">
    <path clip-path="url(#p360793e19d)" d="M 79.932986 162.432 
L 82.983116 162.432 
L 82.983116 140.408471 
L 79.932986 140.408471 
z
" style="fill:#1f77b4;"/>
   </g>
   <g id="patch_6">
    <path clip-path="url(#p360793e19d)" d="M 82.983116 162.432 
L 86.033245 162.432 
L 86.033245 142.102588 
L 82.983116 142.102588 
z
" style="fill:#1f77b4;"/>
   </g>
   <g id="patch_7">
    <path clip-path="url(#p360793e19d)" d="M 86.033245 162.432 
L 89.083375 162.432 
L 89.083375 155.655529 
L 86.033245 155.655529 
z
" style="fill:#1f77b4;"/>
   </g>
   <g id="patch_8">
    <path clip-path="url(#p360793e19d)" d="M 89.083375 162.432 
L 92.133504 162.432 
L 92.133504 133.632 
L 89.083375 133.632 
z
" style="fill:#1f77b4;"/>
   </g>
   <g id="patch_9">
    <path clip-path="url(#p360793e19d)" d="M 92.133504 162.432 
L 95.183633 162.432 
L 95.183633 155.655529 
L 92.133504 155.655529 
z
" style="fill:#1f77b4;"/>
   </g>
   <g id="patch_10">
    <path clip-path="url(#p360793e19d)" d="M 95.183633 162.432 
L 98.233763 162.432 
L 98.233763 147.184941 
L 95.183633 147.184941 
z
" style="fill:#1f77b4;"/>
   </g>
   <g id="patch_11">
    <path clip-path="url(#p360793e19d)" d="M 98.233763 162.432 
L 101.283892 162.432 
L 101.283892 140.408471 
L 98.233763 140.408471 
z
" style="fill:#1f77b4;"/>
   </g>
   <g id="patch_12">
    <path clip-path="url(#p360793e19d)" d="M 101.283892 162.432 
L 104.334022 162.432 
L 104.334022 155.655529 
L 101.283892 155.655529 
z
" style="fill:#1f77b4;"/>
   </g>
   <g id="patch_13">
    <path clip-path="url(#p360793e19d)" d="M 104.334022 162.432 
L 107.384151 162.432 
L 107.384151 157.349647 
L 104.334022 157.349647 
z
" style="fill:#1f77b4;"/>
   </g>
   <g id="patch_14">
    <path clip-path="url(#p360793e19d)" d="M 107.384151 162.432 
L 110.434281 162.432 
L 110.434281 152.267294 
L 107.384151 152.267294 
z
" style="fill:#1f77b4;"/>
   </g>
   <g id="patch_15">
    <path clip-path="url(#p360793e19d)" d="M 110.434281 162.432 
L 113.48441 162.432 
L 113.48441 155.655529 
L 110.434281 155.655529 
z
" style="fill:#1f77b4;"/>
   </g>
   <g id="patch_16">
    <path clip-path="url(#p360793e19d)" d="M 113.48441 162.432 
L 116.53454 162.432 
L 116.53454 155.655529 
L 113.48441 155.655529 
z
" style="fill:#1f77b4;"/>
   </g>
   <g id="patch_17">
    <path clip-path="url(#p360793e19d)" d="M 116.53454 162.432 
L 119.584669 162.432 
L 119.584669 160.737882 
L 116.53454 160.737882 
z
" style="fill:#1f77b4;"/>
   </g>
   <g id="patch_18">
    <path clip-path="url(#p360793e19d)" d="M 119.584669 162.432 
L 122.634799 162.432 
L 122.634799 162.432 
L 119.584669 162.432 
z
" style="fill:#1f77b4;"/>
   </g>
   <g id="patch_19">
    <path clip-path="url(#p360793e19d)" d="M 122.634799 162.432 
L 125.684928 162.432 
L 125.684928 157.349647 
L 122.634799 157.349647 
z
" style="fill:#1f77b4;"/>
   </g>
   <g id="patch_20">
    <path clip-path="url(#p360793e19d)" d="M 125.684928 162.432 
L 128.735057 162.432 
L 128.735057 150.573176 
L 125.684928 150.573176 
z
" style="fill:#1f77b4;"/>
   </g>
   <g id="patch_21">
    <path clip-path="url(#p360793e19d)" d="M 128.735057 162.432 
L 131.785187 162.432 
L 131.785187 160.737882 
L 128.735057 160.737882 
z
" style="fill:#1f77b4;"/>
   </g>
   <g id="patch_22">
    <path clip-path="url(#p360793e19d)" d="M 131.785187 162.432 
L 134.835316 162.432 
L 134.835316 162.432 
L 131.785187 162.432 
z
" style="fill:#1f77b4;"/>
   </g>
   <g id="patch_23">
    <path clip-path="url(#p360793e19d)" d="M 134.835316 162.432 
L 137.885446 162.432 
L 137.885446 160.737882 
L 134.835316 160.737882 
z
" style="fill:#1f77b4;"/>
   </g>
   <g id="patch_24">
    <path clip-path="url(#p360793e19d)" d="M 137.885446 162.432 
L 140.935575 162.432 
L 140.935575 160.737882 
L 137.885446 160.737882 
z
" style="fill:#1f77b4;"/>
   </g>
   <g id="patch_25">
    <path clip-path="url(#p360793e19d)" d="M 140.935575 162.432 
L 143.985705 162.432 
L 143.985705 160.737882 
L 140.935575 160.737882 
z
" style="fill:#1f77b4;"/>
   </g>
   <g id="patch_26">
    <path clip-path="url(#p360793e19d)" d="M 143.985705 162.432 
L 147.035834 162.432 
L 147.035834 160.737882 
L 143.985705 160.737882 
z
" style="fill:#1f77b4;"/>
   </g>
   <g id="patch_27">
    <path clip-path="url(#p360793e19d)" d="M 147.035834 162.432 
L 150.085964 162.432 
L 150.085964 162.432 
L 147.035834 162.432 
z
" style="fill:#1f77b4;"/>
   </g>
   <g id="patch_28">
    <path clip-path="url(#p360793e19d)" d="M 150.085964 162.432 
L 153.136093 162.432 
L 153.136093 162.432 
L 150.085964 162.432 
z
" style="fill:#1f77b4;"/>
   </g>
   <g id="patch_29">
    <path clip-path="url(#p360793e19d)" d="M 153.136093 162.432 
L 156.186223 162.432 
L 156.186223 160.737882 
L 153.136093 160.737882 
z
" style="fill:#1f77b4;"/>
   </g>
   <g id="patch_30">
    <path clip-path="url(#p360793e19d)" d="M 156.186223 162.432 
L 159.236352 162.432 
L 159.236352 159.043765 
L 156.186223 159.043765 
z
" style="fill:#1f77b4;"/>
   </g>
   <g id="patch_31">
    <path clip-path="url(#p360793e19d)" d="M 159.236352 162.432 
L 162.286481 162.432 
L 162.286481 162.432 
L 159.236352 162.432 
z
" style="fill:#1f77b4;"/>
   </g>
   <g id="patch_32">
    <path clip-path="url(#p360793e19d)" d="M 162.286481 162.432 
L 165.336611 162.432 
L 165.336611 162.432 
L 162.286481 162.432 
z
" style="fill:#1f77b4;"/>
   </g>
   <g id="patch_33">
    <path clip-path="url(#p360793e19d)" d="M 165.336611 162.432 
L 168.38674 162.432 
L 168.38674 159.043765 
L 165.336611 159.043765 
z
" style="fill:#1f77b4;"/>
   </g>
   <g id="patch_34">
    <path clip-path="url(#p360793e19d)" d="M 168.38674 162.432 
L 171.43687 162.432 
L 171.43687 160.737882 
L 168.38674 160.737882 
z
" style="fill:#1f77b4;"/>
   </g>
   <g id="patch_35">
    <path clip-path="url(#p360793e19d)" d="M 171.43687 162.432 
L 174.486999 162.432 
L 174.486999 160.737882 
L 171.43687 160.737882 
z
" style="fill:#1f77b4;"/>
   </g>
   <g id="patch_36">
    <path clip-path="url(#p360793e19d)" d="M 174.486999 162.432 
L 177.537129 162.432 
L 177.537129 162.432 
L 174.486999 162.432 
z
" style="fill:#1f77b4;"/>
   </g>
   <g id="patch_37">
    <path clip-path="url(#p360793e19d)" d="M 177.537129 162.432 
L 180.587258 162.432 
L 180.587258 162.432 
L 177.537129 162.432 
z
" style="fill:#1f77b4;"/>
   </g>
   <g id="patch_38">
    <path clip-path="url(#p360793e19d)" d="M 180.587258 162.432 
L 183.637388 162.432 
L 183.637388 162.432 
L 180.587258 162.432 
z
" style="fill:#1f77b4;"/>
   </g>
   <g id="patch_39">
    <path clip-path="url(#p360793e19d)" d="M 183.637388 162.432 
L 186.687517 162.432 
L 186.687517 162.432 
L 183.637388 162.432 
z
" style="fill:#1f77b4;"/>
   </g>
   <g id="patch_40">
    <path clip-path="url(#p360793e19d)" d="M 186.687517 162.432 
L 189.737647 162.432 
L 189.737647 162.432 
L 186.687517 162.432 
z
" style="fill:#1f77b4;"/>
   </g>
   <g id="patch_41">
    <path clip-path="url(#p360793e19d)" d="M 189.737647 162.432 
L 192.787776 162.432 
L 192.787776 162.432 
L 189.737647 162.432 
z
" style="fill:#1f77b4;"/>
   </g>
   <g id="patch_42">
    <path clip-path="url(#p360793e19d)" d="M 192.787776 162.432 
L 195.837905 162.432 
L 195.837905 162.432 
L 192.787776 162.432 
z
" style="fill:#1f77b4;"/>
   </g>
   <g id="patch_43">
    <path clip-path="url(#p360793e19d)" d="M 195.837905 162.432 
L 198.888035 162.432 
L 198.888035 162.432 
L 195.837905 162.432 
z
" style="fill:#1f77b4;"/>
   </g>
   <g id="patch_44">
    <path clip-path="url(#p360793e19d)" d="M 198.888035 162.432 
L 201.938164 162.432 
L 201.938164 162.432 
L 198.888035 162.432 
z
" style="fill:#1f77b4;"/>
   </g>
   <g id="patch_45">
    <path clip-path="url(#p360793e19d)" d="M 201.938164 162.432 
L 204.988294 162.432 
L 204.988294 162.432 
L 201.938164 162.432 
z
" style="fill:#1f77b4;"/>
   </g>
   <g id="patch_46">
    <path clip-path="url(#p360793e19d)" d="M 204.988294 162.432 
L 208.038423 162.432 
L 208.038423 162.432 
L 204.988294 162.432 
z
" style="fill:#1f77b4;"/>
   </g>
   <g id="patch_47">
    <path clip-path="url(#p360793e19d)" d="M 208.038423 162.432 
L 211.088553 162.432 
L 211.088553 162.432 
L 208.038423 162.432 
z
" style="fill:#1f77b4;"/>
   </g>
   <g id="patch_48">
    <path clip-path="url(#p360793e19d)" d="M 211.088553 162.432 
L 214.138682 162.432 
L 214.138682 162.432 
L 211.088553 162.432 
z
" style="fill:#1f77b4;"/>
   </g>
   <g id="patch_49">
    <path clip-path="url(#p360793e19d)" d="M 214.138682 162.432 
L 217.188812 162.432 
L 217.188812 162.432 
L 214.138682 162.432 
z
" style="fill:#1f77b4;"/>
   </g>
   <g id="patch_50">
    <path clip-path="url(#p360793e19d)" d="M 217.188812 162.432 
L 220.238941 162.432 
L 220.238941 162.432 
L 217.188812 162.432 
z
" style="fill:#1f77b4;"/>
   </g>
   <g id="patch_51">
    <path clip-path="url(#p360793e19d)" d="M 220.238941 162.432 
L 223.289071 162.432 
L 223.289071 162.432 
L 220.238941 162.432 
z
" style="fill:#1f77b4;"/>
   </g>
   <g id="patch_52">
    <path clip-path="url(#p360793e19d)" d="M 223.289071 162.432 
L 226.3392 162.432 
L 226.3392 162.432 
L 223.289071 162.432 
z
" style="fill:#1f77b4;"/>
   </g>
   <g id="patch_53">
    <path clip-path="url(#p360793e19d)" d="M 226.3392 162.432 
L 229.389329 162.432 
L 229.389329 162.432 
L 226.3392 162.432 
z
" style="fill:#1f77b4;"/>
   </g>
   <g id="patch_54">
    <path clip-path="url(#p360793e19d)" d="M 229.389329 162.432 
L 232.439459 162.432 
L 232.439459 162.432 
L 229.389329 162.432 
z
" style="fill:#1f77b4;"/>
   </g>
   <g id="patch_55">
    <path clip-path="url(#p360793e19d)" d="M 232.439459 162.432 
L 235.489588 162.432 
L 235.489588 162.432 
L 232.439459 162.432 
z
" style="fill:#1f77b4;"/>
   </g>
   <g id="patch_56">
    <path clip-path="url(#p360793e19d)" d="M 235.489588 162.432 
L 238.539718 162.432 
L 238.539718 162.432 
L 235.489588 162.432 
z
" style="fill:#1f77b4;"/>
   </g>
   <g id="patch_57">
    <path clip-path="url(#p360793e19d)" d="M 238.539718 162.432 
L 241.589847 162.432 
L 241.589847 162.432 
L 238.539718 162.432 
z
" style="fill:#1f77b4;"/>
   </g>
   <g id="patch_58">
    <path clip-path="url(#p360793e19d)" d="M 241.589847 162.432 
L 244.639977 162.432 
L 244.639977 160.737882 
L 241.589847 160.737882 
z
" style="fill:#1f77b4;"/>
   </g>
   <g id="patch_59">
    <path clip-path="url(#p360793e19d)" d="M 244.639977 162.432 
L 247.690106 162.432 
L 247.690106 162.432 
L 244.639977 162.432 
z
" style="fill:#1f77b4;"/>
   </g>
   <g id="patch_60">
    <path clip-path="url(#p360793e19d)" d="M 247.690106 162.432 
L 250.740236 162.432 
L 250.740236 162.432 
L 247.690106 162.432 
z
" style="fill:#1f77b4;"/>
   </g>
   <g id="patch_61">
    <path clip-path="url(#p360793e19d)" d="M 250.740236 162.432 
L 253.790365 162.432 
L 253.790365 162.432 
L 250.740236 162.432 
z
" style="fill:#1f77b4;"/>
   </g>
   <g id="patch_62">
    <path clip-path="url(#p360793e19d)" d="M 253.790365 162.432 
L 256.840495 162.432 
L 256.840495 162.432 
L 253.790365 162.432 
z
" style="fill:#1f77b4;"/>
   </g>
   <g id="patch_63">
    <path clip-path="url(#p360793e19d)" d="M 256.840495 162.432 
L 259.890624 162.432 
L 259.890624 162.432 
L 256.840495 162.432 
z
" style="fill:#1f77b4;"/>
   </g>
   <g id="patch_64">
    <path clip-path="url(#p360793e19d)" d="M 259.890624 162.432 
L 262.940753 162.432 
L 262.940753 162.432 
L 259.890624 162.432 
z
" style="fill:#1f77b4;"/>
   </g>
   <g id="patch_65">
    <path clip-path="url(#p360793e19d)" d="M 262.940753 162.432 
L 265.990883 162.432 
L 265.990883 162.432 
L 262.940753 162.432 
z
" style="fill:#1f77b4;"/>
   </g>
   <g id="patch_66">
    <path clip-path="url(#p360793e19d)" d="M 265.990883 162.432 
L 269.041012 162.432 
L 269.041012 162.432 
L 265.990883 162.432 
z
" style="fill:#1f77b4;"/>
   </g>
   <g id="patch_67">
    <path clip-path="url(#p360793e19d)" d="M 269.041012 162.432 
L 272.091142 162.432 
L 272.091142 162.432 
L 269.041012 162.432 
z
" style="fill:#1f77b4;"/>
   </g>
   <g id="patch_68">
    <path clip-path="url(#p360793e19d)" d="M 272.091142 162.432 
L 275.141271 162.432 
L 275.141271 162.432 
L 272.091142 162.432 
z
" style="fill:#1f77b4;"/>
   </g>
   <g id="patch_69">
    <path clip-path="url(#p360793e19d)" d="M 275.141271 162.432 
L 278.191401 162.432 
L 278.191401 162.432 
L 275.141271 162.432 
z
" style="fill:#1f77b4;"/>
   </g>
   <g id="patch_70">
    <path clip-path="url(#p360793e19d)" d="M 278.191401 162.432 
L 281.24153 162.432 
L 281.24153 162.432 
L 278.191401 162.432 
z
" style="fill:#1f77b4;"/>
   </g>
   <g id="patch_71">
    <path clip-path="url(#p360793e19d)" d="M 281.24153 162.432 
L 284.29166 162.432 
L 284.29166 162.432 
L 281.24153 162.432 
z
" style="fill:#1f77b4;"/>
   </g>
   <g id="patch_72">
    <path clip-path="url(#p360793e19d)" d="M 284.29166 162.432 
L 287.341789 162.432 
L 287.341789 160.737882 
L 284.29166 160.737882 
z
" style="fill:#1f77b4;"/>
   </g>
   <g id="patch_73">
    <path clip-path="url(#p360793e19d)" d="M 287.341789 162.432 
L 290.391919 162.432 
L 290.391919 162.432 
L 287.341789 162.432 
z
" style="fill:#1f77b4;"/>
   </g>
   <g id="patch_74">
    <path clip-path="url(#p360793e19d)" d="M 290.391919 162.432 
L 293.442048 162.432 
L 293.442048 162.432 
L 290.391919 162.432 
z
" style="fill:#1f77b4;"/>
   </g>
   <g id="patch_75">
    <path clip-path="url(#p360793e19d)" d="M 293.442048 162.432 
L 296.492177 162.432 
L 296.492177 162.432 
L 293.442048 162.432 
z
" style="fill:#1f77b4;"/>
   </g>
   <g id="patch_76">
    <path clip-path="url(#p360793e19d)" d="M 296.492177 162.432 
L 299.542307 162.432 
L 299.542307 162.432 
L 296.492177 162.432 
z
" style="fill:#1f77b4;"/>
   </g>
   <g id="patch_77">
    <path clip-path="url(#p360793e19d)" d="M 299.542307 162.432 
L 302.592436 162.432 
L 302.592436 162.432 
L 299.542307 162.432 
z
" style="fill:#1f77b4;"/>
   </g>
   <g id="patch_78">
    <path clip-path="url(#p360793e19d)" d="M 302.592436 162.432 
L 305.642566 162.432 
L 305.642566 162.432 
L 302.592436 162.432 
z
" style="fill:#1f77b4;"/>
   </g>
   <g id="patch_79">
    <path clip-path="url(#p360793e19d)" d="M 305.642566 162.432 
L 308.692695 162.432 
L 308.692695 162.432 
L 305.642566 162.432 
z
" style="fill:#1f77b4;"/>
   </g>
   <g id="patch_80">
    <path clip-path="url(#p360793e19d)" d="M 308.692695 162.432 
L 311.742825 162.432 
L 311.742825 162.432 
L 308.692695 162.432 
z
" style="fill:#1f77b4;"/>
   </g>
   <g id="patch_81">
    <path clip-path="url(#p360793e19d)" d="M 311.742825 162.432 
L 314.792954 162.432 
L 314.792954 162.432 
L 311.742825 162.432 
z
" style="fill:#1f77b4;"/>
   </g>
   <g id="patch_82">
    <path clip-path="url(#p360793e19d)" d="M 314.792954 162.432 
L 317.843084 162.432 
L 317.843084 162.432 
L 314.792954 162.432 
z
" style="fill:#1f77b4;"/>
   </g>
   <g id="patch_83">
    <path clip-path="url(#p360793e19d)" d="M 317.843084 162.432 
L 320.893213 162.432 
L 320.893213 162.432 
L 317.843084 162.432 
z
" style="fill:#1f77b4;"/>
   </g>
   <g id="patch_84">
    <path clip-path="url(#p360793e19d)" d="M 320.893213 162.432 
L 323.943343 162.432 
L 323.943343 162.432 
L 320.893213 162.432 
z
" style="fill:#1f77b4;"/>
   </g>
   <g id="patch_85">
    <path clip-path="url(#p360793e19d)" d="M 323.943343 162.432 
L 326.993472 162.432 
L 326.993472 162.432 
L 323.943343 162.432 
z
" style="fill:#1f77b4;"/>
   </g>
   <g id="patch_86">
    <path clip-path="url(#p360793e19d)" d="M 326.993472 162.432 
L 330.043601 162.432 
L 330.043601 162.432 
L 326.993472 162.432 
z
" style="fill:#1f77b4;"/>
   </g>
   <g id="patch_87">
    <path clip-path="url(#p360793e19d)" d="M 330.043601 162.432 
L 333.093731 162.432 
L 333.093731 162.432 
L 330.043601 162.432 
z
" style="fill:#1f77b4;"/>
   </g>
   <g id="patch_88">
    <path clip-path="url(#p360793e19d)" d="M 333.093731 162.432 
L 336.14386 162.432 
L 336.14386 162.432 
L 333.093731 162.432 
z
" style="fill:#1f77b4;"/>
   </g>
   <g id="patch_89">
    <path clip-path="url(#p360793e19d)" d="M 336.14386 162.432 
L 339.19399 162.432 
L 339.19399 162.432 
L 336.14386 162.432 
z
" style="fill:#1f77b4;"/>
   </g>
   <g id="patch_90">
    <path clip-path="url(#p360793e19d)" d="M 339.19399 162.432 
L 342.244119 162.432 
L 342.244119 162.432 
L 339.19399 162.432 
z
" style="fill:#1f77b4;"/>
   </g>
   <g id="patch_91">
    <path clip-path="url(#p360793e19d)" d="M 342.244119 162.432 
L 345.294249 162.432 
L 345.294249 162.432 
L 342.244119 162.432 
z
" style="fill:#1f77b4;"/>
   </g>
   <g id="patch_92">
    <path clip-path="url(#p360793e19d)" d="M 345.294249 162.432 
L 348.344378 162.432 
L 348.344378 162.432 
L 345.294249 162.432 
z
" style="fill:#1f77b4;"/>
   </g>
   <g id="patch_93">
    <path clip-path="url(#p360793e19d)" d="M 348.344378 162.432 
L 351.394508 162.432 
L 351.394508 162.432 
L 348.344378 162.432 
z
" style="fill:#1f77b4;"/>
   </g>
   <g id="patch_94">
    <path clip-path="url(#p360793e19d)" d="M 351.394508 162.432 
L 354.444637 162.432 
L 354.444637 162.432 
L 351.394508 162.432 
z
" style="fill:#1f77b4;"/>
   </g>
   <g id="patch_95">
    <path clip-path="url(#p360793e19d)" d="M 354.444637 162.432 
L 357.494767 162.432 
L 357.494767 162.432 
L 354.444637 162.432 
z
" style="fill:#1f77b4;"/>
   </g>
   <g id="patch_96">
    <path clip-path="url(#p360793e19d)" d="M 357.494767 162.432 
L 360.544896 162.432 
L 360.544896 162.432 
L 357.494767 162.432 
z
" style="fill:#1f77b4;"/>
   </g>
   <g id="patch_97">
    <path clip-path="url(#p360793e19d)" d="M 360.544896 162.432 
L 363.595025 162.432 
L 363.595025 162.432 
L 360.544896 162.432 
z
" style="fill:#1f77b4;"/>
   </g>
   <g id="patch_98">
    <path clip-path="url(#p360793e19d)" d="M 363.595025 162.432 
L 366.645155 162.432 
L 366.645155 162.432 
L 363.595025 162.432 
z
" style="fill:#1f77b4;"/>
   </g>
   <g id="patch_99">
    <path clip-path="url(#p360793e19d)" d="M 366.645155 162.432 
L 369.695284 162.432 
L 369.695284 162.432 
L 366.645155 162.432 
z
" style="fill:#1f77b4;"/>
   </g>
   <g id="patch_100">
    <path clip-path="url(#p360793e19d)" d="M 369.695284 162.432 
L 372.745414 162.432 
L 372.745414 160.737882 
L 369.695284 160.737882 
z
" style="fill:#1f77b4;"/>
   </g>
   <g id="patch_101">
    <path clip-path="url(#p360793e19d)" d="M 372.745414 162.432 
L 375.795543 162.432 
L 375.795543 162.432 
L 372.745414 162.432 
z
" style="fill:#1f77b4;"/>
   </g>
   <g id="patch_102">
    <path clip-path="url(#p360793e19d)" d="M 375.795543 162.432 
L 378.845673 162.432 
L 378.845673 160.737882 
L 375.795543 160.737882 
z
" style="fill:#1f77b4;"/>
   </g>
   <g id="matplotlib.axis_1">
    <g id="xtick_1">
     <g id="line2d_1">
      <defs>
       <path d="M 0 0 
L 0 3.5 
" id="m454ca09159" style="stroke:#000000;stroke-width:0.8;"/>
      </defs>
      <g>
       <use style="stroke:#000000;stroke-width:0.8;" x="73.832727" xlink:href="#m454ca09159" y="162.432"/>
      </g>
     </g>
     <g id="text_1">
      <!-- 0 -->
      <defs>
       <path d="M 31.78125 66.40625 
Q 24.171875 66.40625 20.328125 58.90625 
Q 16.5 51.421875 16.5 36.375 
Q 16.5 21.390625 20.328125 13.890625 
Q 24.171875 6.390625 31.78125 6.390625 
Q 39.453125 6.390625 43.28125 13.890625 
Q 47.125 21.390625 47.125 36.375 
Q 47.125 51.421875 43.28125 58.90625 
Q 39.453125 66.40625 31.78125 66.40625 
z
M 31.78125 74.21875 
Q 44.046875 74.21875 50.515625 64.515625 
Q 56.984375 54.828125 56.984375 36.375 
Q 56.984375 17.96875 50.515625 8.265625 
Q 44.046875 -1.421875 31.78125 -1.421875 
Q 19.53125 -1.421875 13.0625 8.265625 
Q 6.59375 17.96875 6.59375 36.375 
Q 6.59375 54.828125 13.0625 64.515625 
Q 19.53125 74.21875 31.78125 74.21875 
z
" id="DejaVuSans-48"/>
      </defs>
      <g transform="translate(70.651477 177.030437)scale(0.1 -0.1)">
       <use xlink:href="#DejaVuSans-48"/>
      </g>
     </g>
    </g>
    <g id="xtick_2">
     <g id="line2d_2">
      <g>
       <use style="stroke:#000000;stroke-width:0.8;" x="138.763636" xlink:href="#m454ca09159" y="162.432"/>
      </g>
     </g>
     <g id="text_2">
      <!-- 20 -->
      <defs>
       <path d="M 19.1875 8.296875 
L 53.609375 8.296875 
L 53.609375 0 
L 7.328125 0 
L 7.328125 8.296875 
Q 12.9375 14.109375 22.625 23.890625 
Q 32.328125 33.6875 34.8125 36.53125 
Q 39.546875 41.84375 41.421875 45.53125 
Q 43.3125 49.21875 43.3125 52.78125 
Q 43.3125 58.59375 39.234375 62.25 
Q 35.15625 65.921875 28.609375 65.921875 
Q 23.96875 65.921875 18.8125 64.3125 
Q 13.671875 62.703125 7.8125 59.421875 
L 7.8125 69.390625 
Q 13.765625 71.78125 18.9375 73 
Q 24.125 74.21875 28.421875 74.21875 
Q 39.75 74.21875 46.484375 68.546875 
Q 53.21875 62.890625 53.21875 53.421875 
Q 53.21875 48.921875 51.53125 44.890625 
Q 49.859375 40.875 45.40625 35.40625 
Q 44.1875 33.984375 37.640625 27.21875 
Q 31.109375 20.453125 19.1875 8.296875 
z
" id="DejaVuSans-50"/>
      </defs>
      <g transform="translate(132.401136 177.030437)scale(0.1 -0.1)">
       <use xlink:href="#DejaVuSans-50"/>
       <use x="63.623047" xlink:href="#DejaVuSans-48"/>
      </g>
     </g>
    </g>
    <g id="xtick_3">
     <g id="line2d_3">
      <g>
       <use style="stroke:#000000;stroke-width:0.8;" x="203.694545" xlink:href="#m454ca09159" y="162.432"/>
      </g>
     </g>
     <g id="text_3">
      <!-- 40 -->
      <defs>
       <path d="M 37.796875 64.3125 
L 12.890625 25.390625 
L 37.796875 25.390625 
z
M 35.203125 72.90625 
L 47.609375 72.90625 
L 47.609375 25.390625 
L 58.015625 25.390625 
L 58.015625 17.1875 
L 47.609375 17.1875 
L 47.609375 0 
L 37.796875 0 
L 37.796875 17.1875 
L 4.890625 17.1875 
L 4.890625 26.703125 
z
" id="DejaVuSans-52"/>
      </defs>
      <g transform="translate(197.332045 177.030437)scale(0.1 -0.1)">
       <use xlink:href="#DejaVuSans-52"/>
       <use x="63.623047" xlink:href="#DejaVuSans-48"/>
      </g>
     </g>
    </g>
    <g id="xtick_4">
     <g id="line2d_4">
      <g>
       <use style="stroke:#000000;stroke-width:0.8;" x="268.625455" xlink:href="#m454ca09159" y="162.432"/>
      </g>
     </g>
     <g id="text_4">
      <!-- 60 -->
      <defs>
       <path d="M 33.015625 40.375 
Q 26.375 40.375 22.484375 35.828125 
Q 18.609375 31.296875 18.609375 23.390625 
Q 18.609375 15.53125 22.484375 10.953125 
Q 26.375 6.390625 33.015625 6.390625 
Q 39.65625 6.390625 43.53125 10.953125 
Q 47.40625 15.53125 47.40625 23.390625 
Q 47.40625 31.296875 43.53125 35.828125 
Q 39.65625 40.375 33.015625 40.375 
z
M 52.59375 71.296875 
L 52.59375 62.3125 
Q 48.875 64.0625 45.09375 64.984375 
Q 41.3125 65.921875 37.59375 65.921875 
Q 27.828125 65.921875 22.671875 59.328125 
Q 17.53125 52.734375 16.796875 39.40625 
Q 19.671875 43.65625 24.015625 45.921875 
Q 28.375 48.1875 33.59375 48.1875 
Q 44.578125 48.1875 50.953125 41.515625 
Q 57.328125 34.859375 57.328125 23.390625 
Q 57.328125 12.15625 50.6875 5.359375 
Q 44.046875 -1.421875 33.015625 -1.421875 
Q 20.359375 -1.421875 13.671875 8.265625 
Q 6.984375 17.96875 6.984375 36.375 
Q 6.984375 53.65625 15.1875 63.9375 
Q 23.390625 74.21875 37.203125 74.21875 
Q 40.921875 74.21875 44.703125 73.484375 
Q 48.484375 72.75 52.59375 71.296875 
z
" id="DejaVuSans-54"/>
      </defs>
      <g transform="translate(262.262955 177.030437)scale(0.1 -0.1)">
       <use xlink:href="#DejaVuSans-54"/>
       <use x="63.623047" xlink:href="#DejaVuSans-48"/>
      </g>
     </g>
    </g>
    <g id="xtick_5">
     <g id="line2d_5">
      <g>
       <use style="stroke:#000000;stroke-width:0.8;" x="333.556364" xlink:href="#m454ca09159" y="162.432"/>
      </g>
     </g>
     <g id="text_5">
      <!-- 80 -->
      <defs>
       <path d="M 31.78125 34.625 
Q 24.75 34.625 20.71875 30.859375 
Q 16.703125 27.09375 16.703125 20.515625 
Q 16.703125 13.921875 20.71875 10.15625 
Q 24.75 6.390625 31.78125 6.390625 
Q 38.8125 6.390625 42.859375 10.171875 
Q 46.921875 13.96875 46.921875 20.515625 
Q 46.921875 27.09375 42.890625 30.859375 
Q 38.875 34.625 31.78125 34.625 
z
M 21.921875 38.8125 
Q 15.578125 40.375 12.03125 44.71875 
Q 8.5 49.078125 8.5 55.328125 
Q 8.5 64.0625 14.71875 69.140625 
Q 20.953125 74.21875 31.78125 74.21875 
Q 42.671875 74.21875 48.875 69.140625 
Q 55.078125 64.0625 55.078125 55.328125 
Q 55.078125 49.078125 51.53125 44.71875 
Q 48 40.375 41.703125 38.8125 
Q 48.828125 37.15625 52.796875 32.3125 
Q 56.78125 27.484375 56.78125 20.515625 
Q 56.78125 9.90625 50.3125 4.234375 
Q 43.84375 -1.421875 31.78125 -1.421875 
Q 19.734375 -1.421875 13.25 4.234375 
Q 6.78125 9.90625 6.78125 20.515625 
Q 6.78125 27.484375 10.78125 32.3125 
Q 14.796875 37.15625 21.921875 38.8125 
z
M 18.3125 54.390625 
Q 18.3125 48.734375 21.84375 45.5625 
Q 25.390625 42.390625 31.78125 42.390625 
Q 38.140625 42.390625 41.71875 45.5625 
Q 45.3125 48.734375 45.3125 54.390625 
Q 45.3125 60.0625 41.71875 63.234375 
Q 38.140625 66.40625 31.78125 66.40625 
Q 25.390625 66.40625 21.84375 63.234375 
Q 18.3125 60.0625 18.3125 54.390625 
z
" id="DejaVuSans-56"/>
      </defs>
      <g transform="translate(327.193864 177.030437)scale(0.1 -0.1)">
       <use xlink:href="#DejaVuSans-56"/>
       <use x="63.623047" xlink:href="#DejaVuSans-48"/>
      </g>
     </g>
    </g>
    <g id="xtick_6">
     <g id="line2d_6">
      <g>
       <use style="stroke:#000000;stroke-width:0.8;" x="398.487273" xlink:href="#m454ca09159" y="162.432"/>
      </g>
     </g>
     <g id="text_6">
      <!-- 100 -->
      <defs>
       <path d="M 12.40625 8.296875 
L 28.515625 8.296875 
L 28.515625 63.921875 
L 10.984375 60.40625 
L 10.984375 69.390625 
L 28.421875 72.90625 
L 38.28125 72.90625 
L 38.28125 8.296875 
L 54.390625 8.296875 
L 54.390625 0 
L 12.40625 0 
z
" id="DejaVuSans-49"/>
      </defs>
      <g transform="translate(388.943523 177.030437)scale(0.1 -0.1)">
       <use xlink:href="#DejaVuSans-49"/>
       <use x="63.623047" xlink:href="#DejaVuSans-48"/>
       <use x="127.246094" xlink:href="#DejaVuSans-48"/>
      </g>
     </g>
    </g>
   </g>
   <g id="matplotlib.axis_2">
    <g id="ytick_1">
     <g id="line2d_7">
      <defs>
       <path d="M 0 0 
L -3.5 0 
" id="m79cf240a92" style="stroke:#000000;stroke-width:0.8;"/>
      </defs>
      <g>
       <use style="stroke:#000000;stroke-width:0.8;" x="57.6" xlink:href="#m79cf240a92" y="162.432"/>
      </g>
     </g>
     <g id="text_7">
      <!-- 0.0 -->
      <defs>
       <path d="M 10.6875 12.40625 
L 21 12.40625 
L 21 0 
L 10.6875 0 
z
" id="DejaVuSans-46"/>
      </defs>
      <g transform="translate(34.696875 166.231219)scale(0.1 -0.1)">
       <use xlink:href="#DejaVuSans-48"/>
       <use x="63.623047" xlink:href="#DejaVuSans-46"/>
       <use x="95.410156" xlink:href="#DejaVuSans-48"/>
      </g>
     </g>
    </g>
    <g id="ytick_2">
     <g id="line2d_8">
      <g>
       <use style="stroke:#000000;stroke-width:0.8;" x="57.6" xlink:href="#m79cf240a92" y="130.599529"/>
      </g>
     </g>
     <g id="text_8">
      <!-- 0.1 -->
      <g transform="translate(34.696875 134.398748)scale(0.1 -0.1)">
       <use xlink:href="#DejaVuSans-48"/>
       <use x="63.623047" xlink:href="#DejaVuSans-46"/>
       <use x="95.410156" xlink:href="#DejaVuSans-49"/>
      </g>
     </g>
    </g>
    <g id="ytick_3">
     <g id="line2d_9">
      <g>
       <use style="stroke:#000000;stroke-width:0.8;" x="57.6" xlink:href="#m79cf240a92" y="98.767059"/>
      </g>
     </g>
     <g id="text_9">
      <!-- 0.2 -->
      <g transform="translate(34.696875 102.566278)scale(0.1 -0.1)">
       <use xlink:href="#DejaVuSans-48"/>
       <use x="63.623047" xlink:href="#DejaVuSans-46"/>
       <use x="95.410156" xlink:href="#DejaVuSans-50"/>
      </g>
     </g>
    </g>
    <g id="ytick_4">
     <g id="line2d_10">
      <g>
       <use style="stroke:#000000;stroke-width:0.8;" x="57.6" xlink:href="#m79cf240a92" y="66.934588"/>
      </g>
     </g>
     <g id="text_10">
      <!-- 0.3 -->
      <defs>
       <path d="M 40.578125 39.3125 
Q 47.65625 37.796875 51.625 33 
Q 55.609375 28.21875 55.609375 21.1875 
Q 55.609375 10.40625 48.1875 4.484375 
Q 40.765625 -1.421875 27.09375 -1.421875 
Q 22.515625 -1.421875 17.65625 -0.515625 
Q 12.796875 0.390625 7.625 2.203125 
L 7.625 11.71875 
Q 11.71875 9.328125 16.59375 8.109375 
Q 21.484375 6.890625 26.8125 6.890625 
Q 36.078125 6.890625 40.9375 10.546875 
Q 45.796875 14.203125 45.796875 21.1875 
Q 45.796875 27.640625 41.28125 31.265625 
Q 36.765625 34.90625 28.71875 34.90625 
L 20.21875 34.90625 
L 20.21875 43.015625 
L 29.109375 43.015625 
Q 36.375 43.015625 40.234375 45.921875 
Q 44.09375 48.828125 44.09375 54.296875 
Q 44.09375 59.90625 40.109375 62.90625 
Q 36.140625 65.921875 28.71875 65.921875 
Q 24.65625 65.921875 20.015625 65.03125 
Q 15.375 64.15625 9.8125 62.3125 
L 9.8125 71.09375 
Q 15.4375 72.65625 20.34375 73.4375 
Q 25.25 74.21875 29.59375 74.21875 
Q 40.828125 74.21875 47.359375 69.109375 
Q 53.90625 64.015625 53.90625 55.328125 
Q 53.90625 49.265625 50.4375 45.09375 
Q 46.96875 40.921875 40.578125 39.3125 
z
" id="DejaVuSans-51"/>
      </defs>
      <g transform="translate(34.696875 70.733807)scale(0.1 -0.1)">
       <use xlink:href="#DejaVuSans-48"/>
       <use x="63.623047" xlink:href="#DejaVuSans-46"/>
       <use x="95.410156" xlink:href="#DejaVuSans-51"/>
      </g>
     </g>
    </g>
   </g>
   <g id="line2d_11">
    <path clip-path="url(#p360793e19d)" d="M 73.832727 162.432 
L 74.157707 155.161393 
L 74.807666 127.0667 
L 75.457625 109.893798 
L 75.782604 105.000686 
L 76.107584 101.82279 
L 76.432563 99.928268 
L 76.757543 98.988866 
L 77.082523 98.758196 
L 77.407502 99.051705 
L 77.732482 99.730857 
L 78.382441 101.854 
L 79.682359 107.523745 
L 82.282195 119.146714 
L 83.907093 125.29802 
L 85.53199 130.483832 
L 87.156888 134.819569 
L 88.781785 138.443716 
L 90.406683 141.482987 
L 92.031581 144.044045 
L 93.656478 146.213838 
L 95.281376 148.062376 
L 97.231253 149.934891 
L 99.18113 151.501744 
L 101.455987 153.021713 
L 103.730844 154.277826 
L 106.33068 155.459508 
L 109.255495 156.536865 
L 112.505291 157.494493 
L 116.405045 158.394861 
L 120.954758 159.195561 
L 126.154431 159.87798 
L 132.654021 160.493276 
L 140.778509 161.02101 
L 151.177854 161.458306 
L 165.151974 161.809888 
L 185.625684 162.082431 
L 218.448616 162.27215 
L 282.794562 162.384518 
L 398.487273 162.422417 
L 398.487273 162.422417 
" style="fill:none;stroke:#ff7f0e;stroke-linecap:square;stroke-width:1.5;"/>
   </g>
   <g id="line2d_12">
    <path clip-path="url(#p360793e19d)" d="M 73.832727 143.539569 
L 74.482686 137.013794 
L 75.132645 132.370282 
L 75.782604 129.246593 
L 76.432563 127.276753 
L 77.082523 126.162969 
L 77.732482 125.677726 
L 78.382441 125.650926 
L 79.0324 125.956229 
L 79.682359 126.499848 
L 80.657297 127.614517 
L 82.282195 129.902272 
L 87.481867 137.563843 
L 89.756724 140.453632 
L 92.031581 142.987832 
L 94.306437 145.191543 
L 96.581294 147.102475 
L 99.18113 148.977926 
L 101.780966 150.575376 
L 104.705782 152.097149 
L 107.955577 153.508826 
L 111.530352 154.789799 
L 115.430106 155.93112 
L 119.65484 156.932796 
L 124.529533 157.856176 
L 130.054185 158.676426 
L 136.553776 159.416245 
L 144.353284 160.076283 
L 154.10267 160.664533 
L 166.126912 161.157069 
L 182.050909 161.572226 
L 203.824537 161.901136 
L 236.32249 162.14868 
L 290.91905 162.314758 
L 398.487273 162.401657 
L 398.487273 162.401657 
" style="fill:none;stroke:#2ca02c;stroke-dasharray:5.55,2.4;stroke-dashoffset:0;stroke-width:1.5;"/>
   </g>
   <g id="patch_103">
    <path d="M 57.6 162.432 
L 57.6 41.472 
" style="fill:none;stroke:#000000;stroke-linecap:square;stroke-linejoin:miter;stroke-width:0.8;"/>
   </g>
   <g id="patch_104">
    <path d="M 414.72 162.432 
L 414.72 41.472 
" style="fill:none;stroke:#000000;stroke-linecap:square;stroke-linejoin:miter;stroke-width:0.8;"/>
   </g>
   <g id="patch_105">
    <path d="M 57.6 162.432 
L 414.72 162.432 
" style="fill:none;stroke:#000000;stroke-linecap:square;stroke-linejoin:miter;stroke-width:0.8;"/>
   </g>
   <g id="patch_106">
    <path d="M 57.6 41.472 
L 414.72 41.472 
" style="fill:none;stroke:#000000;stroke-linecap:square;stroke-linejoin:miter;stroke-width:0.8;"/>
   </g>
   <g id="text_11">
    <!-- E -->
    <defs>
     <path d="M 9.8125 72.90625 
L 55.90625 72.90625 
L 55.90625 64.59375 
L 19.671875 64.59375 
L 19.671875 43.015625 
L 54.390625 43.015625 
L 54.390625 34.71875 
L 19.671875 34.71875 
L 19.671875 8.296875 
L 56.78125 8.296875 
L 56.78125 0 
L 9.8125 0 
z
" id="DejaVuSans-69"/>
    </defs>
    <g transform="translate(232.36875 35.472)scale(0.12 -0.12)">
     <use xlink:href="#DejaVuSans-69"/>
    </g>
   </g>
   <g id="legend_1">
    <g id="patch_107">
     <path d="M 187.487187 78.82825 
L 407.72 78.82825 
Q 409.72 78.82825 409.72 76.82825 
L 409.72 48.472 
Q 409.72 46.472 407.72 46.472 
L 187.487187 46.472 
Q 185.487187 46.472 185.487187 48.472 
L 185.487187 76.82825 
Q 185.487187 78.82825 187.487187 78.82825 
z
" style="fill:#ffffff;opacity:0.8;stroke:#cccccc;stroke-linejoin:miter;"/>
    </g>
    <g id="line2d_13">
     <path d="M 189.487187 54.570437 
L 209.487187 54.570437 
" style="fill:none;stroke:#ff7f0e;stroke-linecap:square;stroke-width:1.5;"/>
    </g>
    <g id="line2d_14"/>
    <g id="text_12">
     <!-- targetDist (Buzsaki &amp; Mizuseki, 2014) -->
     <defs>
      <path d="M 18.3125 70.21875 
L 18.3125 54.6875 
L 36.8125 54.6875 
L 36.8125 47.703125 
L 18.3125 47.703125 
L 18.3125 18.015625 
Q 18.3125 11.328125 20.140625 9.421875 
Q 21.96875 7.515625 27.59375 7.515625 
L 36.8125 7.515625 
L 36.8125 0 
L 27.59375 0 
Q 17.1875 0 13.234375 3.875 
Q 9.28125 7.765625 9.28125 18.015625 
L 9.28125 47.703125 
L 2.6875 47.703125 
L 2.6875 54.6875 
L 9.28125 54.6875 
L 9.28125 70.21875 
z
" id="DejaVuSans-116"/>
      <path d="M 34.28125 27.484375 
Q 23.390625 27.484375 19.1875 25 
Q 14.984375 22.515625 14.984375 16.5 
Q 14.984375 11.71875 18.140625 8.90625 
Q 21.296875 6.109375 26.703125 6.109375 
Q 34.1875 6.109375 38.703125 11.40625 
Q 43.21875 16.703125 43.21875 25.484375 
L 43.21875 27.484375 
z
M 52.203125 31.203125 
L 52.203125 0 
L 43.21875 0 
L 43.21875 8.296875 
Q 40.140625 3.328125 35.546875 0.953125 
Q 30.953125 -1.421875 24.3125 -1.421875 
Q 15.921875 -1.421875 10.953125 3.296875 
Q 6 8.015625 6 15.921875 
Q 6 25.140625 12.171875 29.828125 
Q 18.359375 34.515625 30.609375 34.515625 
L 43.21875 34.515625 
L 43.21875 35.40625 
Q 43.21875 41.609375 39.140625 45 
Q 35.0625 48.390625 27.6875 48.390625 
Q 23 48.390625 18.546875 47.265625 
Q 14.109375 46.140625 10.015625 43.890625 
L 10.015625 52.203125 
Q 14.9375 54.109375 19.578125 55.046875 
Q 24.21875 56 28.609375 56 
Q 40.484375 56 46.34375 49.84375 
Q 52.203125 43.703125 52.203125 31.203125 
z
" id="DejaVuSans-97"/>
      <path d="M 41.109375 46.296875 
Q 39.59375 47.171875 37.8125 47.578125 
Q 36.03125 48 33.890625 48 
Q 26.265625 48 22.1875 43.046875 
Q 18.109375 38.09375 18.109375 28.8125 
L 18.109375 0 
L 9.078125 0 
L 9.078125 54.6875 
L 18.109375 54.6875 
L 18.109375 46.1875 
Q 20.953125 51.171875 25.484375 53.578125 
Q 30.03125 56 36.53125 56 
Q 37.453125 56 38.578125 55.875 
Q 39.703125 55.765625 41.0625 55.515625 
z
" id="DejaVuSans-114"/>
      <path d="M 45.40625 27.984375 
Q 45.40625 37.75 41.375 43.109375 
Q 37.359375 48.484375 30.078125 48.484375 
Q 22.859375 48.484375 18.828125 43.109375 
Q 14.796875 37.75 14.796875 27.984375 
Q 14.796875 18.265625 18.828125 12.890625 
Q 22.859375 7.515625 30.078125 7.515625 
Q 37.359375 7.515625 41.375 12.890625 
Q 45.40625 18.265625 45.40625 27.984375 
z
M 54.390625 6.78125 
Q 54.390625 -7.171875 48.1875 -13.984375 
Q 42 -20.796875 29.203125 -20.796875 
Q 24.46875 -20.796875 20.265625 -20.09375 
Q 16.0625 -19.390625 12.109375 -17.921875 
L 12.109375 -9.1875 
Q 16.0625 -11.328125 19.921875 -12.34375 
Q 23.78125 -13.375 27.78125 -13.375 
Q 36.625 -13.375 41.015625 -8.765625 
Q 45.40625 -4.15625 45.40625 5.171875 
L 45.40625 9.625 
Q 42.625 4.78125 38.28125 2.390625 
Q 33.9375 0 27.875 0 
Q 17.828125 0 11.671875 7.65625 
Q 5.515625 15.328125 5.515625 27.984375 
Q 5.515625 40.671875 11.671875 48.328125 
Q 17.828125 56 27.875 56 
Q 33.9375 56 38.28125 53.609375 
Q 42.625 51.21875 45.40625 46.390625 
L 45.40625 54.6875 
L 54.390625 54.6875 
z
" id="DejaVuSans-103"/>
      <path d="M 56.203125 29.59375 
L 56.203125 25.203125 
L 14.890625 25.203125 
Q 15.484375 15.921875 20.484375 11.0625 
Q 25.484375 6.203125 34.421875 6.203125 
Q 39.59375 6.203125 44.453125 7.46875 
Q 49.3125 8.734375 54.109375 11.28125 
L 54.109375 2.78125 
Q 49.265625 0.734375 44.1875 -0.34375 
Q 39.109375 -1.421875 33.890625 -1.421875 
Q 20.796875 -1.421875 13.15625 6.1875 
Q 5.515625 13.8125 5.515625 26.8125 
Q 5.515625 40.234375 12.765625 48.109375 
Q 20.015625 56 32.328125 56 
Q 43.359375 56 49.78125 48.890625 
Q 56.203125 41.796875 56.203125 29.59375 
z
M 47.21875 32.234375 
Q 47.125 39.59375 43.09375 43.984375 
Q 39.0625 48.390625 32.421875 48.390625 
Q 24.90625 48.390625 20.390625 44.140625 
Q 15.875 39.890625 15.1875 32.171875 
z
" id="DejaVuSans-101"/>
      <path d="M 19.671875 64.796875 
L 19.671875 8.109375 
L 31.59375 8.109375 
Q 46.6875 8.109375 53.6875 14.9375 
Q 60.6875 21.78125 60.6875 36.53125 
Q 60.6875 51.171875 53.6875 57.984375 
Q 46.6875 64.796875 31.59375 64.796875 
z
M 9.8125 72.90625 
L 30.078125 72.90625 
Q 51.265625 72.90625 61.171875 64.09375 
Q 71.09375 55.28125 71.09375 36.53125 
Q 71.09375 17.671875 61.125 8.828125 
Q 51.171875 0 30.078125 0 
L 9.8125 0 
z
" id="DejaVuSans-68"/>
      <path d="M 9.421875 54.6875 
L 18.40625 54.6875 
L 18.40625 0 
L 9.421875 0 
z
M 9.421875 75.984375 
L 18.40625 75.984375 
L 18.40625 64.59375 
L 9.421875 64.59375 
z
" id="DejaVuSans-105"/>
      <path d="M 44.28125 53.078125 
L 44.28125 44.578125 
Q 40.484375 46.53125 36.375 47.5 
Q 32.28125 48.484375 27.875 48.484375 
Q 21.1875 48.484375 17.84375 46.4375 
Q 14.5 44.390625 14.5 40.28125 
Q 14.5 37.15625 16.890625 35.375 
Q 19.28125 33.59375 26.515625 31.984375 
L 29.59375 31.296875 
Q 39.15625 29.25 43.1875 25.515625 
Q 47.21875 21.78125 47.21875 15.09375 
Q 47.21875 7.46875 41.1875 3.015625 
Q 35.15625 -1.421875 24.609375 -1.421875 
Q 20.21875 -1.421875 15.453125 -0.5625 
Q 10.6875 0.296875 5.421875 2 
L 5.421875 11.28125 
Q 10.40625 8.6875 15.234375 7.390625 
Q 20.0625 6.109375 24.8125 6.109375 
Q 31.15625 6.109375 34.5625 8.28125 
Q 37.984375 10.453125 37.984375 14.40625 
Q 37.984375 18.0625 35.515625 20.015625 
Q 33.0625 21.96875 24.703125 23.78125 
L 21.578125 24.515625 
Q 13.234375 26.265625 9.515625 29.90625 
Q 5.8125 33.546875 5.8125 39.890625 
Q 5.8125 47.609375 11.28125 51.796875 
Q 16.75 56 26.8125 56 
Q 31.78125 56 36.171875 55.265625 
Q 40.578125 54.546875 44.28125 53.078125 
z
" id="DejaVuSans-115"/>
      <path id="DejaVuSans-32"/>
      <path d="M 31 75.875 
Q 24.46875 64.65625 21.28125 53.65625 
Q 18.109375 42.671875 18.109375 31.390625 
Q 18.109375 20.125 21.3125 9.0625 
Q 24.515625 -2 31 -13.1875 
L 23.1875 -13.1875 
Q 15.875 -1.703125 12.234375 9.375 
Q 8.59375 20.453125 8.59375 31.390625 
Q 8.59375 42.28125 12.203125 53.3125 
Q 15.828125 64.359375 23.1875 75.875 
z
" id="DejaVuSans-40"/>
      <path d="M 19.671875 34.8125 
L 19.671875 8.109375 
L 35.5 8.109375 
Q 43.453125 8.109375 47.28125 11.40625 
Q 51.125 14.703125 51.125 21.484375 
Q 51.125 28.328125 47.28125 31.5625 
Q 43.453125 34.8125 35.5 34.8125 
z
M 19.671875 64.796875 
L 19.671875 42.828125 
L 34.28125 42.828125 
Q 41.5 42.828125 45.03125 45.53125 
Q 48.578125 48.25 48.578125 53.8125 
Q 48.578125 59.328125 45.03125 62.0625 
Q 41.5 64.796875 34.28125 64.796875 
z
M 9.8125 72.90625 
L 35.015625 72.90625 
Q 46.296875 72.90625 52.390625 68.21875 
Q 58.5 63.53125 58.5 54.890625 
Q 58.5 48.1875 55.375 44.234375 
Q 52.25 40.28125 46.1875 39.3125 
Q 53.46875 37.75 57.5 32.78125 
Q 61.53125 27.828125 61.53125 20.40625 
Q 61.53125 10.640625 54.890625 5.3125 
Q 48.25 0 35.984375 0 
L 9.8125 0 
z
" id="DejaVuSans-66"/>
      <path d="M 8.5 21.578125 
L 8.5 54.6875 
L 17.484375 54.6875 
L 17.484375 21.921875 
Q 17.484375 14.15625 20.5 10.265625 
Q 23.53125 6.390625 29.59375 6.390625 
Q 36.859375 6.390625 41.078125 11.03125 
Q 45.3125 15.671875 45.3125 23.6875 
L 45.3125 54.6875 
L 54.296875 54.6875 
L 54.296875 0 
L 45.3125 0 
L 45.3125 8.40625 
Q 42.046875 3.421875 37.71875 1 
Q 33.40625 -1.421875 27.6875 -1.421875 
Q 18.265625 -1.421875 13.375 4.4375 
Q 8.5 10.296875 8.5 21.578125 
z
M 31.109375 56 
z
" id="DejaVuSans-117"/>
      <path d="M 5.515625 54.6875 
L 48.1875 54.6875 
L 48.1875 46.484375 
L 14.40625 7.171875 
L 48.1875 7.171875 
L 48.1875 0 
L 4.296875 0 
L 4.296875 8.203125 
L 38.09375 47.515625 
L 5.515625 47.515625 
z
" id="DejaVuSans-122"/>
      <path d="M 9.078125 75.984375 
L 18.109375 75.984375 
L 18.109375 31.109375 
L 44.921875 54.6875 
L 56.390625 54.6875 
L 27.390625 29.109375 
L 57.625 0 
L 45.90625 0 
L 18.109375 26.703125 
L 18.109375 0 
L 9.078125 0 
z
" id="DejaVuSans-107"/>
      <path d="M 24.3125 39.203125 
Q 19.875 35.25 17.796875 31.3125 
Q 15.71875 27.390625 15.71875 23.09375 
Q 15.71875 15.96875 20.890625 11.234375 
Q 26.078125 6.5 33.890625 6.5 
Q 38.53125 6.5 42.578125 8.03125 
Q 46.625 9.578125 50.203125 12.703125 
z
M 31.203125 44.671875 
L 56 19.28125 
Q 58.890625 23.640625 60.5 28.59375 
Q 62.109375 33.546875 62.40625 39.109375 
L 71.484375 39.109375 
Q 70.90625 32.671875 68.359375 26.359375 
Q 65.828125 20.0625 61.28125 13.921875 
L 74.90625 0 
L 62.59375 0 
L 55.609375 7.171875 
Q 50.53125 2.828125 44.96875 0.703125 
Q 39.40625 -1.421875 33.015625 -1.421875 
Q 21.234375 -1.421875 13.765625 5.296875 
Q 6.296875 12.015625 6.296875 22.515625 
Q 6.296875 28.765625 9.5625 34.25 
Q 12.84375 39.75 19.390625 44.578125 
Q 17.046875 47.65625 15.8125 50.703125 
Q 14.59375 53.765625 14.59375 56.6875 
Q 14.59375 64.59375 20.015625 69.40625 
Q 25.4375 74.21875 34.421875 74.21875 
Q 38.484375 74.21875 42.5 73.34375 
Q 46.53125 72.46875 50.6875 70.703125 
L 50.6875 61.8125 
Q 46.4375 64.109375 42.578125 65.296875 
Q 38.71875 66.5 35.40625 66.5 
Q 30.28125 66.5 27.078125 63.78125 
Q 23.875 61.078125 23.875 56.78125 
Q 23.875 54.296875 25.3125 51.78125 
Q 26.765625 49.265625 31.203125 44.671875 
z
" id="DejaVuSans-38"/>
      <path d="M 9.8125 72.90625 
L 24.515625 72.90625 
L 43.109375 23.296875 
L 61.8125 72.90625 
L 76.515625 72.90625 
L 76.515625 0 
L 66.890625 0 
L 66.890625 64.015625 
L 48.09375 14.015625 
L 38.1875 14.015625 
L 19.390625 64.015625 
L 19.390625 0 
L 9.8125 0 
z
" id="DejaVuSans-77"/>
      <path d="M 11.71875 12.40625 
L 22.015625 12.40625 
L 22.015625 4 
L 14.015625 -11.625 
L 7.71875 -11.625 
L 11.71875 4 
z
" id="DejaVuSans-44"/>
      <path d="M 8.015625 75.875 
L 15.828125 75.875 
Q 23.140625 64.359375 26.78125 53.3125 
Q 30.421875 42.28125 30.421875 31.390625 
Q 30.421875 20.453125 26.78125 9.375 
Q 23.140625 -1.703125 15.828125 -13.1875 
L 8.015625 -13.1875 
Q 14.5 -2 17.703125 9.0625 
Q 20.90625 20.125 20.90625 31.390625 
Q 20.90625 42.671875 17.703125 53.65625 
Q 14.5 64.65625 8.015625 75.875 
z
" id="DejaVuSans-41"/>
     </defs>
     <g transform="translate(217.487187 58.070437)scale(0.1 -0.1)">
      <use xlink:href="#DejaVuSans-116"/>
      <use x="39.208984" xlink:href="#DejaVuSans-97"/>
      <use x="100.488281" xlink:href="#DejaVuSans-114"/>
      <use x="139.851562" xlink:href="#DejaVuSans-103"/>
      <use x="203.328125" xlink:href="#DejaVuSans-101"/>
      <use x="264.851562" xlink:href="#DejaVuSans-116"/>
      <use x="304.060547" xlink:href="#DejaVuSans-68"/>
      <use x="381.0625" xlink:href="#DejaVuSans-105"/>
      <use x="408.845703" xlink:href="#DejaVuSans-115"/>
      <use x="460.945312" xlink:href="#DejaVuSans-116"/>
      <use x="500.154297" xlink:href="#DejaVuSans-32"/>
      <use x="531.941406" xlink:href="#DejaVuSans-40"/>
      <use x="570.955078" xlink:href="#DejaVuSans-66"/>
      <use x="639.558594" xlink:href="#DejaVuSans-117"/>
      <use x="702.9375" xlink:href="#DejaVuSans-122"/>
      <use x="755.427734" xlink:href="#DejaVuSans-115"/>
      <use x="807.527344" xlink:href="#DejaVuSans-97"/>
      <use x="868.806641" xlink:href="#DejaVuSans-107"/>
      <use x="926.716797" xlink:href="#DejaVuSans-105"/>
      <use x="954.5" xlink:href="#DejaVuSans-32"/>
      <use x="986.287109" xlink:href="#DejaVuSans-38"/>
      <use x="1064.265625" xlink:href="#DejaVuSans-32"/>
      <use x="1096.052734" xlink:href="#DejaVuSans-77"/>
      <use x="1182.332031" xlink:href="#DejaVuSans-105"/>
      <use x="1210.115234" xlink:href="#DejaVuSans-122"/>
      <use x="1262.605469" xlink:href="#DejaVuSans-117"/>
      <use x="1325.984375" xlink:href="#DejaVuSans-115"/>
      <use x="1378.083984" xlink:href="#DejaVuSans-101"/>
      <use x="1439.607422" xlink:href="#DejaVuSans-107"/>
      <use x="1497.517578" xlink:href="#DejaVuSans-105"/>
      <use x="1525.300781" xlink:href="#DejaVuSans-44"/>
      <use x="1557.087891" xlink:href="#DejaVuSans-32"/>
      <use x="1588.875" xlink:href="#DejaVuSans-50"/>
      <use x="1652.498047" xlink:href="#DejaVuSans-48"/>
      <use x="1716.121094" xlink:href="#DejaVuSans-49"/>
      <use x="1779.744141" xlink:href="#DejaVuSans-52"/>
      <use x="1843.367188" xlink:href="#DejaVuSans-41"/>
     </g>
    </g>
    <g id="line2d_15">
     <path d="M 189.487187 69.248562 
L 209.487187 69.248562 
" style="fill:none;stroke:#2ca02c;stroke-dasharray:5.55,2.4;stroke-dashoffset:0;stroke-width:1.5;"/>
    </g>
    <g id="line2d_16"/>
    <g id="text_13">
     <!-- simulatedDist -->
     <defs>
      <path d="M 52 44.1875 
Q 55.375 50.25 60.0625 53.125 
Q 64.75 56 71.09375 56 
Q 79.640625 56 84.28125 50.015625 
Q 88.921875 44.046875 88.921875 33.015625 
L 88.921875 0 
L 79.890625 0 
L 79.890625 32.71875 
Q 79.890625 40.578125 77.09375 44.375 
Q 74.3125 48.1875 68.609375 48.1875 
Q 61.625 48.1875 57.5625 43.546875 
Q 53.515625 38.921875 53.515625 30.90625 
L 53.515625 0 
L 44.484375 0 
L 44.484375 32.71875 
Q 44.484375 40.625 41.703125 44.40625 
Q 38.921875 48.1875 33.109375 48.1875 
Q 26.21875 48.1875 22.15625 43.53125 
Q 18.109375 38.875 18.109375 30.90625 
L 18.109375 0 
L 9.078125 0 
L 9.078125 54.6875 
L 18.109375 54.6875 
L 18.109375 46.1875 
Q 21.1875 51.21875 25.484375 53.609375 
Q 29.78125 56 35.6875 56 
Q 41.65625 56 45.828125 52.96875 
Q 50 49.953125 52 44.1875 
z
" id="DejaVuSans-109"/>
      <path d="M 9.421875 75.984375 
L 18.40625 75.984375 
L 18.40625 0 
L 9.421875 0 
z
" id="DejaVuSans-108"/>
      <path d="M 45.40625 46.390625 
L 45.40625 75.984375 
L 54.390625 75.984375 
L 54.390625 0 
L 45.40625 0 
L 45.40625 8.203125 
Q 42.578125 3.328125 38.25 0.953125 
Q 33.9375 -1.421875 27.875 -1.421875 
Q 17.96875 -1.421875 11.734375 6.484375 
Q 5.515625 14.40625 5.515625 27.296875 
Q 5.515625 40.1875 11.734375 48.09375 
Q 17.96875 56 27.875 56 
Q 33.9375 56 38.25 53.625 
Q 42.578125 51.265625 45.40625 46.390625 
z
M 14.796875 27.296875 
Q 14.796875 17.390625 18.875 11.75 
Q 22.953125 6.109375 30.078125 6.109375 
Q 37.203125 6.109375 41.296875 11.75 
Q 45.40625 17.390625 45.40625 27.296875 
Q 45.40625 37.203125 41.296875 42.84375 
Q 37.203125 48.484375 30.078125 48.484375 
Q 22.953125 48.484375 18.875 42.84375 
Q 14.796875 37.203125 14.796875 27.296875 
z
" id="DejaVuSans-100"/>
     </defs>
     <g transform="translate(217.487187 72.748562)scale(0.1 -0.1)">
      <use xlink:href="#DejaVuSans-115"/>
      <use x="52.099609" xlink:href="#DejaVuSans-105"/>
      <use x="79.882812" xlink:href="#DejaVuSans-109"/>
      <use x="177.294922" xlink:href="#DejaVuSans-117"/>
      <use x="240.673828" xlink:href="#DejaVuSans-108"/>
      <use x="268.457031" xlink:href="#DejaVuSans-97"/>
      <use x="329.736328" xlink:href="#DejaVuSans-116"/>
      <use x="368.945312" xlink:href="#DejaVuSans-101"/>
      <use x="430.46875" xlink:href="#DejaVuSans-100"/>
      <use x="493.945312" xlink:href="#DejaVuSans-68"/>
      <use x="570.947266" xlink:href="#DejaVuSans-105"/>
      <use x="598.730469" xlink:href="#DejaVuSans-115"/>
      <use x="650.830078" xlink:href="#DejaVuSans-116"/>
     </g>
    </g>
   </g>
  </g>
  <g id="axes_2">
   <g id="patch_108">
    <path d="M 57.6 307.584 
L 414.72 307.584 
L 414.72 186.624 
L 57.6 186.624 
z
" style="fill:#ffffff;"/>
   </g>
   <g id="patch_109">
    <path clip-path="url(#p0139b9ffe0)" d="M 73.832727 307.584 
L 74.673583 307.584 
L 74.673583 192.384 
L 73.832727 192.384 
z
" style="fill:#1f77b4;"/>
   </g>
   <g id="patch_110">
    <path clip-path="url(#p0139b9ffe0)" d="M 74.673583 307.584 
L 75.514438 307.584 
L 75.514438 276.864 
L 74.673583 276.864 
z
" style="fill:#1f77b4;"/>
   </g>
   <g id="patch_111">
    <path clip-path="url(#p0139b9ffe0)" d="M 75.514438 307.584 
L 76.355293 307.584 
L 76.355293 284.544 
L 75.514438 284.544 
z
" style="fill:#1f77b4;"/>
   </g>
   <g id="patch_112">
    <path clip-path="url(#p0139b9ffe0)" d="M 76.355293 307.584 
L 77.196148 307.584 
L 77.196148 292.224 
L 76.355293 292.224 
z
" style="fill:#1f77b4;"/>
   </g>
   <g id="patch_113">
    <path clip-path="url(#p0139b9ffe0)" d="M 77.196148 307.584 
L 78.037004 307.584 
L 78.037004 307.584 
L 77.196148 307.584 
z
" style="fill:#1f77b4;"/>
   </g>
   <g id="patch_114">
    <path clip-path="url(#p0139b9ffe0)" d="M 78.037004 307.584 
L 78.877859 307.584 
L 78.877859 284.544 
L 78.037004 284.544 
z
" style="fill:#1f77b4;"/>
   </g>
   <g id="patch_115">
    <path clip-path="url(#p0139b9ffe0)" d="M 78.877859 307.584 
L 79.718714 307.584 
L 79.718714 276.864 
L 78.877859 276.864 
z
" style="fill:#1f77b4;"/>
   </g>
   <g id="patch_116">
    <path clip-path="url(#p0139b9ffe0)" d="M 79.718714 307.584 
L 80.559569 307.584 
L 80.559569 299.904 
L 79.718714 299.904 
z
" style="fill:#1f77b4;"/>
   </g>
   <g id="patch_117">
    <path clip-path="url(#p0139b9ffe0)" d="M 80.559569 307.584 
L 81.400425 307.584 
L 81.400425 292.224 
L 80.559569 292.224 
z
" style="fill:#1f77b4;"/>
   </g>
   <g id="patch_118">
    <path clip-path="url(#p0139b9ffe0)" d="M 81.400425 307.584 
L 82.24128 307.584 
L 82.24128 307.584 
L 81.400425 307.584 
z
" style="fill:#1f77b4;"/>
   </g>
   <g id="patch_119">
    <path clip-path="url(#p0139b9ffe0)" d="M 82.24128 307.584 
L 83.082135 307.584 
L 83.082135 292.224 
L 82.24128 292.224 
z
" style="fill:#1f77b4;"/>
   </g>
   <g id="patch_120">
    <path clip-path="url(#p0139b9ffe0)" d="M 83.082135 307.584 
L 83.922991 307.584 
L 83.922991 299.904 
L 83.082135 299.904 
z
" style="fill:#1f77b4;"/>
   </g>
   <g id="patch_121">
    <path clip-path="url(#p0139b9ffe0)" d="M 83.922991 307.584 
L 84.763846 307.584 
L 84.763846 299.904 
L 83.922991 299.904 
z
" style="fill:#1f77b4;"/>
   </g>
   <g id="patch_122">
    <path clip-path="url(#p0139b9ffe0)" d="M 84.763846 307.584 
L 85.604701 307.584 
L 85.604701 307.584 
L 84.763846 307.584 
z
" style="fill:#1f77b4;"/>
   </g>
   <g id="patch_123">
    <path clip-path="url(#p0139b9ffe0)" d="M 85.604701 307.584 
L 86.445556 307.584 
L 86.445556 307.584 
L 85.604701 307.584 
z
" style="fill:#1f77b4;"/>
   </g>
   <g id="patch_124">
    <path clip-path="url(#p0139b9ffe0)" d="M 86.445556 307.584 
L 87.286412 307.584 
L 87.286412 307.584 
L 86.445556 307.584 
z
" style="fill:#1f77b4;"/>
   </g>
   <g id="patch_125">
    <path clip-path="url(#p0139b9ffe0)" d="M 87.286412 307.584 
L 88.127267 307.584 
L 88.127267 307.584 
L 87.286412 307.584 
z
" style="fill:#1f77b4;"/>
   </g>
   <g id="patch_126">
    <path clip-path="url(#p0139b9ffe0)" d="M 88.127267 307.584 
L 88.968122 307.584 
L 88.968122 307.584 
L 88.127267 307.584 
z
" style="fill:#1f77b4;"/>
   </g>
   <g id="patch_127">
    <path clip-path="url(#p0139b9ffe0)" d="M 88.968122 307.584 
L 89.808977 307.584 
L 89.808977 307.584 
L 88.968122 307.584 
z
" style="fill:#1f77b4;"/>
   </g>
   <g id="patch_128">
    <path clip-path="url(#p0139b9ffe0)" d="M 89.808977 307.584 
L 90.649833 307.584 
L 90.649833 307.584 
L 89.808977 307.584 
z
" style="fill:#1f77b4;"/>
   </g>
   <g id="patch_129">
    <path clip-path="url(#p0139b9ffe0)" d="M 90.649833 307.584 
L 91.490688 307.584 
L 91.490688 307.584 
L 90.649833 307.584 
z
" style="fill:#1f77b4;"/>
   </g>
   <g id="patch_130">
    <path clip-path="url(#p0139b9ffe0)" d="M 91.490688 307.584 
L 92.331543 307.584 
L 92.331543 299.904 
L 91.490688 299.904 
z
" style="fill:#1f77b4;"/>
   </g>
   <g id="patch_131">
    <path clip-path="url(#p0139b9ffe0)" d="M 92.331543 307.584 
L 93.172399 307.584 
L 93.172399 307.584 
L 92.331543 307.584 
z
" style="fill:#1f77b4;"/>
   </g>
   <g id="patch_132">
    <path clip-path="url(#p0139b9ffe0)" d="M 93.172399 307.584 
L 94.013254 307.584 
L 94.013254 307.584 
L 93.172399 307.584 
z
" style="fill:#1f77b4;"/>
   </g>
   <g id="patch_133">
    <path clip-path="url(#p0139b9ffe0)" d="M 94.013254 307.584 
L 94.854109 307.584 
L 94.854109 299.904 
L 94.013254 299.904 
z
" style="fill:#1f77b4;"/>
   </g>
   <g id="patch_134">
    <path clip-path="url(#p0139b9ffe0)" d="M 94.854109 307.584 
L 95.694964 307.584 
L 95.694964 307.584 
L 94.854109 307.584 
z
" style="fill:#1f77b4;"/>
   </g>
   <g id="patch_135">
    <path clip-path="url(#p0139b9ffe0)" d="M 95.694964 307.584 
L 96.53582 307.584 
L 96.53582 307.584 
L 95.694964 307.584 
z
" style="fill:#1f77b4;"/>
   </g>
   <g id="patch_136">
    <path clip-path="url(#p0139b9ffe0)" d="M 96.53582 307.584 
L 97.376675 307.584 
L 97.376675 307.584 
L 96.53582 307.584 
z
" style="fill:#1f77b4;"/>
   </g>
   <g id="patch_137">
    <path clip-path="url(#p0139b9ffe0)" d="M 97.376675 307.584 
L 98.21753 307.584 
L 98.21753 299.904 
L 97.376675 299.904 
z
" style="fill:#1f77b4;"/>
   </g>
   <g id="patch_138">
    <path clip-path="url(#p0139b9ffe0)" d="M 98.21753 307.584 
L 99.058385 307.584 
L 99.058385 307.584 
L 98.21753 307.584 
z
" style="fill:#1f77b4;"/>
   </g>
   <g id="patch_139">
    <path clip-path="url(#p0139b9ffe0)" d="M 99.058385 307.584 
L 99.899241 307.584 
L 99.899241 307.584 
L 99.058385 307.584 
z
" style="fill:#1f77b4;"/>
   </g>
   <g id="patch_140">
    <path clip-path="url(#p0139b9ffe0)" d="M 99.899241 307.584 
L 100.740096 307.584 
L 100.740096 307.584 
L 99.899241 307.584 
z
" style="fill:#1f77b4;"/>
   </g>
   <g id="patch_141">
    <path clip-path="url(#p0139b9ffe0)" d="M 100.740096 307.584 
L 101.580951 307.584 
L 101.580951 307.584 
L 100.740096 307.584 
z
" style="fill:#1f77b4;"/>
   </g>
   <g id="patch_142">
    <path clip-path="url(#p0139b9ffe0)" d="M 101.580951 307.584 
L 102.421807 307.584 
L 102.421807 307.584 
L 101.580951 307.584 
z
" style="fill:#1f77b4;"/>
   </g>
   <g id="patch_143">
    <path clip-path="url(#p0139b9ffe0)" d="M 102.421807 307.584 
L 103.262662 307.584 
L 103.262662 307.584 
L 102.421807 307.584 
z
" style="fill:#1f77b4;"/>
   </g>
   <g id="patch_144">
    <path clip-path="url(#p0139b9ffe0)" d="M 103.262662 307.584 
L 104.103517 307.584 
L 104.103517 307.584 
L 103.262662 307.584 
z
" style="fill:#1f77b4;"/>
   </g>
   <g id="patch_145">
    <path clip-path="url(#p0139b9ffe0)" d="M 104.103517 307.584 
L 104.944372 307.584 
L 104.944372 307.584 
L 104.103517 307.584 
z
" style="fill:#1f77b4;"/>
   </g>
   <g id="patch_146">
    <path clip-path="url(#p0139b9ffe0)" d="M 104.944372 307.584 
L 105.785228 307.584 
L 105.785228 307.584 
L 104.944372 307.584 
z
" style="fill:#1f77b4;"/>
   </g>
   <g id="patch_147">
    <path clip-path="url(#p0139b9ffe0)" d="M 105.785228 307.584 
L 106.626083 307.584 
L 106.626083 299.904 
L 105.785228 299.904 
z
" style="fill:#1f77b4;"/>
   </g>
   <g id="patch_148">
    <path clip-path="url(#p0139b9ffe0)" d="M 106.626083 307.584 
L 107.466938 307.584 
L 107.466938 299.904 
L 106.626083 299.904 
z
" style="fill:#1f77b4;"/>
   </g>
   <g id="patch_149">
    <path clip-path="url(#p0139b9ffe0)" d="M 107.466938 307.584 
L 108.307793 307.584 
L 108.307793 307.584 
L 107.466938 307.584 
z
" style="fill:#1f77b4;"/>
   </g>
   <g id="patch_150">
    <path clip-path="url(#p0139b9ffe0)" d="M 108.307793 307.584 
L 109.148649 307.584 
L 109.148649 307.584 
L 108.307793 307.584 
z
" style="fill:#1f77b4;"/>
   </g>
   <g id="patch_151">
    <path clip-path="url(#p0139b9ffe0)" d="M 109.148649 307.584 
L 109.989504 307.584 
L 109.989504 307.584 
L 109.148649 307.584 
z
" style="fill:#1f77b4;"/>
   </g>
   <g id="patch_152">
    <path clip-path="url(#p0139b9ffe0)" d="M 109.989504 307.584 
L 110.830359 307.584 
L 110.830359 307.584 
L 109.989504 307.584 
z
" style="fill:#1f77b4;"/>
   </g>
   <g id="patch_153">
    <path clip-path="url(#p0139b9ffe0)" d="M 110.830359 307.584 
L 111.671215 307.584 
L 111.671215 307.584 
L 110.830359 307.584 
z
" style="fill:#1f77b4;"/>
   </g>
   <g id="patch_154">
    <path clip-path="url(#p0139b9ffe0)" d="M 111.671215 307.584 
L 112.51207 307.584 
L 112.51207 307.584 
L 111.671215 307.584 
z
" style="fill:#1f77b4;"/>
   </g>
   <g id="patch_155">
    <path clip-path="url(#p0139b9ffe0)" d="M 112.51207 307.584 
L 113.352925 307.584 
L 113.352925 307.584 
L 112.51207 307.584 
z
" style="fill:#1f77b4;"/>
   </g>
   <g id="patch_156">
    <path clip-path="url(#p0139b9ffe0)" d="M 113.352925 307.584 
L 114.19378 307.584 
L 114.19378 307.584 
L 113.352925 307.584 
z
" style="fill:#1f77b4;"/>
   </g>
   <g id="patch_157">
    <path clip-path="url(#p0139b9ffe0)" d="M 114.19378 307.584 
L 115.034636 307.584 
L 115.034636 307.584 
L 114.19378 307.584 
z
" style="fill:#1f77b4;"/>
   </g>
   <g id="patch_158">
    <path clip-path="url(#p0139b9ffe0)" d="M 115.034636 307.584 
L 115.875491 307.584 
L 115.875491 307.584 
L 115.034636 307.584 
z
" style="fill:#1f77b4;"/>
   </g>
   <g id="patch_159">
    <path clip-path="url(#p0139b9ffe0)" d="M 115.875491 307.584 
L 116.716346 307.584 
L 116.716346 307.584 
L 115.875491 307.584 
z
" style="fill:#1f77b4;"/>
   </g>
   <g id="patch_160">
    <path clip-path="url(#p0139b9ffe0)" d="M 116.716346 307.584 
L 117.557201 307.584 
L 117.557201 307.584 
L 116.716346 307.584 
z
" style="fill:#1f77b4;"/>
   </g>
   <g id="patch_161">
    <path clip-path="url(#p0139b9ffe0)" d="M 117.557201 307.584 
L 118.398057 307.584 
L 118.398057 307.584 
L 117.557201 307.584 
z
" style="fill:#1f77b4;"/>
   </g>
   <g id="patch_162">
    <path clip-path="url(#p0139b9ffe0)" d="M 118.398057 307.584 
L 119.238912 307.584 
L 119.238912 307.584 
L 118.398057 307.584 
z
" style="fill:#1f77b4;"/>
   </g>
   <g id="patch_163">
    <path clip-path="url(#p0139b9ffe0)" d="M 119.238912 307.584 
L 120.079767 307.584 
L 120.079767 307.584 
L 119.238912 307.584 
z
" style="fill:#1f77b4;"/>
   </g>
   <g id="patch_164">
    <path clip-path="url(#p0139b9ffe0)" d="M 120.079767 307.584 
L 120.920623 307.584 
L 120.920623 307.584 
L 120.079767 307.584 
z
" style="fill:#1f77b4;"/>
   </g>
   <g id="patch_165">
    <path clip-path="url(#p0139b9ffe0)" d="M 120.920623 307.584 
L 121.761478 307.584 
L 121.761478 307.584 
L 120.920623 307.584 
z
" style="fill:#1f77b4;"/>
   </g>
   <g id="patch_166">
    <path clip-path="url(#p0139b9ffe0)" d="M 121.761478 307.584 
L 122.602333 307.584 
L 122.602333 307.584 
L 121.761478 307.584 
z
" style="fill:#1f77b4;"/>
   </g>
   <g id="patch_167">
    <path clip-path="url(#p0139b9ffe0)" d="M 122.602333 307.584 
L 123.443188 307.584 
L 123.443188 307.584 
L 122.602333 307.584 
z
" style="fill:#1f77b4;"/>
   </g>
   <g id="patch_168">
    <path clip-path="url(#p0139b9ffe0)" d="M 123.443188 307.584 
L 124.284044 307.584 
L 124.284044 299.904 
L 123.443188 299.904 
z
" style="fill:#1f77b4;"/>
   </g>
   <g id="patch_169">
    <path clip-path="url(#p0139b9ffe0)" d="M 124.284044 307.584 
L 125.124899 307.584 
L 125.124899 307.584 
L 124.284044 307.584 
z
" style="fill:#1f77b4;"/>
   </g>
   <g id="patch_170">
    <path clip-path="url(#p0139b9ffe0)" d="M 125.124899 307.584 
L 125.965754 307.584 
L 125.965754 299.904 
L 125.124899 299.904 
z
" style="fill:#1f77b4;"/>
   </g>
   <g id="patch_171">
    <path clip-path="url(#p0139b9ffe0)" d="M 125.965754 307.584 
L 126.806609 307.584 
L 126.806609 307.584 
L 125.965754 307.584 
z
" style="fill:#1f77b4;"/>
   </g>
   <g id="patch_172">
    <path clip-path="url(#p0139b9ffe0)" d="M 126.806609 307.584 
L 127.647465 307.584 
L 127.647465 307.584 
L 126.806609 307.584 
z
" style="fill:#1f77b4;"/>
   </g>
   <g id="patch_173">
    <path clip-path="url(#p0139b9ffe0)" d="M 127.647465 307.584 
L 128.48832 307.584 
L 128.48832 307.584 
L 127.647465 307.584 
z
" style="fill:#1f77b4;"/>
   </g>
   <g id="patch_174">
    <path clip-path="url(#p0139b9ffe0)" d="M 128.48832 307.584 
L 129.329175 307.584 
L 129.329175 307.584 
L 128.48832 307.584 
z
" style="fill:#1f77b4;"/>
   </g>
   <g id="patch_175">
    <path clip-path="url(#p0139b9ffe0)" d="M 129.329175 307.584 
L 130.170031 307.584 
L 130.170031 307.584 
L 129.329175 307.584 
z
" style="fill:#1f77b4;"/>
   </g>
   <g id="patch_176">
    <path clip-path="url(#p0139b9ffe0)" d="M 130.170031 307.584 
L 131.010886 307.584 
L 131.010886 307.584 
L 130.170031 307.584 
z
" style="fill:#1f77b4;"/>
   </g>
   <g id="patch_177">
    <path clip-path="url(#p0139b9ffe0)" d="M 131.010886 307.584 
L 131.851741 307.584 
L 131.851741 307.584 
L 131.010886 307.584 
z
" style="fill:#1f77b4;"/>
   </g>
   <g id="patch_178">
    <path clip-path="url(#p0139b9ffe0)" d="M 131.851741 307.584 
L 132.692596 307.584 
L 132.692596 307.584 
L 131.851741 307.584 
z
" style="fill:#1f77b4;"/>
   </g>
   <g id="patch_179">
    <path clip-path="url(#p0139b9ffe0)" d="M 132.692596 307.584 
L 133.533452 307.584 
L 133.533452 299.904 
L 132.692596 299.904 
z
" style="fill:#1f77b4;"/>
   </g>
   <g id="patch_180">
    <path clip-path="url(#p0139b9ffe0)" d="M 133.533452 307.584 
L 134.374307 307.584 
L 134.374307 307.584 
L 133.533452 307.584 
z
" style="fill:#1f77b4;"/>
   </g>
   <g id="patch_181">
    <path clip-path="url(#p0139b9ffe0)" d="M 134.374307 307.584 
L 135.215162 307.584 
L 135.215162 307.584 
L 134.374307 307.584 
z
" style="fill:#1f77b4;"/>
   </g>
   <g id="patch_182">
    <path clip-path="url(#p0139b9ffe0)" d="M 135.215162 307.584 
L 136.056017 307.584 
L 136.056017 307.584 
L 135.215162 307.584 
z
" style="fill:#1f77b4;"/>
   </g>
   <g id="patch_183">
    <path clip-path="url(#p0139b9ffe0)" d="M 136.056017 307.584 
L 136.896873 307.584 
L 136.896873 307.584 
L 136.056017 307.584 
z
" style="fill:#1f77b4;"/>
   </g>
   <g id="patch_184">
    <path clip-path="url(#p0139b9ffe0)" d="M 136.896873 307.584 
L 137.737728 307.584 
L 137.737728 307.584 
L 136.896873 307.584 
z
" style="fill:#1f77b4;"/>
   </g>
   <g id="patch_185">
    <path clip-path="url(#p0139b9ffe0)" d="M 137.737728 307.584 
L 138.578583 307.584 
L 138.578583 307.584 
L 137.737728 307.584 
z
" style="fill:#1f77b4;"/>
   </g>
   <g id="patch_186">
    <path clip-path="url(#p0139b9ffe0)" d="M 138.578583 307.584 
L 139.419439 307.584 
L 139.419439 307.584 
L 138.578583 307.584 
z
" style="fill:#1f77b4;"/>
   </g>
   <g id="patch_187">
    <path clip-path="url(#p0139b9ffe0)" d="M 139.419439 307.584 
L 140.260294 307.584 
L 140.260294 307.584 
L 139.419439 307.584 
z
" style="fill:#1f77b4;"/>
   </g>
   <g id="patch_188">
    <path clip-path="url(#p0139b9ffe0)" d="M 140.260294 307.584 
L 141.101149 307.584 
L 141.101149 307.584 
L 140.260294 307.584 
z
" style="fill:#1f77b4;"/>
   </g>
   <g id="patch_189">
    <path clip-path="url(#p0139b9ffe0)" d="M 141.101149 307.584 
L 141.942004 307.584 
L 141.942004 307.584 
L 141.101149 307.584 
z
" style="fill:#1f77b4;"/>
   </g>
   <g id="patch_190">
    <path clip-path="url(#p0139b9ffe0)" d="M 141.942004 307.584 
L 142.78286 307.584 
L 142.78286 307.584 
L 141.942004 307.584 
z
" style="fill:#1f77b4;"/>
   </g>
   <g id="patch_191">
    <path clip-path="url(#p0139b9ffe0)" d="M 142.78286 307.584 
L 143.623715 307.584 
L 143.623715 307.584 
L 142.78286 307.584 
z
" style="fill:#1f77b4;"/>
   </g>
   <g id="patch_192">
    <path clip-path="url(#p0139b9ffe0)" d="M 143.623715 307.584 
L 144.46457 307.584 
L 144.46457 299.904 
L 143.623715 299.904 
z
" style="fill:#1f77b4;"/>
   </g>
   <g id="patch_193">
    <path clip-path="url(#p0139b9ffe0)" d="M 144.46457 307.584 
L 145.305425 307.584 
L 145.305425 307.584 
L 144.46457 307.584 
z
" style="fill:#1f77b4;"/>
   </g>
   <g id="patch_194">
    <path clip-path="url(#p0139b9ffe0)" d="M 145.305425 307.584 
L 146.146281 307.584 
L 146.146281 307.584 
L 145.305425 307.584 
z
" style="fill:#1f77b4;"/>
   </g>
   <g id="patch_195">
    <path clip-path="url(#p0139b9ffe0)" d="M 146.146281 307.584 
L 146.987136 307.584 
L 146.987136 307.584 
L 146.146281 307.584 
z
" style="fill:#1f77b4;"/>
   </g>
   <g id="patch_196">
    <path clip-path="url(#p0139b9ffe0)" d="M 146.987136 307.584 
L 147.827991 307.584 
L 147.827991 307.584 
L 146.987136 307.584 
z
" style="fill:#1f77b4;"/>
   </g>
   <g id="patch_197">
    <path clip-path="url(#p0139b9ffe0)" d="M 147.827991 307.584 
L 148.668847 307.584 
L 148.668847 307.584 
L 147.827991 307.584 
z
" style="fill:#1f77b4;"/>
   </g>
   <g id="patch_198">
    <path clip-path="url(#p0139b9ffe0)" d="M 148.668847 307.584 
L 149.509702 307.584 
L 149.509702 307.584 
L 148.668847 307.584 
z
" style="fill:#1f77b4;"/>
   </g>
   <g id="patch_199">
    <path clip-path="url(#p0139b9ffe0)" d="M 149.509702 307.584 
L 150.350557 307.584 
L 150.350557 307.584 
L 149.509702 307.584 
z
" style="fill:#1f77b4;"/>
   </g>
   <g id="patch_200">
    <path clip-path="url(#p0139b9ffe0)" d="M 150.350557 307.584 
L 151.191412 307.584 
L 151.191412 299.904 
L 150.350557 299.904 
z
" style="fill:#1f77b4;"/>
   </g>
   <g id="patch_201">
    <path clip-path="url(#p0139b9ffe0)" d="M 151.191412 307.584 
L 152.032268 307.584 
L 152.032268 307.584 
L 151.191412 307.584 
z
" style="fill:#1f77b4;"/>
   </g>
   <g id="patch_202">
    <path clip-path="url(#p0139b9ffe0)" d="M 152.032268 307.584 
L 152.873123 307.584 
L 152.873123 307.584 
L 152.032268 307.584 
z
" style="fill:#1f77b4;"/>
   </g>
   <g id="patch_203">
    <path clip-path="url(#p0139b9ffe0)" d="M 152.873123 307.584 
L 153.713978 307.584 
L 153.713978 299.904 
L 152.873123 299.904 
z
" style="fill:#1f77b4;"/>
   </g>
   <g id="patch_204">
    <path clip-path="url(#p0139b9ffe0)" d="M 153.713978 307.584 
L 154.554833 307.584 
L 154.554833 307.584 
L 153.713978 307.584 
z
" style="fill:#1f77b4;"/>
   </g>
   <g id="patch_205">
    <path clip-path="url(#p0139b9ffe0)" d="M 154.554833 307.584 
L 155.395689 307.584 
L 155.395689 307.584 
L 154.554833 307.584 
z
" style="fill:#1f77b4;"/>
   </g>
   <g id="patch_206">
    <path clip-path="url(#p0139b9ffe0)" d="M 155.395689 307.584 
L 156.236544 307.584 
L 156.236544 307.584 
L 155.395689 307.584 
z
" style="fill:#1f77b4;"/>
   </g>
   <g id="patch_207">
    <path clip-path="url(#p0139b9ffe0)" d="M 156.236544 307.584 
L 157.077399 307.584 
L 157.077399 307.584 
L 156.236544 307.584 
z
" style="fill:#1f77b4;"/>
   </g>
   <g id="patch_208">
    <path clip-path="url(#p0139b9ffe0)" d="M 157.077399 307.584 
L 157.918255 307.584 
L 157.918255 299.904 
L 157.077399 299.904 
z
" style="fill:#1f77b4;"/>
   </g>
   <g id="matplotlib.axis_3">
    <g id="xtick_7">
     <g id="line2d_17">
      <g>
       <use style="stroke:#000000;stroke-width:0.8;" x="73.832727" xlink:href="#m454ca09159" y="307.584"/>
      </g>
     </g>
     <g id="text_14">
      <!-- 0 -->
      <g transform="translate(70.651477 322.182437)scale(0.1 -0.1)">
       <use xlink:href="#DejaVuSans-48"/>
      </g>
     </g>
    </g>
    <g id="xtick_8">
     <g id="line2d_18">
      <g>
       <use style="stroke:#000000;stroke-width:0.8;" x="138.763636" xlink:href="#m454ca09159" y="307.584"/>
      </g>
     </g>
     <g id="text_15">
      <!-- 20 -->
      <g transform="translate(132.401136 322.182437)scale(0.1 -0.1)">
       <use xlink:href="#DejaVuSans-50"/>
       <use x="63.623047" xlink:href="#DejaVuSans-48"/>
      </g>
     </g>
    </g>
    <g id="xtick_9">
     <g id="line2d_19">
      <g>
       <use style="stroke:#000000;stroke-width:0.8;" x="203.694545" xlink:href="#m454ca09159" y="307.584"/>
      </g>
     </g>
     <g id="text_16">
      <!-- 40 -->
      <g transform="translate(197.332045 322.182437)scale(0.1 -0.1)">
       <use xlink:href="#DejaVuSans-52"/>
       <use x="63.623047" xlink:href="#DejaVuSans-48"/>
      </g>
     </g>
    </g>
    <g id="xtick_10">
     <g id="line2d_20">
      <g>
       <use style="stroke:#000000;stroke-width:0.8;" x="268.625455" xlink:href="#m454ca09159" y="307.584"/>
      </g>
     </g>
     <g id="text_17">
      <!-- 60 -->
      <g transform="translate(262.262955 322.182437)scale(0.1 -0.1)">
       <use xlink:href="#DejaVuSans-54"/>
       <use x="63.623047" xlink:href="#DejaVuSans-48"/>
      </g>
     </g>
    </g>
    <g id="xtick_11">
     <g id="line2d_21">
      <g>
       <use style="stroke:#000000;stroke-width:0.8;" x="333.556364" xlink:href="#m454ca09159" y="307.584"/>
      </g>
     </g>
     <g id="text_18">
      <!-- 80 -->
      <g transform="translate(327.193864 322.182437)scale(0.1 -0.1)">
       <use xlink:href="#DejaVuSans-56"/>
       <use x="63.623047" xlink:href="#DejaVuSans-48"/>
      </g>
     </g>
    </g>
    <g id="xtick_12">
     <g id="line2d_22">
      <g>
       <use style="stroke:#000000;stroke-width:0.8;" x="398.487273" xlink:href="#m454ca09159" y="307.584"/>
      </g>
     </g>
     <g id="text_19">
      <!-- 100 -->
      <g transform="translate(388.943523 322.182437)scale(0.1 -0.1)">
       <use xlink:href="#DejaVuSans-49"/>
       <use x="63.623047" xlink:href="#DejaVuSans-48"/>
       <use x="127.246094" xlink:href="#DejaVuSans-48"/>
      </g>
     </g>
    </g>
   </g>
   <g id="matplotlib.axis_4">
    <g id="ytick_5">
     <g id="line2d_23">
      <g>
       <use style="stroke:#000000;stroke-width:0.8;" x="57.6" xlink:href="#m79cf240a92" y="307.584"/>
      </g>
     </g>
     <g id="text_20">
      <!-- 0.00 -->
      <g transform="translate(28.334375 311.383219)scale(0.1 -0.1)">
       <use xlink:href="#DejaVuSans-48"/>
       <use x="63.623047" xlink:href="#DejaVuSans-46"/>
       <use x="95.410156" xlink:href="#DejaVuSans-48"/>
       <use x="159.033203" xlink:href="#DejaVuSans-48"/>
      </g>
     </g>
    </g>
    <g id="ytick_6">
     <g id="line2d_24">
      <g>
       <use style="stroke:#000000;stroke-width:0.8;" x="57.6" xlink:href="#m79cf240a92" y="282.72"/>
      </g>
     </g>
     <g id="text_21">
      <!-- 0.25 -->
      <defs>
       <path d="M 10.796875 72.90625 
L 49.515625 72.90625 
L 49.515625 64.59375 
L 19.828125 64.59375 
L 19.828125 46.734375 
Q 21.96875 47.46875 24.109375 47.828125 
Q 26.265625 48.1875 28.421875 48.1875 
Q 40.625 48.1875 47.75 41.5 
Q 54.890625 34.8125 54.890625 23.390625 
Q 54.890625 11.625 47.5625 5.09375 
Q 40.234375 -1.421875 26.90625 -1.421875 
Q 22.3125 -1.421875 17.546875 -0.640625 
Q 12.796875 0.140625 7.71875 1.703125 
L 7.71875 11.625 
Q 12.109375 9.234375 16.796875 8.0625 
Q 21.484375 6.890625 26.703125 6.890625 
Q 35.15625 6.890625 40.078125 11.328125 
Q 45.015625 15.765625 45.015625 23.390625 
Q 45.015625 31 40.078125 35.4375 
Q 35.15625 39.890625 26.703125 39.890625 
Q 22.75 39.890625 18.8125 39.015625 
Q 14.890625 38.140625 10.796875 36.28125 
z
" id="DejaVuSans-53"/>
      </defs>
      <g transform="translate(28.334375 286.519219)scale(0.1 -0.1)">
       <use xlink:href="#DejaVuSans-48"/>
       <use x="63.623047" xlink:href="#DejaVuSans-46"/>
       <use x="95.410156" xlink:href="#DejaVuSans-50"/>
       <use x="159.033203" xlink:href="#DejaVuSans-53"/>
      </g>
     </g>
    </g>
    <g id="ytick_7">
     <g id="line2d_25">
      <g>
       <use style="stroke:#000000;stroke-width:0.8;" x="57.6" xlink:href="#m79cf240a92" y="257.856"/>
      </g>
     </g>
     <g id="text_22">
      <!-- 0.50 -->
      <g transform="translate(28.334375 261.655219)scale(0.1 -0.1)">
       <use xlink:href="#DejaVuSans-48"/>
       <use x="63.623047" xlink:href="#DejaVuSans-46"/>
       <use x="95.410156" xlink:href="#DejaVuSans-53"/>
       <use x="159.033203" xlink:href="#DejaVuSans-48"/>
      </g>
     </g>
    </g>
    <g id="ytick_8">
     <g id="line2d_26">
      <g>
       <use style="stroke:#000000;stroke-width:0.8;" x="57.6" xlink:href="#m79cf240a92" y="232.992"/>
      </g>
     </g>
     <g id="text_23">
      <!-- 0.75 -->
      <defs>
       <path d="M 8.203125 72.90625 
L 55.078125 72.90625 
L 55.078125 68.703125 
L 28.609375 0 
L 18.3125 0 
L 43.21875 64.59375 
L 8.203125 64.59375 
z
" id="DejaVuSans-55"/>
      </defs>
      <g transform="translate(28.334375 236.791219)scale(0.1 -0.1)">
       <use xlink:href="#DejaVuSans-48"/>
       <use x="63.623047" xlink:href="#DejaVuSans-46"/>
       <use x="95.410156" xlink:href="#DejaVuSans-55"/>
       <use x="159.033203" xlink:href="#DejaVuSans-53"/>
      </g>
     </g>
    </g>
    <g id="ytick_9">
     <g id="line2d_27">
      <g>
       <use style="stroke:#000000;stroke-width:0.8;" x="57.6" xlink:href="#m79cf240a92" y="208.128"/>
      </g>
     </g>
     <g id="text_24">
      <!-- 1.00 -->
      <g transform="translate(28.334375 211.927219)scale(0.1 -0.1)">
       <use xlink:href="#DejaVuSans-49"/>
       <use x="63.623047" xlink:href="#DejaVuSans-46"/>
       <use x="95.410156" xlink:href="#DejaVuSans-48"/>
       <use x="159.033203" xlink:href="#DejaVuSans-48"/>
      </g>
     </g>
    </g>
   </g>
   <g id="line2d_28">
    <path clip-path="url(#p0139b9ffe0)" d="M 73.832727 307.584 
L 74.157707 305.312403 
L 74.807666 296.534618 
L 75.457625 291.169191 
L 75.782604 289.640407 
L 76.107584 288.647519 
L 76.432563 288.055603 
L 76.757543 287.762101 
L 77.082523 287.690031 
L 77.407502 287.781734 
L 78.057461 288.293994 
L 79.0324 289.503007 
L 82.932154 294.866341 
L 84.557052 296.664688 
L 86.181949 298.173539 
L 88.131826 299.660292 
L 90.081704 300.861791 
L 92.35656 301.983541 
L 94.956396 302.986039 
L 97.881212 303.852237 
L 101.131007 304.581553 
L 105.030762 305.230317 
L 109.905455 305.807627 
L 116.080066 306.301877 
L 124.204554 306.713526 
L 135.578837 307.045454 
L 152.477772 307.292857 
L 181.075971 307.460715 
L 242.497101 307.553517 
L 398.487273 307.581006 
L 398.487273 307.581006 
" style="fill:none;stroke:#ff7f0e;stroke-linecap:square;stroke-width:1.5;"/>
   </g>
   <g id="line2d_29">
    <path clip-path="url(#p0139b9ffe0)" d="M 73.832727 307.584 
L 74.157707 220.241718 
L 74.807666 254.309102 
L 75.457625 269.995804 
L 76.107584 278.794464 
L 76.757543 284.438347 
L 77.407502 288.365526 
L 78.057461 291.251882 
L 79.0324 294.376962 
L 80.007338 296.599697 
L 80.982277 298.254828 
L 81.957215 299.530323 
L 83.257133 300.830671 
L 84.557052 301.817903 
L 86.181949 302.75619 
L 88.131826 303.592214 
L 90.406683 304.306872 
L 93.331499 304.964222 
L 96.906274 305.521831 
L 101.455987 306.000733 
L 107.630598 306.418761 
L 116.405045 306.774413 
L 129.404226 307.061694 
L 150.527895 307.284304 
L 189.525438 307.442376 
L 279.544767 307.538085 
L 398.487273 307.566365 
L 398.487273 307.566365 
" style="fill:none;stroke:#2ca02c;stroke-dasharray:5.55,2.4;stroke-dashoffset:0;stroke-width:1.5;"/>
   </g>
   <g id="patch_209">
    <path d="M 57.6 307.584 
L 57.6 186.624 
" style="fill:none;stroke:#000000;stroke-linecap:square;stroke-linejoin:miter;stroke-width:0.8;"/>
   </g>
   <g id="patch_210">
    <path d="M 414.72 307.584 
L 414.72 186.624 
" style="fill:none;stroke:#000000;stroke-linecap:square;stroke-linejoin:miter;stroke-width:0.8;"/>
   </g>
   <g id="patch_211">
    <path d="M 57.6 307.584 
L 414.72 307.584 
" style="fill:none;stroke:#000000;stroke-linecap:square;stroke-linejoin:miter;stroke-width:0.8;"/>
   </g>
   <g id="patch_212">
    <path d="M 57.6 186.624 
L 414.72 186.624 
" style="fill:none;stroke:#000000;stroke-linecap:square;stroke-linejoin:miter;stroke-width:0.8;"/>
   </g>
   <g id="text_25">
    <!-- I -->
    <defs>
     <path d="M 9.8125 72.90625 
L 19.671875 72.90625 
L 19.671875 0 
L 9.8125 0 
z
" id="DejaVuSans-73"/>
    </defs>
    <g transform="translate(234.39 180.624)scale(0.12 -0.12)">
     <use xlink:href="#DejaVuSans-73"/>
    </g>
   </g>
   <g id="legend_2">
    <g id="patch_213">
     <path d="M 187.487187 223.98025 
L 407.72 223.98025 
Q 409.72 223.98025 409.72 221.98025 
L 409.72 193.624 
Q 409.72 191.624 407.72 191.624 
L 187.487187 191.624 
Q 185.487187 191.624 185.487187 193.624 
L 185.487187 221.98025 
Q 185.487187 223.98025 187.487187 223.98025 
z
" style="fill:#ffffff;opacity:0.8;stroke:#cccccc;stroke-linejoin:miter;"/>
    </g>
    <g id="line2d_30">
     <path d="M 189.487187 199.722437 
L 209.487187 199.722437 
" style="fill:none;stroke:#ff7f0e;stroke-linecap:square;stroke-width:1.5;"/>
    </g>
    <g id="line2d_31"/>
    <g id="text_26">
     <!-- targetDist (Buzsaki &amp; Mizuseki, 2014) -->
     <g transform="translate(217.487187 203.222437)scale(0.1 -0.1)">
      <use xlink:href="#DejaVuSans-116"/>
      <use x="39.208984" xlink:href="#DejaVuSans-97"/>
      <use x="100.488281" xlink:href="#DejaVuSans-114"/>
      <use x="139.851562" xlink:href="#DejaVuSans-103"/>
      <use x="203.328125" xlink:href="#DejaVuSans-101"/>
      <use x="264.851562" xlink:href="#DejaVuSans-116"/>
      <use x="304.060547" xlink:href="#DejaVuSans-68"/>
      <use x="381.0625" xlink:href="#DejaVuSans-105"/>
      <use x="408.845703" xlink:href="#DejaVuSans-115"/>
      <use x="460.945312" xlink:href="#DejaVuSans-116"/>
      <use x="500.154297" xlink:href="#DejaVuSans-32"/>
      <use x="531.941406" xlink:href="#DejaVuSans-40"/>
      <use x="570.955078" xlink:href="#DejaVuSans-66"/>
      <use x="639.558594" xlink:href="#DejaVuSans-117"/>
      <use x="702.9375" xlink:href="#DejaVuSans-122"/>
      <use x="755.427734" xlink:href="#DejaVuSans-115"/>
      <use x="807.527344" xlink:href="#DejaVuSans-97"/>
      <use x="868.806641" xlink:href="#DejaVuSans-107"/>
      <use x="926.716797" xlink:href="#DejaVuSans-105"/>
      <use x="954.5" xlink:href="#DejaVuSans-32"/>
      <use x="986.287109" xlink:href="#DejaVuSans-38"/>
      <use x="1064.265625" xlink:href="#DejaVuSans-32"/>
      <use x="1096.052734" xlink:href="#DejaVuSans-77"/>
      <use x="1182.332031" xlink:href="#DejaVuSans-105"/>
      <use x="1210.115234" xlink:href="#DejaVuSans-122"/>
      <use x="1262.605469" xlink:href="#DejaVuSans-117"/>
      <use x="1325.984375" xlink:href="#DejaVuSans-115"/>
      <use x="1378.083984" xlink:href="#DejaVuSans-101"/>
      <use x="1439.607422" xlink:href="#DejaVuSans-107"/>
      <use x="1497.517578" xlink:href="#DejaVuSans-105"/>
      <use x="1525.300781" xlink:href="#DejaVuSans-44"/>
      <use x="1557.087891" xlink:href="#DejaVuSans-32"/>
      <use x="1588.875" xlink:href="#DejaVuSans-50"/>
      <use x="1652.498047" xlink:href="#DejaVuSans-48"/>
      <use x="1716.121094" xlink:href="#DejaVuSans-49"/>
      <use x="1779.744141" xlink:href="#DejaVuSans-52"/>
      <use x="1843.367188" xlink:href="#DejaVuSans-41"/>
     </g>
    </g>
    <g id="line2d_32">
     <path d="M 189.487187 214.400562 
L 209.487187 214.400562 
" style="fill:none;stroke:#2ca02c;stroke-dasharray:5.55,2.4;stroke-dashoffset:0;stroke-width:1.5;"/>
    </g>
    <g id="line2d_33"/>
    <g id="text_27">
     <!-- simulatedDist -->
     <g transform="translate(217.487187 217.900562)scale(0.1 -0.1)">
      <use xlink:href="#DejaVuSans-115"/>
      <use x="52.099609" xlink:href="#DejaVuSans-105"/>
      <use x="79.882812" xlink:href="#DejaVuSans-109"/>
      <use x="177.294922" xlink:href="#DejaVuSans-117"/>
      <use x="240.673828" xlink:href="#DejaVuSans-108"/>
      <use x="268.457031" xlink:href="#DejaVuSans-97"/>
      <use x="329.736328" xlink:href="#DejaVuSans-116"/>
      <use x="368.945312" xlink:href="#DejaVuSans-101"/>
      <use x="430.46875" xlink:href="#DejaVuSans-100"/>
      <use x="493.945312" xlink:href="#DejaVuSans-68"/>
      <use x="570.947266" xlink:href="#DejaVuSans-105"/>
      <use x="598.730469" xlink:href="#DejaVuSans-115"/>
      <use x="650.830078" xlink:href="#DejaVuSans-116"/>
     </g>
    </g>
   </g>
  </g>
 </g>
 <defs>
  <clipPath id="p360793e19d">
   <rect height="120.96" width="357.12" x="57.6" y="41.472"/>
  </clipPath>
  <clipPath id="p0139b9ffe0">
   <rect height="120.96" width="357.12" x="57.6" y="186.624"/>
  </clipPath>
 </defs>
</svg>
