<?xml version="1.0" encoding="utf-8" standalone="no"?>
<!DOCTYPE svg PUBLIC "-//W3C//DTD SVG 1.1//EN"
  "http://www.w3.org/Graphics/SVG/1.1/DTD/svg11.dtd">
<!-- Created with matplotlib (https://matplotlib.org/) -->
<svg height="345.6pt" version="1.1" viewBox="0 0 460.8 345.6" width="460.8pt" xmlns="http://www.w3.org/2000/svg" xmlns:xlink="http://www.w3.org/1999/xlink">
 <defs>
  <style type="text/css">
*{stroke-linecap:butt;stroke-linejoin:round;}
  </style>
 </defs>
 <g id="figure_1">
  <g id="patch_1">
   <path d="M 0 345.6 
L 460.8 345.6 
L 460.8 0 
L 0 0 
z
" style="fill:#ffffff;"/>
  </g>
  <g id="axes_1">
   <g id="patch_2">
    <path d="M 57.6 162.432 
L 414.72 162.432 
L 414.72 41.472 
L 57.6 41.472 
z
" style="fill:#ffffff;"/>
   </g>
   <g id="patch_3">
    <path clip-path="url(#pfdc7503e00)" d="M 73.832727 162.432 
L 76.71079 162.432 
L 76.71079 94.218145 
L 73.832727 94.218145 
z
" style="fill:#1f77b4;"/>
   </g>
   <g id="patch_4">
    <path clip-path="url(#pfdc7503e00)" d="M 76.71079 162.432 
L 79.588852 162.432 
L 79.588852 136.44577 
L 76.71079 136.44577 
z
" style="fill:#1f77b4;"/>
   </g>
   <g id="patch_5">
    <path clip-path="url(#pfdc7503e00)" d="M 79.588852 162.432 
L 82.466915 162.432 
L 82.466915 107.211261 
L 79.588852 107.211261 
z
" style="fill:#1f77b4;"/>
   </g>
   <g id="patch_6">
    <path clip-path="url(#pfdc7503e00)" d="M 82.466915 162.432 
L 85.344977 162.432 
L 85.344977 107.211261 
L 82.466915 107.211261 
z
" style="fill:#1f77b4;"/>
   </g>
   <g id="patch_7">
    <path clip-path="url(#pfdc7503e00)" d="M 85.344977 162.432 
L 88.22304 162.432 
L 88.22304 110.459539 
L 85.344977 110.459539 
z
" style="fill:#1f77b4;"/>
   </g>
   <g id="patch_8">
    <path clip-path="url(#pfdc7503e00)" d="M 88.22304 162.432 
L 91.101103 162.432 
L 91.101103 113.707818 
L 88.22304 113.707818 
z
" style="fill:#1f77b4;"/>
   </g>
   <g id="patch_9">
    <path clip-path="url(#pfdc7503e00)" d="M 91.101103 162.432 
L 93.979165 162.432 
L 93.979165 107.211261 
L 91.101103 107.211261 
z
" style="fill:#1f77b4;"/>
   </g>
   <g id="patch_10">
    <path clip-path="url(#pfdc7503e00)" d="M 93.979165 162.432 
L 96.857228 162.432 
L 96.857228 126.700933 
L 93.979165 126.700933 
z
" style="fill:#1f77b4;"/>
   </g>
   <g id="patch_11">
    <path clip-path="url(#pfdc7503e00)" d="M 96.857228 162.432 
L 99.73529 162.432 
L 99.73529 120.204376 
L 96.857228 120.204376 
z
" style="fill:#1f77b4;"/>
   </g>
   <g id="patch_12">
    <path clip-path="url(#pfdc7503e00)" d="M 99.73529 162.432 
L 102.613353 162.432 
L 102.613353 136.44577 
L 99.73529 136.44577 
z
" style="fill:#1f77b4;"/>
   </g>
   <g id="patch_13">
    <path clip-path="url(#pfdc7503e00)" d="M 102.613353 162.432 
L 105.491415 162.432 
L 105.491415 142.942327 
L 102.613353 142.942327 
z
" style="fill:#1f77b4;"/>
   </g>
   <g id="patch_14">
    <path clip-path="url(#pfdc7503e00)" d="M 105.491415 162.432 
L 108.369478 162.432 
L 108.369478 146.190606 
L 105.491415 146.190606 
z
" style="fill:#1f77b4;"/>
   </g>
   <g id="patch_15">
    <path clip-path="url(#pfdc7503e00)" d="M 108.369478 162.432 
L 111.24754 162.432 
L 111.24754 155.935442 
L 108.369478 155.935442 
z
" style="fill:#1f77b4;"/>
   </g>
   <g id="patch_16">
    <path clip-path="url(#pfdc7503e00)" d="M 111.24754 162.432 
L 114.125603 162.432 
L 114.125603 142.942327 
L 111.24754 142.942327 
z
" style="fill:#1f77b4;"/>
   </g>
   <g id="patch_17">
    <path clip-path="url(#pfdc7503e00)" d="M 114.125603 162.432 
L 117.003665 162.432 
L 117.003665 149.438885 
L 114.125603 149.438885 
z
" style="fill:#1f77b4;"/>
   </g>
   <g id="patch_18">
    <path clip-path="url(#pfdc7503e00)" d="M 117.003665 162.432 
L 119.881728 162.432 
L 119.881728 155.935442 
L 117.003665 155.935442 
z
" style="fill:#1f77b4;"/>
   </g>
   <g id="patch_19">
    <path clip-path="url(#pfdc7503e00)" d="M 119.881728 162.432 
L 122.759791 162.432 
L 122.759791 152.687164 
L 119.881728 152.687164 
z
" style="fill:#1f77b4;"/>
   </g>
   <g id="patch_20">
    <path clip-path="url(#pfdc7503e00)" d="M 122.759791 162.432 
L 125.637853 162.432 
L 125.637853 146.190606 
L 122.759791 146.190606 
z
" style="fill:#1f77b4;"/>
   </g>
   <g id="patch_21">
    <path clip-path="url(#pfdc7503e00)" d="M 125.637853 162.432 
L 128.515916 162.432 
L 128.515916 159.183721 
L 125.637853 159.183721 
z
" style="fill:#1f77b4;"/>
   </g>
   <g id="patch_22">
    <path clip-path="url(#pfdc7503e00)" d="M 128.515916 162.432 
L 131.393978 162.432 
L 131.393978 155.935442 
L 128.515916 155.935442 
z
" style="fill:#1f77b4;"/>
   </g>
   <g id="patch_23">
    <path clip-path="url(#pfdc7503e00)" d="M 131.393978 162.432 
L 134.272041 162.432 
L 134.272041 159.183721 
L 131.393978 159.183721 
z
" style="fill:#1f77b4;"/>
   </g>
   <g id="patch_24">
    <path clip-path="url(#pfdc7503e00)" d="M 134.272041 162.432 
L 137.150103 162.432 
L 137.150103 159.183721 
L 134.272041 159.183721 
z
" style="fill:#1f77b4;"/>
   </g>
   <g id="patch_25">
    <path clip-path="url(#pfdc7503e00)" d="M 137.150103 162.432 
L 140.028166 162.432 
L 140.028166 159.183721 
L 137.150103 159.183721 
z
" style="fill:#1f77b4;"/>
   </g>
   <g id="patch_26">
    <path clip-path="url(#pfdc7503e00)" d="M 140.028166 162.432 
L 142.906228 162.432 
L 142.906228 159.183721 
L 140.028166 159.183721 
z
" style="fill:#1f77b4;"/>
   </g>
   <g id="patch_27">
    <path clip-path="url(#pfdc7503e00)" d="M 142.906228 162.432 
L 145.784291 162.432 
L 145.784291 155.935442 
L 142.906228 155.935442 
z
" style="fill:#1f77b4;"/>
   </g>
   <g id="patch_28">
    <path clip-path="url(#pfdc7503e00)" d="M 145.784291 162.432 
L 148.662353 162.432 
L 148.662353 162.432 
L 145.784291 162.432 
z
" style="fill:#1f77b4;"/>
   </g>
   <g id="patch_29">
    <path clip-path="url(#pfdc7503e00)" d="M 148.662353 162.432 
L 151.540416 162.432 
L 151.540416 162.432 
L 148.662353 162.432 
z
" style="fill:#1f77b4;"/>
   </g>
   <g id="patch_30">
    <path clip-path="url(#pfdc7503e00)" d="M 151.540416 162.432 
L 154.418479 162.432 
L 154.418479 155.935442 
L 151.540416 155.935442 
z
" style="fill:#1f77b4;"/>
   </g>
   <g id="patch_31">
    <path clip-path="url(#pfdc7503e00)" d="M 154.418479 162.432 
L 157.296541 162.432 
L 157.296541 159.183721 
L 154.418479 159.183721 
z
" style="fill:#1f77b4;"/>
   </g>
   <g id="patch_32">
    <path clip-path="url(#pfdc7503e00)" d="M 157.296541 162.432 
L 160.174604 162.432 
L 160.174604 159.183721 
L 157.296541 159.183721 
z
" style="fill:#1f77b4;"/>
   </g>
   <g id="patch_33">
    <path clip-path="url(#pfdc7503e00)" d="M 160.174604 162.432 
L 163.052666 162.432 
L 163.052666 162.432 
L 160.174604 162.432 
z
" style="fill:#1f77b4;"/>
   </g>
   <g id="patch_34">
    <path clip-path="url(#pfdc7503e00)" d="M 163.052666 162.432 
L 165.930729 162.432 
L 165.930729 159.183721 
L 163.052666 159.183721 
z
" style="fill:#1f77b4;"/>
   </g>
   <g id="patch_35">
    <path clip-path="url(#pfdc7503e00)" d="M 165.930729 162.432 
L 168.808791 162.432 
L 168.808791 162.432 
L 165.930729 162.432 
z
" style="fill:#1f77b4;"/>
   </g>
   <g id="patch_36">
    <path clip-path="url(#pfdc7503e00)" d="M 168.808791 162.432 
L 171.686854 162.432 
L 171.686854 159.183721 
L 168.808791 159.183721 
z
" style="fill:#1f77b4;"/>
   </g>
   <g id="patch_37">
    <path clip-path="url(#pfdc7503e00)" d="M 171.686854 162.432 
L 174.564916 162.432 
L 174.564916 162.432 
L 171.686854 162.432 
z
" style="fill:#1f77b4;"/>
   </g>
   <g id="patch_38">
    <path clip-path="url(#pfdc7503e00)" d="M 174.564916 162.432 
L 177.442979 162.432 
L 177.442979 159.183721 
L 174.564916 159.183721 
z
" style="fill:#1f77b4;"/>
   </g>
   <g id="patch_39">
    <path clip-path="url(#pfdc7503e00)" d="M 177.442979 162.432 
L 180.321041 162.432 
L 180.321041 162.432 
L 177.442979 162.432 
z
" style="fill:#1f77b4;"/>
   </g>
   <g id="patch_40">
    <path clip-path="url(#pfdc7503e00)" d="M 180.321041 162.432 
L 183.199104 162.432 
L 183.199104 152.687164 
L 180.321041 152.687164 
z
" style="fill:#1f77b4;"/>
   </g>
   <g id="patch_41">
    <path clip-path="url(#pfdc7503e00)" d="M 183.199104 162.432 
L 186.077167 162.432 
L 186.077167 159.183721 
L 183.199104 159.183721 
z
" style="fill:#1f77b4;"/>
   </g>
   <g id="patch_42">
    <path clip-path="url(#pfdc7503e00)" d="M 186.077167 162.432 
L 188.955229 162.432 
L 188.955229 162.432 
L 186.077167 162.432 
z
" style="fill:#1f77b4;"/>
   </g>
   <g id="patch_43">
    <path clip-path="url(#pfdc7503e00)" d="M 188.955229 162.432 
L 191.833292 162.432 
L 191.833292 162.432 
L 188.955229 162.432 
z
" style="fill:#1f77b4;"/>
   </g>
   <g id="patch_44">
    <path clip-path="url(#pfdc7503e00)" d="M 191.833292 162.432 
L 194.711354 162.432 
L 194.711354 159.183721 
L 191.833292 159.183721 
z
" style="fill:#1f77b4;"/>
   </g>
   <g id="patch_45">
    <path clip-path="url(#pfdc7503e00)" d="M 194.711354 162.432 
L 197.589417 162.432 
L 197.589417 162.432 
L 194.711354 162.432 
z
" style="fill:#1f77b4;"/>
   </g>
   <g id="patch_46">
    <path clip-path="url(#pfdc7503e00)" d="M 197.589417 162.432 
L 200.467479 162.432 
L 200.467479 162.432 
L 197.589417 162.432 
z
" style="fill:#1f77b4;"/>
   </g>
   <g id="patch_47">
    <path clip-path="url(#pfdc7503e00)" d="M 200.467479 162.432 
L 203.345542 162.432 
L 203.345542 162.432 
L 200.467479 162.432 
z
" style="fill:#1f77b4;"/>
   </g>
   <g id="patch_48">
    <path clip-path="url(#pfdc7503e00)" d="M 203.345542 162.432 
L 206.223604 162.432 
L 206.223604 162.432 
L 203.345542 162.432 
z
" style="fill:#1f77b4;"/>
   </g>
   <g id="patch_49">
    <path clip-path="url(#pfdc7503e00)" d="M 206.223604 162.432 
L 209.101667 162.432 
L 209.101667 162.432 
L 206.223604 162.432 
z
" style="fill:#1f77b4;"/>
   </g>
   <g id="patch_50">
    <path clip-path="url(#pfdc7503e00)" d="M 209.101667 162.432 
L 211.979729 162.432 
L 211.979729 162.432 
L 209.101667 162.432 
z
" style="fill:#1f77b4;"/>
   </g>
   <g id="patch_51">
    <path clip-path="url(#pfdc7503e00)" d="M 211.979729 162.432 
L 214.857792 162.432 
L 214.857792 162.432 
L 211.979729 162.432 
z
" style="fill:#1f77b4;"/>
   </g>
   <g id="patch_52">
    <path clip-path="url(#pfdc7503e00)" d="M 214.857792 162.432 
L 217.735855 162.432 
L 217.735855 162.432 
L 214.857792 162.432 
z
" style="fill:#1f77b4;"/>
   </g>
   <g id="patch_53">
    <path clip-path="url(#pfdc7503e00)" d="M 217.735855 162.432 
L 220.613917 162.432 
L 220.613917 162.432 
L 217.735855 162.432 
z
" style="fill:#1f77b4;"/>
   </g>
   <g id="patch_54">
    <path clip-path="url(#pfdc7503e00)" d="M 220.613917 162.432 
L 223.49198 162.432 
L 223.49198 162.432 
L 220.613917 162.432 
z
" style="fill:#1f77b4;"/>
   </g>
   <g id="patch_55">
    <path clip-path="url(#pfdc7503e00)" d="M 223.49198 162.432 
L 226.370042 162.432 
L 226.370042 162.432 
L 223.49198 162.432 
z
" style="fill:#1f77b4;"/>
   </g>
   <g id="patch_56">
    <path clip-path="url(#pfdc7503e00)" d="M 226.370042 162.432 
L 229.248105 162.432 
L 229.248105 162.432 
L 226.370042 162.432 
z
" style="fill:#1f77b4;"/>
   </g>
   <g id="patch_57">
    <path clip-path="url(#pfdc7503e00)" d="M 229.248105 162.432 
L 232.126167 162.432 
L 232.126167 162.432 
L 229.248105 162.432 
z
" style="fill:#1f77b4;"/>
   </g>
   <g id="patch_58">
    <path clip-path="url(#pfdc7503e00)" d="M 232.126167 162.432 
L 235.00423 162.432 
L 235.00423 162.432 
L 232.126167 162.432 
z
" style="fill:#1f77b4;"/>
   </g>
   <g id="patch_59">
    <path clip-path="url(#pfdc7503e00)" d="M 235.00423 162.432 
L 237.882292 162.432 
L 237.882292 162.432 
L 235.00423 162.432 
z
" style="fill:#1f77b4;"/>
   </g>
   <g id="patch_60">
    <path clip-path="url(#pfdc7503e00)" d="M 237.882292 162.432 
L 240.760355 162.432 
L 240.760355 162.432 
L 237.882292 162.432 
z
" style="fill:#1f77b4;"/>
   </g>
   <g id="patch_61">
    <path clip-path="url(#pfdc7503e00)" d="M 240.760355 162.432 
L 243.638417 162.432 
L 243.638417 162.432 
L 240.760355 162.432 
z
" style="fill:#1f77b4;"/>
   </g>
   <g id="patch_62">
    <path clip-path="url(#pfdc7503e00)" d="M 243.638417 162.432 
L 246.51648 162.432 
L 246.51648 162.432 
L 243.638417 162.432 
z
" style="fill:#1f77b4;"/>
   </g>
   <g id="patch_63">
    <path clip-path="url(#pfdc7503e00)" d="M 246.51648 162.432 
L 249.394543 162.432 
L 249.394543 162.432 
L 246.51648 162.432 
z
" style="fill:#1f77b4;"/>
   </g>
   <g id="patch_64">
    <path clip-path="url(#pfdc7503e00)" d="M 249.394543 162.432 
L 252.272605 162.432 
L 252.272605 162.432 
L 249.394543 162.432 
z
" style="fill:#1f77b4;"/>
   </g>
   <g id="patch_65">
    <path clip-path="url(#pfdc7503e00)" d="M 252.272605 162.432 
L 255.150668 162.432 
L 255.150668 162.432 
L 252.272605 162.432 
z
" style="fill:#1f77b4;"/>
   </g>
   <g id="patch_66">
    <path clip-path="url(#pfdc7503e00)" d="M 255.150668 162.432 
L 258.02873 162.432 
L 258.02873 162.432 
L 255.150668 162.432 
z
" style="fill:#1f77b4;"/>
   </g>
   <g id="patch_67">
    <path clip-path="url(#pfdc7503e00)" d="M 258.02873 162.432 
L 260.906793 162.432 
L 260.906793 162.432 
L 258.02873 162.432 
z
" style="fill:#1f77b4;"/>
   </g>
   <g id="patch_68">
    <path clip-path="url(#pfdc7503e00)" d="M 260.906793 162.432 
L 263.784855 162.432 
L 263.784855 162.432 
L 260.906793 162.432 
z
" style="fill:#1f77b4;"/>
   </g>
   <g id="patch_69">
    <path clip-path="url(#pfdc7503e00)" d="M 263.784855 162.432 
L 266.662918 162.432 
L 266.662918 162.432 
L 263.784855 162.432 
z
" style="fill:#1f77b4;"/>
   </g>
   <g id="patch_70">
    <path clip-path="url(#pfdc7503e00)" d="M 266.662918 162.432 
L 269.54098 162.432 
L 269.54098 162.432 
L 266.662918 162.432 
z
" style="fill:#1f77b4;"/>
   </g>
   <g id="patch_71">
    <path clip-path="url(#pfdc7503e00)" d="M 269.54098 162.432 
L 272.419043 162.432 
L 272.419043 162.432 
L 269.54098 162.432 
z
" style="fill:#1f77b4;"/>
   </g>
   <g id="patch_72">
    <path clip-path="url(#pfdc7503e00)" d="M 272.419043 162.432 
L 275.297105 162.432 
L 275.297105 162.432 
L 272.419043 162.432 
z
" style="fill:#1f77b4;"/>
   </g>
   <g id="patch_73">
    <path clip-path="url(#pfdc7503e00)" d="M 275.297105 162.432 
L 278.175168 162.432 
L 278.175168 162.432 
L 275.297105 162.432 
z
" style="fill:#1f77b4;"/>
   </g>
   <g id="patch_74">
    <path clip-path="url(#pfdc7503e00)" d="M 278.175168 162.432 
L 281.053231 162.432 
L 281.053231 162.432 
L 278.175168 162.432 
z
" style="fill:#1f77b4;"/>
   </g>
   <g id="patch_75">
    <path clip-path="url(#pfdc7503e00)" d="M 281.053231 162.432 
L 283.931293 162.432 
L 283.931293 162.432 
L 281.053231 162.432 
z
" style="fill:#1f77b4;"/>
   </g>
   <g id="patch_76">
    <path clip-path="url(#pfdc7503e00)" d="M 283.931293 162.432 
L 286.809356 162.432 
L 286.809356 159.183721 
L 283.931293 159.183721 
z
" style="fill:#1f77b4;"/>
   </g>
   <g id="patch_77">
    <path clip-path="url(#pfdc7503e00)" d="M 286.809356 162.432 
L 289.687418 162.432 
L 289.687418 162.432 
L 286.809356 162.432 
z
" style="fill:#1f77b4;"/>
   </g>
   <g id="patch_78">
    <path clip-path="url(#pfdc7503e00)" d="M 289.687418 162.432 
L 292.565481 162.432 
L 292.565481 162.432 
L 289.687418 162.432 
z
" style="fill:#1f77b4;"/>
   </g>
   <g id="patch_79">
    <path clip-path="url(#pfdc7503e00)" d="M 292.565481 162.432 
L 295.443543 162.432 
L 295.443543 162.432 
L 292.565481 162.432 
z
" style="fill:#1f77b4;"/>
   </g>
   <g id="patch_80">
    <path clip-path="url(#pfdc7503e00)" d="M 295.443543 162.432 
L 298.321606 162.432 
L 298.321606 162.432 
L 295.443543 162.432 
z
" style="fill:#1f77b4;"/>
   </g>
   <g id="patch_81">
    <path clip-path="url(#pfdc7503e00)" d="M 298.321606 162.432 
L 301.199668 162.432 
L 301.199668 162.432 
L 298.321606 162.432 
z
" style="fill:#1f77b4;"/>
   </g>
   <g id="patch_82">
    <path clip-path="url(#pfdc7503e00)" d="M 301.199668 162.432 
L 304.077731 162.432 
L 304.077731 162.432 
L 301.199668 162.432 
z
" style="fill:#1f77b4;"/>
   </g>
   <g id="patch_83">
    <path clip-path="url(#pfdc7503e00)" d="M 304.077731 162.432 
L 306.955793 162.432 
L 306.955793 162.432 
L 304.077731 162.432 
z
" style="fill:#1f77b4;"/>
   </g>
   <g id="patch_84">
    <path clip-path="url(#pfdc7503e00)" d="M 306.955793 162.432 
L 309.833856 162.432 
L 309.833856 162.432 
L 306.955793 162.432 
z
" style="fill:#1f77b4;"/>
   </g>
   <g id="patch_85">
    <path clip-path="url(#pfdc7503e00)" d="M 309.833856 162.432 
L 312.711919 162.432 
L 312.711919 162.432 
L 309.833856 162.432 
z
" style="fill:#1f77b4;"/>
   </g>
   <g id="patch_86">
    <path clip-path="url(#pfdc7503e00)" d="M 312.711919 162.432 
L 315.589981 162.432 
L 315.589981 162.432 
L 312.711919 162.432 
z
" style="fill:#1f77b4;"/>
   </g>
   <g id="patch_87">
    <path clip-path="url(#pfdc7503e00)" d="M 315.589981 162.432 
L 318.468044 162.432 
L 318.468044 162.432 
L 315.589981 162.432 
z
" style="fill:#1f77b4;"/>
   </g>
   <g id="patch_88">
    <path clip-path="url(#pfdc7503e00)" d="M 318.468044 162.432 
L 321.346106 162.432 
L 321.346106 162.432 
L 318.468044 162.432 
z
" style="fill:#1f77b4;"/>
   </g>
   <g id="patch_89">
    <path clip-path="url(#pfdc7503e00)" d="M 321.346106 162.432 
L 324.224169 162.432 
L 324.224169 162.432 
L 321.346106 162.432 
z
" style="fill:#1f77b4;"/>
   </g>
   <g id="patch_90">
    <path clip-path="url(#pfdc7503e00)" d="M 324.224169 162.432 
L 327.102231 162.432 
L 327.102231 162.432 
L 324.224169 162.432 
z
" style="fill:#1f77b4;"/>
   </g>
   <g id="patch_91">
    <path clip-path="url(#pfdc7503e00)" d="M 327.102231 162.432 
L 329.980294 162.432 
L 329.980294 162.432 
L 327.102231 162.432 
z
" style="fill:#1f77b4;"/>
   </g>
   <g id="patch_92">
    <path clip-path="url(#pfdc7503e00)" d="M 329.980294 162.432 
L 332.858356 162.432 
L 332.858356 162.432 
L 329.980294 162.432 
z
" style="fill:#1f77b4;"/>
   </g>
   <g id="patch_93">
    <path clip-path="url(#pfdc7503e00)" d="M 332.858356 162.432 
L 335.736419 162.432 
L 335.736419 162.432 
L 332.858356 162.432 
z
" style="fill:#1f77b4;"/>
   </g>
   <g id="patch_94">
    <path clip-path="url(#pfdc7503e00)" d="M 335.736419 162.432 
L 338.614481 162.432 
L 338.614481 162.432 
L 335.736419 162.432 
z
" style="fill:#1f77b4;"/>
   </g>
   <g id="patch_95">
    <path clip-path="url(#pfdc7503e00)" d="M 338.614481 162.432 
L 341.492544 162.432 
L 341.492544 162.432 
L 338.614481 162.432 
z
" style="fill:#1f77b4;"/>
   </g>
   <g id="patch_96">
    <path clip-path="url(#pfdc7503e00)" d="M 341.492544 162.432 
L 344.370607 162.432 
L 344.370607 159.183721 
L 341.492544 159.183721 
z
" style="fill:#1f77b4;"/>
   </g>
   <g id="patch_97">
    <path clip-path="url(#pfdc7503e00)" d="M 344.370607 162.432 
L 347.248669 162.432 
L 347.248669 162.432 
L 344.370607 162.432 
z
" style="fill:#1f77b4;"/>
   </g>
   <g id="patch_98">
    <path clip-path="url(#pfdc7503e00)" d="M 347.248669 162.432 
L 350.126732 162.432 
L 350.126732 162.432 
L 347.248669 162.432 
z
" style="fill:#1f77b4;"/>
   </g>
   <g id="patch_99">
    <path clip-path="url(#pfdc7503e00)" d="M 350.126732 162.432 
L 353.004794 162.432 
L 353.004794 162.432 
L 350.126732 162.432 
z
" style="fill:#1f77b4;"/>
   </g>
   <g id="patch_100">
    <path clip-path="url(#pfdc7503e00)" d="M 353.004794 162.432 
L 355.882857 162.432 
L 355.882857 162.432 
L 353.004794 162.432 
z
" style="fill:#1f77b4;"/>
   </g>
   <g id="patch_101">
    <path clip-path="url(#pfdc7503e00)" d="M 355.882857 162.432 
L 358.760919 162.432 
L 358.760919 162.432 
L 355.882857 162.432 
z
" style="fill:#1f77b4;"/>
   </g>
   <g id="patch_102">
    <path clip-path="url(#pfdc7503e00)" d="M 358.760919 162.432 
L 361.638982 162.432 
L 361.638982 159.183721 
L 358.760919 159.183721 
z
" style="fill:#1f77b4;"/>
   </g>
   <g id="matplotlib.axis_1">
    <g id="xtick_1">
     <g id="line2d_1">
      <defs>
       <path d="M 0 0 
L 0 3.5 
" id="md876ca5158" style="stroke:#000000;stroke-width:0.8;"/>
      </defs>
      <g>
       <use style="stroke:#000000;stroke-width:0.8;" x="73.832727" xlink:href="#md876ca5158" y="162.432"/>
      </g>
     </g>
     <g id="text_1">
      <!-- 0 -->
      <defs>
       <path d="M 31.78125 66.40625 
Q 24.171875 66.40625 20.328125 58.90625 
Q 16.5 51.421875 16.5 36.375 
Q 16.5 21.390625 20.328125 13.890625 
Q 24.171875 6.390625 31.78125 6.390625 
Q 39.453125 6.390625 43.28125 13.890625 
Q 47.125 21.390625 47.125 36.375 
Q 47.125 51.421875 43.28125 58.90625 
Q 39.453125 66.40625 31.78125 66.40625 
z
M 31.78125 74.21875 
Q 44.046875 74.21875 50.515625 64.515625 
Q 56.984375 54.828125 56.984375 36.375 
Q 56.984375 17.96875 50.515625 8.265625 
Q 44.046875 -1.421875 31.78125 -1.421875 
Q 19.53125 -1.421875 13.0625 8.265625 
Q 6.59375 17.96875 6.59375 36.375 
Q 6.59375 54.828125 13.0625 64.515625 
Q 19.53125 74.21875 31.78125 74.21875 
z
" id="DejaVuSans-48"/>
      </defs>
      <g transform="translate(70.651477 177.030437)scale(0.1 -0.1)">
       <use xlink:href="#DejaVuSans-48"/>
      </g>
     </g>
    </g>
    <g id="xtick_2">
     <g id="line2d_2">
      <g>
       <use style="stroke:#000000;stroke-width:0.8;" x="138.763636" xlink:href="#md876ca5158" y="162.432"/>
      </g>
     </g>
     <g id="text_2">
      <!-- 20 -->
      <defs>
       <path d="M 19.1875 8.296875 
L 53.609375 8.296875 
L 53.609375 0 
L 7.328125 0 
L 7.328125 8.296875 
Q 12.9375 14.109375 22.625 23.890625 
Q 32.328125 33.6875 34.8125 36.53125 
Q 39.546875 41.84375 41.421875 45.53125 
Q 43.3125 49.21875 43.3125 52.78125 
Q 43.3125 58.59375 39.234375 62.25 
Q 35.15625 65.921875 28.609375 65.921875 
Q 23.96875 65.921875 18.8125 64.3125 
Q 13.671875 62.703125 7.8125 59.421875 
L 7.8125 69.390625 
Q 13.765625 71.78125 18.9375 73 
Q 24.125 74.21875 28.421875 74.21875 
Q 39.75 74.21875 46.484375 68.546875 
Q 53.21875 62.890625 53.21875 53.421875 
Q 53.21875 48.921875 51.53125 44.890625 
Q 49.859375 40.875 45.40625 35.40625 
Q 44.1875 33.984375 37.640625 27.21875 
Q 31.109375 20.453125 19.1875 8.296875 
z
" id="DejaVuSans-50"/>
      </defs>
      <g transform="translate(132.401136 177.030437)scale(0.1 -0.1)">
       <use xlink:href="#DejaVuSans-50"/>
       <use x="63.623047" xlink:href="#DejaVuSans-48"/>
      </g>
     </g>
    </g>
    <g id="xtick_3">
     <g id="line2d_3">
      <g>
       <use style="stroke:#000000;stroke-width:0.8;" x="203.694545" xlink:href="#md876ca5158" y="162.432"/>
      </g>
     </g>
     <g id="text_3">
      <!-- 40 -->
      <defs>
       <path d="M 37.796875 64.3125 
L 12.890625 25.390625 
L 37.796875 25.390625 
z
M 35.203125 72.90625 
L 47.609375 72.90625 
L 47.609375 25.390625 
L 58.015625 25.390625 
L 58.015625 17.1875 
L 47.609375 17.1875 
L 47.609375 0 
L 37.796875 0 
L 37.796875 17.1875 
L 4.890625 17.1875 
L 4.890625 26.703125 
z
" id="DejaVuSans-52"/>
      </defs>
      <g transform="translate(197.332045 177.030437)scale(0.1 -0.1)">
       <use xlink:href="#DejaVuSans-52"/>
       <use x="63.623047" xlink:href="#DejaVuSans-48"/>
      </g>
     </g>
    </g>
    <g id="xtick_4">
     <g id="line2d_4">
      <g>
       <use style="stroke:#000000;stroke-width:0.8;" x="268.625455" xlink:href="#md876ca5158" y="162.432"/>
      </g>
     </g>
     <g id="text_4">
      <!-- 60 -->
      <defs>
       <path d="M 33.015625 40.375 
Q 26.375 40.375 22.484375 35.828125 
Q 18.609375 31.296875 18.609375 23.390625 
Q 18.609375 15.53125 22.484375 10.953125 
Q 26.375 6.390625 33.015625 6.390625 
Q 39.65625 6.390625 43.53125 10.953125 
Q 47.40625 15.53125 47.40625 23.390625 
Q 47.40625 31.296875 43.53125 35.828125 
Q 39.65625 40.375 33.015625 40.375 
z
M 52.59375 71.296875 
L 52.59375 62.3125 
Q 48.875 64.0625 45.09375 64.984375 
Q 41.3125 65.921875 37.59375 65.921875 
Q 27.828125 65.921875 22.671875 59.328125 
Q 17.53125 52.734375 16.796875 39.40625 
Q 19.671875 43.65625 24.015625 45.921875 
Q 28.375 48.1875 33.59375 48.1875 
Q 44.578125 48.1875 50.953125 41.515625 
Q 57.328125 34.859375 57.328125 23.390625 
Q 57.328125 12.15625 50.6875 5.359375 
Q 44.046875 -1.421875 33.015625 -1.421875 
Q 20.359375 -1.421875 13.671875 8.265625 
Q 6.984375 17.96875 6.984375 36.375 
Q 6.984375 53.65625 15.1875 63.9375 
Q 23.390625 74.21875 37.203125 74.21875 
Q 40.921875 74.21875 44.703125 73.484375 
Q 48.484375 72.75 52.59375 71.296875 
z
" id="DejaVuSans-54"/>
      </defs>
      <g transform="translate(262.262955 177.030437)scale(0.1 -0.1)">
       <use xlink:href="#DejaVuSans-54"/>
       <use x="63.623047" xlink:href="#DejaVuSans-48"/>
      </g>
     </g>
    </g>
    <g id="xtick_5">
     <g id="line2d_5">
      <g>
       <use style="stroke:#000000;stroke-width:0.8;" x="333.556364" xlink:href="#md876ca5158" y="162.432"/>
      </g>
     </g>
     <g id="text_5">
      <!-- 80 -->
      <defs>
       <path d="M 31.78125 34.625 
Q 24.75 34.625 20.71875 30.859375 
Q 16.703125 27.09375 16.703125 20.515625 
Q 16.703125 13.921875 20.71875 10.15625 
Q 24.75 6.390625 31.78125 6.390625 
Q 38.8125 6.390625 42.859375 10.171875 
Q 46.921875 13.96875 46.921875 20.515625 
Q 46.921875 27.09375 42.890625 30.859375 
Q 38.875 34.625 31.78125 34.625 
z
M 21.921875 38.8125 
Q 15.578125 40.375 12.03125 44.71875 
Q 8.5 49.078125 8.5 55.328125 
Q 8.5 64.0625 14.71875 69.140625 
Q 20.953125 74.21875 31.78125 74.21875 
Q 42.671875 74.21875 48.875 69.140625 
Q 55.078125 64.0625 55.078125 55.328125 
Q 55.078125 49.078125 51.53125 44.71875 
Q 48 40.375 41.703125 38.8125 
Q 48.828125 37.15625 52.796875 32.3125 
Q 56.78125 27.484375 56.78125 20.515625 
Q 56.78125 9.90625 50.3125 4.234375 
Q 43.84375 -1.421875 31.78125 -1.421875 
Q 19.734375 -1.421875 13.25 4.234375 
Q 6.78125 9.90625 6.78125 20.515625 
Q 6.78125 27.484375 10.78125 32.3125 
Q 14.796875 37.15625 21.921875 38.8125 
z
M 18.3125 54.390625 
Q 18.3125 48.734375 21.84375 45.5625 
Q 25.390625 42.390625 31.78125 42.390625 
Q 38.140625 42.390625 41.71875 45.5625 
Q 45.3125 48.734375 45.3125 54.390625 
Q 45.3125 60.0625 41.71875 63.234375 
Q 38.140625 66.40625 31.78125 66.40625 
Q 25.390625 66.40625 21.84375 63.234375 
Q 18.3125 60.0625 18.3125 54.390625 
z
" id="DejaVuSans-56"/>
      </defs>
      <g transform="translate(327.193864 177.030437)scale(0.1 -0.1)">
       <use xlink:href="#DejaVuSans-56"/>
       <use x="63.623047" xlink:href="#DejaVuSans-48"/>
      </g>
     </g>
    </g>
    <g id="xtick_6">
     <g id="line2d_6">
      <g>
       <use style="stroke:#000000;stroke-width:0.8;" x="398.487273" xlink:href="#md876ca5158" y="162.432"/>
      </g>
     </g>
     <g id="text_6">
      <!-- 100 -->
      <defs>
       <path d="M 12.40625 8.296875 
L 28.515625 8.296875 
L 28.515625 63.921875 
L 10.984375 60.40625 
L 10.984375 69.390625 
L 28.421875 72.90625 
L 38.28125 72.90625 
L 38.28125 8.296875 
L 54.390625 8.296875 
L 54.390625 0 
L 12.40625 0 
z
" id="DejaVuSans-49"/>
      </defs>
      <g transform="translate(388.943523 177.030437)scale(0.1 -0.1)">
       <use xlink:href="#DejaVuSans-49"/>
       <use x="63.623047" xlink:href="#DejaVuSans-48"/>
       <use x="127.246094" xlink:href="#DejaVuSans-48"/>
      </g>
     </g>
    </g>
   </g>
   <g id="matplotlib.axis_2">
    <g id="ytick_1">
     <g id="line2d_7">
      <defs>
       <path d="M 0 0 
L -3.5 0 
" id="m520128d688" style="stroke:#000000;stroke-width:0.8;"/>
      </defs>
      <g>
       <use style="stroke:#000000;stroke-width:0.8;" x="57.6" xlink:href="#m520128d688" y="162.432"/>
      </g>
     </g>
     <g id="text_7">
      <!-- 0.00 -->
      <defs>
       <path d="M 10.6875 12.40625 
L 21 12.40625 
L 21 0 
L 10.6875 0 
z
" id="DejaVuSans-46"/>
      </defs>
      <g transform="translate(28.334375 166.231219)scale(0.1 -0.1)">
       <use xlink:href="#DejaVuSans-48"/>
       <use x="63.623047" xlink:href="#DejaVuSans-46"/>
       <use x="95.410156" xlink:href="#DejaVuSans-48"/>
       <use x="159.033203" xlink:href="#DejaVuSans-48"/>
      </g>
     </g>
    </g>
    <g id="ytick_2">
     <g id="line2d_8">
      <g>
       <use style="stroke:#000000;stroke-width:0.8;" x="57.6" xlink:href="#m520128d688" y="133.636009"/>
      </g>
     </g>
     <g id="text_8">
      <!-- 0.05 -->
      <defs>
       <path d="M 10.796875 72.90625 
L 49.515625 72.90625 
L 49.515625 64.59375 
L 19.828125 64.59375 
L 19.828125 46.734375 
Q 21.96875 47.46875 24.109375 47.828125 
Q 26.265625 48.1875 28.421875 48.1875 
Q 40.625 48.1875 47.75 41.5 
Q 54.890625 34.8125 54.890625 23.390625 
Q 54.890625 11.625 47.5625 5.09375 
Q 40.234375 -1.421875 26.90625 -1.421875 
Q 22.3125 -1.421875 17.546875 -0.640625 
Q 12.796875 0.140625 7.71875 1.703125 
L 7.71875 11.625 
Q 12.109375 9.234375 16.796875 8.0625 
Q 21.484375 6.890625 26.703125 6.890625 
Q 35.15625 6.890625 40.078125 11.328125 
Q 45.015625 15.765625 45.015625 23.390625 
Q 45.015625 31 40.078125 35.4375 
Q 35.15625 39.890625 26.703125 39.890625 
Q 22.75 39.890625 18.8125 39.015625 
Q 14.890625 38.140625 10.796875 36.28125 
z
" id="DejaVuSans-53"/>
      </defs>
      <g transform="translate(28.334375 137.435227)scale(0.1 -0.1)">
       <use xlink:href="#DejaVuSans-48"/>
       <use x="63.623047" xlink:href="#DejaVuSans-46"/>
       <use x="95.410156" xlink:href="#DejaVuSans-48"/>
       <use x="159.033203" xlink:href="#DejaVuSans-53"/>
      </g>
     </g>
    </g>
    <g id="ytick_3">
     <g id="line2d_9">
      <g>
       <use style="stroke:#000000;stroke-width:0.8;" x="57.6" xlink:href="#m520128d688" y="104.840017"/>
      </g>
     </g>
     <g id="text_9">
      <!-- 0.10 -->
      <g transform="translate(28.334375 108.639236)scale(0.1 -0.1)">
       <use xlink:href="#DejaVuSans-48"/>
       <use x="63.623047" xlink:href="#DejaVuSans-46"/>
       <use x="95.410156" xlink:href="#DejaVuSans-49"/>
       <use x="159.033203" xlink:href="#DejaVuSans-48"/>
      </g>
     </g>
    </g>
    <g id="ytick_4">
     <g id="line2d_10">
      <g>
       <use style="stroke:#000000;stroke-width:0.8;" x="57.6" xlink:href="#m520128d688" y="76.044026"/>
      </g>
     </g>
     <g id="text_10">
      <!-- 0.15 -->
      <g transform="translate(28.334375 79.843244)scale(0.1 -0.1)">
       <use xlink:href="#DejaVuSans-48"/>
       <use x="63.623047" xlink:href="#DejaVuSans-46"/>
       <use x="95.410156" xlink:href="#DejaVuSans-49"/>
       <use x="159.033203" xlink:href="#DejaVuSans-53"/>
      </g>
     </g>
    </g>
    <g id="ytick_5">
     <g id="line2d_11">
      <g>
       <use style="stroke:#000000;stroke-width:0.8;" x="57.6" xlink:href="#m520128d688" y="47.248034"/>
      </g>
     </g>
     <g id="text_11">
      <!-- 0.20 -->
      <g transform="translate(28.334375 51.047253)scale(0.1 -0.1)">
       <use xlink:href="#DejaVuSans-48"/>
       <use x="63.623047" xlink:href="#DejaVuSans-46"/>
       <use x="95.410156" xlink:href="#DejaVuSans-50"/>
       <use x="159.033203" xlink:href="#DejaVuSans-48"/>
      </g>
     </g>
    </g>
   </g>
   <g id="line2d_12">
    <path clip-path="url(#pfdc7503e00)" d="M 73.832727 162.432 
L 74.157707 149.277863 
L 74.807666 98.448346 
L 75.457625 67.378768 
L 75.782604 58.526044 
L 76.107584 52.776528 
L 76.432563 49.348919 
L 76.757543 47.649333 
L 77.082523 47.232 
L 77.407502 47.763023 
L 77.732482 48.991758 
L 78.382441 52.832994 
L 79.682359 63.090817 
L 82.282195 84.11934 
L 83.907093 95.248414 
L 85.53199 104.630696 
L 87.156888 112.475003 
L 88.781785 119.031886 
L 90.406683 124.530599 
L 92.031581 129.164121 
L 93.656478 133.089756 
L 95.281376 136.434171 
L 96.906274 139.299042 
L 98.531171 141.766096 
L 100.481048 144.293363 
L 102.430925 146.432765 
L 104.380803 148.255349 
L 106.655659 150.05546 
L 108.930516 151.570027 
L 111.530352 153.020057 
L 114.455168 154.366215 
L 117.704963 155.58482 
L 121.279738 156.665307 
L 125.179492 157.607118 
L 129.729206 158.47146 
L 134.928878 159.231931 
L 141.103489 159.910064 
L 148.578018 160.505638 
L 158.002424 161.025631 
L 170.026667 161.458345 
L 186.275643 161.810225 
L 209.999148 162.083015 
L 248.021753 162.273221 
L 322.442064 162.385409 
L 398.487273 162.414662 
L 398.487273 162.414662 
" style="fill:none;stroke:#ff7f0e;stroke-linecap:square;stroke-width:1.5;"/>
   </g>
   <g id="line2d_13">
    <path clip-path="url(#pfdc7503e00)" d="M 73.832727 147.415478 
L 75.457625 130.553206 
L 76.432563 122.360004 
L 77.407502 116.051748 
L 78.382441 111.50226 
L 79.0324 109.323005 
L 79.682359 107.730842 
L 80.332318 106.646147 
L 80.982277 105.995263 
L 81.632236 105.711831 
L 82.282195 105.737099 
L 82.932154 106.019677 
L 83.582113 106.515002 
L 84.557052 107.574417 
L 85.85697 109.417327 
L 87.481867 112.15196 
L 91.056642 118.779754 
L 94.631417 125.207823 
L 97.231253 129.444949 
L 99.831089 133.246891 
L 102.430925 136.616916 
L 105.030762 139.583398 
L 107.630598 142.184891 
L 110.230434 144.46238 
L 112.83027 146.455406 
L 115.755086 148.40263 
L 118.679902 150.081602 
L 121.929697 151.680547 
L 125.504472 153.168025 
L 129.404226 154.52373 
L 133.62896 155.737347 
L 138.178673 156.806835 
L 143.378346 157.791723 
L 149.227977 158.666215 
L 156.052547 159.451999 
L 164.177035 160.148621 
L 173.926421 160.746373 
L 185.950663 161.247697 
L 201.549681 161.659579 
L 222.67335 161.978415 
L 253.871384 162.208416 
L 307.817985 162.354303 
L 398.487273 162.413874 
L 398.487273 162.413874 
" style="fill:none;stroke:#2ca02c;stroke-dasharray:5.55,2.4;stroke-dashoffset:0;stroke-width:1.5;"/>
   </g>
   <g id="patch_103">
    <path d="M 57.6 162.432 
L 57.6 41.472 
" style="fill:none;stroke:#000000;stroke-linecap:square;stroke-linejoin:miter;stroke-width:0.8;"/>
   </g>
   <g id="patch_104">
    <path d="M 414.72 162.432 
L 414.72 41.472 
" style="fill:none;stroke:#000000;stroke-linecap:square;stroke-linejoin:miter;stroke-width:0.8;"/>
   </g>
   <g id="patch_105">
    <path d="M 57.6 162.432 
L 414.72 162.432 
" style="fill:none;stroke:#000000;stroke-linecap:square;stroke-linejoin:miter;stroke-width:0.8;"/>
   </g>
   <g id="patch_106">
    <path d="M 57.6 41.472 
L 414.72 41.472 
" style="fill:none;stroke:#000000;stroke-linecap:square;stroke-linejoin:miter;stroke-width:0.8;"/>
   </g>
   <g id="text_12">
    <!-- E -->
    <defs>
     <path d="M 9.8125 72.90625 
L 55.90625 72.90625 
L 55.90625 64.59375 
L 19.671875 64.59375 
L 19.671875 43.015625 
L 54.390625 43.015625 
L 54.390625 34.71875 
L 19.671875 34.71875 
L 19.671875 8.296875 
L 56.78125 8.296875 
L 56.78125 0 
L 9.8125 0 
z
" id="DejaVuSans-69"/>
    </defs>
    <g transform="translate(232.36875 35.472)scale(0.12 -0.12)">
     <use xlink:href="#DejaVuSans-69"/>
    </g>
   </g>
   <g id="legend_1">
    <g id="patch_107">
     <path d="M 187.487187 78.82825 
L 407.72 78.82825 
Q 409.72 78.82825 409.72 76.82825 
L 409.72 48.472 
Q 409.72 46.472 407.72 46.472 
L 187.487187 46.472 
Q 185.487187 46.472 185.487187 48.472 
L 185.487187 76.82825 
Q 185.487187 78.82825 187.487187 78.82825 
z
" style="fill:#ffffff;opacity:0.8;stroke:#cccccc;stroke-linejoin:miter;"/>
    </g>
    <g id="line2d_14">
     <path d="M 189.487187 54.570437 
L 209.487187 54.570437 
" style="fill:none;stroke:#ff7f0e;stroke-linecap:square;stroke-width:1.5;"/>
    </g>
    <g id="line2d_15"/>
    <g id="text_13">
     <!-- targetDist (Buzsaki &amp; Mizuseki, 2014) -->
     <defs>
      <path d="M 18.3125 70.21875 
L 18.3125 54.6875 
L 36.8125 54.6875 
L 36.8125 47.703125 
L 18.3125 47.703125 
L 18.3125 18.015625 
Q 18.3125 11.328125 20.140625 9.421875 
Q 21.96875 7.515625 27.59375 7.515625 
L 36.8125 7.515625 
L 36.8125 0 
L 27.59375 0 
Q 17.1875 0 13.234375 3.875 
Q 9.28125 7.765625 9.28125 18.015625 
L 9.28125 47.703125 
L 2.6875 47.703125 
L 2.6875 54.6875 
L 9.28125 54.6875 
L 9.28125 70.21875 
z
" id="DejaVuSans-116"/>
      <path d="M 34.28125 27.484375 
Q 23.390625 27.484375 19.1875 25 
Q 14.984375 22.515625 14.984375 16.5 
Q 14.984375 11.71875 18.140625 8.90625 
Q 21.296875 6.109375 26.703125 6.109375 
Q 34.1875 6.109375 38.703125 11.40625 
Q 43.21875 16.703125 43.21875 25.484375 
L 43.21875 27.484375 
z
M 52.203125 31.203125 
L 52.203125 0 
L 43.21875 0 
L 43.21875 8.296875 
Q 40.140625 3.328125 35.546875 0.953125 
Q 30.953125 -1.421875 24.3125 -1.421875 
Q 15.921875 -1.421875 10.953125 3.296875 
Q 6 8.015625 6 15.921875 
Q 6 25.140625 12.171875 29.828125 
Q 18.359375 34.515625 30.609375 34.515625 
L 43.21875 34.515625 
L 43.21875 35.40625 
Q 43.21875 41.609375 39.140625 45 
Q 35.0625 48.390625 27.6875 48.390625 
Q 23 48.390625 18.546875 47.265625 
Q 14.109375 46.140625 10.015625 43.890625 
L 10.015625 52.203125 
Q 14.9375 54.109375 19.578125 55.046875 
Q 24.21875 56 28.609375 56 
Q 40.484375 56 46.34375 49.84375 
Q 52.203125 43.703125 52.203125 31.203125 
z
" id="DejaVuSans-97"/>
      <path d="M 41.109375 46.296875 
Q 39.59375 47.171875 37.8125 47.578125 
Q 36.03125 48 33.890625 48 
Q 26.265625 48 22.1875 43.046875 
Q 18.109375 38.09375 18.109375 28.8125 
L 18.109375 0 
L 9.078125 0 
L 9.078125 54.6875 
L 18.109375 54.6875 
L 18.109375 46.1875 
Q 20.953125 51.171875 25.484375 53.578125 
Q 30.03125 56 36.53125 56 
Q 37.453125 56 38.578125 55.875 
Q 39.703125 55.765625 41.0625 55.515625 
z
" id="DejaVuSans-114"/>
      <path d="M 45.40625 27.984375 
Q 45.40625 37.75 41.375 43.109375 
Q 37.359375 48.484375 30.078125 48.484375 
Q 22.859375 48.484375 18.828125 43.109375 
Q 14.796875 37.75 14.796875 27.984375 
Q 14.796875 18.265625 18.828125 12.890625 
Q 22.859375 7.515625 30.078125 7.515625 
Q 37.359375 7.515625 41.375 12.890625 
Q 45.40625 18.265625 45.40625 27.984375 
z
M 54.390625 6.78125 
Q 54.390625 -7.171875 48.1875 -13.984375 
Q 42 -20.796875 29.203125 -20.796875 
Q 24.46875 -20.796875 20.265625 -20.09375 
Q 16.0625 -19.390625 12.109375 -17.921875 
L 12.109375 -9.1875 
Q 16.0625 -11.328125 19.921875 -12.34375 
Q 23.78125 -13.375 27.78125 -13.375 
Q 36.625 -13.375 41.015625 -8.765625 
Q 45.40625 -4.15625 45.40625 5.171875 
L 45.40625 9.625 
Q 42.625 4.78125 38.28125 2.390625 
Q 33.9375 0 27.875 0 
Q 17.828125 0 11.671875 7.65625 
Q 5.515625 15.328125 5.515625 27.984375 
Q 5.515625 40.671875 11.671875 48.328125 
Q 17.828125 56 27.875 56 
Q 33.9375 56 38.28125 53.609375 
Q 42.625 51.21875 45.40625 46.390625 
L 45.40625 54.6875 
L 54.390625 54.6875 
z
" id="DejaVuSans-103"/>
      <path d="M 56.203125 29.59375 
L 56.203125 25.203125 
L 14.890625 25.203125 
Q 15.484375 15.921875 20.484375 11.0625 
Q 25.484375 6.203125 34.421875 6.203125 
Q 39.59375 6.203125 44.453125 7.46875 
Q 49.3125 8.734375 54.109375 11.28125 
L 54.109375 2.78125 
Q 49.265625 0.734375 44.1875 -0.34375 
Q 39.109375 -1.421875 33.890625 -1.421875 
Q 20.796875 -1.421875 13.15625 6.1875 
Q 5.515625 13.8125 5.515625 26.8125 
Q 5.515625 40.234375 12.765625 48.109375 
Q 20.015625 56 32.328125 56 
Q 43.359375 56 49.78125 48.890625 
Q 56.203125 41.796875 56.203125 29.59375 
z
M 47.21875 32.234375 
Q 47.125 39.59375 43.09375 43.984375 
Q 39.0625 48.390625 32.421875 48.390625 
Q 24.90625 48.390625 20.390625 44.140625 
Q 15.875 39.890625 15.1875 32.171875 
z
" id="DejaVuSans-101"/>
      <path d="M 19.671875 64.796875 
L 19.671875 8.109375 
L 31.59375 8.109375 
Q 46.6875 8.109375 53.6875 14.9375 
Q 60.6875 21.78125 60.6875 36.53125 
Q 60.6875 51.171875 53.6875 57.984375 
Q 46.6875 64.796875 31.59375 64.796875 
z
M 9.8125 72.90625 
L 30.078125 72.90625 
Q 51.265625 72.90625 61.171875 64.09375 
Q 71.09375 55.28125 71.09375 36.53125 
Q 71.09375 17.671875 61.125 8.828125 
Q 51.171875 0 30.078125 0 
L 9.8125 0 
z
" id="DejaVuSans-68"/>
      <path d="M 9.421875 54.6875 
L 18.40625 54.6875 
L 18.40625 0 
L 9.421875 0 
z
M 9.421875 75.984375 
L 18.40625 75.984375 
L 18.40625 64.59375 
L 9.421875 64.59375 
z
" id="DejaVuSans-105"/>
      <path d="M 44.28125 53.078125 
L 44.28125 44.578125 
Q 40.484375 46.53125 36.375 47.5 
Q 32.28125 48.484375 27.875 48.484375 
Q 21.1875 48.484375 17.84375 46.4375 
Q 14.5 44.390625 14.5 40.28125 
Q 14.5 37.15625 16.890625 35.375 
Q 19.28125 33.59375 26.515625 31.984375 
L 29.59375 31.296875 
Q 39.15625 29.25 43.1875 25.515625 
Q 47.21875 21.78125 47.21875 15.09375 
Q 47.21875 7.46875 41.1875 3.015625 
Q 35.15625 -1.421875 24.609375 -1.421875 
Q 20.21875 -1.421875 15.453125 -0.5625 
Q 10.6875 0.296875 5.421875 2 
L 5.421875 11.28125 
Q 10.40625 8.6875 15.234375 7.390625 
Q 20.0625 6.109375 24.8125 6.109375 
Q 31.15625 6.109375 34.5625 8.28125 
Q 37.984375 10.453125 37.984375 14.40625 
Q 37.984375 18.0625 35.515625 20.015625 
Q 33.0625 21.96875 24.703125 23.78125 
L 21.578125 24.515625 
Q 13.234375 26.265625 9.515625 29.90625 
Q 5.8125 33.546875 5.8125 39.890625 
Q 5.8125 47.609375 11.28125 51.796875 
Q 16.75 56 26.8125 56 
Q 31.78125 56 36.171875 55.265625 
Q 40.578125 54.546875 44.28125 53.078125 
z
" id="DejaVuSans-115"/>
      <path id="DejaVuSans-32"/>
      <path d="M 31 75.875 
Q 24.46875 64.65625 21.28125 53.65625 
Q 18.109375 42.671875 18.109375 31.390625 
Q 18.109375 20.125 21.3125 9.0625 
Q 24.515625 -2 31 -13.1875 
L 23.1875 -13.1875 
Q 15.875 -1.703125 12.234375 9.375 
Q 8.59375 20.453125 8.59375 31.390625 
Q 8.59375 42.28125 12.203125 53.3125 
Q 15.828125 64.359375 23.1875 75.875 
z
" id="DejaVuSans-40"/>
      <path d="M 19.671875 34.8125 
L 19.671875 8.109375 
L 35.5 8.109375 
Q 43.453125 8.109375 47.28125 11.40625 
Q 51.125 14.703125 51.125 21.484375 
Q 51.125 28.328125 47.28125 31.5625 
Q 43.453125 34.8125 35.5 34.8125 
z
M 19.671875 64.796875 
L 19.671875 42.828125 
L 34.28125 42.828125 
Q 41.5 42.828125 45.03125 45.53125 
Q 48.578125 48.25 48.578125 53.8125 
Q 48.578125 59.328125 45.03125 62.0625 
Q 41.5 64.796875 34.28125 64.796875 
z
M 9.8125 72.90625 
L 35.015625 72.90625 
Q 46.296875 72.90625 52.390625 68.21875 
Q 58.5 63.53125 58.5 54.890625 
Q 58.5 48.1875 55.375 44.234375 
Q 52.25 40.28125 46.1875 39.3125 
Q 53.46875 37.75 57.5 32.78125 
Q 61.53125 27.828125 61.53125 20.40625 
Q 61.53125 10.640625 54.890625 5.3125 
Q 48.25 0 35.984375 0 
L 9.8125 0 
z
" id="DejaVuSans-66"/>
      <path d="M 8.5 21.578125 
L 8.5 54.6875 
L 17.484375 54.6875 
L 17.484375 21.921875 
Q 17.484375 14.15625 20.5 10.265625 
Q 23.53125 6.390625 29.59375 6.390625 
Q 36.859375 6.390625 41.078125 11.03125 
Q 45.3125 15.671875 45.3125 23.6875 
L 45.3125 54.6875 
L 54.296875 54.6875 
L 54.296875 0 
L 45.3125 0 
L 45.3125 8.40625 
Q 42.046875 3.421875 37.71875 1 
Q 33.40625 -1.421875 27.6875 -1.421875 
Q 18.265625 -1.421875 13.375 4.4375 
Q 8.5 10.296875 8.5 21.578125 
z
M 31.109375 56 
z
" id="DejaVuSans-117"/>
      <path d="M 5.515625 54.6875 
L 48.1875 54.6875 
L 48.1875 46.484375 
L 14.40625 7.171875 
L 48.1875 7.171875 
L 48.1875 0 
L 4.296875 0 
L 4.296875 8.203125 
L 38.09375 47.515625 
L 5.515625 47.515625 
z
" id="DejaVuSans-122"/>
      <path d="M 9.078125 75.984375 
L 18.109375 75.984375 
L 18.109375 31.109375 
L 44.921875 54.6875 
L 56.390625 54.6875 
L 27.390625 29.109375 
L 57.625 0 
L 45.90625 0 
L 18.109375 26.703125 
L 18.109375 0 
L 9.078125 0 
z
" id="DejaVuSans-107"/>
      <path d="M 24.3125 39.203125 
Q 19.875 35.25 17.796875 31.3125 
Q 15.71875 27.390625 15.71875 23.09375 
Q 15.71875 15.96875 20.890625 11.234375 
Q 26.078125 6.5 33.890625 6.5 
Q 38.53125 6.5 42.578125 8.03125 
Q 46.625 9.578125 50.203125 12.703125 
z
M 31.203125 44.671875 
L 56 19.28125 
Q 58.890625 23.640625 60.5 28.59375 
Q 62.109375 33.546875 62.40625 39.109375 
L 71.484375 39.109375 
Q 70.90625 32.671875 68.359375 26.359375 
Q 65.828125 20.0625 61.28125 13.921875 
L 74.90625 0 
L 62.59375 0 
L 55.609375 7.171875 
Q 50.53125 2.828125 44.96875 0.703125 
Q 39.40625 -1.421875 33.015625 -1.421875 
Q 21.234375 -1.421875 13.765625 5.296875 
Q 6.296875 12.015625 6.296875 22.515625 
Q 6.296875 28.765625 9.5625 34.25 
Q 12.84375 39.75 19.390625 44.578125 
Q 17.046875 47.65625 15.8125 50.703125 
Q 14.59375 53.765625 14.59375 56.6875 
Q 14.59375 64.59375 20.015625 69.40625 
Q 25.4375 74.21875 34.421875 74.21875 
Q 38.484375 74.21875 42.5 73.34375 
Q 46.53125 72.46875 50.6875 70.703125 
L 50.6875 61.8125 
Q 46.4375 64.109375 42.578125 65.296875 
Q 38.71875 66.5 35.40625 66.5 
Q 30.28125 66.5 27.078125 63.78125 
Q 23.875 61.078125 23.875 56.78125 
Q 23.875 54.296875 25.3125 51.78125 
Q 26.765625 49.265625 31.203125 44.671875 
z
" id="DejaVuSans-38"/>
      <path d="M 9.8125 72.90625 
L 24.515625 72.90625 
L 43.109375 23.296875 
L 61.8125 72.90625 
L 76.515625 72.90625 
L 76.515625 0 
L 66.890625 0 
L 66.890625 64.015625 
L 48.09375 14.015625 
L 38.1875 14.015625 
L 19.390625 64.015625 
L 19.390625 0 
L 9.8125 0 
z
" id="DejaVuSans-77"/>
      <path d="M 11.71875 12.40625 
L 22.015625 12.40625 
L 22.015625 4 
L 14.015625 -11.625 
L 7.71875 -11.625 
L 11.71875 4 
z
" id="DejaVuSans-44"/>
      <path d="M 8.015625 75.875 
L 15.828125 75.875 
Q 23.140625 64.359375 26.78125 53.3125 
Q 30.421875 42.28125 30.421875 31.390625 
Q 30.421875 20.453125 26.78125 9.375 
Q 23.140625 -1.703125 15.828125 -13.1875 
L 8.015625 -13.1875 
Q 14.5 -2 17.703125 9.0625 
Q 20.90625 20.125 20.90625 31.390625 
Q 20.90625 42.671875 17.703125 53.65625 
Q 14.5 64.65625 8.015625 75.875 
z
" id="DejaVuSans-41"/>
     </defs>
     <g transform="translate(217.487187 58.070437)scale(0.1 -0.1)">
      <use xlink:href="#DejaVuSans-116"/>
      <use x="39.208984" xlink:href="#DejaVuSans-97"/>
      <use x="100.488281" xlink:href="#DejaVuSans-114"/>
      <use x="139.851562" xlink:href="#DejaVuSans-103"/>
      <use x="203.328125" xlink:href="#DejaVuSans-101"/>
      <use x="264.851562" xlink:href="#DejaVuSans-116"/>
      <use x="304.060547" xlink:href="#DejaVuSans-68"/>
      <use x="381.0625" xlink:href="#DejaVuSans-105"/>
      <use x="408.845703" xlink:href="#DejaVuSans-115"/>
      <use x="460.945312" xlink:href="#DejaVuSans-116"/>
      <use x="500.154297" xlink:href="#DejaVuSans-32"/>
      <use x="531.941406" xlink:href="#DejaVuSans-40"/>
      <use x="570.955078" xlink:href="#DejaVuSans-66"/>
      <use x="639.558594" xlink:href="#DejaVuSans-117"/>
      <use x="702.9375" xlink:href="#DejaVuSans-122"/>
      <use x="755.427734" xlink:href="#DejaVuSans-115"/>
      <use x="807.527344" xlink:href="#DejaVuSans-97"/>
      <use x="868.806641" xlink:href="#DejaVuSans-107"/>
      <use x="926.716797" xlink:href="#DejaVuSans-105"/>
      <use x="954.5" xlink:href="#DejaVuSans-32"/>
      <use x="986.287109" xlink:href="#DejaVuSans-38"/>
      <use x="1064.265625" xlink:href="#DejaVuSans-32"/>
      <use x="1096.052734" xlink:href="#DejaVuSans-77"/>
      <use x="1182.332031" xlink:href="#DejaVuSans-105"/>
      <use x="1210.115234" xlink:href="#DejaVuSans-122"/>
      <use x="1262.605469" xlink:href="#DejaVuSans-117"/>
      <use x="1325.984375" xlink:href="#DejaVuSans-115"/>
      <use x="1378.083984" xlink:href="#DejaVuSans-101"/>
      <use x="1439.607422" xlink:href="#DejaVuSans-107"/>
      <use x="1497.517578" xlink:href="#DejaVuSans-105"/>
      <use x="1525.300781" xlink:href="#DejaVuSans-44"/>
      <use x="1557.087891" xlink:href="#DejaVuSans-32"/>
      <use x="1588.875" xlink:href="#DejaVuSans-50"/>
      <use x="1652.498047" xlink:href="#DejaVuSans-48"/>
      <use x="1716.121094" xlink:href="#DejaVuSans-49"/>
      <use x="1779.744141" xlink:href="#DejaVuSans-52"/>
      <use x="1843.367188" xlink:href="#DejaVuSans-41"/>
     </g>
    </g>
    <g id="line2d_16">
     <path d="M 189.487187 69.248562 
L 209.487187 69.248562 
" style="fill:none;stroke:#2ca02c;stroke-dasharray:5.55,2.4;stroke-dashoffset:0;stroke-width:1.5;"/>
    </g>
    <g id="line2d_17"/>
    <g id="text_14">
     <!-- simulatedDist -->
     <defs>
      <path d="M 52 44.1875 
Q 55.375 50.25 60.0625 53.125 
Q 64.75 56 71.09375 56 
Q 79.640625 56 84.28125 50.015625 
Q 88.921875 44.046875 88.921875 33.015625 
L 88.921875 0 
L 79.890625 0 
L 79.890625 32.71875 
Q 79.890625 40.578125 77.09375 44.375 
Q 74.3125 48.1875 68.609375 48.1875 
Q 61.625 48.1875 57.5625 43.546875 
Q 53.515625 38.921875 53.515625 30.90625 
L 53.515625 0 
L 44.484375 0 
L 44.484375 32.71875 
Q 44.484375 40.625 41.703125 44.40625 
Q 38.921875 48.1875 33.109375 48.1875 
Q 26.21875 48.1875 22.15625 43.53125 
Q 18.109375 38.875 18.109375 30.90625 
L 18.109375 0 
L 9.078125 0 
L 9.078125 54.6875 
L 18.109375 54.6875 
L 18.109375 46.1875 
Q 21.1875 51.21875 25.484375 53.609375 
Q 29.78125 56 35.6875 56 
Q 41.65625 56 45.828125 52.96875 
Q 50 49.953125 52 44.1875 
z
" id="DejaVuSans-109"/>
      <path d="M 9.421875 75.984375 
L 18.40625 75.984375 
L 18.40625 0 
L 9.421875 0 
z
" id="DejaVuSans-108"/>
      <path d="M 45.40625 46.390625 
L 45.40625 75.984375 
L 54.390625 75.984375 
L 54.390625 0 
L 45.40625 0 
L 45.40625 8.203125 
Q 42.578125 3.328125 38.25 0.953125 
Q 33.9375 -1.421875 27.875 -1.421875 
Q 17.96875 -1.421875 11.734375 6.484375 
Q 5.515625 14.40625 5.515625 27.296875 
Q 5.515625 40.1875 11.734375 48.09375 
Q 17.96875 56 27.875 56 
Q 33.9375 56 38.25 53.625 
Q 42.578125 51.265625 45.40625 46.390625 
z
M 14.796875 27.296875 
Q 14.796875 17.390625 18.875 11.75 
Q 22.953125 6.109375 30.078125 6.109375 
Q 37.203125 6.109375 41.296875 11.75 
Q 45.40625 17.390625 45.40625 27.296875 
Q 45.40625 37.203125 41.296875 42.84375 
Q 37.203125 48.484375 30.078125 48.484375 
Q 22.953125 48.484375 18.875 42.84375 
Q 14.796875 37.203125 14.796875 27.296875 
z
" id="DejaVuSans-100"/>
     </defs>
     <g transform="translate(217.487187 72.748562)scale(0.1 -0.1)">
      <use xlink:href="#DejaVuSans-115"/>
      <use x="52.099609" xlink:href="#DejaVuSans-105"/>
      <use x="79.882812" xlink:href="#DejaVuSans-109"/>
      <use x="177.294922" xlink:href="#DejaVuSans-117"/>
      <use x="240.673828" xlink:href="#DejaVuSans-108"/>
      <use x="268.457031" xlink:href="#DejaVuSans-97"/>
      <use x="329.736328" xlink:href="#DejaVuSans-116"/>
      <use x="368.945312" xlink:href="#DejaVuSans-101"/>
      <use x="430.46875" xlink:href="#DejaVuSans-100"/>
      <use x="493.945312" xlink:href="#DejaVuSans-68"/>
      <use x="570.947266" xlink:href="#DejaVuSans-105"/>
      <use x="598.730469" xlink:href="#DejaVuSans-115"/>
      <use x="650.830078" xlink:href="#DejaVuSans-116"/>
     </g>
    </g>
   </g>
  </g>
  <g id="axes_2">
   <g id="patch_108">
    <path d="M 57.6 307.584 
L 414.72 307.584 
L 414.72 186.624 
L 57.6 186.624 
z
" style="fill:#ffffff;"/>
   </g>
   <g id="patch_109">
    <path clip-path="url(#pd172efc7da)" d="M 73.832727 307.584 
L 74.618391 307.584 
L 74.618391 192.384 
L 73.832727 192.384 
z
" style="fill:#1f77b4;"/>
   </g>
   <g id="patch_110">
    <path clip-path="url(#pd172efc7da)" d="M 74.618391 307.584 
L 75.404055 307.584 
L 75.404055 299.355429 
L 74.618391 299.355429 
z
" style="fill:#1f77b4;"/>
   </g>
   <g id="patch_111">
    <path clip-path="url(#pd172efc7da)" d="M 75.404055 307.584 
L 76.189719 307.584 
L 76.189719 282.898286 
L 75.404055 282.898286 
z
" style="fill:#1f77b4;"/>
   </g>
   <g id="patch_112">
    <path clip-path="url(#pd172efc7da)" d="M 76.189719 307.584 
L 76.975383 307.584 
L 76.975383 291.126857 
L 76.189719 291.126857 
z
" style="fill:#1f77b4;"/>
   </g>
   <g id="patch_113">
    <path clip-path="url(#pd172efc7da)" d="M 76.975383 307.584 
L 77.761047 307.584 
L 77.761047 299.355429 
L 76.975383 299.355429 
z
" style="fill:#1f77b4;"/>
   </g>
   <g id="patch_114">
    <path clip-path="url(#pd172efc7da)" d="M 77.761047 307.584 
L 78.546711 307.584 
L 78.546711 299.355429 
L 77.761047 299.355429 
z
" style="fill:#1f77b4;"/>
   </g>
   <g id="patch_115">
    <path clip-path="url(#pd172efc7da)" d="M 78.546711 307.584 
L 79.332375 307.584 
L 79.332375 299.355429 
L 78.546711 299.355429 
z
" style="fill:#1f77b4;"/>
   </g>
   <g id="patch_116">
    <path clip-path="url(#pd172efc7da)" d="M 79.332375 307.584 
L 80.118039 307.584 
L 80.118039 299.355429 
L 79.332375 299.355429 
z
" style="fill:#1f77b4;"/>
   </g>
   <g id="patch_117">
    <path clip-path="url(#pd172efc7da)" d="M 80.118039 307.584 
L 80.903703 307.584 
L 80.903703 282.898286 
L 80.118039 282.898286 
z
" style="fill:#1f77b4;"/>
   </g>
   <g id="patch_118">
    <path clip-path="url(#pd172efc7da)" d="M 80.903703 307.584 
L 81.689367 307.584 
L 81.689367 291.126857 
L 80.903703 291.126857 
z
" style="fill:#1f77b4;"/>
   </g>
   <g id="patch_119">
    <path clip-path="url(#pd172efc7da)" d="M 81.689367 307.584 
L 82.475031 307.584 
L 82.475031 282.898286 
L 81.689367 282.898286 
z
" style="fill:#1f77b4;"/>
   </g>
   <g id="patch_120">
    <path clip-path="url(#pd172efc7da)" d="M 82.475031 307.584 
L 83.260695 307.584 
L 83.260695 291.126857 
L 82.475031 291.126857 
z
" style="fill:#1f77b4;"/>
   </g>
   <g id="patch_121">
    <path clip-path="url(#pd172efc7da)" d="M 83.260695 307.584 
L 84.046359 307.584 
L 84.046359 307.584 
L 83.260695 307.584 
z
" style="fill:#1f77b4;"/>
   </g>
   <g id="patch_122">
    <path clip-path="url(#pd172efc7da)" d="M 84.046359 307.584 
L 84.832023 307.584 
L 84.832023 299.355429 
L 84.046359 299.355429 
z
" style="fill:#1f77b4;"/>
   </g>
   <g id="patch_123">
    <path clip-path="url(#pd172efc7da)" d="M 84.832023 307.584 
L 85.617687 307.584 
L 85.617687 291.126857 
L 84.832023 291.126857 
z
" style="fill:#1f77b4;"/>
   </g>
   <g id="patch_124">
    <path clip-path="url(#pd172efc7da)" d="M 85.617687 307.584 
L 86.403351 307.584 
L 86.403351 307.584 
L 85.617687 307.584 
z
" style="fill:#1f77b4;"/>
   </g>
   <g id="patch_125">
    <path clip-path="url(#pd172efc7da)" d="M 86.403351 307.584 
L 87.189015 307.584 
L 87.189015 299.355429 
L 86.403351 299.355429 
z
" style="fill:#1f77b4;"/>
   </g>
   <g id="patch_126">
    <path clip-path="url(#pd172efc7da)" d="M 87.189015 307.584 
L 87.974679 307.584 
L 87.974679 307.584 
L 87.189015 307.584 
z
" style="fill:#1f77b4;"/>
   </g>
   <g id="patch_127">
    <path clip-path="url(#pd172efc7da)" d="M 87.974679 307.584 
L 88.760343 307.584 
L 88.760343 307.584 
L 87.974679 307.584 
z
" style="fill:#1f77b4;"/>
   </g>
   <g id="patch_128">
    <path clip-path="url(#pd172efc7da)" d="M 88.760343 307.584 
L 89.546007 307.584 
L 89.546007 307.584 
L 88.760343 307.584 
z
" style="fill:#1f77b4;"/>
   </g>
   <g id="patch_129">
    <path clip-path="url(#pd172efc7da)" d="M 89.546007 307.584 
L 90.331671 307.584 
L 90.331671 299.355429 
L 89.546007 299.355429 
z
" style="fill:#1f77b4;"/>
   </g>
   <g id="patch_130">
    <path clip-path="url(#pd172efc7da)" d="M 90.331671 307.584 
L 91.117335 307.584 
L 91.117335 307.584 
L 90.331671 307.584 
z
" style="fill:#1f77b4;"/>
   </g>
   <g id="patch_131">
    <path clip-path="url(#pd172efc7da)" d="M 91.117335 307.584 
L 91.902999 307.584 
L 91.902999 299.355429 
L 91.117335 299.355429 
z
" style="fill:#1f77b4;"/>
   </g>
   <g id="patch_132">
    <path clip-path="url(#pd172efc7da)" d="M 91.902999 307.584 
L 92.688663 307.584 
L 92.688663 299.355429 
L 91.902999 299.355429 
z
" style="fill:#1f77b4;"/>
   </g>
   <g id="patch_133">
    <path clip-path="url(#pd172efc7da)" d="M 92.688663 307.584 
L 93.474327 307.584 
L 93.474327 307.584 
L 92.688663 307.584 
z
" style="fill:#1f77b4;"/>
   </g>
   <g id="patch_134">
    <path clip-path="url(#pd172efc7da)" d="M 93.474327 307.584 
L 94.259991 307.584 
L 94.259991 299.355429 
L 93.474327 299.355429 
z
" style="fill:#1f77b4;"/>
   </g>
   <g id="patch_135">
    <path clip-path="url(#pd172efc7da)" d="M 94.259991 307.584 
L 95.045655 307.584 
L 95.045655 307.584 
L 94.259991 307.584 
z
" style="fill:#1f77b4;"/>
   </g>
   <g id="patch_136">
    <path clip-path="url(#pd172efc7da)" d="M 95.045655 307.584 
L 95.831319 307.584 
L 95.831319 299.355429 
L 95.045655 299.355429 
z
" style="fill:#1f77b4;"/>
   </g>
   <g id="patch_137">
    <path clip-path="url(#pd172efc7da)" d="M 95.831319 307.584 
L 96.616983 307.584 
L 96.616983 307.584 
L 95.831319 307.584 
z
" style="fill:#1f77b4;"/>
   </g>
   <g id="patch_138">
    <path clip-path="url(#pd172efc7da)" d="M 96.616983 307.584 
L 97.402647 307.584 
L 97.402647 307.584 
L 96.616983 307.584 
z
" style="fill:#1f77b4;"/>
   </g>
   <g id="patch_139">
    <path clip-path="url(#pd172efc7da)" d="M 97.402647 307.584 
L 98.188311 307.584 
L 98.188311 307.584 
L 97.402647 307.584 
z
" style="fill:#1f77b4;"/>
   </g>
   <g id="patch_140">
    <path clip-path="url(#pd172efc7da)" d="M 98.188311 307.584 
L 98.973975 307.584 
L 98.973975 307.584 
L 98.188311 307.584 
z
" style="fill:#1f77b4;"/>
   </g>
   <g id="patch_141">
    <path clip-path="url(#pd172efc7da)" d="M 98.973975 307.584 
L 99.759639 307.584 
L 99.759639 307.584 
L 98.973975 307.584 
z
" style="fill:#1f77b4;"/>
   </g>
   <g id="patch_142">
    <path clip-path="url(#pd172efc7da)" d="M 99.759639 307.584 
L 100.545303 307.584 
L 100.545303 307.584 
L 99.759639 307.584 
z
" style="fill:#1f77b4;"/>
   </g>
   <g id="patch_143">
    <path clip-path="url(#pd172efc7da)" d="M 100.545303 307.584 
L 101.330967 307.584 
L 101.330967 299.355429 
L 100.545303 299.355429 
z
" style="fill:#1f77b4;"/>
   </g>
   <g id="patch_144">
    <path clip-path="url(#pd172efc7da)" d="M 101.330967 307.584 
L 102.116631 307.584 
L 102.116631 307.584 
L 101.330967 307.584 
z
" style="fill:#1f77b4;"/>
   </g>
   <g id="patch_145">
    <path clip-path="url(#pd172efc7da)" d="M 102.116631 307.584 
L 102.902295 307.584 
L 102.902295 299.355429 
L 102.116631 299.355429 
z
" style="fill:#1f77b4;"/>
   </g>
   <g id="patch_146">
    <path clip-path="url(#pd172efc7da)" d="M 102.902295 307.584 
L 103.687959 307.584 
L 103.687959 307.584 
L 102.902295 307.584 
z
" style="fill:#1f77b4;"/>
   </g>
   <g id="patch_147">
    <path clip-path="url(#pd172efc7da)" d="M 103.687959 307.584 
L 104.473623 307.584 
L 104.473623 307.584 
L 103.687959 307.584 
z
" style="fill:#1f77b4;"/>
   </g>
   <g id="patch_148">
    <path clip-path="url(#pd172efc7da)" d="M 104.473623 307.584 
L 105.259287 307.584 
L 105.259287 299.355429 
L 104.473623 299.355429 
z
" style="fill:#1f77b4;"/>
   </g>
   <g id="patch_149">
    <path clip-path="url(#pd172efc7da)" d="M 105.259287 307.584 
L 106.044951 307.584 
L 106.044951 299.355429 
L 105.259287 299.355429 
z
" style="fill:#1f77b4;"/>
   </g>
   <g id="patch_150">
    <path clip-path="url(#pd172efc7da)" d="M 106.044951 307.584 
L 106.830615 307.584 
L 106.830615 307.584 
L 106.044951 307.584 
z
" style="fill:#1f77b4;"/>
   </g>
   <g id="patch_151">
    <path clip-path="url(#pd172efc7da)" d="M 106.830615 307.584 
L 107.616279 307.584 
L 107.616279 307.584 
L 106.830615 307.584 
z
" style="fill:#1f77b4;"/>
   </g>
   <g id="patch_152">
    <path clip-path="url(#pd172efc7da)" d="M 107.616279 307.584 
L 108.401943 307.584 
L 108.401943 307.584 
L 107.616279 307.584 
z
" style="fill:#1f77b4;"/>
   </g>
   <g id="patch_153">
    <path clip-path="url(#pd172efc7da)" d="M 108.401943 307.584 
L 109.187607 307.584 
L 109.187607 307.584 
L 108.401943 307.584 
z
" style="fill:#1f77b4;"/>
   </g>
   <g id="patch_154">
    <path clip-path="url(#pd172efc7da)" d="M 109.187607 307.584 
L 109.973271 307.584 
L 109.973271 307.584 
L 109.187607 307.584 
z
" style="fill:#1f77b4;"/>
   </g>
   <g id="patch_155">
    <path clip-path="url(#pd172efc7da)" d="M 109.973271 307.584 
L 110.758935 307.584 
L 110.758935 307.584 
L 109.973271 307.584 
z
" style="fill:#1f77b4;"/>
   </g>
   <g id="patch_156">
    <path clip-path="url(#pd172efc7da)" d="M 110.758935 307.584 
L 111.544599 307.584 
L 111.544599 307.584 
L 110.758935 307.584 
z
" style="fill:#1f77b4;"/>
   </g>
   <g id="patch_157">
    <path clip-path="url(#pd172efc7da)" d="M 111.544599 307.584 
L 112.330263 307.584 
L 112.330263 307.584 
L 111.544599 307.584 
z
" style="fill:#1f77b4;"/>
   </g>
   <g id="patch_158">
    <path clip-path="url(#pd172efc7da)" d="M 112.330263 307.584 
L 113.115927 307.584 
L 113.115927 307.584 
L 112.330263 307.584 
z
" style="fill:#1f77b4;"/>
   </g>
   <g id="patch_159">
    <path clip-path="url(#pd172efc7da)" d="M 113.115927 307.584 
L 113.901591 307.584 
L 113.901591 307.584 
L 113.115927 307.584 
z
" style="fill:#1f77b4;"/>
   </g>
   <g id="patch_160">
    <path clip-path="url(#pd172efc7da)" d="M 113.901591 307.584 
L 114.687255 307.584 
L 114.687255 307.584 
L 113.901591 307.584 
z
" style="fill:#1f77b4;"/>
   </g>
   <g id="patch_161">
    <path clip-path="url(#pd172efc7da)" d="M 114.687255 307.584 
L 115.472919 307.584 
L 115.472919 307.584 
L 114.687255 307.584 
z
" style="fill:#1f77b4;"/>
   </g>
   <g id="patch_162">
    <path clip-path="url(#pd172efc7da)" d="M 115.472919 307.584 
L 116.258583 307.584 
L 116.258583 307.584 
L 115.472919 307.584 
z
" style="fill:#1f77b4;"/>
   </g>
   <g id="patch_163">
    <path clip-path="url(#pd172efc7da)" d="M 116.258583 307.584 
L 117.044247 307.584 
L 117.044247 307.584 
L 116.258583 307.584 
z
" style="fill:#1f77b4;"/>
   </g>
   <g id="patch_164">
    <path clip-path="url(#pd172efc7da)" d="M 117.044247 307.584 
L 117.829911 307.584 
L 117.829911 307.584 
L 117.044247 307.584 
z
" style="fill:#1f77b4;"/>
   </g>
   <g id="patch_165">
    <path clip-path="url(#pd172efc7da)" d="M 117.829911 307.584 
L 118.615575 307.584 
L 118.615575 307.584 
L 117.829911 307.584 
z
" style="fill:#1f77b4;"/>
   </g>
   <g id="patch_166">
    <path clip-path="url(#pd172efc7da)" d="M 118.615575 307.584 
L 119.401239 307.584 
L 119.401239 307.584 
L 118.615575 307.584 
z
" style="fill:#1f77b4;"/>
   </g>
   <g id="patch_167">
    <path clip-path="url(#pd172efc7da)" d="M 119.401239 307.584 
L 120.186903 307.584 
L 120.186903 307.584 
L 119.401239 307.584 
z
" style="fill:#1f77b4;"/>
   </g>
   <g id="patch_168">
    <path clip-path="url(#pd172efc7da)" d="M 120.186903 307.584 
L 120.972567 307.584 
L 120.972567 307.584 
L 120.186903 307.584 
z
" style="fill:#1f77b4;"/>
   </g>
   <g id="patch_169">
    <path clip-path="url(#pd172efc7da)" d="M 120.972567 307.584 
L 121.758231 307.584 
L 121.758231 307.584 
L 120.972567 307.584 
z
" style="fill:#1f77b4;"/>
   </g>
   <g id="patch_170">
    <path clip-path="url(#pd172efc7da)" d="M 121.758231 307.584 
L 122.543895 307.584 
L 122.543895 307.584 
L 121.758231 307.584 
z
" style="fill:#1f77b4;"/>
   </g>
   <g id="patch_171">
    <path clip-path="url(#pd172efc7da)" d="M 122.543895 307.584 
L 123.329559 307.584 
L 123.329559 307.584 
L 122.543895 307.584 
z
" style="fill:#1f77b4;"/>
   </g>
   <g id="patch_172">
    <path clip-path="url(#pd172efc7da)" d="M 123.329559 307.584 
L 124.115223 307.584 
L 124.115223 307.584 
L 123.329559 307.584 
z
" style="fill:#1f77b4;"/>
   </g>
   <g id="patch_173">
    <path clip-path="url(#pd172efc7da)" d="M 124.115223 307.584 
L 124.900887 307.584 
L 124.900887 307.584 
L 124.115223 307.584 
z
" style="fill:#1f77b4;"/>
   </g>
   <g id="patch_174">
    <path clip-path="url(#pd172efc7da)" d="M 124.900887 307.584 
L 125.686551 307.584 
L 125.686551 307.584 
L 124.900887 307.584 
z
" style="fill:#1f77b4;"/>
   </g>
   <g id="patch_175">
    <path clip-path="url(#pd172efc7da)" d="M 125.686551 307.584 
L 126.472215 307.584 
L 126.472215 307.584 
L 125.686551 307.584 
z
" style="fill:#1f77b4;"/>
   </g>
   <g id="patch_176">
    <path clip-path="url(#pd172efc7da)" d="M 126.472215 307.584 
L 127.257879 307.584 
L 127.257879 307.584 
L 126.472215 307.584 
z
" style="fill:#1f77b4;"/>
   </g>
   <g id="patch_177">
    <path clip-path="url(#pd172efc7da)" d="M 127.257879 307.584 
L 128.043543 307.584 
L 128.043543 307.584 
L 127.257879 307.584 
z
" style="fill:#1f77b4;"/>
   </g>
   <g id="patch_178">
    <path clip-path="url(#pd172efc7da)" d="M 128.043543 307.584 
L 128.829207 307.584 
L 128.829207 307.584 
L 128.043543 307.584 
z
" style="fill:#1f77b4;"/>
   </g>
   <g id="patch_179">
    <path clip-path="url(#pd172efc7da)" d="M 128.829207 307.584 
L 129.614871 307.584 
L 129.614871 307.584 
L 128.829207 307.584 
z
" style="fill:#1f77b4;"/>
   </g>
   <g id="patch_180">
    <path clip-path="url(#pd172efc7da)" d="M 129.614871 307.584 
L 130.400535 307.584 
L 130.400535 307.584 
L 129.614871 307.584 
z
" style="fill:#1f77b4;"/>
   </g>
   <g id="patch_181">
    <path clip-path="url(#pd172efc7da)" d="M 130.400535 307.584 
L 131.186199 307.584 
L 131.186199 307.584 
L 130.400535 307.584 
z
" style="fill:#1f77b4;"/>
   </g>
   <g id="patch_182">
    <path clip-path="url(#pd172efc7da)" d="M 131.186199 307.584 
L 131.971863 307.584 
L 131.971863 299.355429 
L 131.186199 299.355429 
z
" style="fill:#1f77b4;"/>
   </g>
   <g id="patch_183">
    <path clip-path="url(#pd172efc7da)" d="M 131.971863 307.584 
L 132.757527 307.584 
L 132.757527 307.584 
L 131.971863 307.584 
z
" style="fill:#1f77b4;"/>
   </g>
   <g id="patch_184">
    <path clip-path="url(#pd172efc7da)" d="M 132.757527 307.584 
L 133.543191 307.584 
L 133.543191 307.584 
L 132.757527 307.584 
z
" style="fill:#1f77b4;"/>
   </g>
   <g id="patch_185">
    <path clip-path="url(#pd172efc7da)" d="M 133.543191 307.584 
L 134.328855 307.584 
L 134.328855 307.584 
L 133.543191 307.584 
z
" style="fill:#1f77b4;"/>
   </g>
   <g id="patch_186">
    <path clip-path="url(#pd172efc7da)" d="M 134.328855 307.584 
L 135.114519 307.584 
L 135.114519 307.584 
L 134.328855 307.584 
z
" style="fill:#1f77b4;"/>
   </g>
   <g id="patch_187">
    <path clip-path="url(#pd172efc7da)" d="M 135.114519 307.584 
L 135.900183 307.584 
L 135.900183 307.584 
L 135.114519 307.584 
z
" style="fill:#1f77b4;"/>
   </g>
   <g id="patch_188">
    <path clip-path="url(#pd172efc7da)" d="M 135.900183 307.584 
L 136.685847 307.584 
L 136.685847 307.584 
L 135.900183 307.584 
z
" style="fill:#1f77b4;"/>
   </g>
   <g id="patch_189">
    <path clip-path="url(#pd172efc7da)" d="M 136.685847 307.584 
L 137.471511 307.584 
L 137.471511 299.355429 
L 136.685847 299.355429 
z
" style="fill:#1f77b4;"/>
   </g>
   <g id="patch_190">
    <path clip-path="url(#pd172efc7da)" d="M 137.471511 307.584 
L 138.257175 307.584 
L 138.257175 307.584 
L 137.471511 307.584 
z
" style="fill:#1f77b4;"/>
   </g>
   <g id="patch_191">
    <path clip-path="url(#pd172efc7da)" d="M 138.257175 307.584 
L 139.042839 307.584 
L 139.042839 307.584 
L 138.257175 307.584 
z
" style="fill:#1f77b4;"/>
   </g>
   <g id="patch_192">
    <path clip-path="url(#pd172efc7da)" d="M 139.042839 307.584 
L 139.828503 307.584 
L 139.828503 307.584 
L 139.042839 307.584 
z
" style="fill:#1f77b4;"/>
   </g>
   <g id="patch_193">
    <path clip-path="url(#pd172efc7da)" d="M 139.828503 307.584 
L 140.614167 307.584 
L 140.614167 307.584 
L 139.828503 307.584 
z
" style="fill:#1f77b4;"/>
   </g>
   <g id="patch_194">
    <path clip-path="url(#pd172efc7da)" d="M 140.614167 307.584 
L 141.399831 307.584 
L 141.399831 307.584 
L 140.614167 307.584 
z
" style="fill:#1f77b4;"/>
   </g>
   <g id="patch_195">
    <path clip-path="url(#pd172efc7da)" d="M 141.399831 307.584 
L 142.185495 307.584 
L 142.185495 307.584 
L 141.399831 307.584 
z
" style="fill:#1f77b4;"/>
   </g>
   <g id="patch_196">
    <path clip-path="url(#pd172efc7da)" d="M 142.185495 307.584 
L 142.971159 307.584 
L 142.971159 307.584 
L 142.185495 307.584 
z
" style="fill:#1f77b4;"/>
   </g>
   <g id="patch_197">
    <path clip-path="url(#pd172efc7da)" d="M 142.971159 307.584 
L 143.756823 307.584 
L 143.756823 307.584 
L 142.971159 307.584 
z
" style="fill:#1f77b4;"/>
   </g>
   <g id="patch_198">
    <path clip-path="url(#pd172efc7da)" d="M 143.756823 307.584 
L 144.542487 307.584 
L 144.542487 307.584 
L 143.756823 307.584 
z
" style="fill:#1f77b4;"/>
   </g>
   <g id="patch_199">
    <path clip-path="url(#pd172efc7da)" d="M 144.542487 307.584 
L 145.328151 307.584 
L 145.328151 307.584 
L 144.542487 307.584 
z
" style="fill:#1f77b4;"/>
   </g>
   <g id="patch_200">
    <path clip-path="url(#pd172efc7da)" d="M 145.328151 307.584 
L 146.113815 307.584 
L 146.113815 307.584 
L 145.328151 307.584 
z
" style="fill:#1f77b4;"/>
   </g>
   <g id="patch_201">
    <path clip-path="url(#pd172efc7da)" d="M 146.113815 307.584 
L 146.899479 307.584 
L 146.899479 307.584 
L 146.113815 307.584 
z
" style="fill:#1f77b4;"/>
   </g>
   <g id="patch_202">
    <path clip-path="url(#pd172efc7da)" d="M 146.899479 307.584 
L 147.685143 307.584 
L 147.685143 307.584 
L 146.899479 307.584 
z
" style="fill:#1f77b4;"/>
   </g>
   <g id="patch_203">
    <path clip-path="url(#pd172efc7da)" d="M 147.685143 307.584 
L 148.470807 307.584 
L 148.470807 307.584 
L 147.685143 307.584 
z
" style="fill:#1f77b4;"/>
   </g>
   <g id="patch_204">
    <path clip-path="url(#pd172efc7da)" d="M 148.470807 307.584 
L 149.256471 307.584 
L 149.256471 307.584 
L 148.470807 307.584 
z
" style="fill:#1f77b4;"/>
   </g>
   <g id="patch_205">
    <path clip-path="url(#pd172efc7da)" d="M 149.256471 307.584 
L 150.042135 307.584 
L 150.042135 307.584 
L 149.256471 307.584 
z
" style="fill:#1f77b4;"/>
   </g>
   <g id="patch_206">
    <path clip-path="url(#pd172efc7da)" d="M 150.042135 307.584 
L 150.827799 307.584 
L 150.827799 307.584 
L 150.042135 307.584 
z
" style="fill:#1f77b4;"/>
   </g>
   <g id="patch_207">
    <path clip-path="url(#pd172efc7da)" d="M 150.827799 307.584 
L 151.613463 307.584 
L 151.613463 307.584 
L 150.827799 307.584 
z
" style="fill:#1f77b4;"/>
   </g>
   <g id="patch_208">
    <path clip-path="url(#pd172efc7da)" d="M 151.613463 307.584 
L 152.399127 307.584 
L 152.399127 299.355429 
L 151.613463 299.355429 
z
" style="fill:#1f77b4;"/>
   </g>
   <g id="matplotlib.axis_3">
    <g id="xtick_7">
     <g id="line2d_18">
      <g>
       <use style="stroke:#000000;stroke-width:0.8;" x="73.832727" xlink:href="#md876ca5158" y="307.584"/>
      </g>
     </g>
     <g id="text_15">
      <!-- 0 -->
      <g transform="translate(70.651477 322.182437)scale(0.1 -0.1)">
       <use xlink:href="#DejaVuSans-48"/>
      </g>
     </g>
    </g>
    <g id="xtick_8">
     <g id="line2d_19">
      <g>
       <use style="stroke:#000000;stroke-width:0.8;" x="138.763636" xlink:href="#md876ca5158" y="307.584"/>
      </g>
     </g>
     <g id="text_16">
      <!-- 20 -->
      <g transform="translate(132.401136 322.182437)scale(0.1 -0.1)">
       <use xlink:href="#DejaVuSans-50"/>
       <use x="63.623047" xlink:href="#DejaVuSans-48"/>
      </g>
     </g>
    </g>
    <g id="xtick_9">
     <g id="line2d_20">
      <g>
       <use style="stroke:#000000;stroke-width:0.8;" x="203.694545" xlink:href="#md876ca5158" y="307.584"/>
      </g>
     </g>
     <g id="text_17">
      <!-- 40 -->
      <g transform="translate(197.332045 322.182437)scale(0.1 -0.1)">
       <use xlink:href="#DejaVuSans-52"/>
       <use x="63.623047" xlink:href="#DejaVuSans-48"/>
      </g>
     </g>
    </g>
    <g id="xtick_10">
     <g id="line2d_21">
      <g>
       <use style="stroke:#000000;stroke-width:0.8;" x="268.625455" xlink:href="#md876ca5158" y="307.584"/>
      </g>
     </g>
     <g id="text_18">
      <!-- 60 -->
      <g transform="translate(262.262955 322.182437)scale(0.1 -0.1)">
       <use xlink:href="#DejaVuSans-54"/>
       <use x="63.623047" xlink:href="#DejaVuSans-48"/>
      </g>
     </g>
    </g>
    <g id="xtick_11">
     <g id="line2d_22">
      <g>
       <use style="stroke:#000000;stroke-width:0.8;" x="333.556364" xlink:href="#md876ca5158" y="307.584"/>
      </g>
     </g>
     <g id="text_19">
      <!-- 80 -->
      <g transform="translate(327.193864 322.182437)scale(0.1 -0.1)">
       <use xlink:href="#DejaVuSans-56"/>
       <use x="63.623047" xlink:href="#DejaVuSans-48"/>
      </g>
     </g>
    </g>
    <g id="xtick_12">
     <g id="line2d_23">
      <g>
       <use style="stroke:#000000;stroke-width:0.8;" x="398.487273" xlink:href="#md876ca5158" y="307.584"/>
      </g>
     </g>
     <g id="text_20">
      <!-- 100 -->
      <g transform="translate(388.943523 322.182437)scale(0.1 -0.1)">
       <use xlink:href="#DejaVuSans-49"/>
       <use x="63.623047" xlink:href="#DejaVuSans-48"/>
       <use x="127.246094" xlink:href="#DejaVuSans-48"/>
      </g>
     </g>
    </g>
   </g>
   <g id="matplotlib.axis_4">
    <g id="ytick_6">
     <g id="line2d_24">
      <g>
       <use style="stroke:#000000;stroke-width:0.8;" x="57.6" xlink:href="#m520128d688" y="307.584"/>
      </g>
     </g>
     <g id="text_21">
      <!-- 0.00 -->
      <g transform="translate(28.334375 311.383219)scale(0.1 -0.1)">
       <use xlink:href="#DejaVuSans-48"/>
       <use x="63.623047" xlink:href="#DejaVuSans-46"/>
       <use x="95.410156" xlink:href="#DejaVuSans-48"/>
       <use x="159.033203" xlink:href="#DejaVuSans-48"/>
      </g>
     </g>
    </g>
    <g id="ytick_7">
     <g id="line2d_25">
      <g>
       <use style="stroke:#000000;stroke-width:0.8;" x="57.6" xlink:href="#m520128d688" y="282.692571"/>
      </g>
     </g>
     <g id="text_22">
      <!-- 0.25 -->
      <g transform="translate(28.334375 286.49179)scale(0.1 -0.1)">
       <use xlink:href="#DejaVuSans-48"/>
       <use x="63.623047" xlink:href="#DejaVuSans-46"/>
       <use x="95.410156" xlink:href="#DejaVuSans-50"/>
       <use x="159.033203" xlink:href="#DejaVuSans-53"/>
      </g>
     </g>
    </g>
    <g id="ytick_8">
     <g id="line2d_26">
      <g>
       <use style="stroke:#000000;stroke-width:0.8;" x="57.6" xlink:href="#m520128d688" y="257.801143"/>
      </g>
     </g>
     <g id="text_23">
      <!-- 0.50 -->
      <g transform="translate(28.334375 261.600362)scale(0.1 -0.1)">
       <use xlink:href="#DejaVuSans-48"/>
       <use x="63.623047" xlink:href="#DejaVuSans-46"/>
       <use x="95.410156" xlink:href="#DejaVuSans-53"/>
       <use x="159.033203" xlink:href="#DejaVuSans-48"/>
      </g>
     </g>
    </g>
    <g id="ytick_9">
     <g id="line2d_27">
      <g>
       <use style="stroke:#000000;stroke-width:0.8;" x="57.6" xlink:href="#m520128d688" y="232.909714"/>
      </g>
     </g>
     <g id="text_24">
      <!-- 0.75 -->
      <defs>
       <path d="M 8.203125 72.90625 
L 55.078125 72.90625 
L 55.078125 68.703125 
L 28.609375 0 
L 18.3125 0 
L 43.21875 64.59375 
L 8.203125 64.59375 
z
" id="DejaVuSans-55"/>
      </defs>
      <g transform="translate(28.334375 236.708933)scale(0.1 -0.1)">
       <use xlink:href="#DejaVuSans-48"/>
       <use x="63.623047" xlink:href="#DejaVuSans-46"/>
       <use x="95.410156" xlink:href="#DejaVuSans-55"/>
       <use x="159.033203" xlink:href="#DejaVuSans-53"/>
      </g>
     </g>
    </g>
    <g id="ytick_10">
     <g id="line2d_28">
      <g>
       <use style="stroke:#000000;stroke-width:0.8;" x="57.6" xlink:href="#m520128d688" y="208.018286"/>
      </g>
     </g>
     <g id="text_25">
      <!-- 1.00 -->
      <g transform="translate(28.334375 211.817504)scale(0.1 -0.1)">
       <use xlink:href="#DejaVuSans-49"/>
       <use x="63.623047" xlink:href="#DejaVuSans-46"/>
       <use x="95.410156" xlink:href="#DejaVuSans-48"/>
       <use x="159.033203" xlink:href="#DejaVuSans-48"/>
      </g>
     </g>
    </g>
   </g>
   <g id="line2d_29">
    <path clip-path="url(#pd172efc7da)" d="M 73.832727 307.584 
L 74.157707 305.309897 
L 74.807666 296.522429 
L 75.457625 291.151083 
L 75.782604 289.620613 
L 76.107584 288.62663 
L 76.432563 288.034061 
L 76.757543 287.740234 
L 77.082523 287.668085 
L 77.407502 287.759889 
L 78.057461 288.272714 
L 79.0324 289.483061 
L 82.932154 294.852312 
L 84.557052 296.652642 
L 86.181949 298.163158 
L 88.131826 299.651551 
L 90.081704 300.854376 
L 92.35656 301.977362 
L 94.956396 302.980967 
L 97.881212 303.84812 
L 101.131007 304.578241 
L 105.030762 305.227721 
L 109.905455 305.805667 
L 116.080066 306.300463 
L 124.204554 306.712566 
L 135.578837 307.044859 
L 152.477772 307.292536 
L 181.075971 307.460579 
L 242.497101 307.553483 
L 398.487273 307.581003 
L 398.487273 307.581003 
" style="fill:none;stroke:#ff7f0e;stroke-linecap:square;stroke-width:1.5;"/>
   </g>
   <g id="line2d_30">
    <path clip-path="url(#pd172efc7da)" d="M 73.832727 307.584 
L 74.157707 225.097763 
L 74.807666 253.181108 
L 75.457625 268.44327 
L 76.107584 277.390549 
L 76.757543 283.24848 
L 77.407502 287.370744 
L 78.057461 290.420714 
L 79.0324 293.738185 
L 80.007338 296.104382 
L 80.982277 297.867925 
L 81.957215 299.226649 
L 83.257133 300.610265 
L 84.557052 301.658607 
L 86.181949 302.652215 
L 88.131826 303.534172 
L 90.406683 304.284503 
L 93.006519 304.90581 
L 96.256314 305.458776 
L 100.481048 305.951042 
L 106.33068 306.391076 
L 114.455168 306.757697 
L 126.47941 307.054753 
L 145.653202 307.281784 
L 180.750991 307.442724 
L 260.695954 307.539165 
L 398.487273 307.570874 
L 398.487273 307.570874 
" style="fill:none;stroke:#2ca02c;stroke-dasharray:5.55,2.4;stroke-dashoffset:0;stroke-width:1.5;"/>
   </g>
   <g id="patch_209">
    <path d="M 57.6 307.584 
L 57.6 186.624 
" style="fill:none;stroke:#000000;stroke-linecap:square;stroke-linejoin:miter;stroke-width:0.8;"/>
   </g>
   <g id="patch_210">
    <path d="M 414.72 307.584 
L 414.72 186.624 
" style="fill:none;stroke:#000000;stroke-linecap:square;stroke-linejoin:miter;stroke-width:0.8;"/>
   </g>
   <g id="patch_211">
    <path d="M 57.6 307.584 
L 414.72 307.584 
" style="fill:none;stroke:#000000;stroke-linecap:square;stroke-linejoin:miter;stroke-width:0.8;"/>
   </g>
   <g id="patch_212">
    <path d="M 57.6 186.624 
L 414.72 186.624 
" style="fill:none;stroke:#000000;stroke-linecap:square;stroke-linejoin:miter;stroke-width:0.8;"/>
   </g>
   <g id="text_26">
    <!-- I -->
    <defs>
     <path d="M 9.8125 72.90625 
L 19.671875 72.90625 
L 19.671875 0 
L 9.8125 0 
z
" id="DejaVuSans-73"/>
    </defs>
    <g transform="translate(234.39 180.624)scale(0.12 -0.12)">
     <use xlink:href="#DejaVuSans-73"/>
    </g>
   </g>
   <g id="legend_2">
    <g id="patch_213">
     <path d="M 187.487187 223.98025 
L 407.72 223.98025 
Q 409.72 223.98025 409.72 221.98025 
L 409.72 193.624 
Q 409.72 191.624 407.72 191.624 
L 187.487187 191.624 
Q 185.487187 191.624 185.487187 193.624 
L 185.487187 221.98025 
Q 185.487187 223.98025 187.487187 223.98025 
z
" style="fill:#ffffff;opacity:0.8;stroke:#cccccc;stroke-linejoin:miter;"/>
    </g>
    <g id="line2d_31">
     <path d="M 189.487187 199.722437 
L 209.487187 199.722437 
" style="fill:none;stroke:#ff7f0e;stroke-linecap:square;stroke-width:1.5;"/>
    </g>
    <g id="line2d_32"/>
    <g id="text_27">
     <!-- targetDist (Buzsaki &amp; Mizuseki, 2014) -->
     <g transform="translate(217.487187 203.222437)scale(0.1 -0.1)">
      <use xlink:href="#DejaVuSans-116"/>
      <use x="39.208984" xlink:href="#DejaVuSans-97"/>
      <use x="100.488281" xlink:href="#DejaVuSans-114"/>
      <use x="139.851562" xlink:href="#DejaVuSans-103"/>
      <use x="203.328125" xlink:href="#DejaVuSans-101"/>
      <use x="264.851562" xlink:href="#DejaVuSans-116"/>
      <use x="304.060547" xlink:href="#DejaVuSans-68"/>
      <use x="381.0625" xlink:href="#DejaVuSans-105"/>
      <use x="408.845703" xlink:href="#DejaVuSans-115"/>
      <use x="460.945312" xlink:href="#DejaVuSans-116"/>
      <use x="500.154297" xlink:href="#DejaVuSans-32"/>
      <use x="531.941406" xlink:href="#DejaVuSans-40"/>
      <use x="570.955078" xlink:href="#DejaVuSans-66"/>
      <use x="639.558594" xlink:href="#DejaVuSans-117"/>
      <use x="702.9375" xlink:href="#DejaVuSans-122"/>
      <use x="755.427734" xlink:href="#DejaVuSans-115"/>
      <use x="807.527344" xlink:href="#DejaVuSans-97"/>
      <use x="868.806641" xlink:href="#DejaVuSans-107"/>
      <use x="926.716797" xlink:href="#DejaVuSans-105"/>
      <use x="954.5" xlink:href="#DejaVuSans-32"/>
      <use x="986.287109" xlink:href="#DejaVuSans-38"/>
      <use x="1064.265625" xlink:href="#DejaVuSans-32"/>
      <use x="1096.052734" xlink:href="#DejaVuSans-77"/>
      <use x="1182.332031" xlink:href="#DejaVuSans-105"/>
      <use x="1210.115234" xlink:href="#DejaVuSans-122"/>
      <use x="1262.605469" xlink:href="#DejaVuSans-117"/>
      <use x="1325.984375" xlink:href="#DejaVuSans-115"/>
      <use x="1378.083984" xlink:href="#DejaVuSans-101"/>
      <use x="1439.607422" xlink:href="#DejaVuSans-107"/>
      <use x="1497.517578" xlink:href="#DejaVuSans-105"/>
      <use x="1525.300781" xlink:href="#DejaVuSans-44"/>
      <use x="1557.087891" xlink:href="#DejaVuSans-32"/>
      <use x="1588.875" xlink:href="#DejaVuSans-50"/>
      <use x="1652.498047" xlink:href="#DejaVuSans-48"/>
      <use x="1716.121094" xlink:href="#DejaVuSans-49"/>
      <use x="1779.744141" xlink:href="#DejaVuSans-52"/>
      <use x="1843.367188" xlink:href="#DejaVuSans-41"/>
     </g>
    </g>
    <g id="line2d_33">
     <path d="M 189.487187 214.400562 
L 209.487187 214.400562 
" style="fill:none;stroke:#2ca02c;stroke-dasharray:5.55,2.4;stroke-dashoffset:0;stroke-width:1.5;"/>
    </g>
    <g id="line2d_34"/>
    <g id="text_28">
     <!-- simulatedDist -->
     <g transform="translate(217.487187 217.900562)scale(0.1 -0.1)">
      <use xlink:href="#DejaVuSans-115"/>
      <use x="52.099609" xlink:href="#DejaVuSans-105"/>
      <use x="79.882812" xlink:href="#DejaVuSans-109"/>
      <use x="177.294922" xlink:href="#DejaVuSans-117"/>
      <use x="240.673828" xlink:href="#DejaVuSans-108"/>
      <use x="268.457031" xlink:href="#DejaVuSans-97"/>
      <use x="329.736328" xlink:href="#DejaVuSans-116"/>
      <use x="368.945312" xlink:href="#DejaVuSans-101"/>
      <use x="430.46875" xlink:href="#DejaVuSans-100"/>
      <use x="493.945312" xlink:href="#DejaVuSans-68"/>
      <use x="570.947266" xlink:href="#DejaVuSans-105"/>
      <use x="598.730469" xlink:href="#DejaVuSans-115"/>
      <use x="650.830078" xlink:href="#DejaVuSans-116"/>
     </g>
    </g>
   </g>
  </g>
 </g>
 <defs>
  <clipPath id="pfdc7503e00">
   <rect height="120.96" width="357.12" x="57.6" y="41.472"/>
  </clipPath>
  <clipPath id="pd172efc7da">
   <rect height="120.96" width="357.12" x="57.6" y="186.624"/>
  </clipPath>
 </defs>
</svg>
