<?xml version="1.0" encoding="utf-8" standalone="no"?>
<!DOCTYPE svg PUBLIC "-//W3C//DTD SVG 1.1//EN"
  "http://www.w3.org/Graphics/SVG/1.1/DTD/svg11.dtd">
<!-- Created with matplotlib (https://matplotlib.org/) -->
<svg height="345.6pt" version="1.1" viewBox="0 0 460.8 345.6" width="460.8pt" xmlns="http://www.w3.org/2000/svg" xmlns:xlink="http://www.w3.org/1999/xlink">
 <defs>
  <style type="text/css">
*{stroke-linecap:butt;stroke-linejoin:round;}
  </style>
 </defs>
 <g id="figure_1">
  <g id="patch_1">
   <path d="M 0 345.6 
L 460.8 345.6 
L 460.8 0 
L 0 0 
z
" style="fill:#ffffff;"/>
  </g>
  <g id="axes_1">
   <g id="patch_2">
    <path d="M 57.6 162.432 
L 414.72 162.432 
L 414.72 41.472 
L 57.6 41.472 
z
" style="fill:#ffffff;"/>
   </g>
   <g id="patch_3">
    <path clip-path="url(#p0a7c1e4fab)" d="M 73.832727 162.432 
L 77.079273 162.432 
L 77.079273 128.71304 
L 73.832727 128.71304 
z
" style="fill:#1f77b4;"/>
   </g>
   <g id="patch_4">
    <path clip-path="url(#p0a7c1e4fab)" d="M 77.079273 162.432 
L 80.325818 162.432 
L 80.325818 153.440277 
L 77.079273 153.440277 
z
" style="fill:#1f77b4;"/>
   </g>
   <g id="patch_5">
    <path clip-path="url(#p0a7c1e4fab)" d="M 80.325818 162.432 
L 83.572364 162.432 
L 83.572364 128.71304 
L 80.325818 128.71304 
z
" style="fill:#1f77b4;"/>
   </g>
   <g id="patch_6">
    <path clip-path="url(#p0a7c1e4fab)" d="M 83.572364 162.432 
L 86.818909 162.432 
L 86.818909 106.233734 
L 83.572364 106.233734 
z
" style="fill:#1f77b4;"/>
   </g>
   <g id="patch_7">
    <path clip-path="url(#p0a7c1e4fab)" d="M 86.818909 162.432 
L 90.065455 162.432 
L 90.065455 94.994081 
L 86.818909 94.994081 
z
" style="fill:#1f77b4;"/>
   </g>
   <g id="patch_8">
    <path clip-path="url(#p0a7c1e4fab)" d="M 90.065455 162.432 
L 93.312 162.432 
L 93.312 112.977526 
L 90.065455 112.977526 
z
" style="fill:#1f77b4;"/>
   </g>
   <g id="patch_9">
    <path clip-path="url(#p0a7c1e4fab)" d="M 93.312 162.432 
L 96.558545 162.432 
L 96.558545 108.481665 
L 93.312 108.481665 
z
" style="fill:#1f77b4;"/>
   </g>
   <g id="patch_10">
    <path clip-path="url(#p0a7c1e4fab)" d="M 96.558545 162.432 
L 99.805091 162.432 
L 99.805091 142.200624 
L 96.558545 142.200624 
z
" style="fill:#1f77b4;"/>
   </g>
   <g id="patch_11">
    <path clip-path="url(#p0a7c1e4fab)" d="M 99.805091 162.432 
L 103.051636 162.432 
L 103.051636 153.440277 
L 99.805091 153.440277 
z
" style="fill:#1f77b4;"/>
   </g>
   <g id="patch_12">
    <path clip-path="url(#p0a7c1e4fab)" d="M 103.051636 162.432 
L 106.298182 162.432 
L 106.298182 151.192347 
L 103.051636 151.192347 
z
" style="fill:#1f77b4;"/>
   </g>
   <g id="patch_13">
    <path clip-path="url(#p0a7c1e4fab)" d="M 106.298182 162.432 
L 109.544727 162.432 
L 109.544727 151.192347 
L 106.298182 151.192347 
z
" style="fill:#1f77b4;"/>
   </g>
   <g id="patch_14">
    <path clip-path="url(#p0a7c1e4fab)" d="M 109.544727 162.432 
L 112.791273 162.432 
L 112.791273 146.696486 
L 109.544727 146.696486 
z
" style="fill:#1f77b4;"/>
   </g>
   <g id="patch_15">
    <path clip-path="url(#p0a7c1e4fab)" d="M 112.791273 162.432 
L 116.037818 162.432 
L 116.037818 155.688208 
L 112.791273 155.688208 
z
" style="fill:#1f77b4;"/>
   </g>
   <g id="patch_16">
    <path clip-path="url(#p0a7c1e4fab)" d="M 116.037818 162.432 
L 119.284364 162.432 
L 119.284364 162.432 
L 116.037818 162.432 
z
" style="fill:#1f77b4;"/>
   </g>
   <g id="patch_17">
    <path clip-path="url(#p0a7c1e4fab)" d="M 119.284364 162.432 
L 122.530909 162.432 
L 122.530909 155.688208 
L 119.284364 155.688208 
z
" style="fill:#1f77b4;"/>
   </g>
   <g id="patch_18">
    <path clip-path="url(#p0a7c1e4fab)" d="M 122.530909 162.432 
L 125.777455 162.432 
L 125.777455 162.432 
L 122.530909 162.432 
z
" style="fill:#1f77b4;"/>
   </g>
   <g id="patch_19">
    <path clip-path="url(#p0a7c1e4fab)" d="M 125.777455 162.432 
L 129.024 162.432 
L 129.024 153.440277 
L 125.777455 153.440277 
z
" style="fill:#1f77b4;"/>
   </g>
   <g id="patch_20">
    <path clip-path="url(#p0a7c1e4fab)" d="M 129.024 162.432 
L 132.270545 162.432 
L 132.270545 160.184069 
L 129.024 160.184069 
z
" style="fill:#1f77b4;"/>
   </g>
   <g id="patch_21">
    <path clip-path="url(#p0a7c1e4fab)" d="M 132.270545 162.432 
L 135.517091 162.432 
L 135.517091 160.184069 
L 132.270545 160.184069 
z
" style="fill:#1f77b4;"/>
   </g>
   <g id="patch_22">
    <path clip-path="url(#p0a7c1e4fab)" d="M 135.517091 162.432 
L 138.763636 162.432 
L 138.763636 155.688208 
L 135.517091 155.688208 
z
" style="fill:#1f77b4;"/>
   </g>
   <g id="patch_23">
    <path clip-path="url(#p0a7c1e4fab)" d="M 138.763636 162.432 
L 142.010182 162.432 
L 142.010182 162.432 
L 138.763636 162.432 
z
" style="fill:#1f77b4;"/>
   </g>
   <g id="patch_24">
    <path clip-path="url(#p0a7c1e4fab)" d="M 142.010182 162.432 
L 145.256727 162.432 
L 145.256727 162.432 
L 142.010182 162.432 
z
" style="fill:#1f77b4;"/>
   </g>
   <g id="patch_25">
    <path clip-path="url(#p0a7c1e4fab)" d="M 145.256727 162.432 
L 148.503273 162.432 
L 148.503273 162.432 
L 145.256727 162.432 
z
" style="fill:#1f77b4;"/>
   </g>
   <g id="patch_26">
    <path clip-path="url(#p0a7c1e4fab)" d="M 148.503273 162.432 
L 151.749818 162.432 
L 151.749818 160.184069 
L 148.503273 160.184069 
z
" style="fill:#1f77b4;"/>
   </g>
   <g id="patch_27">
    <path clip-path="url(#p0a7c1e4fab)" d="M 151.749818 162.432 
L 154.996364 162.432 
L 154.996364 160.184069 
L 151.749818 160.184069 
z
" style="fill:#1f77b4;"/>
   </g>
   <g id="patch_28">
    <path clip-path="url(#p0a7c1e4fab)" d="M 154.996364 162.432 
L 158.242909 162.432 
L 158.242909 155.688208 
L 154.996364 155.688208 
z
" style="fill:#1f77b4;"/>
   </g>
   <g id="patch_29">
    <path clip-path="url(#p0a7c1e4fab)" d="M 158.242909 162.432 
L 161.489455 162.432 
L 161.489455 160.184069 
L 158.242909 160.184069 
z
" style="fill:#1f77b4;"/>
   </g>
   <g id="patch_30">
    <path clip-path="url(#p0a7c1e4fab)" d="M 161.489455 162.432 
L 164.736 162.432 
L 164.736 162.432 
L 161.489455 162.432 
z
" style="fill:#1f77b4;"/>
   </g>
   <g id="patch_31">
    <path clip-path="url(#p0a7c1e4fab)" d="M 164.736 162.432 
L 167.982545 162.432 
L 167.982545 160.184069 
L 164.736 160.184069 
z
" style="fill:#1f77b4;"/>
   </g>
   <g id="patch_32">
    <path clip-path="url(#p0a7c1e4fab)" d="M 167.982545 162.432 
L 171.229091 162.432 
L 171.229091 160.184069 
L 167.982545 160.184069 
z
" style="fill:#1f77b4;"/>
   </g>
   <g id="patch_33">
    <path clip-path="url(#p0a7c1e4fab)" d="M 171.229091 162.432 
L 174.475636 162.432 
L 174.475636 162.432 
L 171.229091 162.432 
z
" style="fill:#1f77b4;"/>
   </g>
   <g id="patch_34">
    <path clip-path="url(#p0a7c1e4fab)" d="M 174.475636 162.432 
L 177.722182 162.432 
L 177.722182 160.184069 
L 174.475636 160.184069 
z
" style="fill:#1f77b4;"/>
   </g>
   <g id="patch_35">
    <path clip-path="url(#p0a7c1e4fab)" d="M 177.722182 162.432 
L 180.968727 162.432 
L 180.968727 162.432 
L 177.722182 162.432 
z
" style="fill:#1f77b4;"/>
   </g>
   <g id="patch_36">
    <path clip-path="url(#p0a7c1e4fab)" d="M 180.968727 162.432 
L 184.215273 162.432 
L 184.215273 160.184069 
L 180.968727 160.184069 
z
" style="fill:#1f77b4;"/>
   </g>
   <g id="patch_37">
    <path clip-path="url(#p0a7c1e4fab)" d="M 184.215273 162.432 
L 187.461818 162.432 
L 187.461818 162.432 
L 184.215273 162.432 
z
" style="fill:#1f77b4;"/>
   </g>
   <g id="patch_38">
    <path clip-path="url(#p0a7c1e4fab)" d="M 187.461818 162.432 
L 190.708364 162.432 
L 190.708364 162.432 
L 187.461818 162.432 
z
" style="fill:#1f77b4;"/>
   </g>
   <g id="patch_39">
    <path clip-path="url(#p0a7c1e4fab)" d="M 190.708364 162.432 
L 193.954909 162.432 
L 193.954909 162.432 
L 190.708364 162.432 
z
" style="fill:#1f77b4;"/>
   </g>
   <g id="patch_40">
    <path clip-path="url(#p0a7c1e4fab)" d="M 193.954909 162.432 
L 197.201455 162.432 
L 197.201455 162.432 
L 193.954909 162.432 
z
" style="fill:#1f77b4;"/>
   </g>
   <g id="patch_41">
    <path clip-path="url(#p0a7c1e4fab)" d="M 197.201455 162.432 
L 200.448 162.432 
L 200.448 162.432 
L 197.201455 162.432 
z
" style="fill:#1f77b4;"/>
   </g>
   <g id="patch_42">
    <path clip-path="url(#p0a7c1e4fab)" d="M 200.448 162.432 
L 203.694545 162.432 
L 203.694545 162.432 
L 200.448 162.432 
z
" style="fill:#1f77b4;"/>
   </g>
   <g id="patch_43">
    <path clip-path="url(#p0a7c1e4fab)" d="M 203.694545 162.432 
L 206.941091 162.432 
L 206.941091 157.936139 
L 203.694545 157.936139 
z
" style="fill:#1f77b4;"/>
   </g>
   <g id="patch_44">
    <path clip-path="url(#p0a7c1e4fab)" d="M 206.941091 162.432 
L 210.187636 162.432 
L 210.187636 162.432 
L 206.941091 162.432 
z
" style="fill:#1f77b4;"/>
   </g>
   <g id="patch_45">
    <path clip-path="url(#p0a7c1e4fab)" d="M 210.187636 162.432 
L 213.434182 162.432 
L 213.434182 162.432 
L 210.187636 162.432 
z
" style="fill:#1f77b4;"/>
   </g>
   <g id="patch_46">
    <path clip-path="url(#p0a7c1e4fab)" d="M 213.434182 162.432 
L 216.680727 162.432 
L 216.680727 157.936139 
L 213.434182 157.936139 
z
" style="fill:#1f77b4;"/>
   </g>
   <g id="patch_47">
    <path clip-path="url(#p0a7c1e4fab)" d="M 216.680727 162.432 
L 219.927273 162.432 
L 219.927273 162.432 
L 216.680727 162.432 
z
" style="fill:#1f77b4;"/>
   </g>
   <g id="patch_48">
    <path clip-path="url(#p0a7c1e4fab)" d="M 219.927273 162.432 
L 223.173818 162.432 
L 223.173818 162.432 
L 219.927273 162.432 
z
" style="fill:#1f77b4;"/>
   </g>
   <g id="patch_49">
    <path clip-path="url(#p0a7c1e4fab)" d="M 223.173818 162.432 
L 226.420364 162.432 
L 226.420364 160.184069 
L 223.173818 160.184069 
z
" style="fill:#1f77b4;"/>
   </g>
   <g id="patch_50">
    <path clip-path="url(#p0a7c1e4fab)" d="M 226.420364 162.432 
L 229.666909 162.432 
L 229.666909 162.432 
L 226.420364 162.432 
z
" style="fill:#1f77b4;"/>
   </g>
   <g id="patch_51">
    <path clip-path="url(#p0a7c1e4fab)" d="M 229.666909 162.432 
L 232.913455 162.432 
L 232.913455 160.184069 
L 229.666909 160.184069 
z
" style="fill:#1f77b4;"/>
   </g>
   <g id="patch_52">
    <path clip-path="url(#p0a7c1e4fab)" d="M 232.913455 162.432 
L 236.16 162.432 
L 236.16 162.432 
L 232.913455 162.432 
z
" style="fill:#1f77b4;"/>
   </g>
   <g id="patch_53">
    <path clip-path="url(#p0a7c1e4fab)" d="M 236.16 162.432 
L 239.406545 162.432 
L 239.406545 162.432 
L 236.16 162.432 
z
" style="fill:#1f77b4;"/>
   </g>
   <g id="patch_54">
    <path clip-path="url(#p0a7c1e4fab)" d="M 239.406545 162.432 
L 242.653091 162.432 
L 242.653091 157.936139 
L 239.406545 157.936139 
z
" style="fill:#1f77b4;"/>
   </g>
   <g id="patch_55">
    <path clip-path="url(#p0a7c1e4fab)" d="M 242.653091 162.432 
L 245.899636 162.432 
L 245.899636 162.432 
L 242.653091 162.432 
z
" style="fill:#1f77b4;"/>
   </g>
   <g id="patch_56">
    <path clip-path="url(#p0a7c1e4fab)" d="M 245.899636 162.432 
L 249.146182 162.432 
L 249.146182 162.432 
L 245.899636 162.432 
z
" style="fill:#1f77b4;"/>
   </g>
   <g id="patch_57">
    <path clip-path="url(#p0a7c1e4fab)" d="M 249.146182 162.432 
L 252.392727 162.432 
L 252.392727 162.432 
L 249.146182 162.432 
z
" style="fill:#1f77b4;"/>
   </g>
   <g id="patch_58">
    <path clip-path="url(#p0a7c1e4fab)" d="M 252.392727 162.432 
L 255.639273 162.432 
L 255.639273 162.432 
L 252.392727 162.432 
z
" style="fill:#1f77b4;"/>
   </g>
   <g id="patch_59">
    <path clip-path="url(#p0a7c1e4fab)" d="M 255.639273 162.432 
L 258.885818 162.432 
L 258.885818 162.432 
L 255.639273 162.432 
z
" style="fill:#1f77b4;"/>
   </g>
   <g id="patch_60">
    <path clip-path="url(#p0a7c1e4fab)" d="M 258.885818 162.432 
L 262.132364 162.432 
L 262.132364 162.432 
L 258.885818 162.432 
z
" style="fill:#1f77b4;"/>
   </g>
   <g id="patch_61">
    <path clip-path="url(#p0a7c1e4fab)" d="M 262.132364 162.432 
L 265.378909 162.432 
L 265.378909 162.432 
L 262.132364 162.432 
z
" style="fill:#1f77b4;"/>
   </g>
   <g id="patch_62">
    <path clip-path="url(#p0a7c1e4fab)" d="M 265.378909 162.432 
L 268.625455 162.432 
L 268.625455 162.432 
L 265.378909 162.432 
z
" style="fill:#1f77b4;"/>
   </g>
   <g id="patch_63">
    <path clip-path="url(#p0a7c1e4fab)" d="M 268.625455 162.432 
L 271.872 162.432 
L 271.872 162.432 
L 268.625455 162.432 
z
" style="fill:#1f77b4;"/>
   </g>
   <g id="patch_64">
    <path clip-path="url(#p0a7c1e4fab)" d="M 271.872 162.432 
L 275.118545 162.432 
L 275.118545 162.432 
L 271.872 162.432 
z
" style="fill:#1f77b4;"/>
   </g>
   <g id="patch_65">
    <path clip-path="url(#p0a7c1e4fab)" d="M 275.118545 162.432 
L 278.365091 162.432 
L 278.365091 162.432 
L 275.118545 162.432 
z
" style="fill:#1f77b4;"/>
   </g>
   <g id="patch_66">
    <path clip-path="url(#p0a7c1e4fab)" d="M 278.365091 162.432 
L 281.611636 162.432 
L 281.611636 162.432 
L 278.365091 162.432 
z
" style="fill:#1f77b4;"/>
   </g>
   <g id="patch_67">
    <path clip-path="url(#p0a7c1e4fab)" d="M 281.611636 162.432 
L 284.858182 162.432 
L 284.858182 162.432 
L 281.611636 162.432 
z
" style="fill:#1f77b4;"/>
   </g>
   <g id="patch_68">
    <path clip-path="url(#p0a7c1e4fab)" d="M 284.858182 162.432 
L 288.104727 162.432 
L 288.104727 162.432 
L 284.858182 162.432 
z
" style="fill:#1f77b4;"/>
   </g>
   <g id="patch_69">
    <path clip-path="url(#p0a7c1e4fab)" d="M 288.104727 162.432 
L 291.351273 162.432 
L 291.351273 162.432 
L 288.104727 162.432 
z
" style="fill:#1f77b4;"/>
   </g>
   <g id="patch_70">
    <path clip-path="url(#p0a7c1e4fab)" d="M 291.351273 162.432 
L 294.597818 162.432 
L 294.597818 162.432 
L 291.351273 162.432 
z
" style="fill:#1f77b4;"/>
   </g>
   <g id="patch_71">
    <path clip-path="url(#p0a7c1e4fab)" d="M 294.597818 162.432 
L 297.844364 162.432 
L 297.844364 162.432 
L 294.597818 162.432 
z
" style="fill:#1f77b4;"/>
   </g>
   <g id="patch_72">
    <path clip-path="url(#p0a7c1e4fab)" d="M 297.844364 162.432 
L 301.090909 162.432 
L 301.090909 162.432 
L 297.844364 162.432 
z
" style="fill:#1f77b4;"/>
   </g>
   <g id="patch_73">
    <path clip-path="url(#p0a7c1e4fab)" d="M 301.090909 162.432 
L 304.337455 162.432 
L 304.337455 162.432 
L 301.090909 162.432 
z
" style="fill:#1f77b4;"/>
   </g>
   <g id="patch_74">
    <path clip-path="url(#p0a7c1e4fab)" d="M 304.337455 162.432 
L 307.584 162.432 
L 307.584 162.432 
L 304.337455 162.432 
z
" style="fill:#1f77b4;"/>
   </g>
   <g id="patch_75">
    <path clip-path="url(#p0a7c1e4fab)" d="M 307.584 162.432 
L 310.830545 162.432 
L 310.830545 162.432 
L 307.584 162.432 
z
" style="fill:#1f77b4;"/>
   </g>
   <g id="patch_76">
    <path clip-path="url(#p0a7c1e4fab)" d="M 310.830545 162.432 
L 314.077091 162.432 
L 314.077091 162.432 
L 310.830545 162.432 
z
" style="fill:#1f77b4;"/>
   </g>
   <g id="patch_77">
    <path clip-path="url(#p0a7c1e4fab)" d="M 314.077091 162.432 
L 317.323636 162.432 
L 317.323636 162.432 
L 314.077091 162.432 
z
" style="fill:#1f77b4;"/>
   </g>
   <g id="patch_78">
    <path clip-path="url(#p0a7c1e4fab)" d="M 317.323636 162.432 
L 320.570182 162.432 
L 320.570182 162.432 
L 317.323636 162.432 
z
" style="fill:#1f77b4;"/>
   </g>
   <g id="patch_79">
    <path clip-path="url(#p0a7c1e4fab)" d="M 320.570182 162.432 
L 323.816727 162.432 
L 323.816727 162.432 
L 320.570182 162.432 
z
" style="fill:#1f77b4;"/>
   </g>
   <g id="patch_80">
    <path clip-path="url(#p0a7c1e4fab)" d="M 323.816727 162.432 
L 327.063273 162.432 
L 327.063273 162.432 
L 323.816727 162.432 
z
" style="fill:#1f77b4;"/>
   </g>
   <g id="patch_81">
    <path clip-path="url(#p0a7c1e4fab)" d="M 327.063273 162.432 
L 330.309818 162.432 
L 330.309818 162.432 
L 327.063273 162.432 
z
" style="fill:#1f77b4;"/>
   </g>
   <g id="patch_82">
    <path clip-path="url(#p0a7c1e4fab)" d="M 330.309818 162.432 
L 333.556364 162.432 
L 333.556364 162.432 
L 330.309818 162.432 
z
" style="fill:#1f77b4;"/>
   </g>
   <g id="patch_83">
    <path clip-path="url(#p0a7c1e4fab)" d="M 333.556364 162.432 
L 336.802909 162.432 
L 336.802909 162.432 
L 333.556364 162.432 
z
" style="fill:#1f77b4;"/>
   </g>
   <g id="patch_84">
    <path clip-path="url(#p0a7c1e4fab)" d="M 336.802909 162.432 
L 340.049455 162.432 
L 340.049455 162.432 
L 336.802909 162.432 
z
" style="fill:#1f77b4;"/>
   </g>
   <g id="patch_85">
    <path clip-path="url(#p0a7c1e4fab)" d="M 340.049455 162.432 
L 343.296 162.432 
L 343.296 162.432 
L 340.049455 162.432 
z
" style="fill:#1f77b4;"/>
   </g>
   <g id="patch_86">
    <path clip-path="url(#p0a7c1e4fab)" d="M 343.296 162.432 
L 346.542545 162.432 
L 346.542545 162.432 
L 343.296 162.432 
z
" style="fill:#1f77b4;"/>
   </g>
   <g id="patch_87">
    <path clip-path="url(#p0a7c1e4fab)" d="M 346.542545 162.432 
L 349.789091 162.432 
L 349.789091 160.184069 
L 346.542545 160.184069 
z
" style="fill:#1f77b4;"/>
   </g>
   <g id="patch_88">
    <path clip-path="url(#p0a7c1e4fab)" d="M 349.789091 162.432 
L 353.035636 162.432 
L 353.035636 162.432 
L 349.789091 162.432 
z
" style="fill:#1f77b4;"/>
   </g>
   <g id="patch_89">
    <path clip-path="url(#p0a7c1e4fab)" d="M 353.035636 162.432 
L 356.282182 162.432 
L 356.282182 162.432 
L 353.035636 162.432 
z
" style="fill:#1f77b4;"/>
   </g>
   <g id="patch_90">
    <path clip-path="url(#p0a7c1e4fab)" d="M 356.282182 162.432 
L 359.528727 162.432 
L 359.528727 162.432 
L 356.282182 162.432 
z
" style="fill:#1f77b4;"/>
   </g>
   <g id="patch_91">
    <path clip-path="url(#p0a7c1e4fab)" d="M 359.528727 162.432 
L 362.775273 162.432 
L 362.775273 162.432 
L 359.528727 162.432 
z
" style="fill:#1f77b4;"/>
   </g>
   <g id="patch_92">
    <path clip-path="url(#p0a7c1e4fab)" d="M 362.775273 162.432 
L 366.021818 162.432 
L 366.021818 162.432 
L 362.775273 162.432 
z
" style="fill:#1f77b4;"/>
   </g>
   <g id="patch_93">
    <path clip-path="url(#p0a7c1e4fab)" d="M 366.021818 162.432 
L 369.268364 162.432 
L 369.268364 162.432 
L 366.021818 162.432 
z
" style="fill:#1f77b4;"/>
   </g>
   <g id="patch_94">
    <path clip-path="url(#p0a7c1e4fab)" d="M 369.268364 162.432 
L 372.514909 162.432 
L 372.514909 162.432 
L 369.268364 162.432 
z
" style="fill:#1f77b4;"/>
   </g>
   <g id="patch_95">
    <path clip-path="url(#p0a7c1e4fab)" d="M 372.514909 162.432 
L 375.761455 162.432 
L 375.761455 162.432 
L 372.514909 162.432 
z
" style="fill:#1f77b4;"/>
   </g>
   <g id="patch_96">
    <path clip-path="url(#p0a7c1e4fab)" d="M 375.761455 162.432 
L 379.008 162.432 
L 379.008 162.432 
L 375.761455 162.432 
z
" style="fill:#1f77b4;"/>
   </g>
   <g id="patch_97">
    <path clip-path="url(#p0a7c1e4fab)" d="M 379.008 162.432 
L 382.254545 162.432 
L 382.254545 162.432 
L 379.008 162.432 
z
" style="fill:#1f77b4;"/>
   </g>
   <g id="patch_98">
    <path clip-path="url(#p0a7c1e4fab)" d="M 382.254545 162.432 
L 385.501091 162.432 
L 385.501091 162.432 
L 382.254545 162.432 
z
" style="fill:#1f77b4;"/>
   </g>
   <g id="patch_99">
    <path clip-path="url(#p0a7c1e4fab)" d="M 385.501091 162.432 
L 388.747636 162.432 
L 388.747636 162.432 
L 385.501091 162.432 
z
" style="fill:#1f77b4;"/>
   </g>
   <g id="patch_100">
    <path clip-path="url(#p0a7c1e4fab)" d="M 388.747636 162.432 
L 391.994182 162.432 
L 391.994182 162.432 
L 388.747636 162.432 
z
" style="fill:#1f77b4;"/>
   </g>
   <g id="patch_101">
    <path clip-path="url(#p0a7c1e4fab)" d="M 391.994182 162.432 
L 395.240727 162.432 
L 395.240727 162.432 
L 391.994182 162.432 
z
" style="fill:#1f77b4;"/>
   </g>
   <g id="patch_102">
    <path clip-path="url(#p0a7c1e4fab)" d="M 395.240727 162.432 
L 398.487273 162.432 
L 398.487273 160.184069 
L 395.240727 160.184069 
z
" style="fill:#1f77b4;"/>
   </g>
   <g id="matplotlib.axis_1">
    <g id="xtick_1">
     <g id="line2d_1">
      <defs>
       <path d="M 0 0 
L 0 3.5 
" id="m0a8cb6f902" style="stroke:#000000;stroke-width:0.8;"/>
      </defs>
      <g>
       <use style="stroke:#000000;stroke-width:0.8;" x="73.832727" xlink:href="#m0a8cb6f902" y="162.432"/>
      </g>
     </g>
     <g id="text_1">
      <!-- 0 -->
      <defs>
       <path d="M 31.78125 66.40625 
Q 24.171875 66.40625 20.328125 58.90625 
Q 16.5 51.421875 16.5 36.375 
Q 16.5 21.390625 20.328125 13.890625 
Q 24.171875 6.390625 31.78125 6.390625 
Q 39.453125 6.390625 43.28125 13.890625 
Q 47.125 21.390625 47.125 36.375 
Q 47.125 51.421875 43.28125 58.90625 
Q 39.453125 66.40625 31.78125 66.40625 
z
M 31.78125 74.21875 
Q 44.046875 74.21875 50.515625 64.515625 
Q 56.984375 54.828125 56.984375 36.375 
Q 56.984375 17.96875 50.515625 8.265625 
Q 44.046875 -1.421875 31.78125 -1.421875 
Q 19.53125 -1.421875 13.0625 8.265625 
Q 6.59375 17.96875 6.59375 36.375 
Q 6.59375 54.828125 13.0625 64.515625 
Q 19.53125 74.21875 31.78125 74.21875 
z
" id="DejaVuSans-48"/>
      </defs>
      <g transform="translate(70.651477 177.030437)scale(0.1 -0.1)">
       <use xlink:href="#DejaVuSans-48"/>
      </g>
     </g>
    </g>
    <g id="xtick_2">
     <g id="line2d_2">
      <g>
       <use style="stroke:#000000;stroke-width:0.8;" x="124.5204" xlink:href="#m0a8cb6f902" y="162.432"/>
      </g>
     </g>
     <g id="text_2">
      <!-- 20 -->
      <defs>
       <path d="M 19.1875 8.296875 
L 53.609375 8.296875 
L 53.609375 0 
L 7.328125 0 
L 7.328125 8.296875 
Q 12.9375 14.109375 22.625 23.890625 
Q 32.328125 33.6875 34.8125 36.53125 
Q 39.546875 41.84375 41.421875 45.53125 
Q 43.3125 49.21875 43.3125 52.78125 
Q 43.3125 58.59375 39.234375 62.25 
Q 35.15625 65.921875 28.609375 65.921875 
Q 23.96875 65.921875 18.8125 64.3125 
Q 13.671875 62.703125 7.8125 59.421875 
L 7.8125 69.390625 
Q 13.765625 71.78125 18.9375 73 
Q 24.125 74.21875 28.421875 74.21875 
Q 39.75 74.21875 46.484375 68.546875 
Q 53.21875 62.890625 53.21875 53.421875 
Q 53.21875 48.921875 51.53125 44.890625 
Q 49.859375 40.875 45.40625 35.40625 
Q 44.1875 33.984375 37.640625 27.21875 
Q 31.109375 20.453125 19.1875 8.296875 
z
" id="DejaVuSans-50"/>
      </defs>
      <g transform="translate(118.1579 177.030437)scale(0.1 -0.1)">
       <use xlink:href="#DejaVuSans-50"/>
       <use x="63.623047" xlink:href="#DejaVuSans-48"/>
      </g>
     </g>
    </g>
    <g id="xtick_3">
     <g id="line2d_3">
      <g>
       <use style="stroke:#000000;stroke-width:0.8;" x="175.208073" xlink:href="#m0a8cb6f902" y="162.432"/>
      </g>
     </g>
     <g id="text_3">
      <!-- 40 -->
      <defs>
       <path d="M 37.796875 64.3125 
L 12.890625 25.390625 
L 37.796875 25.390625 
z
M 35.203125 72.90625 
L 47.609375 72.90625 
L 47.609375 25.390625 
L 58.015625 25.390625 
L 58.015625 17.1875 
L 47.609375 17.1875 
L 47.609375 0 
L 37.796875 0 
L 37.796875 17.1875 
L 4.890625 17.1875 
L 4.890625 26.703125 
z
" id="DejaVuSans-52"/>
      </defs>
      <g transform="translate(168.845573 177.030437)scale(0.1 -0.1)">
       <use xlink:href="#DejaVuSans-52"/>
       <use x="63.623047" xlink:href="#DejaVuSans-48"/>
      </g>
     </g>
    </g>
    <g id="xtick_4">
     <g id="line2d_4">
      <g>
       <use style="stroke:#000000;stroke-width:0.8;" x="225.895746" xlink:href="#m0a8cb6f902" y="162.432"/>
      </g>
     </g>
     <g id="text_4">
      <!-- 60 -->
      <defs>
       <path d="M 33.015625 40.375 
Q 26.375 40.375 22.484375 35.828125 
Q 18.609375 31.296875 18.609375 23.390625 
Q 18.609375 15.53125 22.484375 10.953125 
Q 26.375 6.390625 33.015625 6.390625 
Q 39.65625 6.390625 43.53125 10.953125 
Q 47.40625 15.53125 47.40625 23.390625 
Q 47.40625 31.296875 43.53125 35.828125 
Q 39.65625 40.375 33.015625 40.375 
z
M 52.59375 71.296875 
L 52.59375 62.3125 
Q 48.875 64.0625 45.09375 64.984375 
Q 41.3125 65.921875 37.59375 65.921875 
Q 27.828125 65.921875 22.671875 59.328125 
Q 17.53125 52.734375 16.796875 39.40625 
Q 19.671875 43.65625 24.015625 45.921875 
Q 28.375 48.1875 33.59375 48.1875 
Q 44.578125 48.1875 50.953125 41.515625 
Q 57.328125 34.859375 57.328125 23.390625 
Q 57.328125 12.15625 50.6875 5.359375 
Q 44.046875 -1.421875 33.015625 -1.421875 
Q 20.359375 -1.421875 13.671875 8.265625 
Q 6.984375 17.96875 6.984375 36.375 
Q 6.984375 53.65625 15.1875 63.9375 
Q 23.390625 74.21875 37.203125 74.21875 
Q 40.921875 74.21875 44.703125 73.484375 
Q 48.484375 72.75 52.59375 71.296875 
z
" id="DejaVuSans-54"/>
      </defs>
      <g transform="translate(219.533246 177.030437)scale(0.1 -0.1)">
       <use xlink:href="#DejaVuSans-54"/>
       <use x="63.623047" xlink:href="#DejaVuSans-48"/>
      </g>
     </g>
    </g>
    <g id="xtick_5">
     <g id="line2d_5">
      <g>
       <use style="stroke:#000000;stroke-width:0.8;" x="276.583419" xlink:href="#m0a8cb6f902" y="162.432"/>
      </g>
     </g>
     <g id="text_5">
      <!-- 80 -->
      <defs>
       <path d="M 31.78125 34.625 
Q 24.75 34.625 20.71875 30.859375 
Q 16.703125 27.09375 16.703125 20.515625 
Q 16.703125 13.921875 20.71875 10.15625 
Q 24.75 6.390625 31.78125 6.390625 
Q 38.8125 6.390625 42.859375 10.171875 
Q 46.921875 13.96875 46.921875 20.515625 
Q 46.921875 27.09375 42.890625 30.859375 
Q 38.875 34.625 31.78125 34.625 
z
M 21.921875 38.8125 
Q 15.578125 40.375 12.03125 44.71875 
Q 8.5 49.078125 8.5 55.328125 
Q 8.5 64.0625 14.71875 69.140625 
Q 20.953125 74.21875 31.78125 74.21875 
Q 42.671875 74.21875 48.875 69.140625 
Q 55.078125 64.0625 55.078125 55.328125 
Q 55.078125 49.078125 51.53125 44.71875 
Q 48 40.375 41.703125 38.8125 
Q 48.828125 37.15625 52.796875 32.3125 
Q 56.78125 27.484375 56.78125 20.515625 
Q 56.78125 9.90625 50.3125 4.234375 
Q 43.84375 -1.421875 31.78125 -1.421875 
Q 19.734375 -1.421875 13.25 4.234375 
Q 6.78125 9.90625 6.78125 20.515625 
Q 6.78125 27.484375 10.78125 32.3125 
Q 14.796875 37.15625 21.921875 38.8125 
z
M 18.3125 54.390625 
Q 18.3125 48.734375 21.84375 45.5625 
Q 25.390625 42.390625 31.78125 42.390625 
Q 38.140625 42.390625 41.71875 45.5625 
Q 45.3125 48.734375 45.3125 54.390625 
Q 45.3125 60.0625 41.71875 63.234375 
Q 38.140625 66.40625 31.78125 66.40625 
Q 25.390625 66.40625 21.84375 63.234375 
Q 18.3125 60.0625 18.3125 54.390625 
z
" id="DejaVuSans-56"/>
      </defs>
      <g transform="translate(270.220919 177.030437)scale(0.1 -0.1)">
       <use xlink:href="#DejaVuSans-56"/>
       <use x="63.623047" xlink:href="#DejaVuSans-48"/>
      </g>
     </g>
    </g>
    <g id="xtick_6">
     <g id="line2d_6">
      <g>
       <use style="stroke:#000000;stroke-width:0.8;" x="327.271092" xlink:href="#m0a8cb6f902" y="162.432"/>
      </g>
     </g>
     <g id="text_6">
      <!-- 100 -->
      <defs>
       <path d="M 12.40625 8.296875 
L 28.515625 8.296875 
L 28.515625 63.921875 
L 10.984375 60.40625 
L 10.984375 69.390625 
L 28.421875 72.90625 
L 38.28125 72.90625 
L 38.28125 8.296875 
L 54.390625 8.296875 
L 54.390625 0 
L 12.40625 0 
z
" id="DejaVuSans-49"/>
      </defs>
      <g transform="translate(317.727342 177.030437)scale(0.1 -0.1)">
       <use xlink:href="#DejaVuSans-49"/>
       <use x="63.623047" xlink:href="#DejaVuSans-48"/>
       <use x="127.246094" xlink:href="#DejaVuSans-48"/>
      </g>
     </g>
    </g>
    <g id="xtick_7">
     <g id="line2d_7">
      <g>
       <use style="stroke:#000000;stroke-width:0.8;" x="377.958765" xlink:href="#m0a8cb6f902" y="162.432"/>
      </g>
     </g>
     <g id="text_7">
      <!-- 120 -->
      <g transform="translate(368.415015 177.030437)scale(0.1 -0.1)">
       <use xlink:href="#DejaVuSans-49"/>
       <use x="63.623047" xlink:href="#DejaVuSans-50"/>
       <use x="127.246094" xlink:href="#DejaVuSans-48"/>
      </g>
     </g>
    </g>
   </g>
   <g id="matplotlib.axis_2">
    <g id="ytick_1">
     <g id="line2d_8">
      <defs>
       <path d="M 0 0 
L -3.5 0 
" id="m2396ee34a4" style="stroke:#000000;stroke-width:0.8;"/>
      </defs>
      <g>
       <use style="stroke:#000000;stroke-width:0.8;" x="57.6" xlink:href="#m2396ee34a4" y="162.432"/>
      </g>
     </g>
     <g id="text_8">
      <!-- 0.00 -->
      <defs>
       <path d="M 10.6875 12.40625 
L 21 12.40625 
L 21 0 
L 10.6875 0 
z
" id="DejaVuSans-46"/>
      </defs>
      <g transform="translate(28.334375 166.231219)scale(0.1 -0.1)">
       <use xlink:href="#DejaVuSans-48"/>
       <use x="63.623047" xlink:href="#DejaVuSans-46"/>
       <use x="95.410156" xlink:href="#DejaVuSans-48"/>
       <use x="159.033203" xlink:href="#DejaVuSans-48"/>
      </g>
     </g>
    </g>
    <g id="ytick_2">
     <g id="line2d_9">
      <g>
       <use style="stroke:#000000;stroke-width:0.8;" x="57.6" xlink:href="#m2396ee34a4" y="133.636009"/>
      </g>
     </g>
     <g id="text_9">
      <!-- 0.05 -->
      <defs>
       <path d="M 10.796875 72.90625 
L 49.515625 72.90625 
L 49.515625 64.59375 
L 19.828125 64.59375 
L 19.828125 46.734375 
Q 21.96875 47.46875 24.109375 47.828125 
Q 26.265625 48.1875 28.421875 48.1875 
Q 40.625 48.1875 47.75 41.5 
Q 54.890625 34.8125 54.890625 23.390625 
Q 54.890625 11.625 47.5625 5.09375 
Q 40.234375 -1.421875 26.90625 -1.421875 
Q 22.3125 -1.421875 17.546875 -0.640625 
Q 12.796875 0.140625 7.71875 1.703125 
L 7.71875 11.625 
Q 12.109375 9.234375 16.796875 8.0625 
Q 21.484375 6.890625 26.703125 6.890625 
Q 35.15625 6.890625 40.078125 11.328125 
Q 45.015625 15.765625 45.015625 23.390625 
Q 45.015625 31 40.078125 35.4375 
Q 35.15625 39.890625 26.703125 39.890625 
Q 22.75 39.890625 18.8125 39.015625 
Q 14.890625 38.140625 10.796875 36.28125 
z
" id="DejaVuSans-53"/>
      </defs>
      <g transform="translate(28.334375 137.435227)scale(0.1 -0.1)">
       <use xlink:href="#DejaVuSans-48"/>
       <use x="63.623047" xlink:href="#DejaVuSans-46"/>
       <use x="95.410156" xlink:href="#DejaVuSans-48"/>
       <use x="159.033203" xlink:href="#DejaVuSans-53"/>
      </g>
     </g>
    </g>
    <g id="ytick_3">
     <g id="line2d_10">
      <g>
       <use style="stroke:#000000;stroke-width:0.8;" x="57.6" xlink:href="#m2396ee34a4" y="104.840017"/>
      </g>
     </g>
     <g id="text_10">
      <!-- 0.10 -->
      <g transform="translate(28.334375 108.639236)scale(0.1 -0.1)">
       <use xlink:href="#DejaVuSans-48"/>
       <use x="63.623047" xlink:href="#DejaVuSans-46"/>
       <use x="95.410156" xlink:href="#DejaVuSans-49"/>
       <use x="159.033203" xlink:href="#DejaVuSans-48"/>
      </g>
     </g>
    </g>
    <g id="ytick_4">
     <g id="line2d_11">
      <g>
       <use style="stroke:#000000;stroke-width:0.8;" x="57.6" xlink:href="#m2396ee34a4" y="76.044026"/>
      </g>
     </g>
     <g id="text_11">
      <!-- 0.15 -->
      <g transform="translate(28.334375 79.843244)scale(0.1 -0.1)">
       <use xlink:href="#DejaVuSans-48"/>
       <use x="63.623047" xlink:href="#DejaVuSans-46"/>
       <use x="95.410156" xlink:href="#DejaVuSans-49"/>
       <use x="159.033203" xlink:href="#DejaVuSans-53"/>
      </g>
     </g>
    </g>
    <g id="ytick_5">
     <g id="line2d_12">
      <g>
       <use style="stroke:#000000;stroke-width:0.8;" x="57.6" xlink:href="#m2396ee34a4" y="47.248034"/>
      </g>
     </g>
     <g id="text_12">
      <!-- 0.20 -->
      <g transform="translate(28.334375 51.047253)scale(0.1 -0.1)">
       <use xlink:href="#DejaVuSans-48"/>
       <use x="63.623047" xlink:href="#DejaVuSans-46"/>
       <use x="95.410156" xlink:href="#DejaVuSans-50"/>
       <use x="159.033203" xlink:href="#DejaVuSans-48"/>
      </g>
     </g>
    </g>
   </g>
   <g id="line2d_13">
    <path clip-path="url(#p0a7c1e4fab)" d="M 73.832727 162.432 
L 74.086419 149.277863 
L 74.593803 98.448346 
L 75.101188 67.378768 
L 75.608572 52.776528 
L 75.862264 49.348919 
L 76.115956 47.649333 
L 76.369648 47.232 
L 76.62334 47.763023 
L 77.130724 50.729365 
L 77.8918 57.730401 
L 81.189797 91.013519 
L 82.458257 101.076172 
L 83.726717 109.50566 
L 84.995178 116.548187 
L 86.263638 122.444904 
L 87.532098 127.40372 
L 88.800559 131.595723 
L 90.322711 135.806589 
L 91.844863 139.299042 
L 93.367016 142.217809 
L 94.889168 144.674732 
L 96.41132 146.756851 
L 98.187165 148.802528 
L 99.963009 150.514712 
L 101.992546 152.145557 
L 104.022082 153.498958 
L 106.305311 154.759231 
L 108.842231 155.903604 
L 111.632844 156.921387 
L 114.930841 157.876785 
L 118.736221 158.731724 
L 123.048986 159.468696 
L 128.37652 160.140678 
L 134.718821 160.708749 
L 142.836967 161.200958 
L 153.492033 161.608307 
L 168.206172 161.93053 
L 190.277381 162.169752 
L 228.077498 162.32793 
L 312.556953 162.410251 
L 327.271092 162.414662 
L 327.271092 162.414662 
" style="fill:none;stroke:#ff7f0e;stroke-linecap:square;stroke-width:1.5;"/>
   </g>
   <g id="line2d_14">
    <path clip-path="url(#p0a7c1e4fab)" d="M 73.832727 158.149001 
L 74.593803 152.32999 
L 76.62334 135.709951 
L 77.638108 129.339286 
L 78.399184 125.644879 
L 79.16026 122.808458 
L 79.921337 120.728565 
L 80.682413 119.296352 
L 81.443489 118.407675 
L 82.204565 117.968424 
L 82.965641 117.896299 
L 83.726717 118.120784 
L 84.487794 118.582265 
L 85.502562 119.481167 
L 86.771022 120.930124 
L 88.546867 123.324956 
L 97.426089 135.852076 
L 99.963009 138.853633 
L 102.49993 141.52509 
L 105.03685 143.88485 
L 107.573771 145.960616 
L 110.364383 147.952323 
L 113.154996 149.676968 
L 116.199301 151.296593 
L 119.497298 152.789809 
L 123.048986 154.144264 
L 126.854367 155.355384 
L 131.167132 156.485087 
L 135.987281 157.505287 
L 141.314814 158.401613 
L 147.403424 159.200205 
L 154.506801 159.907042 
L 163.132331 160.534006 
L 173.787398 161.071882 
L 187.233077 161.514547 
L 204.991521 161.864825 
L 230.614418 162.129785 
L 271.712532 162.307521 
L 327.271092 162.387312 
L 327.271092 162.387312 
" style="fill:none;stroke:#2ca02c;stroke-dasharray:5.55,2.4;stroke-dashoffset:0;stroke-width:1.5;"/>
   </g>
   <g id="patch_103">
    <path d="M 57.6 162.432 
L 57.6 41.472 
" style="fill:none;stroke:#000000;stroke-linecap:square;stroke-linejoin:miter;stroke-width:0.8;"/>
   </g>
   <g id="patch_104">
    <path d="M 414.72 162.432 
L 414.72 41.472 
" style="fill:none;stroke:#000000;stroke-linecap:square;stroke-linejoin:miter;stroke-width:0.8;"/>
   </g>
   <g id="patch_105">
    <path d="M 57.6 162.432 
L 414.72 162.432 
" style="fill:none;stroke:#000000;stroke-linecap:square;stroke-linejoin:miter;stroke-width:0.8;"/>
   </g>
   <g id="patch_106">
    <path d="M 57.6 41.472 
L 414.72 41.472 
" style="fill:none;stroke:#000000;stroke-linecap:square;stroke-linejoin:miter;stroke-width:0.8;"/>
   </g>
   <g id="text_13">
    <!-- E -->
    <defs>
     <path d="M 9.8125 72.90625 
L 55.90625 72.90625 
L 55.90625 64.59375 
L 19.671875 64.59375 
L 19.671875 43.015625 
L 54.390625 43.015625 
L 54.390625 34.71875 
L 19.671875 34.71875 
L 19.671875 8.296875 
L 56.78125 8.296875 
L 56.78125 0 
L 9.8125 0 
z
" id="DejaVuSans-69"/>
    </defs>
    <g transform="translate(232.36875 35.472)scale(0.12 -0.12)">
     <use xlink:href="#DejaVuSans-69"/>
    </g>
   </g>
   <g id="legend_1">
    <g id="patch_107">
     <path d="M 187.487187 78.82825 
L 407.72 78.82825 
Q 409.72 78.82825 409.72 76.82825 
L 409.72 48.472 
Q 409.72 46.472 407.72 46.472 
L 187.487187 46.472 
Q 185.487187 46.472 185.487187 48.472 
L 185.487187 76.82825 
Q 185.487187 78.82825 187.487187 78.82825 
z
" style="fill:#ffffff;opacity:0.8;stroke:#cccccc;stroke-linejoin:miter;"/>
    </g>
    <g id="line2d_15">
     <path d="M 189.487187 54.570437 
L 209.487187 54.570437 
" style="fill:none;stroke:#ff7f0e;stroke-linecap:square;stroke-width:1.5;"/>
    </g>
    <g id="line2d_16"/>
    <g id="text_14">
     <!-- targetDist (Buzsaki &amp; Mizuseki, 2014) -->
     <defs>
      <path d="M 18.3125 70.21875 
L 18.3125 54.6875 
L 36.8125 54.6875 
L 36.8125 47.703125 
L 18.3125 47.703125 
L 18.3125 18.015625 
Q 18.3125 11.328125 20.140625 9.421875 
Q 21.96875 7.515625 27.59375 7.515625 
L 36.8125 7.515625 
L 36.8125 0 
L 27.59375 0 
Q 17.1875 0 13.234375 3.875 
Q 9.28125 7.765625 9.28125 18.015625 
L 9.28125 47.703125 
L 2.6875 47.703125 
L 2.6875 54.6875 
L 9.28125 54.6875 
L 9.28125 70.21875 
z
" id="DejaVuSans-116"/>
      <path d="M 34.28125 27.484375 
Q 23.390625 27.484375 19.1875 25 
Q 14.984375 22.515625 14.984375 16.5 
Q 14.984375 11.71875 18.140625 8.90625 
Q 21.296875 6.109375 26.703125 6.109375 
Q 34.1875 6.109375 38.703125 11.40625 
Q 43.21875 16.703125 43.21875 25.484375 
L 43.21875 27.484375 
z
M 52.203125 31.203125 
L 52.203125 0 
L 43.21875 0 
L 43.21875 8.296875 
Q 40.140625 3.328125 35.546875 0.953125 
Q 30.953125 -1.421875 24.3125 -1.421875 
Q 15.921875 -1.421875 10.953125 3.296875 
Q 6 8.015625 6 15.921875 
Q 6 25.140625 12.171875 29.828125 
Q 18.359375 34.515625 30.609375 34.515625 
L 43.21875 34.515625 
L 43.21875 35.40625 
Q 43.21875 41.609375 39.140625 45 
Q 35.0625 48.390625 27.6875 48.390625 
Q 23 48.390625 18.546875 47.265625 
Q 14.109375 46.140625 10.015625 43.890625 
L 10.015625 52.203125 
Q 14.9375 54.109375 19.578125 55.046875 
Q 24.21875 56 28.609375 56 
Q 40.484375 56 46.34375 49.84375 
Q 52.203125 43.703125 52.203125 31.203125 
z
" id="DejaVuSans-97"/>
      <path d="M 41.109375 46.296875 
Q 39.59375 47.171875 37.8125 47.578125 
Q 36.03125 48 33.890625 48 
Q 26.265625 48 22.1875 43.046875 
Q 18.109375 38.09375 18.109375 28.8125 
L 18.109375 0 
L 9.078125 0 
L 9.078125 54.6875 
L 18.109375 54.6875 
L 18.109375 46.1875 
Q 20.953125 51.171875 25.484375 53.578125 
Q 30.03125 56 36.53125 56 
Q 37.453125 56 38.578125 55.875 
Q 39.703125 55.765625 41.0625 55.515625 
z
" id="DejaVuSans-114"/>
      <path d="M 45.40625 27.984375 
Q 45.40625 37.75 41.375 43.109375 
Q 37.359375 48.484375 30.078125 48.484375 
Q 22.859375 48.484375 18.828125 43.109375 
Q 14.796875 37.75 14.796875 27.984375 
Q 14.796875 18.265625 18.828125 12.890625 
Q 22.859375 7.515625 30.078125 7.515625 
Q 37.359375 7.515625 41.375 12.890625 
Q 45.40625 18.265625 45.40625 27.984375 
z
M 54.390625 6.78125 
Q 54.390625 -7.171875 48.1875 -13.984375 
Q 42 -20.796875 29.203125 -20.796875 
Q 24.46875 -20.796875 20.265625 -20.09375 
Q 16.0625 -19.390625 12.109375 -17.921875 
L 12.109375 -9.1875 
Q 16.0625 -11.328125 19.921875 -12.34375 
Q 23.78125 -13.375 27.78125 -13.375 
Q 36.625 -13.375 41.015625 -8.765625 
Q 45.40625 -4.15625 45.40625 5.171875 
L 45.40625 9.625 
Q 42.625 4.78125 38.28125 2.390625 
Q 33.9375 0 27.875 0 
Q 17.828125 0 11.671875 7.65625 
Q 5.515625 15.328125 5.515625 27.984375 
Q 5.515625 40.671875 11.671875 48.328125 
Q 17.828125 56 27.875 56 
Q 33.9375 56 38.28125 53.609375 
Q 42.625 51.21875 45.40625 46.390625 
L 45.40625 54.6875 
L 54.390625 54.6875 
z
" id="DejaVuSans-103"/>
      <path d="M 56.203125 29.59375 
L 56.203125 25.203125 
L 14.890625 25.203125 
Q 15.484375 15.921875 20.484375 11.0625 
Q 25.484375 6.203125 34.421875 6.203125 
Q 39.59375 6.203125 44.453125 7.46875 
Q 49.3125 8.734375 54.109375 11.28125 
L 54.109375 2.78125 
Q 49.265625 0.734375 44.1875 -0.34375 
Q 39.109375 -1.421875 33.890625 -1.421875 
Q 20.796875 -1.421875 13.15625 6.1875 
Q 5.515625 13.8125 5.515625 26.8125 
Q 5.515625 40.234375 12.765625 48.109375 
Q 20.015625 56 32.328125 56 
Q 43.359375 56 49.78125 48.890625 
Q 56.203125 41.796875 56.203125 29.59375 
z
M 47.21875 32.234375 
Q 47.125 39.59375 43.09375 43.984375 
Q 39.0625 48.390625 32.421875 48.390625 
Q 24.90625 48.390625 20.390625 44.140625 
Q 15.875 39.890625 15.1875 32.171875 
z
" id="DejaVuSans-101"/>
      <path d="M 19.671875 64.796875 
L 19.671875 8.109375 
L 31.59375 8.109375 
Q 46.6875 8.109375 53.6875 14.9375 
Q 60.6875 21.78125 60.6875 36.53125 
Q 60.6875 51.171875 53.6875 57.984375 
Q 46.6875 64.796875 31.59375 64.796875 
z
M 9.8125 72.90625 
L 30.078125 72.90625 
Q 51.265625 72.90625 61.171875 64.09375 
Q 71.09375 55.28125 71.09375 36.53125 
Q 71.09375 17.671875 61.125 8.828125 
Q 51.171875 0 30.078125 0 
L 9.8125 0 
z
" id="DejaVuSans-68"/>
      <path d="M 9.421875 54.6875 
L 18.40625 54.6875 
L 18.40625 0 
L 9.421875 0 
z
M 9.421875 75.984375 
L 18.40625 75.984375 
L 18.40625 64.59375 
L 9.421875 64.59375 
z
" id="DejaVuSans-105"/>
      <path d="M 44.28125 53.078125 
L 44.28125 44.578125 
Q 40.484375 46.53125 36.375 47.5 
Q 32.28125 48.484375 27.875 48.484375 
Q 21.1875 48.484375 17.84375 46.4375 
Q 14.5 44.390625 14.5 40.28125 
Q 14.5 37.15625 16.890625 35.375 
Q 19.28125 33.59375 26.515625 31.984375 
L 29.59375 31.296875 
Q 39.15625 29.25 43.1875 25.515625 
Q 47.21875 21.78125 47.21875 15.09375 
Q 47.21875 7.46875 41.1875 3.015625 
Q 35.15625 -1.421875 24.609375 -1.421875 
Q 20.21875 -1.421875 15.453125 -0.5625 
Q 10.6875 0.296875 5.421875 2 
L 5.421875 11.28125 
Q 10.40625 8.6875 15.234375 7.390625 
Q 20.0625 6.109375 24.8125 6.109375 
Q 31.15625 6.109375 34.5625 8.28125 
Q 37.984375 10.453125 37.984375 14.40625 
Q 37.984375 18.0625 35.515625 20.015625 
Q 33.0625 21.96875 24.703125 23.78125 
L 21.578125 24.515625 
Q 13.234375 26.265625 9.515625 29.90625 
Q 5.8125 33.546875 5.8125 39.890625 
Q 5.8125 47.609375 11.28125 51.796875 
Q 16.75 56 26.8125 56 
Q 31.78125 56 36.171875 55.265625 
Q 40.578125 54.546875 44.28125 53.078125 
z
" id="DejaVuSans-115"/>
      <path id="DejaVuSans-32"/>
      <path d="M 31 75.875 
Q 24.46875 64.65625 21.28125 53.65625 
Q 18.109375 42.671875 18.109375 31.390625 
Q 18.109375 20.125 21.3125 9.0625 
Q 24.515625 -2 31 -13.1875 
L 23.1875 -13.1875 
Q 15.875 -1.703125 12.234375 9.375 
Q 8.59375 20.453125 8.59375 31.390625 
Q 8.59375 42.28125 12.203125 53.3125 
Q 15.828125 64.359375 23.1875 75.875 
z
" id="DejaVuSans-40"/>
      <path d="M 19.671875 34.8125 
L 19.671875 8.109375 
L 35.5 8.109375 
Q 43.453125 8.109375 47.28125 11.40625 
Q 51.125 14.703125 51.125 21.484375 
Q 51.125 28.328125 47.28125 31.5625 
Q 43.453125 34.8125 35.5 34.8125 
z
M 19.671875 64.796875 
L 19.671875 42.828125 
L 34.28125 42.828125 
Q 41.5 42.828125 45.03125 45.53125 
Q 48.578125 48.25 48.578125 53.8125 
Q 48.578125 59.328125 45.03125 62.0625 
Q 41.5 64.796875 34.28125 64.796875 
z
M 9.8125 72.90625 
L 35.015625 72.90625 
Q 46.296875 72.90625 52.390625 68.21875 
Q 58.5 63.53125 58.5 54.890625 
Q 58.5 48.1875 55.375 44.234375 
Q 52.25 40.28125 46.1875 39.3125 
Q 53.46875 37.75 57.5 32.78125 
Q 61.53125 27.828125 61.53125 20.40625 
Q 61.53125 10.640625 54.890625 5.3125 
Q 48.25 0 35.984375 0 
L 9.8125 0 
z
" id="DejaVuSans-66"/>
      <path d="M 8.5 21.578125 
L 8.5 54.6875 
L 17.484375 54.6875 
L 17.484375 21.921875 
Q 17.484375 14.15625 20.5 10.265625 
Q 23.53125 6.390625 29.59375 6.390625 
Q 36.859375 6.390625 41.078125 11.03125 
Q 45.3125 15.671875 45.3125 23.6875 
L 45.3125 54.6875 
L 54.296875 54.6875 
L 54.296875 0 
L 45.3125 0 
L 45.3125 8.40625 
Q 42.046875 3.421875 37.71875 1 
Q 33.40625 -1.421875 27.6875 -1.421875 
Q 18.265625 -1.421875 13.375 4.4375 
Q 8.5 10.296875 8.5 21.578125 
z
M 31.109375 56 
z
" id="DejaVuSans-117"/>
      <path d="M 5.515625 54.6875 
L 48.1875 54.6875 
L 48.1875 46.484375 
L 14.40625 7.171875 
L 48.1875 7.171875 
L 48.1875 0 
L 4.296875 0 
L 4.296875 8.203125 
L 38.09375 47.515625 
L 5.515625 47.515625 
z
" id="DejaVuSans-122"/>
      <path d="M 9.078125 75.984375 
L 18.109375 75.984375 
L 18.109375 31.109375 
L 44.921875 54.6875 
L 56.390625 54.6875 
L 27.390625 29.109375 
L 57.625 0 
L 45.90625 0 
L 18.109375 26.703125 
L 18.109375 0 
L 9.078125 0 
z
" id="DejaVuSans-107"/>
      <path d="M 24.3125 39.203125 
Q 19.875 35.25 17.796875 31.3125 
Q 15.71875 27.390625 15.71875 23.09375 
Q 15.71875 15.96875 20.890625 11.234375 
Q 26.078125 6.5 33.890625 6.5 
Q 38.53125 6.5 42.578125 8.03125 
Q 46.625 9.578125 50.203125 12.703125 
z
M 31.203125 44.671875 
L 56 19.28125 
Q 58.890625 23.640625 60.5 28.59375 
Q 62.109375 33.546875 62.40625 39.109375 
L 71.484375 39.109375 
Q 70.90625 32.671875 68.359375 26.359375 
Q 65.828125 20.0625 61.28125 13.921875 
L 74.90625 0 
L 62.59375 0 
L 55.609375 7.171875 
Q 50.53125 2.828125 44.96875 0.703125 
Q 39.40625 -1.421875 33.015625 -1.421875 
Q 21.234375 -1.421875 13.765625 5.296875 
Q 6.296875 12.015625 6.296875 22.515625 
Q 6.296875 28.765625 9.5625 34.25 
Q 12.84375 39.75 19.390625 44.578125 
Q 17.046875 47.65625 15.8125 50.703125 
Q 14.59375 53.765625 14.59375 56.6875 
Q 14.59375 64.59375 20.015625 69.40625 
Q 25.4375 74.21875 34.421875 74.21875 
Q 38.484375 74.21875 42.5 73.34375 
Q 46.53125 72.46875 50.6875 70.703125 
L 50.6875 61.8125 
Q 46.4375 64.109375 42.578125 65.296875 
Q 38.71875 66.5 35.40625 66.5 
Q 30.28125 66.5 27.078125 63.78125 
Q 23.875 61.078125 23.875 56.78125 
Q 23.875 54.296875 25.3125 51.78125 
Q 26.765625 49.265625 31.203125 44.671875 
z
" id="DejaVuSans-38"/>
      <path d="M 9.8125 72.90625 
L 24.515625 72.90625 
L 43.109375 23.296875 
L 61.8125 72.90625 
L 76.515625 72.90625 
L 76.515625 0 
L 66.890625 0 
L 66.890625 64.015625 
L 48.09375 14.015625 
L 38.1875 14.015625 
L 19.390625 64.015625 
L 19.390625 0 
L 9.8125 0 
z
" id="DejaVuSans-77"/>
      <path d="M 11.71875 12.40625 
L 22.015625 12.40625 
L 22.015625 4 
L 14.015625 -11.625 
L 7.71875 -11.625 
L 11.71875 4 
z
" id="DejaVuSans-44"/>
      <path d="M 8.015625 75.875 
L 15.828125 75.875 
Q 23.140625 64.359375 26.78125 53.3125 
Q 30.421875 42.28125 30.421875 31.390625 
Q 30.421875 20.453125 26.78125 9.375 
Q 23.140625 -1.703125 15.828125 -13.1875 
L 8.015625 -13.1875 
Q 14.5 -2 17.703125 9.0625 
Q 20.90625 20.125 20.90625 31.390625 
Q 20.90625 42.671875 17.703125 53.65625 
Q 14.5 64.65625 8.015625 75.875 
z
" id="DejaVuSans-41"/>
     </defs>
     <g transform="translate(217.487187 58.070437)scale(0.1 -0.1)">
      <use xlink:href="#DejaVuSans-116"/>
      <use x="39.208984" xlink:href="#DejaVuSans-97"/>
      <use x="100.488281" xlink:href="#DejaVuSans-114"/>
      <use x="139.851562" xlink:href="#DejaVuSans-103"/>
      <use x="203.328125" xlink:href="#DejaVuSans-101"/>
      <use x="264.851562" xlink:href="#DejaVuSans-116"/>
      <use x="304.060547" xlink:href="#DejaVuSans-68"/>
      <use x="381.0625" xlink:href="#DejaVuSans-105"/>
      <use x="408.845703" xlink:href="#DejaVuSans-115"/>
      <use x="460.945312" xlink:href="#DejaVuSans-116"/>
      <use x="500.154297" xlink:href="#DejaVuSans-32"/>
      <use x="531.941406" xlink:href="#DejaVuSans-40"/>
      <use x="570.955078" xlink:href="#DejaVuSans-66"/>
      <use x="639.558594" xlink:href="#DejaVuSans-117"/>
      <use x="702.9375" xlink:href="#DejaVuSans-122"/>
      <use x="755.427734" xlink:href="#DejaVuSans-115"/>
      <use x="807.527344" xlink:href="#DejaVuSans-97"/>
      <use x="868.806641" xlink:href="#DejaVuSans-107"/>
      <use x="926.716797" xlink:href="#DejaVuSans-105"/>
      <use x="954.5" xlink:href="#DejaVuSans-32"/>
      <use x="986.287109" xlink:href="#DejaVuSans-38"/>
      <use x="1064.265625" xlink:href="#DejaVuSans-32"/>
      <use x="1096.052734" xlink:href="#DejaVuSans-77"/>
      <use x="1182.332031" xlink:href="#DejaVuSans-105"/>
      <use x="1210.115234" xlink:href="#DejaVuSans-122"/>
      <use x="1262.605469" xlink:href="#DejaVuSans-117"/>
      <use x="1325.984375" xlink:href="#DejaVuSans-115"/>
      <use x="1378.083984" xlink:href="#DejaVuSans-101"/>
      <use x="1439.607422" xlink:href="#DejaVuSans-107"/>
      <use x="1497.517578" xlink:href="#DejaVuSans-105"/>
      <use x="1525.300781" xlink:href="#DejaVuSans-44"/>
      <use x="1557.087891" xlink:href="#DejaVuSans-32"/>
      <use x="1588.875" xlink:href="#DejaVuSans-50"/>
      <use x="1652.498047" xlink:href="#DejaVuSans-48"/>
      <use x="1716.121094" xlink:href="#DejaVuSans-49"/>
      <use x="1779.744141" xlink:href="#DejaVuSans-52"/>
      <use x="1843.367188" xlink:href="#DejaVuSans-41"/>
     </g>
    </g>
    <g id="line2d_17">
     <path d="M 189.487187 69.248562 
L 209.487187 69.248562 
" style="fill:none;stroke:#2ca02c;stroke-dasharray:5.55,2.4;stroke-dashoffset:0;stroke-width:1.5;"/>
    </g>
    <g id="line2d_18"/>
    <g id="text_15">
     <!-- simulatedDist -->
     <defs>
      <path d="M 52 44.1875 
Q 55.375 50.25 60.0625 53.125 
Q 64.75 56 71.09375 56 
Q 79.640625 56 84.28125 50.015625 
Q 88.921875 44.046875 88.921875 33.015625 
L 88.921875 0 
L 79.890625 0 
L 79.890625 32.71875 
Q 79.890625 40.578125 77.09375 44.375 
Q 74.3125 48.1875 68.609375 48.1875 
Q 61.625 48.1875 57.5625 43.546875 
Q 53.515625 38.921875 53.515625 30.90625 
L 53.515625 0 
L 44.484375 0 
L 44.484375 32.71875 
Q 44.484375 40.625 41.703125 44.40625 
Q 38.921875 48.1875 33.109375 48.1875 
Q 26.21875 48.1875 22.15625 43.53125 
Q 18.109375 38.875 18.109375 30.90625 
L 18.109375 0 
L 9.078125 0 
L 9.078125 54.6875 
L 18.109375 54.6875 
L 18.109375 46.1875 
Q 21.1875 51.21875 25.484375 53.609375 
Q 29.78125 56 35.6875 56 
Q 41.65625 56 45.828125 52.96875 
Q 50 49.953125 52 44.1875 
z
" id="DejaVuSans-109"/>
      <path d="M 9.421875 75.984375 
L 18.40625 75.984375 
L 18.40625 0 
L 9.421875 0 
z
" id="DejaVuSans-108"/>
      <path d="M 45.40625 46.390625 
L 45.40625 75.984375 
L 54.390625 75.984375 
L 54.390625 0 
L 45.40625 0 
L 45.40625 8.203125 
Q 42.578125 3.328125 38.25 0.953125 
Q 33.9375 -1.421875 27.875 -1.421875 
Q 17.96875 -1.421875 11.734375 6.484375 
Q 5.515625 14.40625 5.515625 27.296875 
Q 5.515625 40.1875 11.734375 48.09375 
Q 17.96875 56 27.875 56 
Q 33.9375 56 38.25 53.625 
Q 42.578125 51.265625 45.40625 46.390625 
z
M 14.796875 27.296875 
Q 14.796875 17.390625 18.875 11.75 
Q 22.953125 6.109375 30.078125 6.109375 
Q 37.203125 6.109375 41.296875 11.75 
Q 45.40625 17.390625 45.40625 27.296875 
Q 45.40625 37.203125 41.296875 42.84375 
Q 37.203125 48.484375 30.078125 48.484375 
Q 22.953125 48.484375 18.875 42.84375 
Q 14.796875 37.203125 14.796875 27.296875 
z
" id="DejaVuSans-100"/>
     </defs>
     <g transform="translate(217.487187 72.748562)scale(0.1 -0.1)">
      <use xlink:href="#DejaVuSans-115"/>
      <use x="52.099609" xlink:href="#DejaVuSans-105"/>
      <use x="79.882812" xlink:href="#DejaVuSans-109"/>
      <use x="177.294922" xlink:href="#DejaVuSans-117"/>
      <use x="240.673828" xlink:href="#DejaVuSans-108"/>
      <use x="268.457031" xlink:href="#DejaVuSans-97"/>
      <use x="329.736328" xlink:href="#DejaVuSans-116"/>
      <use x="368.945312" xlink:href="#DejaVuSans-101"/>
      <use x="430.46875" xlink:href="#DejaVuSans-100"/>
      <use x="493.945312" xlink:href="#DejaVuSans-68"/>
      <use x="570.947266" xlink:href="#DejaVuSans-105"/>
      <use x="598.730469" xlink:href="#DejaVuSans-115"/>
      <use x="650.830078" xlink:href="#DejaVuSans-116"/>
     </g>
    </g>
   </g>
  </g>
  <g id="axes_2">
   <g id="patch_108">
    <path d="M 57.6 307.584 
L 414.72 307.584 
L 414.72 186.624 
L 57.6 186.624 
z
" style="fill:#ffffff;"/>
   </g>
   <g id="patch_109">
    <path clip-path="url(#pc79abe4c52)" d="M 73.832727 307.584 
L 75.126476 307.584 
L 75.126476 192.384 
L 73.832727 192.384 
z
" style="fill:#1f77b4;"/>
   </g>
   <g id="patch_110">
    <path clip-path="url(#pc79abe4c52)" d="M 75.126476 307.584 
L 76.420224 307.584 
L 76.420224 235.584 
L 75.126476 235.584 
z
" style="fill:#1f77b4;"/>
   </g>
   <g id="patch_111">
    <path clip-path="url(#pc79abe4c52)" d="M 76.420224 307.584 
L 77.713972 307.584 
L 77.713972 249.984 
L 76.420224 249.984 
z
" style="fill:#1f77b4;"/>
   </g>
   <g id="patch_112">
    <path clip-path="url(#pc79abe4c52)" d="M 77.713972 307.584 
L 79.007721 307.584 
L 79.007721 293.184 
L 77.713972 293.184 
z
" style="fill:#1f77b4;"/>
   </g>
   <g id="patch_113">
    <path clip-path="url(#pc79abe4c52)" d="M 79.007721 307.584 
L 80.301469 307.584 
L 80.301469 307.584 
L 79.007721 307.584 
z
" style="fill:#1f77b4;"/>
   </g>
   <g id="patch_114">
    <path clip-path="url(#pc79abe4c52)" d="M 80.301469 307.584 
L 81.595217 307.584 
L 81.595217 293.184 
L 80.301469 293.184 
z
" style="fill:#1f77b4;"/>
   </g>
   <g id="patch_115">
    <path clip-path="url(#pc79abe4c52)" d="M 81.595217 307.584 
L 82.888966 307.584 
L 82.888966 307.584 
L 81.595217 307.584 
z
" style="fill:#1f77b4;"/>
   </g>
   <g id="patch_116">
    <path clip-path="url(#pc79abe4c52)" d="M 82.888966 307.584 
L 84.182714 307.584 
L 84.182714 278.784 
L 82.888966 278.784 
z
" style="fill:#1f77b4;"/>
   </g>
   <g id="patch_117">
    <path clip-path="url(#pc79abe4c52)" d="M 84.182714 307.584 
L 85.476463 307.584 
L 85.476463 307.584 
L 84.182714 307.584 
z
" style="fill:#1f77b4;"/>
   </g>
   <g id="patch_118">
    <path clip-path="url(#pc79abe4c52)" d="M 85.476463 307.584 
L 86.770211 307.584 
L 86.770211 264.384 
L 85.476463 264.384 
z
" style="fill:#1f77b4;"/>
   </g>
   <g id="patch_119">
    <path clip-path="url(#pc79abe4c52)" d="M 86.770211 307.584 
L 88.063959 307.584 
L 88.063959 293.184 
L 86.770211 293.184 
z
" style="fill:#1f77b4;"/>
   </g>
   <g id="patch_120">
    <path clip-path="url(#pc79abe4c52)" d="M 88.063959 307.584 
L 89.357708 307.584 
L 89.357708 278.784 
L 88.063959 278.784 
z
" style="fill:#1f77b4;"/>
   </g>
   <g id="patch_121">
    <path clip-path="url(#pc79abe4c52)" d="M 89.357708 307.584 
L 90.651456 307.584 
L 90.651456 307.584 
L 89.357708 307.584 
z
" style="fill:#1f77b4;"/>
   </g>
   <g id="patch_122">
    <path clip-path="url(#pc79abe4c52)" d="M 90.651456 307.584 
L 91.945204 307.584 
L 91.945204 278.784 
L 90.651456 278.784 
z
" style="fill:#1f77b4;"/>
   </g>
   <g id="patch_123">
    <path clip-path="url(#pc79abe4c52)" d="M 91.945204 307.584 
L 93.238953 307.584 
L 93.238953 293.184 
L 91.945204 293.184 
z
" style="fill:#1f77b4;"/>
   </g>
   <g id="patch_124">
    <path clip-path="url(#pc79abe4c52)" d="M 93.238953 307.584 
L 94.532701 307.584 
L 94.532701 307.584 
L 93.238953 307.584 
z
" style="fill:#1f77b4;"/>
   </g>
   <g id="patch_125">
    <path clip-path="url(#pc79abe4c52)" d="M 94.532701 307.584 
L 95.826449 307.584 
L 95.826449 307.584 
L 94.532701 307.584 
z
" style="fill:#1f77b4;"/>
   </g>
   <g id="patch_126">
    <path clip-path="url(#pc79abe4c52)" d="M 95.826449 307.584 
L 97.120198 307.584 
L 97.120198 307.584 
L 95.826449 307.584 
z
" style="fill:#1f77b4;"/>
   </g>
   <g id="patch_127">
    <path clip-path="url(#pc79abe4c52)" d="M 97.120198 307.584 
L 98.413946 307.584 
L 98.413946 293.184 
L 97.120198 293.184 
z
" style="fill:#1f77b4;"/>
   </g>
   <g id="patch_128">
    <path clip-path="url(#pc79abe4c52)" d="M 98.413946 307.584 
L 99.707695 307.584 
L 99.707695 307.584 
L 98.413946 307.584 
z
" style="fill:#1f77b4;"/>
   </g>
   <g id="patch_129">
    <path clip-path="url(#pc79abe4c52)" d="M 99.707695 307.584 
L 101.001443 307.584 
L 101.001443 278.784 
L 99.707695 278.784 
z
" style="fill:#1f77b4;"/>
   </g>
   <g id="patch_130">
    <path clip-path="url(#pc79abe4c52)" d="M 101.001443 307.584 
L 102.295191 307.584 
L 102.295191 307.584 
L 101.001443 307.584 
z
" style="fill:#1f77b4;"/>
   </g>
   <g id="patch_131">
    <path clip-path="url(#pc79abe4c52)" d="M 102.295191 307.584 
L 103.58894 307.584 
L 103.58894 293.184 
L 102.295191 293.184 
z
" style="fill:#1f77b4;"/>
   </g>
   <g id="patch_132">
    <path clip-path="url(#pc79abe4c52)" d="M 103.58894 307.584 
L 104.882688 307.584 
L 104.882688 278.784 
L 103.58894 278.784 
z
" style="fill:#1f77b4;"/>
   </g>
   <g id="patch_133">
    <path clip-path="url(#pc79abe4c52)" d="M 104.882688 307.584 
L 106.176436 307.584 
L 106.176436 307.584 
L 104.882688 307.584 
z
" style="fill:#1f77b4;"/>
   </g>
   <g id="patch_134">
    <path clip-path="url(#pc79abe4c52)" d="M 106.176436 307.584 
L 107.470185 307.584 
L 107.470185 278.784 
L 106.176436 278.784 
z
" style="fill:#1f77b4;"/>
   </g>
   <g id="patch_135">
    <path clip-path="url(#pc79abe4c52)" d="M 107.470185 307.584 
L 108.763933 307.584 
L 108.763933 307.584 
L 107.470185 307.584 
z
" style="fill:#1f77b4;"/>
   </g>
   <g id="patch_136">
    <path clip-path="url(#pc79abe4c52)" d="M 108.763933 307.584 
L 110.057681 307.584 
L 110.057681 307.584 
L 108.763933 307.584 
z
" style="fill:#1f77b4;"/>
   </g>
   <g id="patch_137">
    <path clip-path="url(#pc79abe4c52)" d="M 110.057681 307.584 
L 111.35143 307.584 
L 111.35143 307.584 
L 110.057681 307.584 
z
" style="fill:#1f77b4;"/>
   </g>
   <g id="patch_138">
    <path clip-path="url(#pc79abe4c52)" d="M 111.35143 307.584 
L 112.645178 307.584 
L 112.645178 307.584 
L 111.35143 307.584 
z
" style="fill:#1f77b4;"/>
   </g>
   <g id="patch_139">
    <path clip-path="url(#pc79abe4c52)" d="M 112.645178 307.584 
L 113.938927 307.584 
L 113.938927 293.184 
L 112.645178 293.184 
z
" style="fill:#1f77b4;"/>
   </g>
   <g id="patch_140">
    <path clip-path="url(#pc79abe4c52)" d="M 113.938927 307.584 
L 115.232675 307.584 
L 115.232675 307.584 
L 113.938927 307.584 
z
" style="fill:#1f77b4;"/>
   </g>
   <g id="patch_141">
    <path clip-path="url(#pc79abe4c52)" d="M 115.232675 307.584 
L 116.526423 307.584 
L 116.526423 307.584 
L 115.232675 307.584 
z
" style="fill:#1f77b4;"/>
   </g>
   <g id="patch_142">
    <path clip-path="url(#pc79abe4c52)" d="M 116.526423 307.584 
L 117.820172 307.584 
L 117.820172 293.184 
L 116.526423 293.184 
z
" style="fill:#1f77b4;"/>
   </g>
   <g id="patch_143">
    <path clip-path="url(#pc79abe4c52)" d="M 117.820172 307.584 
L 119.11392 307.584 
L 119.11392 278.784 
L 117.820172 278.784 
z
" style="fill:#1f77b4;"/>
   </g>
   <g id="patch_144">
    <path clip-path="url(#pc79abe4c52)" d="M 119.11392 307.584 
L 120.407668 307.584 
L 120.407668 307.584 
L 119.11392 307.584 
z
" style="fill:#1f77b4;"/>
   </g>
   <g id="patch_145">
    <path clip-path="url(#pc79abe4c52)" d="M 120.407668 307.584 
L 121.701417 307.584 
L 121.701417 307.584 
L 120.407668 307.584 
z
" style="fill:#1f77b4;"/>
   </g>
   <g id="patch_146">
    <path clip-path="url(#pc79abe4c52)" d="M 121.701417 307.584 
L 122.995165 307.584 
L 122.995165 307.584 
L 121.701417 307.584 
z
" style="fill:#1f77b4;"/>
   </g>
   <g id="patch_147">
    <path clip-path="url(#pc79abe4c52)" d="M 122.995165 307.584 
L 124.288913 307.584 
L 124.288913 307.584 
L 122.995165 307.584 
z
" style="fill:#1f77b4;"/>
   </g>
   <g id="patch_148">
    <path clip-path="url(#pc79abe4c52)" d="M 124.288913 307.584 
L 125.582662 307.584 
L 125.582662 307.584 
L 124.288913 307.584 
z
" style="fill:#1f77b4;"/>
   </g>
   <g id="patch_149">
    <path clip-path="url(#pc79abe4c52)" d="M 125.582662 307.584 
L 126.87641 307.584 
L 126.87641 278.784 
L 125.582662 278.784 
z
" style="fill:#1f77b4;"/>
   </g>
   <g id="patch_150">
    <path clip-path="url(#pc79abe4c52)" d="M 126.87641 307.584 
L 128.170159 307.584 
L 128.170159 307.584 
L 126.87641 307.584 
z
" style="fill:#1f77b4;"/>
   </g>
   <g id="patch_151">
    <path clip-path="url(#pc79abe4c52)" d="M 128.170159 307.584 
L 129.463907 307.584 
L 129.463907 307.584 
L 128.170159 307.584 
z
" style="fill:#1f77b4;"/>
   </g>
   <g id="patch_152">
    <path clip-path="url(#pc79abe4c52)" d="M 129.463907 307.584 
L 130.757655 307.584 
L 130.757655 307.584 
L 129.463907 307.584 
z
" style="fill:#1f77b4;"/>
   </g>
   <g id="patch_153">
    <path clip-path="url(#pc79abe4c52)" d="M 130.757655 307.584 
L 132.051404 307.584 
L 132.051404 307.584 
L 130.757655 307.584 
z
" style="fill:#1f77b4;"/>
   </g>
   <g id="patch_154">
    <path clip-path="url(#pc79abe4c52)" d="M 132.051404 307.584 
L 133.345152 307.584 
L 133.345152 307.584 
L 132.051404 307.584 
z
" style="fill:#1f77b4;"/>
   </g>
   <g id="patch_155">
    <path clip-path="url(#pc79abe4c52)" d="M 133.345152 307.584 
L 134.6389 307.584 
L 134.6389 307.584 
L 133.345152 307.584 
z
" style="fill:#1f77b4;"/>
   </g>
   <g id="patch_156">
    <path clip-path="url(#pc79abe4c52)" d="M 134.6389 307.584 
L 135.932649 307.584 
L 135.932649 307.584 
L 134.6389 307.584 
z
" style="fill:#1f77b4;"/>
   </g>
   <g id="patch_157">
    <path clip-path="url(#pc79abe4c52)" d="M 135.932649 307.584 
L 137.226397 307.584 
L 137.226397 307.584 
L 135.932649 307.584 
z
" style="fill:#1f77b4;"/>
   </g>
   <g id="patch_158">
    <path clip-path="url(#pc79abe4c52)" d="M 137.226397 307.584 
L 138.520145 307.584 
L 138.520145 307.584 
L 137.226397 307.584 
z
" style="fill:#1f77b4;"/>
   </g>
   <g id="patch_159">
    <path clip-path="url(#pc79abe4c52)" d="M 138.520145 307.584 
L 139.813894 307.584 
L 139.813894 307.584 
L 138.520145 307.584 
z
" style="fill:#1f77b4;"/>
   </g>
   <g id="patch_160">
    <path clip-path="url(#pc79abe4c52)" d="M 139.813894 307.584 
L 141.107642 307.584 
L 141.107642 307.584 
L 139.813894 307.584 
z
" style="fill:#1f77b4;"/>
   </g>
   <g id="patch_161">
    <path clip-path="url(#pc79abe4c52)" d="M 141.107642 307.584 
L 142.401391 307.584 
L 142.401391 293.184 
L 141.107642 293.184 
z
" style="fill:#1f77b4;"/>
   </g>
   <g id="patch_162">
    <path clip-path="url(#pc79abe4c52)" d="M 142.401391 307.584 
L 143.695139 307.584 
L 143.695139 307.584 
L 142.401391 307.584 
z
" style="fill:#1f77b4;"/>
   </g>
   <g id="patch_163">
    <path clip-path="url(#pc79abe4c52)" d="M 143.695139 307.584 
L 144.988887 307.584 
L 144.988887 307.584 
L 143.695139 307.584 
z
" style="fill:#1f77b4;"/>
   </g>
   <g id="patch_164">
    <path clip-path="url(#pc79abe4c52)" d="M 144.988887 307.584 
L 146.282636 307.584 
L 146.282636 307.584 
L 144.988887 307.584 
z
" style="fill:#1f77b4;"/>
   </g>
   <g id="patch_165">
    <path clip-path="url(#pc79abe4c52)" d="M 146.282636 307.584 
L 147.576384 307.584 
L 147.576384 307.584 
L 146.282636 307.584 
z
" style="fill:#1f77b4;"/>
   </g>
   <g id="patch_166">
    <path clip-path="url(#pc79abe4c52)" d="M 147.576384 307.584 
L 148.870132 307.584 
L 148.870132 307.584 
L 147.576384 307.584 
z
" style="fill:#1f77b4;"/>
   </g>
   <g id="patch_167">
    <path clip-path="url(#pc79abe4c52)" d="M 148.870132 307.584 
L 150.163881 307.584 
L 150.163881 293.184 
L 148.870132 293.184 
z
" style="fill:#1f77b4;"/>
   </g>
   <g id="patch_168">
    <path clip-path="url(#pc79abe4c52)" d="M 150.163881 307.584 
L 151.457629 307.584 
L 151.457629 307.584 
L 150.163881 307.584 
z
" style="fill:#1f77b4;"/>
   </g>
   <g id="patch_169">
    <path clip-path="url(#pc79abe4c52)" d="M 151.457629 307.584 
L 152.751377 307.584 
L 152.751377 293.184 
L 151.457629 293.184 
z
" style="fill:#1f77b4;"/>
   </g>
   <g id="patch_170">
    <path clip-path="url(#pc79abe4c52)" d="M 152.751377 307.584 
L 154.045126 307.584 
L 154.045126 307.584 
L 152.751377 307.584 
z
" style="fill:#1f77b4;"/>
   </g>
   <g id="patch_171">
    <path clip-path="url(#pc79abe4c52)" d="M 154.045126 307.584 
L 155.338874 307.584 
L 155.338874 307.584 
L 154.045126 307.584 
z
" style="fill:#1f77b4;"/>
   </g>
   <g id="patch_172">
    <path clip-path="url(#pc79abe4c52)" d="M 155.338874 307.584 
L 156.632623 307.584 
L 156.632623 307.584 
L 155.338874 307.584 
z
" style="fill:#1f77b4;"/>
   </g>
   <g id="patch_173">
    <path clip-path="url(#pc79abe4c52)" d="M 156.632623 307.584 
L 157.926371 307.584 
L 157.926371 307.584 
L 156.632623 307.584 
z
" style="fill:#1f77b4;"/>
   </g>
   <g id="patch_174">
    <path clip-path="url(#pc79abe4c52)" d="M 157.926371 307.584 
L 159.220119 307.584 
L 159.220119 307.584 
L 157.926371 307.584 
z
" style="fill:#1f77b4;"/>
   </g>
   <g id="patch_175">
    <path clip-path="url(#pc79abe4c52)" d="M 159.220119 307.584 
L 160.513868 307.584 
L 160.513868 307.584 
L 159.220119 307.584 
z
" style="fill:#1f77b4;"/>
   </g>
   <g id="patch_176">
    <path clip-path="url(#pc79abe4c52)" d="M 160.513868 307.584 
L 161.807616 307.584 
L 161.807616 307.584 
L 160.513868 307.584 
z
" style="fill:#1f77b4;"/>
   </g>
   <g id="patch_177">
    <path clip-path="url(#pc79abe4c52)" d="M 161.807616 307.584 
L 163.101364 307.584 
L 163.101364 307.584 
L 161.807616 307.584 
z
" style="fill:#1f77b4;"/>
   </g>
   <g id="patch_178">
    <path clip-path="url(#pc79abe4c52)" d="M 163.101364 307.584 
L 164.395113 307.584 
L 164.395113 307.584 
L 163.101364 307.584 
z
" style="fill:#1f77b4;"/>
   </g>
   <g id="patch_179">
    <path clip-path="url(#pc79abe4c52)" d="M 164.395113 307.584 
L 165.688861 307.584 
L 165.688861 307.584 
L 164.395113 307.584 
z
" style="fill:#1f77b4;"/>
   </g>
   <g id="patch_180">
    <path clip-path="url(#pc79abe4c52)" d="M 165.688861 307.584 
L 166.982609 307.584 
L 166.982609 293.184 
L 165.688861 293.184 
z
" style="fill:#1f77b4;"/>
   </g>
   <g id="patch_181">
    <path clip-path="url(#pc79abe4c52)" d="M 166.982609 307.584 
L 168.276358 307.584 
L 168.276358 307.584 
L 166.982609 307.584 
z
" style="fill:#1f77b4;"/>
   </g>
   <g id="patch_182">
    <path clip-path="url(#pc79abe4c52)" d="M 168.276358 307.584 
L 169.570106 307.584 
L 169.570106 307.584 
L 168.276358 307.584 
z
" style="fill:#1f77b4;"/>
   </g>
   <g id="patch_183">
    <path clip-path="url(#pc79abe4c52)" d="M 169.570106 307.584 
L 170.863855 307.584 
L 170.863855 307.584 
L 169.570106 307.584 
z
" style="fill:#1f77b4;"/>
   </g>
   <g id="patch_184">
    <path clip-path="url(#pc79abe4c52)" d="M 170.863855 307.584 
L 172.157603 307.584 
L 172.157603 307.584 
L 170.863855 307.584 
z
" style="fill:#1f77b4;"/>
   </g>
   <g id="patch_185">
    <path clip-path="url(#pc79abe4c52)" d="M 172.157603 307.584 
L 173.451351 307.584 
L 173.451351 307.584 
L 172.157603 307.584 
z
" style="fill:#1f77b4;"/>
   </g>
   <g id="patch_186">
    <path clip-path="url(#pc79abe4c52)" d="M 173.451351 307.584 
L 174.7451 307.584 
L 174.7451 307.584 
L 173.451351 307.584 
z
" style="fill:#1f77b4;"/>
   </g>
   <g id="patch_187">
    <path clip-path="url(#pc79abe4c52)" d="M 174.7451 307.584 
L 176.038848 307.584 
L 176.038848 307.584 
L 174.7451 307.584 
z
" style="fill:#1f77b4;"/>
   </g>
   <g id="patch_188">
    <path clip-path="url(#pc79abe4c52)" d="M 176.038848 307.584 
L 177.332596 307.584 
L 177.332596 307.584 
L 176.038848 307.584 
z
" style="fill:#1f77b4;"/>
   </g>
   <g id="patch_189">
    <path clip-path="url(#pc79abe4c52)" d="M 177.332596 307.584 
L 178.626345 307.584 
L 178.626345 307.584 
L 177.332596 307.584 
z
" style="fill:#1f77b4;"/>
   </g>
   <g id="patch_190">
    <path clip-path="url(#pc79abe4c52)" d="M 178.626345 307.584 
L 179.920093 307.584 
L 179.920093 307.584 
L 178.626345 307.584 
z
" style="fill:#1f77b4;"/>
   </g>
   <g id="patch_191">
    <path clip-path="url(#pc79abe4c52)" d="M 179.920093 307.584 
L 181.213841 307.584 
L 181.213841 307.584 
L 179.920093 307.584 
z
" style="fill:#1f77b4;"/>
   </g>
   <g id="patch_192">
    <path clip-path="url(#pc79abe4c52)" d="M 181.213841 307.584 
L 182.50759 307.584 
L 182.50759 307.584 
L 181.213841 307.584 
z
" style="fill:#1f77b4;"/>
   </g>
   <g id="patch_193">
    <path clip-path="url(#pc79abe4c52)" d="M 182.50759 307.584 
L 183.801338 307.584 
L 183.801338 307.584 
L 182.50759 307.584 
z
" style="fill:#1f77b4;"/>
   </g>
   <g id="patch_194">
    <path clip-path="url(#pc79abe4c52)" d="M 183.801338 307.584 
L 185.095087 307.584 
L 185.095087 307.584 
L 183.801338 307.584 
z
" style="fill:#1f77b4;"/>
   </g>
   <g id="patch_195">
    <path clip-path="url(#pc79abe4c52)" d="M 185.095087 307.584 
L 186.388835 307.584 
L 186.388835 307.584 
L 185.095087 307.584 
z
" style="fill:#1f77b4;"/>
   </g>
   <g id="patch_196">
    <path clip-path="url(#pc79abe4c52)" d="M 186.388835 307.584 
L 187.682583 307.584 
L 187.682583 307.584 
L 186.388835 307.584 
z
" style="fill:#1f77b4;"/>
   </g>
   <g id="patch_197">
    <path clip-path="url(#pc79abe4c52)" d="M 187.682583 307.584 
L 188.976332 307.584 
L 188.976332 307.584 
L 187.682583 307.584 
z
" style="fill:#1f77b4;"/>
   </g>
   <g id="patch_198">
    <path clip-path="url(#pc79abe4c52)" d="M 188.976332 307.584 
L 190.27008 307.584 
L 190.27008 307.584 
L 188.976332 307.584 
z
" style="fill:#1f77b4;"/>
   </g>
   <g id="patch_199">
    <path clip-path="url(#pc79abe4c52)" d="M 190.27008 307.584 
L 191.563828 307.584 
L 191.563828 307.584 
L 190.27008 307.584 
z
" style="fill:#1f77b4;"/>
   </g>
   <g id="patch_200">
    <path clip-path="url(#pc79abe4c52)" d="M 191.563828 307.584 
L 192.857577 307.584 
L 192.857577 293.184 
L 191.563828 293.184 
z
" style="fill:#1f77b4;"/>
   </g>
   <g id="patch_201">
    <path clip-path="url(#pc79abe4c52)" d="M 192.857577 307.584 
L 194.151325 307.584 
L 194.151325 307.584 
L 192.857577 307.584 
z
" style="fill:#1f77b4;"/>
   </g>
   <g id="patch_202">
    <path clip-path="url(#pc79abe4c52)" d="M 194.151325 307.584 
L 195.445073 307.584 
L 195.445073 307.584 
L 194.151325 307.584 
z
" style="fill:#1f77b4;"/>
   </g>
   <g id="patch_203">
    <path clip-path="url(#pc79abe4c52)" d="M 195.445073 307.584 
L 196.738822 307.584 
L 196.738822 307.584 
L 195.445073 307.584 
z
" style="fill:#1f77b4;"/>
   </g>
   <g id="patch_204">
    <path clip-path="url(#pc79abe4c52)" d="M 196.738822 307.584 
L 198.03257 307.584 
L 198.03257 307.584 
L 196.738822 307.584 
z
" style="fill:#1f77b4;"/>
   </g>
   <g id="patch_205">
    <path clip-path="url(#pc79abe4c52)" d="M 198.03257 307.584 
L 199.326319 307.584 
L 199.326319 307.584 
L 198.03257 307.584 
z
" style="fill:#1f77b4;"/>
   </g>
   <g id="patch_206">
    <path clip-path="url(#pc79abe4c52)" d="M 199.326319 307.584 
L 200.620067 307.584 
L 200.620067 307.584 
L 199.326319 307.584 
z
" style="fill:#1f77b4;"/>
   </g>
   <g id="patch_207">
    <path clip-path="url(#pc79abe4c52)" d="M 200.620067 307.584 
L 201.913815 307.584 
L 201.913815 307.584 
L 200.620067 307.584 
z
" style="fill:#1f77b4;"/>
   </g>
   <g id="patch_208">
    <path clip-path="url(#pc79abe4c52)" d="M 201.913815 307.584 
L 203.207564 307.584 
L 203.207564 293.184 
L 201.913815 293.184 
z
" style="fill:#1f77b4;"/>
   </g>
   <g id="matplotlib.axis_3">
    <g id="xtick_8">
     <g id="line2d_19">
      <g>
       <use style="stroke:#000000;stroke-width:0.8;" x="73.832727" xlink:href="#m0a8cb6f902" y="307.584"/>
      </g>
     </g>
     <g id="text_16">
      <!-- 0 -->
      <g transform="translate(70.651477 322.182437)scale(0.1 -0.1)">
       <use xlink:href="#DejaVuSans-48"/>
      </g>
     </g>
    </g>
    <g id="xtick_9">
     <g id="line2d_20">
      <g>
       <use style="stroke:#000000;stroke-width:0.8;" x="138.763636" xlink:href="#m0a8cb6f902" y="307.584"/>
      </g>
     </g>
     <g id="text_17">
      <!-- 20 -->
      <g transform="translate(132.401136 322.182437)scale(0.1 -0.1)">
       <use xlink:href="#DejaVuSans-50"/>
       <use x="63.623047" xlink:href="#DejaVuSans-48"/>
      </g>
     </g>
    </g>
    <g id="xtick_10">
     <g id="line2d_21">
      <g>
       <use style="stroke:#000000;stroke-width:0.8;" x="203.694545" xlink:href="#m0a8cb6f902" y="307.584"/>
      </g>
     </g>
     <g id="text_18">
      <!-- 40 -->
      <g transform="translate(197.332045 322.182437)scale(0.1 -0.1)">
       <use xlink:href="#DejaVuSans-52"/>
       <use x="63.623047" xlink:href="#DejaVuSans-48"/>
      </g>
     </g>
    </g>
    <g id="xtick_11">
     <g id="line2d_22">
      <g>
       <use style="stroke:#000000;stroke-width:0.8;" x="268.625455" xlink:href="#m0a8cb6f902" y="307.584"/>
      </g>
     </g>
     <g id="text_19">
      <!-- 60 -->
      <g transform="translate(262.262955 322.182437)scale(0.1 -0.1)">
       <use xlink:href="#DejaVuSans-54"/>
       <use x="63.623047" xlink:href="#DejaVuSans-48"/>
      </g>
     </g>
    </g>
    <g id="xtick_12">
     <g id="line2d_23">
      <g>
       <use style="stroke:#000000;stroke-width:0.8;" x="333.556364" xlink:href="#m0a8cb6f902" y="307.584"/>
      </g>
     </g>
     <g id="text_20">
      <!-- 80 -->
      <g transform="translate(327.193864 322.182437)scale(0.1 -0.1)">
       <use xlink:href="#DejaVuSans-56"/>
       <use x="63.623047" xlink:href="#DejaVuSans-48"/>
      </g>
     </g>
    </g>
    <g id="xtick_13">
     <g id="line2d_24">
      <g>
       <use style="stroke:#000000;stroke-width:0.8;" x="398.487273" xlink:href="#m0a8cb6f902" y="307.584"/>
      </g>
     </g>
     <g id="text_21">
      <!-- 100 -->
      <g transform="translate(388.943523 322.182437)scale(0.1 -0.1)">
       <use xlink:href="#DejaVuSans-49"/>
       <use x="63.623047" xlink:href="#DejaVuSans-48"/>
       <use x="127.246094" xlink:href="#DejaVuSans-48"/>
      </g>
     </g>
    </g>
   </g>
   <g id="matplotlib.axis_4">
    <g id="ytick_6">
     <g id="line2d_25">
      <g>
       <use style="stroke:#000000;stroke-width:0.8;" x="57.6" xlink:href="#m2396ee34a4" y="307.584"/>
      </g>
     </g>
     <g id="text_22">
      <!-- 0.0 -->
      <g transform="translate(34.696875 311.383219)scale(0.1 -0.1)">
       <use xlink:href="#DejaVuSans-48"/>
       <use x="63.623047" xlink:href="#DejaVuSans-46"/>
       <use x="95.410156" xlink:href="#DejaVuSans-48"/>
      </g>
     </g>
    </g>
    <g id="ytick_7">
     <g id="line2d_26">
      <g>
       <use style="stroke:#000000;stroke-width:0.8;" x="57.6" xlink:href="#m2396ee34a4" y="278.892"/>
      </g>
     </g>
     <g id="text_23">
      <!-- 0.1 -->
      <g transform="translate(34.696875 282.691219)scale(0.1 -0.1)">
       <use xlink:href="#DejaVuSans-48"/>
       <use x="63.623047" xlink:href="#DejaVuSans-46"/>
       <use x="95.410156" xlink:href="#DejaVuSans-49"/>
      </g>
     </g>
    </g>
    <g id="ytick_8">
     <g id="line2d_27">
      <g>
       <use style="stroke:#000000;stroke-width:0.8;" x="57.6" xlink:href="#m2396ee34a4" y="250.2"/>
      </g>
     </g>
     <g id="text_24">
      <!-- 0.2 -->
      <g transform="translate(34.696875 253.999219)scale(0.1 -0.1)">
       <use xlink:href="#DejaVuSans-48"/>
       <use x="63.623047" xlink:href="#DejaVuSans-46"/>
       <use x="95.410156" xlink:href="#DejaVuSans-50"/>
      </g>
     </g>
    </g>
    <g id="ytick_9">
     <g id="line2d_28">
      <g>
       <use style="stroke:#000000;stroke-width:0.8;" x="57.6" xlink:href="#m2396ee34a4" y="221.508"/>
      </g>
     </g>
     <g id="text_25">
      <!-- 0.3 -->
      <defs>
       <path d="M 40.578125 39.3125 
Q 47.65625 37.796875 51.625 33 
Q 55.609375 28.21875 55.609375 21.1875 
Q 55.609375 10.40625 48.1875 4.484375 
Q 40.765625 -1.421875 27.09375 -1.421875 
Q 22.515625 -1.421875 17.65625 -0.515625 
Q 12.796875 0.390625 7.625 2.203125 
L 7.625 11.71875 
Q 11.71875 9.328125 16.59375 8.109375 
Q 21.484375 6.890625 26.8125 6.890625 
Q 36.078125 6.890625 40.9375 10.546875 
Q 45.796875 14.203125 45.796875 21.1875 
Q 45.796875 27.640625 41.28125 31.265625 
Q 36.765625 34.90625 28.71875 34.90625 
L 20.21875 34.90625 
L 20.21875 43.015625 
L 29.109375 43.015625 
Q 36.375 43.015625 40.234375 45.921875 
Q 44.09375 48.828125 44.09375 54.296875 
Q 44.09375 59.90625 40.109375 62.90625 
Q 36.140625 65.921875 28.71875 65.921875 
Q 24.65625 65.921875 20.015625 65.03125 
Q 15.375 64.15625 9.8125 62.3125 
L 9.8125 71.09375 
Q 15.4375 72.65625 20.34375 73.4375 
Q 25.25 74.21875 29.59375 74.21875 
Q 40.828125 74.21875 47.359375 69.109375 
Q 53.90625 64.015625 53.90625 55.328125 
Q 53.90625 49.265625 50.4375 45.09375 
Q 46.96875 40.921875 40.578125 39.3125 
z
" id="DejaVuSans-51"/>
      </defs>
      <g transform="translate(34.696875 225.307219)scale(0.1 -0.1)">
       <use xlink:href="#DejaVuSans-48"/>
       <use x="63.623047" xlink:href="#DejaVuSans-46"/>
       <use x="95.410156" xlink:href="#DejaVuSans-51"/>
      </g>
     </g>
    </g>
    <g id="ytick_10">
     <g id="line2d_29">
      <g>
       <use style="stroke:#000000;stroke-width:0.8;" x="57.6" xlink:href="#m2396ee34a4" y="192.816"/>
      </g>
     </g>
     <g id="text_26">
      <!-- 0.4 -->
      <g transform="translate(34.696875 196.615219)scale(0.1 -0.1)">
       <use xlink:href="#DejaVuSans-48"/>
       <use x="63.623047" xlink:href="#DejaVuSans-46"/>
       <use x="95.410156" xlink:href="#DejaVuSans-52"/>
      </g>
     </g>
    </g>
   </g>
   <g id="line2d_30">
    <path clip-path="url(#pc79abe4c52)" d="M 73.832727 307.584 
L 74.157707 301.030683 
L 74.807666 275.707706 
L 75.457625 260.229018 
L 75.782604 255.818641 
L 76.107584 252.954264 
L 76.432563 251.246649 
L 76.757543 250.399925 
L 77.082523 250.192012 
L 77.407502 250.456564 
L 77.732482 251.068714 
L 78.382441 252.982395 
L 79.682359 258.092785 
L 82.282195 268.569076 
L 83.907093 274.113518 
L 85.53199 278.787717 
L 87.156888 282.695707 
L 88.781785 285.962309 
L 90.406683 288.701737 
L 92.031581 291.010131 
L 93.656478 292.96586 
L 95.606355 294.935162 
L 97.556233 296.572707 
L 99.50611 297.944615 
L 101.780966 299.277105 
L 104.380803 300.521273 
L 107.305618 301.646874 
L 110.555414 302.639652 
L 114.130188 303.497542 
L 118.354922 304.279728 
L 123.554595 304.997678 
L 129.729206 305.610881 
L 137.528714 306.14454 
L 147.603079 306.591036 
L 160.92724 306.945361 
L 180.426011 307.222019 
L 211.624046 307.416417 
L 272.070238 307.53273 
L 398.487273 307.575362 
L 398.487273 307.575362 
" style="fill:none;stroke:#ff7f0e;stroke-linecap:square;stroke-width:1.5;"/>
   </g>
   <g id="line2d_31">
    <path clip-path="url(#pc79abe4c52)" d="M 73.832727 307.584 
L 74.482686 218.978555 
L 74.807666 217.791499 
L 75.457625 228.359443 
L 76.432563 243.646954 
L 77.407502 254.803186 
L 78.382441 263.00343 
L 79.357379 269.229684 
L 80.332318 274.098688 
L 81.307256 278.000385 
L 82.282195 281.190274 
L 83.582113 284.628426 
L 84.882031 287.380691 
L 86.181949 289.627802 
L 87.481867 291.492654 
L 89.106765 293.415402 
L 90.731663 294.992537 
L 92.68154 296.542235 
L 94.631417 297.808817 
L 96.906274 299.017676 
L 99.50611 300.133677 
L 102.430925 301.139045 
L 106.0057 302.107046 
L 109.905455 302.9289 
L 114.780147 303.716302 
L 120.629779 304.420917 
L 127.779328 305.047564 
L 136.878755 305.608535 
L 148.578018 306.094582 
L 164.177035 306.509035 
L 186.275643 306.857435 
L 219.098575 307.134088 
L 273.045176 307.342425 
L 375.738706 307.48287 
L 398.487273 307.497671 
L 398.487273 307.497671 
" style="fill:none;stroke:#2ca02c;stroke-dasharray:5.55,2.4;stroke-dashoffset:0;stroke-width:1.5;"/>
   </g>
   <g id="patch_209">
    <path d="M 57.6 307.584 
L 57.6 186.624 
" style="fill:none;stroke:#000000;stroke-linecap:square;stroke-linejoin:miter;stroke-width:0.8;"/>
   </g>
   <g id="patch_210">
    <path d="M 414.72 307.584 
L 414.72 186.624 
" style="fill:none;stroke:#000000;stroke-linecap:square;stroke-linejoin:miter;stroke-width:0.8;"/>
   </g>
   <g id="patch_211">
    <path d="M 57.6 307.584 
L 414.72 307.584 
" style="fill:none;stroke:#000000;stroke-linecap:square;stroke-linejoin:miter;stroke-width:0.8;"/>
   </g>
   <g id="patch_212">
    <path d="M 57.6 186.624 
L 414.72 186.624 
" style="fill:none;stroke:#000000;stroke-linecap:square;stroke-linejoin:miter;stroke-width:0.8;"/>
   </g>
   <g id="text_27">
    <!-- I -->
    <defs>
     <path d="M 9.8125 72.90625 
L 19.671875 72.90625 
L 19.671875 0 
L 9.8125 0 
z
" id="DejaVuSans-73"/>
    </defs>
    <g transform="translate(234.39 180.624)scale(0.12 -0.12)">
     <use xlink:href="#DejaVuSans-73"/>
    </g>
   </g>
   <g id="legend_2">
    <g id="patch_213">
     <path d="M 187.487187 223.98025 
L 407.72 223.98025 
Q 409.72 223.98025 409.72 221.98025 
L 409.72 193.624 
Q 409.72 191.624 407.72 191.624 
L 187.487187 191.624 
Q 185.487187 191.624 185.487187 193.624 
L 185.487187 221.98025 
Q 185.487187 223.98025 187.487187 223.98025 
z
" style="fill:#ffffff;opacity:0.8;stroke:#cccccc;stroke-linejoin:miter;"/>
    </g>
    <g id="line2d_32">
     <path d="M 189.487187 199.722437 
L 209.487187 199.722437 
" style="fill:none;stroke:#ff7f0e;stroke-linecap:square;stroke-width:1.5;"/>
    </g>
    <g id="line2d_33"/>
    <g id="text_28">
     <!-- targetDist (Buzsaki &amp; Mizuseki, 2014) -->
     <g transform="translate(217.487187 203.222437)scale(0.1 -0.1)">
      <use xlink:href="#DejaVuSans-116"/>
      <use x="39.208984" xlink:href="#DejaVuSans-97"/>
      <use x="100.488281" xlink:href="#DejaVuSans-114"/>
      <use x="139.851562" xlink:href="#DejaVuSans-103"/>
      <use x="203.328125" xlink:href="#DejaVuSans-101"/>
      <use x="264.851562" xlink:href="#DejaVuSans-116"/>
      <use x="304.060547" xlink:href="#DejaVuSans-68"/>
      <use x="381.0625" xlink:href="#DejaVuSans-105"/>
      <use x="408.845703" xlink:href="#DejaVuSans-115"/>
      <use x="460.945312" xlink:href="#DejaVuSans-116"/>
      <use x="500.154297" xlink:href="#DejaVuSans-32"/>
      <use x="531.941406" xlink:href="#DejaVuSans-40"/>
      <use x="570.955078" xlink:href="#DejaVuSans-66"/>
      <use x="639.558594" xlink:href="#DejaVuSans-117"/>
      <use x="702.9375" xlink:href="#DejaVuSans-122"/>
      <use x="755.427734" xlink:href="#DejaVuSans-115"/>
      <use x="807.527344" xlink:href="#DejaVuSans-97"/>
      <use x="868.806641" xlink:href="#DejaVuSans-107"/>
      <use x="926.716797" xlink:href="#DejaVuSans-105"/>
      <use x="954.5" xlink:href="#DejaVuSans-32"/>
      <use x="986.287109" xlink:href="#DejaVuSans-38"/>
      <use x="1064.265625" xlink:href="#DejaVuSans-32"/>
      <use x="1096.052734" xlink:href="#DejaVuSans-77"/>
      <use x="1182.332031" xlink:href="#DejaVuSans-105"/>
      <use x="1210.115234" xlink:href="#DejaVuSans-122"/>
      <use x="1262.605469" xlink:href="#DejaVuSans-117"/>
      <use x="1325.984375" xlink:href="#DejaVuSans-115"/>
      <use x="1378.083984" xlink:href="#DejaVuSans-101"/>
      <use x="1439.607422" xlink:href="#DejaVuSans-107"/>
      <use x="1497.517578" xlink:href="#DejaVuSans-105"/>
      <use x="1525.300781" xlink:href="#DejaVuSans-44"/>
      <use x="1557.087891" xlink:href="#DejaVuSans-32"/>
      <use x="1588.875" xlink:href="#DejaVuSans-50"/>
      <use x="1652.498047" xlink:href="#DejaVuSans-48"/>
      <use x="1716.121094" xlink:href="#DejaVuSans-49"/>
      <use x="1779.744141" xlink:href="#DejaVuSans-52"/>
      <use x="1843.367188" xlink:href="#DejaVuSans-41"/>
     </g>
    </g>
    <g id="line2d_34">
     <path d="M 189.487187 214.400562 
L 209.487187 214.400562 
" style="fill:none;stroke:#2ca02c;stroke-dasharray:5.55,2.4;stroke-dashoffset:0;stroke-width:1.5;"/>
    </g>
    <g id="line2d_35"/>
    <g id="text_29">
     <!-- simulatedDist -->
     <g transform="translate(217.487187 217.900562)scale(0.1 -0.1)">
      <use xlink:href="#DejaVuSans-115"/>
      <use x="52.099609" xlink:href="#DejaVuSans-105"/>
      <use x="79.882812" xlink:href="#DejaVuSans-109"/>
      <use x="177.294922" xlink:href="#DejaVuSans-117"/>
      <use x="240.673828" xlink:href="#DejaVuSans-108"/>
      <use x="268.457031" xlink:href="#DejaVuSans-97"/>
      <use x="329.736328" xlink:href="#DejaVuSans-116"/>
      <use x="368.945312" xlink:href="#DejaVuSans-101"/>
      <use x="430.46875" xlink:href="#DejaVuSans-100"/>
      <use x="493.945312" xlink:href="#DejaVuSans-68"/>
      <use x="570.947266" xlink:href="#DejaVuSans-105"/>
      <use x="598.730469" xlink:href="#DejaVuSans-115"/>
      <use x="650.830078" xlink:href="#DejaVuSans-116"/>
     </g>
    </g>
   </g>
  </g>
 </g>
 <defs>
  <clipPath id="p0a7c1e4fab">
   <rect height="120.96" width="357.12" x="57.6" y="41.472"/>
  </clipPath>
  <clipPath id="pc79abe4c52">
   <rect height="120.96" width="357.12" x="57.6" y="186.624"/>
  </clipPath>
 </defs>
</svg>
