<?xml version="1.0" encoding="utf-8" standalone="no"?>
<!DOCTYPE svg PUBLIC "-//W3C//DTD SVG 1.1//EN"
  "http://www.w3.org/Graphics/SVG/1.1/DTD/svg11.dtd">
<!-- Created with matplotlib (https://matplotlib.org/) -->
<svg height="345.6pt" version="1.1" viewBox="0 0 460.8 345.6" width="460.8pt" xmlns="http://www.w3.org/2000/svg" xmlns:xlink="http://www.w3.org/1999/xlink">
 <defs>
  <style type="text/css">
*{stroke-linecap:butt;stroke-linejoin:round;}
  </style>
 </defs>
 <g id="figure_1">
  <g id="patch_1">
   <path d="M 0 345.6 
L 460.8 345.6 
L 460.8 0 
L 0 0 
z
" style="fill:#ffffff;"/>
  </g>
  <g id="axes_1">
   <g id="patch_2">
    <path d="M 57.6 162.432 
L 414.72 162.432 
L 414.72 41.472 
L 57.6 41.472 
z
" style="fill:#ffffff;"/>
   </g>
   <g id="patch_3">
    <path clip-path="url(#p8617960971)" d="M 73.995055 162.432 
L 76.214068 162.432 
L 76.214068 149.79294 
L 73.995055 149.79294 
z
" style="fill:#1f77b4;"/>
   </g>
   <g id="patch_4">
    <path clip-path="url(#p8617960971)" d="M 76.214068 162.432 
L 78.433082 162.432 
L 78.433082 149.79294 
L 76.214068 149.79294 
z
" style="fill:#1f77b4;"/>
   </g>
   <g id="patch_5">
    <path clip-path="url(#p8617960971)" d="M 78.433082 162.432 
L 80.652096 162.432 
L 80.652096 149.79294 
L 78.433082 149.79294 
z
" style="fill:#1f77b4;"/>
   </g>
   <g id="patch_6">
    <path clip-path="url(#p8617960971)" d="M 80.652096 162.432 
L 82.87111 162.432 
L 82.87111 128.72784 
L 80.652096 128.72784 
z
" style="fill:#1f77b4;"/>
   </g>
   <g id="patch_7">
    <path clip-path="url(#p8617960971)" d="M 82.87111 162.432 
L 85.090124 162.432 
L 85.090124 132.94086 
L 82.87111 132.94086 
z
" style="fill:#1f77b4;"/>
   </g>
   <g id="patch_8">
    <path clip-path="url(#p8617960971)" d="M 85.090124 162.432 
L 87.309137 162.432 
L 87.309137 124.51482 
L 85.090124 124.51482 
z
" style="fill:#1f77b4;"/>
   </g>
   <g id="patch_9">
    <path clip-path="url(#p8617960971)" d="M 87.309137 162.432 
L 89.528151 162.432 
L 89.528151 90.810661 
L 87.309137 90.810661 
z
" style="fill:#1f77b4;"/>
   </g>
   <g id="patch_10">
    <path clip-path="url(#p8617960971)" d="M 89.528151 162.432 
L 91.747165 162.432 
L 91.747165 73.958581 
L 89.528151 73.958581 
z
" style="fill:#1f77b4;"/>
   </g>
   <g id="patch_11">
    <path clip-path="url(#p8617960971)" d="M 91.747165 162.432 
L 93.966179 162.432 
L 93.966179 73.958581 
L 91.747165 73.958581 
z
" style="fill:#1f77b4;"/>
   </g>
   <g id="patch_12">
    <path clip-path="url(#p8617960971)" d="M 93.966179 162.432 
L 96.185193 162.432 
L 96.185193 73.958581 
L 93.966179 73.958581 
z
" style="fill:#1f77b4;"/>
   </g>
   <g id="patch_13">
    <path clip-path="url(#p8617960971)" d="M 96.185193 162.432 
L 98.404207 162.432 
L 98.404207 107.66274 
L 96.185193 107.66274 
z
" style="fill:#1f77b4;"/>
   </g>
   <g id="patch_14">
    <path clip-path="url(#p8617960971)" d="M 98.404207 162.432 
L 100.62322 162.432 
L 100.62322 116.08878 
L 98.404207 116.08878 
z
" style="fill:#1f77b4;"/>
   </g>
   <g id="patch_15">
    <path clip-path="url(#p8617960971)" d="M 100.62322 162.432 
L 102.842234 162.432 
L 102.842234 137.15388 
L 100.62322 137.15388 
z
" style="fill:#1f77b4;"/>
   </g>
   <g id="patch_16">
    <path clip-path="url(#p8617960971)" d="M 102.842234 162.432 
L 105.061248 162.432 
L 105.061248 128.72784 
L 102.842234 128.72784 
z
" style="fill:#1f77b4;"/>
   </g>
   <g id="patch_17">
    <path clip-path="url(#p8617960971)" d="M 105.061248 162.432 
L 107.280262 162.432 
L 107.280262 128.72784 
L 105.061248 128.72784 
z
" style="fill:#1f77b4;"/>
   </g>
   <g id="patch_18">
    <path clip-path="url(#p8617960971)" d="M 107.280262 162.432 
L 109.499276 162.432 
L 109.499276 137.15388 
L 107.280262 137.15388 
z
" style="fill:#1f77b4;"/>
   </g>
   <g id="patch_19">
    <path clip-path="url(#p8617960971)" d="M 109.499276 162.432 
L 111.718289 162.432 
L 111.718289 137.15388 
L 109.499276 137.15388 
z
" style="fill:#1f77b4;"/>
   </g>
   <g id="patch_20">
    <path clip-path="url(#p8617960971)" d="M 111.718289 162.432 
L 113.937303 162.432 
L 113.937303 145.57992 
L 111.718289 145.57992 
z
" style="fill:#1f77b4;"/>
   </g>
   <g id="patch_21">
    <path clip-path="url(#p8617960971)" d="M 113.937303 162.432 
L 116.156317 162.432 
L 116.156317 154.00596 
L 113.937303 154.00596 
z
" style="fill:#1f77b4;"/>
   </g>
   <g id="patch_22">
    <path clip-path="url(#p8617960971)" d="M 116.156317 162.432 
L 118.375331 162.432 
L 118.375331 137.15388 
L 116.156317 137.15388 
z
" style="fill:#1f77b4;"/>
   </g>
   <g id="patch_23">
    <path clip-path="url(#p8617960971)" d="M 118.375331 162.432 
L 120.594345 162.432 
L 120.594345 158.21898 
L 118.375331 158.21898 
z
" style="fill:#1f77b4;"/>
   </g>
   <g id="patch_24">
    <path clip-path="url(#p8617960971)" d="M 120.594345 162.432 
L 122.813359 162.432 
L 122.813359 154.00596 
L 120.594345 154.00596 
z
" style="fill:#1f77b4;"/>
   </g>
   <g id="patch_25">
    <path clip-path="url(#p8617960971)" d="M 122.813359 162.432 
L 125.032372 162.432 
L 125.032372 154.00596 
L 122.813359 154.00596 
z
" style="fill:#1f77b4;"/>
   </g>
   <g id="patch_26">
    <path clip-path="url(#p8617960971)" d="M 125.032372 162.432 
L 127.251386 162.432 
L 127.251386 158.21898 
L 125.032372 158.21898 
z
" style="fill:#1f77b4;"/>
   </g>
   <g id="patch_27">
    <path clip-path="url(#p8617960971)" d="M 127.251386 162.432 
L 129.4704 162.432 
L 129.4704 162.432 
L 127.251386 162.432 
z
" style="fill:#1f77b4;"/>
   </g>
   <g id="patch_28">
    <path clip-path="url(#p8617960971)" d="M 129.4704 162.432 
L 131.689414 162.432 
L 131.689414 154.00596 
L 129.4704 154.00596 
z
" style="fill:#1f77b4;"/>
   </g>
   <g id="patch_29">
    <path clip-path="url(#p8617960971)" d="M 131.689414 162.432 
L 133.908428 162.432 
L 133.908428 162.432 
L 131.689414 162.432 
z
" style="fill:#1f77b4;"/>
   </g>
   <g id="patch_30">
    <path clip-path="url(#p8617960971)" d="M 133.908428 162.432 
L 136.127441 162.432 
L 136.127441 162.432 
L 133.908428 162.432 
z
" style="fill:#1f77b4;"/>
   </g>
   <g id="patch_31">
    <path clip-path="url(#p8617960971)" d="M 136.127441 162.432 
L 138.346455 162.432 
L 138.346455 154.00596 
L 136.127441 154.00596 
z
" style="fill:#1f77b4;"/>
   </g>
   <g id="patch_32">
    <path clip-path="url(#p8617960971)" d="M 138.346455 162.432 
L 140.565469 162.432 
L 140.565469 162.432 
L 138.346455 162.432 
z
" style="fill:#1f77b4;"/>
   </g>
   <g id="patch_33">
    <path clip-path="url(#p8617960971)" d="M 140.565469 162.432 
L 142.784483 162.432 
L 142.784483 162.432 
L 140.565469 162.432 
z
" style="fill:#1f77b4;"/>
   </g>
   <g id="patch_34">
    <path clip-path="url(#p8617960971)" d="M 142.784483 162.432 
L 145.003497 162.432 
L 145.003497 162.432 
L 142.784483 162.432 
z
" style="fill:#1f77b4;"/>
   </g>
   <g id="patch_35">
    <path clip-path="url(#p8617960971)" d="M 145.003497 162.432 
L 147.222511 162.432 
L 147.222511 162.432 
L 145.003497 162.432 
z
" style="fill:#1f77b4;"/>
   </g>
   <g id="patch_36">
    <path clip-path="url(#p8617960971)" d="M 147.222511 162.432 
L 149.441524 162.432 
L 149.441524 158.21898 
L 147.222511 158.21898 
z
" style="fill:#1f77b4;"/>
   </g>
   <g id="patch_37">
    <path clip-path="url(#p8617960971)" d="M 149.441524 162.432 
L 151.660538 162.432 
L 151.660538 162.432 
L 149.441524 162.432 
z
" style="fill:#1f77b4;"/>
   </g>
   <g id="patch_38">
    <path clip-path="url(#p8617960971)" d="M 151.660538 162.432 
L 153.879552 162.432 
L 153.879552 158.21898 
L 151.660538 158.21898 
z
" style="fill:#1f77b4;"/>
   </g>
   <g id="patch_39">
    <path clip-path="url(#p8617960971)" d="M 153.879552 162.432 
L 156.098566 162.432 
L 156.098566 162.432 
L 153.879552 162.432 
z
" style="fill:#1f77b4;"/>
   </g>
   <g id="patch_40">
    <path clip-path="url(#p8617960971)" d="M 156.098566 162.432 
L 158.31758 162.432 
L 158.31758 162.432 
L 156.098566 162.432 
z
" style="fill:#1f77b4;"/>
   </g>
   <g id="patch_41">
    <path clip-path="url(#p8617960971)" d="M 158.31758 162.432 
L 160.536593 162.432 
L 160.536593 162.432 
L 158.31758 162.432 
z
" style="fill:#1f77b4;"/>
   </g>
   <g id="patch_42">
    <path clip-path="url(#p8617960971)" d="M 160.536593 162.432 
L 162.755607 162.432 
L 162.755607 162.432 
L 160.536593 162.432 
z
" style="fill:#1f77b4;"/>
   </g>
   <g id="patch_43">
    <path clip-path="url(#p8617960971)" d="M 162.755607 162.432 
L 164.974621 162.432 
L 164.974621 162.432 
L 162.755607 162.432 
z
" style="fill:#1f77b4;"/>
   </g>
   <g id="patch_44">
    <path clip-path="url(#p8617960971)" d="M 164.974621 162.432 
L 167.193635 162.432 
L 167.193635 158.21898 
L 164.974621 158.21898 
z
" style="fill:#1f77b4;"/>
   </g>
   <g id="patch_45">
    <path clip-path="url(#p8617960971)" d="M 167.193635 162.432 
L 169.412649 162.432 
L 169.412649 162.432 
L 167.193635 162.432 
z
" style="fill:#1f77b4;"/>
   </g>
   <g id="patch_46">
    <path clip-path="url(#p8617960971)" d="M 169.412649 162.432 
L 171.631663 162.432 
L 171.631663 162.432 
L 169.412649 162.432 
z
" style="fill:#1f77b4;"/>
   </g>
   <g id="patch_47">
    <path clip-path="url(#p8617960971)" d="M 171.631663 162.432 
L 173.850676 162.432 
L 173.850676 162.432 
L 171.631663 162.432 
z
" style="fill:#1f77b4;"/>
   </g>
   <g id="patch_48">
    <path clip-path="url(#p8617960971)" d="M 173.850676 162.432 
L 176.06969 162.432 
L 176.06969 158.21898 
L 173.850676 158.21898 
z
" style="fill:#1f77b4;"/>
   </g>
   <g id="patch_49">
    <path clip-path="url(#p8617960971)" d="M 176.06969 162.432 
L 178.288704 162.432 
L 178.288704 158.21898 
L 176.06969 158.21898 
z
" style="fill:#1f77b4;"/>
   </g>
   <g id="patch_50">
    <path clip-path="url(#p8617960971)" d="M 178.288704 162.432 
L 180.507718 162.432 
L 180.507718 162.432 
L 178.288704 162.432 
z
" style="fill:#1f77b4;"/>
   </g>
   <g id="patch_51">
    <path clip-path="url(#p8617960971)" d="M 180.507718 162.432 
L 182.726732 162.432 
L 182.726732 162.432 
L 180.507718 162.432 
z
" style="fill:#1f77b4;"/>
   </g>
   <g id="patch_52">
    <path clip-path="url(#p8617960971)" d="M 182.726732 162.432 
L 184.945745 162.432 
L 184.945745 162.432 
L 182.726732 162.432 
z
" style="fill:#1f77b4;"/>
   </g>
   <g id="patch_53">
    <path clip-path="url(#p8617960971)" d="M 184.945745 162.432 
L 187.164759 162.432 
L 187.164759 162.432 
L 184.945745 162.432 
z
" style="fill:#1f77b4;"/>
   </g>
   <g id="patch_54">
    <path clip-path="url(#p8617960971)" d="M 187.164759 162.432 
L 189.383773 162.432 
L 189.383773 162.432 
L 187.164759 162.432 
z
" style="fill:#1f77b4;"/>
   </g>
   <g id="patch_55">
    <path clip-path="url(#p8617960971)" d="M 189.383773 162.432 
L 191.602787 162.432 
L 191.602787 162.432 
L 189.383773 162.432 
z
" style="fill:#1f77b4;"/>
   </g>
   <g id="patch_56">
    <path clip-path="url(#p8617960971)" d="M 191.602787 162.432 
L 193.821801 162.432 
L 193.821801 162.432 
L 191.602787 162.432 
z
" style="fill:#1f77b4;"/>
   </g>
   <g id="patch_57">
    <path clip-path="url(#p8617960971)" d="M 193.821801 162.432 
L 196.040815 162.432 
L 196.040815 162.432 
L 193.821801 162.432 
z
" style="fill:#1f77b4;"/>
   </g>
   <g id="patch_58">
    <path clip-path="url(#p8617960971)" d="M 196.040815 162.432 
L 198.259828 162.432 
L 198.259828 162.432 
L 196.040815 162.432 
z
" style="fill:#1f77b4;"/>
   </g>
   <g id="patch_59">
    <path clip-path="url(#p8617960971)" d="M 198.259828 162.432 
L 200.478842 162.432 
L 200.478842 162.432 
L 198.259828 162.432 
z
" style="fill:#1f77b4;"/>
   </g>
   <g id="patch_60">
    <path clip-path="url(#p8617960971)" d="M 200.478842 162.432 
L 202.697856 162.432 
L 202.697856 162.432 
L 200.478842 162.432 
z
" style="fill:#1f77b4;"/>
   </g>
   <g id="patch_61">
    <path clip-path="url(#p8617960971)" d="M 202.697856 162.432 
L 204.91687 162.432 
L 204.91687 162.432 
L 202.697856 162.432 
z
" style="fill:#1f77b4;"/>
   </g>
   <g id="patch_62">
    <path clip-path="url(#p8617960971)" d="M 204.91687 162.432 
L 207.135884 162.432 
L 207.135884 162.432 
L 204.91687 162.432 
z
" style="fill:#1f77b4;"/>
   </g>
   <g id="patch_63">
    <path clip-path="url(#p8617960971)" d="M 207.135884 162.432 
L 209.354897 162.432 
L 209.354897 158.21898 
L 207.135884 158.21898 
z
" style="fill:#1f77b4;"/>
   </g>
   <g id="patch_64">
    <path clip-path="url(#p8617960971)" d="M 209.354897 162.432 
L 211.573911 162.432 
L 211.573911 162.432 
L 209.354897 162.432 
z
" style="fill:#1f77b4;"/>
   </g>
   <g id="patch_65">
    <path clip-path="url(#p8617960971)" d="M 211.573911 162.432 
L 213.792925 162.432 
L 213.792925 162.432 
L 211.573911 162.432 
z
" style="fill:#1f77b4;"/>
   </g>
   <g id="patch_66">
    <path clip-path="url(#p8617960971)" d="M 213.792925 162.432 
L 216.011939 162.432 
L 216.011939 162.432 
L 213.792925 162.432 
z
" style="fill:#1f77b4;"/>
   </g>
   <g id="patch_67">
    <path clip-path="url(#p8617960971)" d="M 216.011939 162.432 
L 218.230953 162.432 
L 218.230953 162.432 
L 216.011939 162.432 
z
" style="fill:#1f77b4;"/>
   </g>
   <g id="patch_68">
    <path clip-path="url(#p8617960971)" d="M 218.230953 162.432 
L 220.449967 162.432 
L 220.449967 162.432 
L 218.230953 162.432 
z
" style="fill:#1f77b4;"/>
   </g>
   <g id="patch_69">
    <path clip-path="url(#p8617960971)" d="M 220.449967 162.432 
L 222.66898 162.432 
L 222.66898 162.432 
L 220.449967 162.432 
z
" style="fill:#1f77b4;"/>
   </g>
   <g id="patch_70">
    <path clip-path="url(#p8617960971)" d="M 222.66898 162.432 
L 224.887994 162.432 
L 224.887994 162.432 
L 222.66898 162.432 
z
" style="fill:#1f77b4;"/>
   </g>
   <g id="patch_71">
    <path clip-path="url(#p8617960971)" d="M 224.887994 162.432 
L 227.107008 162.432 
L 227.107008 162.432 
L 224.887994 162.432 
z
" style="fill:#1f77b4;"/>
   </g>
   <g id="patch_72">
    <path clip-path="url(#p8617960971)" d="M 227.107008 162.432 
L 229.326022 162.432 
L 229.326022 162.432 
L 227.107008 162.432 
z
" style="fill:#1f77b4;"/>
   </g>
   <g id="patch_73">
    <path clip-path="url(#p8617960971)" d="M 229.326022 162.432 
L 231.545036 162.432 
L 231.545036 162.432 
L 229.326022 162.432 
z
" style="fill:#1f77b4;"/>
   </g>
   <g id="patch_74">
    <path clip-path="url(#p8617960971)" d="M 231.545036 162.432 
L 233.764049 162.432 
L 233.764049 162.432 
L 231.545036 162.432 
z
" style="fill:#1f77b4;"/>
   </g>
   <g id="patch_75">
    <path clip-path="url(#p8617960971)" d="M 233.764049 162.432 
L 235.983063 162.432 
L 235.983063 162.432 
L 233.764049 162.432 
z
" style="fill:#1f77b4;"/>
   </g>
   <g id="patch_76">
    <path clip-path="url(#p8617960971)" d="M 235.983063 162.432 
L 238.202077 162.432 
L 238.202077 162.432 
L 235.983063 162.432 
z
" style="fill:#1f77b4;"/>
   </g>
   <g id="patch_77">
    <path clip-path="url(#p8617960971)" d="M 238.202077 162.432 
L 240.421091 162.432 
L 240.421091 162.432 
L 238.202077 162.432 
z
" style="fill:#1f77b4;"/>
   </g>
   <g id="patch_78">
    <path clip-path="url(#p8617960971)" d="M 240.421091 162.432 
L 242.640105 162.432 
L 242.640105 162.432 
L 240.421091 162.432 
z
" style="fill:#1f77b4;"/>
   </g>
   <g id="patch_79">
    <path clip-path="url(#p8617960971)" d="M 242.640105 162.432 
L 244.859119 162.432 
L 244.859119 162.432 
L 242.640105 162.432 
z
" style="fill:#1f77b4;"/>
   </g>
   <g id="patch_80">
    <path clip-path="url(#p8617960971)" d="M 244.859119 162.432 
L 247.078132 162.432 
L 247.078132 162.432 
L 244.859119 162.432 
z
" style="fill:#1f77b4;"/>
   </g>
   <g id="patch_81">
    <path clip-path="url(#p8617960971)" d="M 247.078132 162.432 
L 249.297146 162.432 
L 249.297146 162.432 
L 247.078132 162.432 
z
" style="fill:#1f77b4;"/>
   </g>
   <g id="patch_82">
    <path clip-path="url(#p8617960971)" d="M 249.297146 162.432 
L 251.51616 162.432 
L 251.51616 162.432 
L 249.297146 162.432 
z
" style="fill:#1f77b4;"/>
   </g>
   <g id="patch_83">
    <path clip-path="url(#p8617960971)" d="M 251.51616 162.432 
L 253.735174 162.432 
L 253.735174 162.432 
L 251.51616 162.432 
z
" style="fill:#1f77b4;"/>
   </g>
   <g id="patch_84">
    <path clip-path="url(#p8617960971)" d="M 253.735174 162.432 
L 255.954188 162.432 
L 255.954188 162.432 
L 253.735174 162.432 
z
" style="fill:#1f77b4;"/>
   </g>
   <g id="patch_85">
    <path clip-path="url(#p8617960971)" d="M 255.954188 162.432 
L 258.173201 162.432 
L 258.173201 162.432 
L 255.954188 162.432 
z
" style="fill:#1f77b4;"/>
   </g>
   <g id="patch_86">
    <path clip-path="url(#p8617960971)" d="M 258.173201 162.432 
L 260.392215 162.432 
L 260.392215 162.432 
L 258.173201 162.432 
z
" style="fill:#1f77b4;"/>
   </g>
   <g id="patch_87">
    <path clip-path="url(#p8617960971)" d="M 260.392215 162.432 
L 262.611229 162.432 
L 262.611229 162.432 
L 260.392215 162.432 
z
" style="fill:#1f77b4;"/>
   </g>
   <g id="patch_88">
    <path clip-path="url(#p8617960971)" d="M 262.611229 162.432 
L 264.830243 162.432 
L 264.830243 162.432 
L 262.611229 162.432 
z
" style="fill:#1f77b4;"/>
   </g>
   <g id="patch_89">
    <path clip-path="url(#p8617960971)" d="M 264.830243 162.432 
L 267.049257 162.432 
L 267.049257 162.432 
L 264.830243 162.432 
z
" style="fill:#1f77b4;"/>
   </g>
   <g id="patch_90">
    <path clip-path="url(#p8617960971)" d="M 267.049257 162.432 
L 269.268271 162.432 
L 269.268271 162.432 
L 267.049257 162.432 
z
" style="fill:#1f77b4;"/>
   </g>
   <g id="patch_91">
    <path clip-path="url(#p8617960971)" d="M 269.268271 162.432 
L 271.487284 162.432 
L 271.487284 162.432 
L 269.268271 162.432 
z
" style="fill:#1f77b4;"/>
   </g>
   <g id="patch_92">
    <path clip-path="url(#p8617960971)" d="M 271.487284 162.432 
L 273.706298 162.432 
L 273.706298 162.432 
L 271.487284 162.432 
z
" style="fill:#1f77b4;"/>
   </g>
   <g id="patch_93">
    <path clip-path="url(#p8617960971)" d="M 273.706298 162.432 
L 275.925312 162.432 
L 275.925312 162.432 
L 273.706298 162.432 
z
" style="fill:#1f77b4;"/>
   </g>
   <g id="patch_94">
    <path clip-path="url(#p8617960971)" d="M 275.925312 162.432 
L 278.144326 162.432 
L 278.144326 162.432 
L 275.925312 162.432 
z
" style="fill:#1f77b4;"/>
   </g>
   <g id="patch_95">
    <path clip-path="url(#p8617960971)" d="M 278.144326 162.432 
L 280.36334 162.432 
L 280.36334 162.432 
L 278.144326 162.432 
z
" style="fill:#1f77b4;"/>
   </g>
   <g id="patch_96">
    <path clip-path="url(#p8617960971)" d="M 280.36334 162.432 
L 282.582353 162.432 
L 282.582353 162.432 
L 280.36334 162.432 
z
" style="fill:#1f77b4;"/>
   </g>
   <g id="patch_97">
    <path clip-path="url(#p8617960971)" d="M 282.582353 162.432 
L 284.801367 162.432 
L 284.801367 162.432 
L 282.582353 162.432 
z
" style="fill:#1f77b4;"/>
   </g>
   <g id="patch_98">
    <path clip-path="url(#p8617960971)" d="M 284.801367 162.432 
L 287.020381 162.432 
L 287.020381 162.432 
L 284.801367 162.432 
z
" style="fill:#1f77b4;"/>
   </g>
   <g id="patch_99">
    <path clip-path="url(#p8617960971)" d="M 287.020381 162.432 
L 289.239395 162.432 
L 289.239395 162.432 
L 287.020381 162.432 
z
" style="fill:#1f77b4;"/>
   </g>
   <g id="patch_100">
    <path clip-path="url(#p8617960971)" d="M 289.239395 162.432 
L 291.458409 162.432 
L 291.458409 162.432 
L 289.239395 162.432 
z
" style="fill:#1f77b4;"/>
   </g>
   <g id="patch_101">
    <path clip-path="url(#p8617960971)" d="M 291.458409 162.432 
L 293.677423 162.432 
L 293.677423 162.432 
L 291.458409 162.432 
z
" style="fill:#1f77b4;"/>
   </g>
   <g id="patch_102">
    <path clip-path="url(#p8617960971)" d="M 293.677423 162.432 
L 295.896436 162.432 
L 295.896436 158.21898 
L 293.677423 158.21898 
z
" style="fill:#1f77b4;"/>
   </g>
   <g id="matplotlib.axis_1">
    <g id="xtick_1">
     <g id="line2d_1">
      <defs>
       <path d="M 0 0 
L 0 3.5 
" id="m99b82bc5f7" style="stroke:#000000;stroke-width:0.8;"/>
      </defs>
      <g>
       <use style="stroke:#000000;stroke-width:0.8;" x="73.832727" xlink:href="#m99b82bc5f7" y="162.432"/>
      </g>
     </g>
     <g id="text_1">
      <!-- 0 -->
      <defs>
       <path d="M 31.78125 66.40625 
Q 24.171875 66.40625 20.328125 58.90625 
Q 16.5 51.421875 16.5 36.375 
Q 16.5 21.390625 20.328125 13.890625 
Q 24.171875 6.390625 31.78125 6.390625 
Q 39.453125 6.390625 43.28125 13.890625 
Q 47.125 21.390625 47.125 36.375 
Q 47.125 51.421875 43.28125 58.90625 
Q 39.453125 66.40625 31.78125 66.40625 
z
M 31.78125 74.21875 
Q 44.046875 74.21875 50.515625 64.515625 
Q 56.984375 54.828125 56.984375 36.375 
Q 56.984375 17.96875 50.515625 8.265625 
Q 44.046875 -1.421875 31.78125 -1.421875 
Q 19.53125 -1.421875 13.0625 8.265625 
Q 6.59375 17.96875 6.59375 36.375 
Q 6.59375 54.828125 13.0625 64.515625 
Q 19.53125 74.21875 31.78125 74.21875 
z
" id="DejaVuSans-48"/>
      </defs>
      <g transform="translate(70.651477 177.030437)scale(0.1 -0.1)">
       <use xlink:href="#DejaVuSans-48"/>
      </g>
     </g>
    </g>
    <g id="xtick_2">
     <g id="line2d_2">
      <g>
       <use style="stroke:#000000;stroke-width:0.8;" x="138.763636" xlink:href="#m99b82bc5f7" y="162.432"/>
      </g>
     </g>
     <g id="text_2">
      <!-- 20 -->
      <defs>
       <path d="M 19.1875 8.296875 
L 53.609375 8.296875 
L 53.609375 0 
L 7.328125 0 
L 7.328125 8.296875 
Q 12.9375 14.109375 22.625 23.890625 
Q 32.328125 33.6875 34.8125 36.53125 
Q 39.546875 41.84375 41.421875 45.53125 
Q 43.3125 49.21875 43.3125 52.78125 
Q 43.3125 58.59375 39.234375 62.25 
Q 35.15625 65.921875 28.609375 65.921875 
Q 23.96875 65.921875 18.8125 64.3125 
Q 13.671875 62.703125 7.8125 59.421875 
L 7.8125 69.390625 
Q 13.765625 71.78125 18.9375 73 
Q 24.125 74.21875 28.421875 74.21875 
Q 39.75 74.21875 46.484375 68.546875 
Q 53.21875 62.890625 53.21875 53.421875 
Q 53.21875 48.921875 51.53125 44.890625 
Q 49.859375 40.875 45.40625 35.40625 
Q 44.1875 33.984375 37.640625 27.21875 
Q 31.109375 20.453125 19.1875 8.296875 
z
" id="DejaVuSans-50"/>
      </defs>
      <g transform="translate(132.401136 177.030437)scale(0.1 -0.1)">
       <use xlink:href="#DejaVuSans-50"/>
       <use x="63.623047" xlink:href="#DejaVuSans-48"/>
      </g>
     </g>
    </g>
    <g id="xtick_3">
     <g id="line2d_3">
      <g>
       <use style="stroke:#000000;stroke-width:0.8;" x="203.694545" xlink:href="#m99b82bc5f7" y="162.432"/>
      </g>
     </g>
     <g id="text_3">
      <!-- 40 -->
      <defs>
       <path d="M 37.796875 64.3125 
L 12.890625 25.390625 
L 37.796875 25.390625 
z
M 35.203125 72.90625 
L 47.609375 72.90625 
L 47.609375 25.390625 
L 58.015625 25.390625 
L 58.015625 17.1875 
L 47.609375 17.1875 
L 47.609375 0 
L 37.796875 0 
L 37.796875 17.1875 
L 4.890625 17.1875 
L 4.890625 26.703125 
z
" id="DejaVuSans-52"/>
      </defs>
      <g transform="translate(197.332045 177.030437)scale(0.1 -0.1)">
       <use xlink:href="#DejaVuSans-52"/>
       <use x="63.623047" xlink:href="#DejaVuSans-48"/>
      </g>
     </g>
    </g>
    <g id="xtick_4">
     <g id="line2d_4">
      <g>
       <use style="stroke:#000000;stroke-width:0.8;" x="268.625455" xlink:href="#m99b82bc5f7" y="162.432"/>
      </g>
     </g>
     <g id="text_4">
      <!-- 60 -->
      <defs>
       <path d="M 33.015625 40.375 
Q 26.375 40.375 22.484375 35.828125 
Q 18.609375 31.296875 18.609375 23.390625 
Q 18.609375 15.53125 22.484375 10.953125 
Q 26.375 6.390625 33.015625 6.390625 
Q 39.65625 6.390625 43.53125 10.953125 
Q 47.40625 15.53125 47.40625 23.390625 
Q 47.40625 31.296875 43.53125 35.828125 
Q 39.65625 40.375 33.015625 40.375 
z
M 52.59375 71.296875 
L 52.59375 62.3125 
Q 48.875 64.0625 45.09375 64.984375 
Q 41.3125 65.921875 37.59375 65.921875 
Q 27.828125 65.921875 22.671875 59.328125 
Q 17.53125 52.734375 16.796875 39.40625 
Q 19.671875 43.65625 24.015625 45.921875 
Q 28.375 48.1875 33.59375 48.1875 
Q 44.578125 48.1875 50.953125 41.515625 
Q 57.328125 34.859375 57.328125 23.390625 
Q 57.328125 12.15625 50.6875 5.359375 
Q 44.046875 -1.421875 33.015625 -1.421875 
Q 20.359375 -1.421875 13.671875 8.265625 
Q 6.984375 17.96875 6.984375 36.375 
Q 6.984375 53.65625 15.1875 63.9375 
Q 23.390625 74.21875 37.203125 74.21875 
Q 40.921875 74.21875 44.703125 73.484375 
Q 48.484375 72.75 52.59375 71.296875 
z
" id="DejaVuSans-54"/>
      </defs>
      <g transform="translate(262.262955 177.030437)scale(0.1 -0.1)">
       <use xlink:href="#DejaVuSans-54"/>
       <use x="63.623047" xlink:href="#DejaVuSans-48"/>
      </g>
     </g>
    </g>
    <g id="xtick_5">
     <g id="line2d_5">
      <g>
       <use style="stroke:#000000;stroke-width:0.8;" x="333.556364" xlink:href="#m99b82bc5f7" y="162.432"/>
      </g>
     </g>
     <g id="text_5">
      <!-- 80 -->
      <defs>
       <path d="M 31.78125 34.625 
Q 24.75 34.625 20.71875 30.859375 
Q 16.703125 27.09375 16.703125 20.515625 
Q 16.703125 13.921875 20.71875 10.15625 
Q 24.75 6.390625 31.78125 6.390625 
Q 38.8125 6.390625 42.859375 10.171875 
Q 46.921875 13.96875 46.921875 20.515625 
Q 46.921875 27.09375 42.890625 30.859375 
Q 38.875 34.625 31.78125 34.625 
z
M 21.921875 38.8125 
Q 15.578125 40.375 12.03125 44.71875 
Q 8.5 49.078125 8.5 55.328125 
Q 8.5 64.0625 14.71875 69.140625 
Q 20.953125 74.21875 31.78125 74.21875 
Q 42.671875 74.21875 48.875 69.140625 
Q 55.078125 64.0625 55.078125 55.328125 
Q 55.078125 49.078125 51.53125 44.71875 
Q 48 40.375 41.703125 38.8125 
Q 48.828125 37.15625 52.796875 32.3125 
Q 56.78125 27.484375 56.78125 20.515625 
Q 56.78125 9.90625 50.3125 4.234375 
Q 43.84375 -1.421875 31.78125 -1.421875 
Q 19.734375 -1.421875 13.25 4.234375 
Q 6.78125 9.90625 6.78125 20.515625 
Q 6.78125 27.484375 10.78125 32.3125 
Q 14.796875 37.15625 21.921875 38.8125 
z
M 18.3125 54.390625 
Q 18.3125 48.734375 21.84375 45.5625 
Q 25.390625 42.390625 31.78125 42.390625 
Q 38.140625 42.390625 41.71875 45.5625 
Q 45.3125 48.734375 45.3125 54.390625 
Q 45.3125 60.0625 41.71875 63.234375 
Q 38.140625 66.40625 31.78125 66.40625 
Q 25.390625 66.40625 21.84375 63.234375 
Q 18.3125 60.0625 18.3125 54.390625 
z
" id="DejaVuSans-56"/>
      </defs>
      <g transform="translate(327.193864 177.030437)scale(0.1 -0.1)">
       <use xlink:href="#DejaVuSans-56"/>
       <use x="63.623047" xlink:href="#DejaVuSans-48"/>
      </g>
     </g>
    </g>
    <g id="xtick_6">
     <g id="line2d_6">
      <g>
       <use style="stroke:#000000;stroke-width:0.8;" x="398.487273" xlink:href="#m99b82bc5f7" y="162.432"/>
      </g>
     </g>
     <g id="text_6">
      <!-- 100 -->
      <defs>
       <path d="M 12.40625 8.296875 
L 28.515625 8.296875 
L 28.515625 63.921875 
L 10.984375 60.40625 
L 10.984375 69.390625 
L 28.421875 72.90625 
L 38.28125 72.90625 
L 38.28125 8.296875 
L 54.390625 8.296875 
L 54.390625 0 
L 12.40625 0 
z
" id="DejaVuSans-49"/>
      </defs>
      <g transform="translate(388.943523 177.030437)scale(0.1 -0.1)">
       <use xlink:href="#DejaVuSans-49"/>
       <use x="63.623047" xlink:href="#DejaVuSans-48"/>
       <use x="127.246094" xlink:href="#DejaVuSans-48"/>
      </g>
     </g>
    </g>
   </g>
   <g id="matplotlib.axis_2">
    <g id="ytick_1">
     <g id="line2d_7">
      <defs>
       <path d="M 0 0 
L -3.5 0 
" id="m9f40181ea0" style="stroke:#000000;stroke-width:0.8;"/>
      </defs>
      <g>
       <use style="stroke:#000000;stroke-width:0.8;" x="57.6" xlink:href="#m9f40181ea0" y="162.432"/>
      </g>
     </g>
     <g id="text_7">
      <!-- 0.00 -->
      <defs>
       <path d="M 10.6875 12.40625 
L 21 12.40625 
L 21 0 
L 10.6875 0 
z
" id="DejaVuSans-46"/>
      </defs>
      <g transform="translate(28.334375 166.231219)scale(0.1 -0.1)">
       <use xlink:href="#DejaVuSans-48"/>
       <use x="63.623047" xlink:href="#DejaVuSans-46"/>
       <use x="95.410156" xlink:href="#DejaVuSans-48"/>
       <use x="159.033203" xlink:href="#DejaVuSans-48"/>
      </g>
     </g>
    </g>
    <g id="ytick_2">
     <g id="line2d_8">
      <g>
       <use style="stroke:#000000;stroke-width:0.8;" x="57.6" xlink:href="#m9f40181ea0" y="133.636009"/>
      </g>
     </g>
     <g id="text_8">
      <!-- 0.05 -->
      <defs>
       <path d="M 10.796875 72.90625 
L 49.515625 72.90625 
L 49.515625 64.59375 
L 19.828125 64.59375 
L 19.828125 46.734375 
Q 21.96875 47.46875 24.109375 47.828125 
Q 26.265625 48.1875 28.421875 48.1875 
Q 40.625 48.1875 47.75 41.5 
Q 54.890625 34.8125 54.890625 23.390625 
Q 54.890625 11.625 47.5625 5.09375 
Q 40.234375 -1.421875 26.90625 -1.421875 
Q 22.3125 -1.421875 17.546875 -0.640625 
Q 12.796875 0.140625 7.71875 1.703125 
L 7.71875 11.625 
Q 12.109375 9.234375 16.796875 8.0625 
Q 21.484375 6.890625 26.703125 6.890625 
Q 35.15625 6.890625 40.078125 11.328125 
Q 45.015625 15.765625 45.015625 23.390625 
Q 45.015625 31 40.078125 35.4375 
Q 35.15625 39.890625 26.703125 39.890625 
Q 22.75 39.890625 18.8125 39.015625 
Q 14.890625 38.140625 10.796875 36.28125 
z
" id="DejaVuSans-53"/>
      </defs>
      <g transform="translate(28.334375 137.435227)scale(0.1 -0.1)">
       <use xlink:href="#DejaVuSans-48"/>
       <use x="63.623047" xlink:href="#DejaVuSans-46"/>
       <use x="95.410156" xlink:href="#DejaVuSans-48"/>
       <use x="159.033203" xlink:href="#DejaVuSans-53"/>
      </g>
     </g>
    </g>
    <g id="ytick_3">
     <g id="line2d_9">
      <g>
       <use style="stroke:#000000;stroke-width:0.8;" x="57.6" xlink:href="#m9f40181ea0" y="104.840017"/>
      </g>
     </g>
     <g id="text_9">
      <!-- 0.10 -->
      <g transform="translate(28.334375 108.639236)scale(0.1 -0.1)">
       <use xlink:href="#DejaVuSans-48"/>
       <use x="63.623047" xlink:href="#DejaVuSans-46"/>
       <use x="95.410156" xlink:href="#DejaVuSans-49"/>
       <use x="159.033203" xlink:href="#DejaVuSans-48"/>
      </g>
     </g>
    </g>
    <g id="ytick_4">
     <g id="line2d_10">
      <g>
       <use style="stroke:#000000;stroke-width:0.8;" x="57.6" xlink:href="#m9f40181ea0" y="76.044026"/>
      </g>
     </g>
     <g id="text_10">
      <!-- 0.15 -->
      <g transform="translate(28.334375 79.843244)scale(0.1 -0.1)">
       <use xlink:href="#DejaVuSans-48"/>
       <use x="63.623047" xlink:href="#DejaVuSans-46"/>
       <use x="95.410156" xlink:href="#DejaVuSans-49"/>
       <use x="159.033203" xlink:href="#DejaVuSans-53"/>
      </g>
     </g>
    </g>
    <g id="ytick_5">
     <g id="line2d_11">
      <g>
       <use style="stroke:#000000;stroke-width:0.8;" x="57.6" xlink:href="#m9f40181ea0" y="47.248034"/>
      </g>
     </g>
     <g id="text_11">
      <!-- 0.20 -->
      <g transform="translate(28.334375 51.047253)scale(0.1 -0.1)">
       <use xlink:href="#DejaVuSans-48"/>
       <use x="63.623047" xlink:href="#DejaVuSans-46"/>
       <use x="95.410156" xlink:href="#DejaVuSans-50"/>
       <use x="159.033203" xlink:href="#DejaVuSans-48"/>
      </g>
     </g>
    </g>
   </g>
   <g id="line2d_12">
    <path clip-path="url(#p8617960971)" d="M 73.832727 162.432 
L 74.157707 149.277863 
L 74.807666 98.448346 
L 75.457625 67.378768 
L 75.782604 58.526044 
L 76.107584 52.776528 
L 76.432563 49.348919 
L 76.757543 47.649333 
L 77.082523 47.232 
L 77.407502 47.763023 
L 77.732482 48.991758 
L 78.382441 52.832994 
L 79.682359 63.090817 
L 82.282195 84.11934 
L 83.907093 95.248414 
L 85.53199 104.630696 
L 87.156888 112.475003 
L 88.781785 119.031886 
L 90.406683 124.530599 
L 92.031581 129.164121 
L 93.656478 133.089756 
L 95.281376 136.434171 
L 96.906274 139.299042 
L 98.531171 141.766096 
L 100.481048 144.293363 
L 102.430925 146.432765 
L 104.380803 148.255349 
L 106.655659 150.05546 
L 108.930516 151.570027 
L 111.530352 153.020057 
L 114.455168 154.366215 
L 117.704963 155.58482 
L 121.279738 156.665307 
L 125.179492 157.607118 
L 129.729206 158.47146 
L 134.928878 159.231931 
L 141.103489 159.910064 
L 148.578018 160.505638 
L 158.002424 161.025631 
L 170.026667 161.458345 
L 186.275643 161.810225 
L 209.999148 162.083015 
L 248.021753 162.273221 
L 322.442064 162.385409 
L 398.487273 162.414662 
L 398.487273 162.414662 
" style="fill:none;stroke:#ff7f0e;stroke-linecap:square;stroke-width:1.5;"/>
   </g>
   <g id="line2d_13">
    <path clip-path="url(#p8617960971)" d="M 73.832727 160.882192 
L 74.482686 159.621548 
L 75.132645 157.853935 
L 76.107584 154.236101 
L 77.082523 149.579519 
L 78.382441 142.213887 
L 82.282195 119.236176 
L 83.582113 113.167065 
L 84.557052 109.445835 
L 85.53199 106.468982 
L 86.506929 104.226213 
L 87.481867 102.681324 
L 88.131826 102.013134 
L 88.781785 101.6128 
L 89.431744 101.460327 
L 90.081704 101.53505 
L 90.731663 101.816126 
L 91.706601 102.579707 
L 92.68154 103.694287 
L 93.981458 105.618723 
L 95.606355 108.543825 
L 97.881212 113.225764 
L 105.355741 129.077759 
L 107.955577 133.876298 
L 110.230434 137.632285 
L 112.505291 140.970845 
L 114.780147 143.909244 
L 117.055004 146.476198 
L 119.329861 148.705969 
L 121.604717 150.634524 
L 123.879574 152.297157 
L 126.47941 153.914187 
L 129.079247 155.272284 
L 132.004062 156.540003 
L 135.253857 157.682182 
L 138.828632 158.678339 
L 142.728387 159.521475 
L 147.2781 160.261253 
L 152.477772 160.871551 
L 158.652383 161.369779 
L 166.451892 161.770818 
L 176.851237 162.073388 
L 192.450254 162.282612 
L 220.073514 162.396543 
L 303.268272 162.431086 
L 398.487273 162.431968 
L 398.487273 162.431968 
" style="fill:none;stroke:#2ca02c;stroke-dasharray:5.55,2.4;stroke-dashoffset:0;stroke-width:1.5;"/>
   </g>
   <g id="patch_103">
    <path d="M 57.6 162.432 
L 57.6 41.472 
" style="fill:none;stroke:#000000;stroke-linecap:square;stroke-linejoin:miter;stroke-width:0.8;"/>
   </g>
   <g id="patch_104">
    <path d="M 414.72 162.432 
L 414.72 41.472 
" style="fill:none;stroke:#000000;stroke-linecap:square;stroke-linejoin:miter;stroke-width:0.8;"/>
   </g>
   <g id="patch_105">
    <path d="M 57.6 162.432 
L 414.72 162.432 
" style="fill:none;stroke:#000000;stroke-linecap:square;stroke-linejoin:miter;stroke-width:0.8;"/>
   </g>
   <g id="patch_106">
    <path d="M 57.6 41.472 
L 414.72 41.472 
" style="fill:none;stroke:#000000;stroke-linecap:square;stroke-linejoin:miter;stroke-width:0.8;"/>
   </g>
   <g id="text_12">
    <!-- E -->
    <defs>
     <path d="M 9.8125 72.90625 
L 55.90625 72.90625 
L 55.90625 64.59375 
L 19.671875 64.59375 
L 19.671875 43.015625 
L 54.390625 43.015625 
L 54.390625 34.71875 
L 19.671875 34.71875 
L 19.671875 8.296875 
L 56.78125 8.296875 
L 56.78125 0 
L 9.8125 0 
z
" id="DejaVuSans-69"/>
    </defs>
    <g transform="translate(232.36875 35.472)scale(0.12 -0.12)">
     <use xlink:href="#DejaVuSans-69"/>
    </g>
   </g>
   <g id="legend_1">
    <g id="patch_107">
     <path d="M 187.487187 78.82825 
L 407.72 78.82825 
Q 409.72 78.82825 409.72 76.82825 
L 409.72 48.472 
Q 409.72 46.472 407.72 46.472 
L 187.487187 46.472 
Q 185.487187 46.472 185.487187 48.472 
L 185.487187 76.82825 
Q 185.487187 78.82825 187.487187 78.82825 
z
" style="fill:#ffffff;opacity:0.8;stroke:#cccccc;stroke-linejoin:miter;"/>
    </g>
    <g id="line2d_14">
     <path d="M 189.487187 54.570437 
L 209.487187 54.570437 
" style="fill:none;stroke:#ff7f0e;stroke-linecap:square;stroke-width:1.5;"/>
    </g>
    <g id="line2d_15"/>
    <g id="text_13">
     <!-- targetDist (Buzsaki &amp; Mizuseki, 2014) -->
     <defs>
      <path d="M 18.3125 70.21875 
L 18.3125 54.6875 
L 36.8125 54.6875 
L 36.8125 47.703125 
L 18.3125 47.703125 
L 18.3125 18.015625 
Q 18.3125 11.328125 20.140625 9.421875 
Q 21.96875 7.515625 27.59375 7.515625 
L 36.8125 7.515625 
L 36.8125 0 
L 27.59375 0 
Q 17.1875 0 13.234375 3.875 
Q 9.28125 7.765625 9.28125 18.015625 
L 9.28125 47.703125 
L 2.6875 47.703125 
L 2.6875 54.6875 
L 9.28125 54.6875 
L 9.28125 70.21875 
z
" id="DejaVuSans-116"/>
      <path d="M 34.28125 27.484375 
Q 23.390625 27.484375 19.1875 25 
Q 14.984375 22.515625 14.984375 16.5 
Q 14.984375 11.71875 18.140625 8.90625 
Q 21.296875 6.109375 26.703125 6.109375 
Q 34.1875 6.109375 38.703125 11.40625 
Q 43.21875 16.703125 43.21875 25.484375 
L 43.21875 27.484375 
z
M 52.203125 31.203125 
L 52.203125 0 
L 43.21875 0 
L 43.21875 8.296875 
Q 40.140625 3.328125 35.546875 0.953125 
Q 30.953125 -1.421875 24.3125 -1.421875 
Q 15.921875 -1.421875 10.953125 3.296875 
Q 6 8.015625 6 15.921875 
Q 6 25.140625 12.171875 29.828125 
Q 18.359375 34.515625 30.609375 34.515625 
L 43.21875 34.515625 
L 43.21875 35.40625 
Q 43.21875 41.609375 39.140625 45 
Q 35.0625 48.390625 27.6875 48.390625 
Q 23 48.390625 18.546875 47.265625 
Q 14.109375 46.140625 10.015625 43.890625 
L 10.015625 52.203125 
Q 14.9375 54.109375 19.578125 55.046875 
Q 24.21875 56 28.609375 56 
Q 40.484375 56 46.34375 49.84375 
Q 52.203125 43.703125 52.203125 31.203125 
z
" id="DejaVuSans-97"/>
      <path d="M 41.109375 46.296875 
Q 39.59375 47.171875 37.8125 47.578125 
Q 36.03125 48 33.890625 48 
Q 26.265625 48 22.1875 43.046875 
Q 18.109375 38.09375 18.109375 28.8125 
L 18.109375 0 
L 9.078125 0 
L 9.078125 54.6875 
L 18.109375 54.6875 
L 18.109375 46.1875 
Q 20.953125 51.171875 25.484375 53.578125 
Q 30.03125 56 36.53125 56 
Q 37.453125 56 38.578125 55.875 
Q 39.703125 55.765625 41.0625 55.515625 
z
" id="DejaVuSans-114"/>
      <path d="M 45.40625 27.984375 
Q 45.40625 37.75 41.375 43.109375 
Q 37.359375 48.484375 30.078125 48.484375 
Q 22.859375 48.484375 18.828125 43.109375 
Q 14.796875 37.75 14.796875 27.984375 
Q 14.796875 18.265625 18.828125 12.890625 
Q 22.859375 7.515625 30.078125 7.515625 
Q 37.359375 7.515625 41.375 12.890625 
Q 45.40625 18.265625 45.40625 27.984375 
z
M 54.390625 6.78125 
Q 54.390625 -7.171875 48.1875 -13.984375 
Q 42 -20.796875 29.203125 -20.796875 
Q 24.46875 -20.796875 20.265625 -20.09375 
Q 16.0625 -19.390625 12.109375 -17.921875 
L 12.109375 -9.1875 
Q 16.0625 -11.328125 19.921875 -12.34375 
Q 23.78125 -13.375 27.78125 -13.375 
Q 36.625 -13.375 41.015625 -8.765625 
Q 45.40625 -4.15625 45.40625 5.171875 
L 45.40625 9.625 
Q 42.625 4.78125 38.28125 2.390625 
Q 33.9375 0 27.875 0 
Q 17.828125 0 11.671875 7.65625 
Q 5.515625 15.328125 5.515625 27.984375 
Q 5.515625 40.671875 11.671875 48.328125 
Q 17.828125 56 27.875 56 
Q 33.9375 56 38.28125 53.609375 
Q 42.625 51.21875 45.40625 46.390625 
L 45.40625 54.6875 
L 54.390625 54.6875 
z
" id="DejaVuSans-103"/>
      <path d="M 56.203125 29.59375 
L 56.203125 25.203125 
L 14.890625 25.203125 
Q 15.484375 15.921875 20.484375 11.0625 
Q 25.484375 6.203125 34.421875 6.203125 
Q 39.59375 6.203125 44.453125 7.46875 
Q 49.3125 8.734375 54.109375 11.28125 
L 54.109375 2.78125 
Q 49.265625 0.734375 44.1875 -0.34375 
Q 39.109375 -1.421875 33.890625 -1.421875 
Q 20.796875 -1.421875 13.15625 6.1875 
Q 5.515625 13.8125 5.515625 26.8125 
Q 5.515625 40.234375 12.765625 48.109375 
Q 20.015625 56 32.328125 56 
Q 43.359375 56 49.78125 48.890625 
Q 56.203125 41.796875 56.203125 29.59375 
z
M 47.21875 32.234375 
Q 47.125 39.59375 43.09375 43.984375 
Q 39.0625 48.390625 32.421875 48.390625 
Q 24.90625 48.390625 20.390625 44.140625 
Q 15.875 39.890625 15.1875 32.171875 
z
" id="DejaVuSans-101"/>
      <path d="M 19.671875 64.796875 
L 19.671875 8.109375 
L 31.59375 8.109375 
Q 46.6875 8.109375 53.6875 14.9375 
Q 60.6875 21.78125 60.6875 36.53125 
Q 60.6875 51.171875 53.6875 57.984375 
Q 46.6875 64.796875 31.59375 64.796875 
z
M 9.8125 72.90625 
L 30.078125 72.90625 
Q 51.265625 72.90625 61.171875 64.09375 
Q 71.09375 55.28125 71.09375 36.53125 
Q 71.09375 17.671875 61.125 8.828125 
Q 51.171875 0 30.078125 0 
L 9.8125 0 
z
" id="DejaVuSans-68"/>
      <path d="M 9.421875 54.6875 
L 18.40625 54.6875 
L 18.40625 0 
L 9.421875 0 
z
M 9.421875 75.984375 
L 18.40625 75.984375 
L 18.40625 64.59375 
L 9.421875 64.59375 
z
" id="DejaVuSans-105"/>
      <path d="M 44.28125 53.078125 
L 44.28125 44.578125 
Q 40.484375 46.53125 36.375 47.5 
Q 32.28125 48.484375 27.875 48.484375 
Q 21.1875 48.484375 17.84375 46.4375 
Q 14.5 44.390625 14.5 40.28125 
Q 14.5 37.15625 16.890625 35.375 
Q 19.28125 33.59375 26.515625 31.984375 
L 29.59375 31.296875 
Q 39.15625 29.25 43.1875 25.515625 
Q 47.21875 21.78125 47.21875 15.09375 
Q 47.21875 7.46875 41.1875 3.015625 
Q 35.15625 -1.421875 24.609375 -1.421875 
Q 20.21875 -1.421875 15.453125 -0.5625 
Q 10.6875 0.296875 5.421875 2 
L 5.421875 11.28125 
Q 10.40625 8.6875 15.234375 7.390625 
Q 20.0625 6.109375 24.8125 6.109375 
Q 31.15625 6.109375 34.5625 8.28125 
Q 37.984375 10.453125 37.984375 14.40625 
Q 37.984375 18.0625 35.515625 20.015625 
Q 33.0625 21.96875 24.703125 23.78125 
L 21.578125 24.515625 
Q 13.234375 26.265625 9.515625 29.90625 
Q 5.8125 33.546875 5.8125 39.890625 
Q 5.8125 47.609375 11.28125 51.796875 
Q 16.75 56 26.8125 56 
Q 31.78125 56 36.171875 55.265625 
Q 40.578125 54.546875 44.28125 53.078125 
z
" id="DejaVuSans-115"/>
      <path id="DejaVuSans-32"/>
      <path d="M 31 75.875 
Q 24.46875 64.65625 21.28125 53.65625 
Q 18.109375 42.671875 18.109375 31.390625 
Q 18.109375 20.125 21.3125 9.0625 
Q 24.515625 -2 31 -13.1875 
L 23.1875 -13.1875 
Q 15.875 -1.703125 12.234375 9.375 
Q 8.59375 20.453125 8.59375 31.390625 
Q 8.59375 42.28125 12.203125 53.3125 
Q 15.828125 64.359375 23.1875 75.875 
z
" id="DejaVuSans-40"/>
      <path d="M 19.671875 34.8125 
L 19.671875 8.109375 
L 35.5 8.109375 
Q 43.453125 8.109375 47.28125 11.40625 
Q 51.125 14.703125 51.125 21.484375 
Q 51.125 28.328125 47.28125 31.5625 
Q 43.453125 34.8125 35.5 34.8125 
z
M 19.671875 64.796875 
L 19.671875 42.828125 
L 34.28125 42.828125 
Q 41.5 42.828125 45.03125 45.53125 
Q 48.578125 48.25 48.578125 53.8125 
Q 48.578125 59.328125 45.03125 62.0625 
Q 41.5 64.796875 34.28125 64.796875 
z
M 9.8125 72.90625 
L 35.015625 72.90625 
Q 46.296875 72.90625 52.390625 68.21875 
Q 58.5 63.53125 58.5 54.890625 
Q 58.5 48.1875 55.375 44.234375 
Q 52.25 40.28125 46.1875 39.3125 
Q 53.46875 37.75 57.5 32.78125 
Q 61.53125 27.828125 61.53125 20.40625 
Q 61.53125 10.640625 54.890625 5.3125 
Q 48.25 0 35.984375 0 
L 9.8125 0 
z
" id="DejaVuSans-66"/>
      <path d="M 8.5 21.578125 
L 8.5 54.6875 
L 17.484375 54.6875 
L 17.484375 21.921875 
Q 17.484375 14.15625 20.5 10.265625 
Q 23.53125 6.390625 29.59375 6.390625 
Q 36.859375 6.390625 41.078125 11.03125 
Q 45.3125 15.671875 45.3125 23.6875 
L 45.3125 54.6875 
L 54.296875 54.6875 
L 54.296875 0 
L 45.3125 0 
L 45.3125 8.40625 
Q 42.046875 3.421875 37.71875 1 
Q 33.40625 -1.421875 27.6875 -1.421875 
Q 18.265625 -1.421875 13.375 4.4375 
Q 8.5 10.296875 8.5 21.578125 
z
M 31.109375 56 
z
" id="DejaVuSans-117"/>
      <path d="M 5.515625 54.6875 
L 48.1875 54.6875 
L 48.1875 46.484375 
L 14.40625 7.171875 
L 48.1875 7.171875 
L 48.1875 0 
L 4.296875 0 
L 4.296875 8.203125 
L 38.09375 47.515625 
L 5.515625 47.515625 
z
" id="DejaVuSans-122"/>
      <path d="M 9.078125 75.984375 
L 18.109375 75.984375 
L 18.109375 31.109375 
L 44.921875 54.6875 
L 56.390625 54.6875 
L 27.390625 29.109375 
L 57.625 0 
L 45.90625 0 
L 18.109375 26.703125 
L 18.109375 0 
L 9.078125 0 
z
" id="DejaVuSans-107"/>
      <path d="M 24.3125 39.203125 
Q 19.875 35.25 17.796875 31.3125 
Q 15.71875 27.390625 15.71875 23.09375 
Q 15.71875 15.96875 20.890625 11.234375 
Q 26.078125 6.5 33.890625 6.5 
Q 38.53125 6.5 42.578125 8.03125 
Q 46.625 9.578125 50.203125 12.703125 
z
M 31.203125 44.671875 
L 56 19.28125 
Q 58.890625 23.640625 60.5 28.59375 
Q 62.109375 33.546875 62.40625 39.109375 
L 71.484375 39.109375 
Q 70.90625 32.671875 68.359375 26.359375 
Q 65.828125 20.0625 61.28125 13.921875 
L 74.90625 0 
L 62.59375 0 
L 55.609375 7.171875 
Q 50.53125 2.828125 44.96875 0.703125 
Q 39.40625 -1.421875 33.015625 -1.421875 
Q 21.234375 -1.421875 13.765625 5.296875 
Q 6.296875 12.015625 6.296875 22.515625 
Q 6.296875 28.765625 9.5625 34.25 
Q 12.84375 39.75 19.390625 44.578125 
Q 17.046875 47.65625 15.8125 50.703125 
Q 14.59375 53.765625 14.59375 56.6875 
Q 14.59375 64.59375 20.015625 69.40625 
Q 25.4375 74.21875 34.421875 74.21875 
Q 38.484375 74.21875 42.5 73.34375 
Q 46.53125 72.46875 50.6875 70.703125 
L 50.6875 61.8125 
Q 46.4375 64.109375 42.578125 65.296875 
Q 38.71875 66.5 35.40625 66.5 
Q 30.28125 66.5 27.078125 63.78125 
Q 23.875 61.078125 23.875 56.78125 
Q 23.875 54.296875 25.3125 51.78125 
Q 26.765625 49.265625 31.203125 44.671875 
z
" id="DejaVuSans-38"/>
      <path d="M 9.8125 72.90625 
L 24.515625 72.90625 
L 43.109375 23.296875 
L 61.8125 72.90625 
L 76.515625 72.90625 
L 76.515625 0 
L 66.890625 0 
L 66.890625 64.015625 
L 48.09375 14.015625 
L 38.1875 14.015625 
L 19.390625 64.015625 
L 19.390625 0 
L 9.8125 0 
z
" id="DejaVuSans-77"/>
      <path d="M 11.71875 12.40625 
L 22.015625 12.40625 
L 22.015625 4 
L 14.015625 -11.625 
L 7.71875 -11.625 
L 11.71875 4 
z
" id="DejaVuSans-44"/>
      <path d="M 8.015625 75.875 
L 15.828125 75.875 
Q 23.140625 64.359375 26.78125 53.3125 
Q 30.421875 42.28125 30.421875 31.390625 
Q 30.421875 20.453125 26.78125 9.375 
Q 23.140625 -1.703125 15.828125 -13.1875 
L 8.015625 -13.1875 
Q 14.5 -2 17.703125 9.0625 
Q 20.90625 20.125 20.90625 31.390625 
Q 20.90625 42.671875 17.703125 53.65625 
Q 14.5 64.65625 8.015625 75.875 
z
" id="DejaVuSans-41"/>
     </defs>
     <g transform="translate(217.487187 58.070437)scale(0.1 -0.1)">
      <use xlink:href="#DejaVuSans-116"/>
      <use x="39.208984" xlink:href="#DejaVuSans-97"/>
      <use x="100.488281" xlink:href="#DejaVuSans-114"/>
      <use x="139.851562" xlink:href="#DejaVuSans-103"/>
      <use x="203.328125" xlink:href="#DejaVuSans-101"/>
      <use x="264.851562" xlink:href="#DejaVuSans-116"/>
      <use x="304.060547" xlink:href="#DejaVuSans-68"/>
      <use x="381.0625" xlink:href="#DejaVuSans-105"/>
      <use x="408.845703" xlink:href="#DejaVuSans-115"/>
      <use x="460.945312" xlink:href="#DejaVuSans-116"/>
      <use x="500.154297" xlink:href="#DejaVuSans-32"/>
      <use x="531.941406" xlink:href="#DejaVuSans-40"/>
      <use x="570.955078" xlink:href="#DejaVuSans-66"/>
      <use x="639.558594" xlink:href="#DejaVuSans-117"/>
      <use x="702.9375" xlink:href="#DejaVuSans-122"/>
      <use x="755.427734" xlink:href="#DejaVuSans-115"/>
      <use x="807.527344" xlink:href="#DejaVuSans-97"/>
      <use x="868.806641" xlink:href="#DejaVuSans-107"/>
      <use x="926.716797" xlink:href="#DejaVuSans-105"/>
      <use x="954.5" xlink:href="#DejaVuSans-32"/>
      <use x="986.287109" xlink:href="#DejaVuSans-38"/>
      <use x="1064.265625" xlink:href="#DejaVuSans-32"/>
      <use x="1096.052734" xlink:href="#DejaVuSans-77"/>
      <use x="1182.332031" xlink:href="#DejaVuSans-105"/>
      <use x="1210.115234" xlink:href="#DejaVuSans-122"/>
      <use x="1262.605469" xlink:href="#DejaVuSans-117"/>
      <use x="1325.984375" xlink:href="#DejaVuSans-115"/>
      <use x="1378.083984" xlink:href="#DejaVuSans-101"/>
      <use x="1439.607422" xlink:href="#DejaVuSans-107"/>
      <use x="1497.517578" xlink:href="#DejaVuSans-105"/>
      <use x="1525.300781" xlink:href="#DejaVuSans-44"/>
      <use x="1557.087891" xlink:href="#DejaVuSans-32"/>
      <use x="1588.875" xlink:href="#DejaVuSans-50"/>
      <use x="1652.498047" xlink:href="#DejaVuSans-48"/>
      <use x="1716.121094" xlink:href="#DejaVuSans-49"/>
      <use x="1779.744141" xlink:href="#DejaVuSans-52"/>
      <use x="1843.367188" xlink:href="#DejaVuSans-41"/>
     </g>
    </g>
    <g id="line2d_16">
     <path d="M 189.487187 69.248562 
L 209.487187 69.248562 
" style="fill:none;stroke:#2ca02c;stroke-dasharray:5.55,2.4;stroke-dashoffset:0;stroke-width:1.5;"/>
    </g>
    <g id="line2d_17"/>
    <g id="text_14">
     <!-- simulatedDist -->
     <defs>
      <path d="M 52 44.1875 
Q 55.375 50.25 60.0625 53.125 
Q 64.75 56 71.09375 56 
Q 79.640625 56 84.28125 50.015625 
Q 88.921875 44.046875 88.921875 33.015625 
L 88.921875 0 
L 79.890625 0 
L 79.890625 32.71875 
Q 79.890625 40.578125 77.09375 44.375 
Q 74.3125 48.1875 68.609375 48.1875 
Q 61.625 48.1875 57.5625 43.546875 
Q 53.515625 38.921875 53.515625 30.90625 
L 53.515625 0 
L 44.484375 0 
L 44.484375 32.71875 
Q 44.484375 40.625 41.703125 44.40625 
Q 38.921875 48.1875 33.109375 48.1875 
Q 26.21875 48.1875 22.15625 43.53125 
Q 18.109375 38.875 18.109375 30.90625 
L 18.109375 0 
L 9.078125 0 
L 9.078125 54.6875 
L 18.109375 54.6875 
L 18.109375 46.1875 
Q 21.1875 51.21875 25.484375 53.609375 
Q 29.78125 56 35.6875 56 
Q 41.65625 56 45.828125 52.96875 
Q 50 49.953125 52 44.1875 
z
" id="DejaVuSans-109"/>
      <path d="M 9.421875 75.984375 
L 18.40625 75.984375 
L 18.40625 0 
L 9.421875 0 
z
" id="DejaVuSans-108"/>
      <path d="M 45.40625 46.390625 
L 45.40625 75.984375 
L 54.390625 75.984375 
L 54.390625 0 
L 45.40625 0 
L 45.40625 8.203125 
Q 42.578125 3.328125 38.25 0.953125 
Q 33.9375 -1.421875 27.875 -1.421875 
Q 17.96875 -1.421875 11.734375 6.484375 
Q 5.515625 14.40625 5.515625 27.296875 
Q 5.515625 40.1875 11.734375 48.09375 
Q 17.96875 56 27.875 56 
Q 33.9375 56 38.25 53.625 
Q 42.578125 51.265625 45.40625 46.390625 
z
M 14.796875 27.296875 
Q 14.796875 17.390625 18.875 11.75 
Q 22.953125 6.109375 30.078125 6.109375 
Q 37.203125 6.109375 41.296875 11.75 
Q 45.40625 17.390625 45.40625 27.296875 
Q 45.40625 37.203125 41.296875 42.84375 
Q 37.203125 48.484375 30.078125 48.484375 
Q 22.953125 48.484375 18.875 42.84375 
Q 14.796875 37.203125 14.796875 27.296875 
z
" id="DejaVuSans-100"/>
     </defs>
     <g transform="translate(217.487187 72.748562)scale(0.1 -0.1)">
      <use xlink:href="#DejaVuSans-115"/>
      <use x="52.099609" xlink:href="#DejaVuSans-105"/>
      <use x="79.882812" xlink:href="#DejaVuSans-109"/>
      <use x="177.294922" xlink:href="#DejaVuSans-117"/>
      <use x="240.673828" xlink:href="#DejaVuSans-108"/>
      <use x="268.457031" xlink:href="#DejaVuSans-97"/>
      <use x="329.736328" xlink:href="#DejaVuSans-116"/>
      <use x="368.945312" xlink:href="#DejaVuSans-101"/>
      <use x="430.46875" xlink:href="#DejaVuSans-100"/>
      <use x="493.945312" xlink:href="#DejaVuSans-68"/>
      <use x="570.947266" xlink:href="#DejaVuSans-105"/>
      <use x="598.730469" xlink:href="#DejaVuSans-115"/>
      <use x="650.830078" xlink:href="#DejaVuSans-116"/>
     </g>
    </g>
   </g>
  </g>
  <g id="axes_2">
   <g id="patch_108">
    <path d="M 57.6 307.584 
L 414.72 307.584 
L 414.72 186.624 
L 57.6 186.624 
z
" style="fill:#ffffff;"/>
   </g>
   <g id="patch_109">
    <path clip-path="url(#p1210ad7b85)" d="M 73.832727 307.584 
L 74.420352 307.584 
L 74.420352 249.984 
L 73.832727 249.984 
z
" style="fill:#1f77b4;"/>
   </g>
   <g id="patch_110">
    <path clip-path="url(#p1210ad7b85)" d="M 74.420352 307.584 
L 75.007977 307.584 
L 75.007977 221.184 
L 74.420352 221.184 
z
" style="fill:#1f77b4;"/>
   </g>
   <g id="patch_111">
    <path clip-path="url(#p1210ad7b85)" d="M 75.007977 307.584 
L 75.595601 307.584 
L 75.595601 307.584 
L 75.007977 307.584 
z
" style="fill:#1f77b4;"/>
   </g>
   <g id="patch_112">
    <path clip-path="url(#p1210ad7b85)" d="M 75.595601 307.584 
L 76.183226 307.584 
L 76.183226 221.184 
L 75.595601 221.184 
z
" style="fill:#1f77b4;"/>
   </g>
   <g id="patch_113">
    <path clip-path="url(#p1210ad7b85)" d="M 76.183226 307.584 
L 76.770851 307.584 
L 76.770851 278.784 
L 76.183226 278.784 
z
" style="fill:#1f77b4;"/>
   </g>
   <g id="patch_114">
    <path clip-path="url(#p1210ad7b85)" d="M 76.770851 307.584 
L 77.358476 307.584 
L 77.358476 307.584 
L 76.770851 307.584 
z
" style="fill:#1f77b4;"/>
   </g>
   <g id="patch_115">
    <path clip-path="url(#p1210ad7b85)" d="M 77.358476 307.584 
L 77.9461 307.584 
L 77.9461 192.384 
L 77.358476 192.384 
z
" style="fill:#1f77b4;"/>
   </g>
   <g id="patch_116">
    <path clip-path="url(#p1210ad7b85)" d="M 77.9461 307.584 
L 78.533725 307.584 
L 78.533725 249.984 
L 77.9461 249.984 
z
" style="fill:#1f77b4;"/>
   </g>
   <g id="patch_117">
    <path clip-path="url(#p1210ad7b85)" d="M 78.533725 307.584 
L 79.12135 307.584 
L 79.12135 192.384 
L 78.533725 192.384 
z
" style="fill:#1f77b4;"/>
   </g>
   <g id="patch_118">
    <path clip-path="url(#p1210ad7b85)" d="M 79.12135 307.584 
L 79.708975 307.584 
L 79.708975 307.584 
L 79.12135 307.584 
z
" style="fill:#1f77b4;"/>
   </g>
   <g id="patch_119">
    <path clip-path="url(#p1210ad7b85)" d="M 79.708975 307.584 
L 80.296599 307.584 
L 80.296599 278.784 
L 79.708975 278.784 
z
" style="fill:#1f77b4;"/>
   </g>
   <g id="patch_120">
    <path clip-path="url(#p1210ad7b85)" d="M 80.296599 307.584 
L 80.884224 307.584 
L 80.884224 249.984 
L 80.296599 249.984 
z
" style="fill:#1f77b4;"/>
   </g>
   <g id="patch_121">
    <path clip-path="url(#p1210ad7b85)" d="M 80.884224 307.584 
L 81.471849 307.584 
L 81.471849 307.584 
L 80.884224 307.584 
z
" style="fill:#1f77b4;"/>
   </g>
   <g id="patch_122">
    <path clip-path="url(#p1210ad7b85)" d="M 81.471849 307.584 
L 82.059473 307.584 
L 82.059473 249.984 
L 81.471849 249.984 
z
" style="fill:#1f77b4;"/>
   </g>
   <g id="patch_123">
    <path clip-path="url(#p1210ad7b85)" d="M 82.059473 307.584 
L 82.647098 307.584 
L 82.647098 192.384 
L 82.059473 192.384 
z
" style="fill:#1f77b4;"/>
   </g>
   <g id="patch_124">
    <path clip-path="url(#p1210ad7b85)" d="M 82.647098 307.584 
L 83.234723 307.584 
L 83.234723 307.584 
L 82.647098 307.584 
z
" style="fill:#1f77b4;"/>
   </g>
   <g id="patch_125">
    <path clip-path="url(#p1210ad7b85)" d="M 83.234723 307.584 
L 83.822348 307.584 
L 83.822348 278.784 
L 83.234723 278.784 
z
" style="fill:#1f77b4;"/>
   </g>
   <g id="patch_126">
    <path clip-path="url(#p1210ad7b85)" d="M 83.822348 307.584 
L 84.409972 307.584 
L 84.409972 307.584 
L 83.822348 307.584 
z
" style="fill:#1f77b4;"/>
   </g>
   <g id="patch_127">
    <path clip-path="url(#p1210ad7b85)" d="M 84.409972 307.584 
L 84.997597 307.584 
L 84.997597 307.584 
L 84.409972 307.584 
z
" style="fill:#1f77b4;"/>
   </g>
   <g id="patch_128">
    <path clip-path="url(#p1210ad7b85)" d="M 84.997597 307.584 
L 85.585222 307.584 
L 85.585222 307.584 
L 84.997597 307.584 
z
" style="fill:#1f77b4;"/>
   </g>
   <g id="patch_129">
    <path clip-path="url(#p1210ad7b85)" d="M 85.585222 307.584 
L 86.172847 307.584 
L 86.172847 307.584 
L 85.585222 307.584 
z
" style="fill:#1f77b4;"/>
   </g>
   <g id="patch_130">
    <path clip-path="url(#p1210ad7b85)" d="M 86.172847 307.584 
L 86.760471 307.584 
L 86.760471 278.784 
L 86.172847 278.784 
z
" style="fill:#1f77b4;"/>
   </g>
   <g id="patch_131">
    <path clip-path="url(#p1210ad7b85)" d="M 86.760471 307.584 
L 87.348096 307.584 
L 87.348096 249.984 
L 86.760471 249.984 
z
" style="fill:#1f77b4;"/>
   </g>
   <g id="patch_132">
    <path clip-path="url(#p1210ad7b85)" d="M 87.348096 307.584 
L 87.935721 307.584 
L 87.935721 278.784 
L 87.348096 278.784 
z
" style="fill:#1f77b4;"/>
   </g>
   <g id="patch_133">
    <path clip-path="url(#p1210ad7b85)" d="M 87.935721 307.584 
L 88.523345 307.584 
L 88.523345 278.784 
L 87.935721 278.784 
z
" style="fill:#1f77b4;"/>
   </g>
   <g id="patch_134">
    <path clip-path="url(#p1210ad7b85)" d="M 88.523345 307.584 
L 89.11097 307.584 
L 89.11097 278.784 
L 88.523345 278.784 
z
" style="fill:#1f77b4;"/>
   </g>
   <g id="patch_135">
    <path clip-path="url(#p1210ad7b85)" d="M 89.11097 307.584 
L 89.698595 307.584 
L 89.698595 307.584 
L 89.11097 307.584 
z
" style="fill:#1f77b4;"/>
   </g>
   <g id="patch_136">
    <path clip-path="url(#p1210ad7b85)" d="M 89.698595 307.584 
L 90.28622 307.584 
L 90.28622 307.584 
L 89.698595 307.584 
z
" style="fill:#1f77b4;"/>
   </g>
   <g id="patch_137">
    <path clip-path="url(#p1210ad7b85)" d="M 90.28622 307.584 
L 90.873844 307.584 
L 90.873844 278.784 
L 90.28622 278.784 
z
" style="fill:#1f77b4;"/>
   </g>
   <g id="patch_138">
    <path clip-path="url(#p1210ad7b85)" d="M 90.873844 307.584 
L 91.461469 307.584 
L 91.461469 307.584 
L 90.873844 307.584 
z
" style="fill:#1f77b4;"/>
   </g>
   <g id="patch_139">
    <path clip-path="url(#p1210ad7b85)" d="M 91.461469 307.584 
L 92.049094 307.584 
L 92.049094 307.584 
L 91.461469 307.584 
z
" style="fill:#1f77b4;"/>
   </g>
   <g id="patch_140">
    <path clip-path="url(#p1210ad7b85)" d="M 92.049094 307.584 
L 92.636719 307.584 
L 92.636719 307.584 
L 92.049094 307.584 
z
" style="fill:#1f77b4;"/>
   </g>
   <g id="patch_141">
    <path clip-path="url(#p1210ad7b85)" d="M 92.636719 307.584 
L 93.224343 307.584 
L 93.224343 307.584 
L 92.636719 307.584 
z
" style="fill:#1f77b4;"/>
   </g>
   <g id="patch_142">
    <path clip-path="url(#p1210ad7b85)" d="M 93.224343 307.584 
L 93.811968 307.584 
L 93.811968 307.584 
L 93.224343 307.584 
z
" style="fill:#1f77b4;"/>
   </g>
   <g id="patch_143">
    <path clip-path="url(#p1210ad7b85)" d="M 93.811968 307.584 
L 94.399593 307.584 
L 94.399593 307.584 
L 93.811968 307.584 
z
" style="fill:#1f77b4;"/>
   </g>
   <g id="patch_144">
    <path clip-path="url(#p1210ad7b85)" d="M 94.399593 307.584 
L 94.987217 307.584 
L 94.987217 249.984 
L 94.399593 249.984 
z
" style="fill:#1f77b4;"/>
   </g>
   <g id="patch_145">
    <path clip-path="url(#p1210ad7b85)" d="M 94.987217 307.584 
L 95.574842 307.584 
L 95.574842 307.584 
L 94.987217 307.584 
z
" style="fill:#1f77b4;"/>
   </g>
   <g id="patch_146">
    <path clip-path="url(#p1210ad7b85)" d="M 95.574842 307.584 
L 96.162467 307.584 
L 96.162467 278.784 
L 95.574842 278.784 
z
" style="fill:#1f77b4;"/>
   </g>
   <g id="patch_147">
    <path clip-path="url(#p1210ad7b85)" d="M 96.162467 307.584 
L 96.750092 307.584 
L 96.750092 278.784 
L 96.162467 278.784 
z
" style="fill:#1f77b4;"/>
   </g>
   <g id="patch_148">
    <path clip-path="url(#p1210ad7b85)" d="M 96.750092 307.584 
L 97.337716 307.584 
L 97.337716 307.584 
L 96.750092 307.584 
z
" style="fill:#1f77b4;"/>
   </g>
   <g id="patch_149">
    <path clip-path="url(#p1210ad7b85)" d="M 97.337716 307.584 
L 97.925341 307.584 
L 97.925341 307.584 
L 97.337716 307.584 
z
" style="fill:#1f77b4;"/>
   </g>
   <g id="patch_150">
    <path clip-path="url(#p1210ad7b85)" d="M 97.925341 307.584 
L 98.512966 307.584 
L 98.512966 307.584 
L 97.925341 307.584 
z
" style="fill:#1f77b4;"/>
   </g>
   <g id="patch_151">
    <path clip-path="url(#p1210ad7b85)" d="M 98.512966 307.584 
L 99.100591 307.584 
L 99.100591 278.784 
L 98.512966 278.784 
z
" style="fill:#1f77b4;"/>
   </g>
   <g id="patch_152">
    <path clip-path="url(#p1210ad7b85)" d="M 99.100591 307.584 
L 99.688215 307.584 
L 99.688215 278.784 
L 99.100591 278.784 
z
" style="fill:#1f77b4;"/>
   </g>
   <g id="patch_153">
    <path clip-path="url(#p1210ad7b85)" d="M 99.688215 307.584 
L 100.27584 307.584 
L 100.27584 307.584 
L 99.688215 307.584 
z
" style="fill:#1f77b4;"/>
   </g>
   <g id="patch_154">
    <path clip-path="url(#p1210ad7b85)" d="M 100.27584 307.584 
L 100.863465 307.584 
L 100.863465 278.784 
L 100.27584 278.784 
z
" style="fill:#1f77b4;"/>
   </g>
   <g id="patch_155">
    <path clip-path="url(#p1210ad7b85)" d="M 100.863465 307.584 
L 101.451089 307.584 
L 101.451089 278.784 
L 100.863465 278.784 
z
" style="fill:#1f77b4;"/>
   </g>
   <g id="patch_156">
    <path clip-path="url(#p1210ad7b85)" d="M 101.451089 307.584 
L 102.038714 307.584 
L 102.038714 307.584 
L 101.451089 307.584 
z
" style="fill:#1f77b4;"/>
   </g>
   <g id="patch_157">
    <path clip-path="url(#p1210ad7b85)" d="M 102.038714 307.584 
L 102.626339 307.584 
L 102.626339 307.584 
L 102.038714 307.584 
z
" style="fill:#1f77b4;"/>
   </g>
   <g id="patch_158">
    <path clip-path="url(#p1210ad7b85)" d="M 102.626339 307.584 
L 103.213964 307.584 
L 103.213964 278.784 
L 102.626339 278.784 
z
" style="fill:#1f77b4;"/>
   </g>
   <g id="patch_159">
    <path clip-path="url(#p1210ad7b85)" d="M 103.213964 307.584 
L 103.801588 307.584 
L 103.801588 278.784 
L 103.213964 278.784 
z
" style="fill:#1f77b4;"/>
   </g>
   <g id="patch_160">
    <path clip-path="url(#p1210ad7b85)" d="M 103.801588 307.584 
L 104.389213 307.584 
L 104.389213 307.584 
L 103.801588 307.584 
z
" style="fill:#1f77b4;"/>
   </g>
   <g id="patch_161">
    <path clip-path="url(#p1210ad7b85)" d="M 104.389213 307.584 
L 104.976838 307.584 
L 104.976838 307.584 
L 104.389213 307.584 
z
" style="fill:#1f77b4;"/>
   </g>
   <g id="patch_162">
    <path clip-path="url(#p1210ad7b85)" d="M 104.976838 307.584 
L 105.564463 307.584 
L 105.564463 278.784 
L 104.976838 278.784 
z
" style="fill:#1f77b4;"/>
   </g>
   <g id="patch_163">
    <path clip-path="url(#p1210ad7b85)" d="M 105.564463 307.584 
L 106.152087 307.584 
L 106.152087 307.584 
L 105.564463 307.584 
z
" style="fill:#1f77b4;"/>
   </g>
   <g id="patch_164">
    <path clip-path="url(#p1210ad7b85)" d="M 106.152087 307.584 
L 106.739712 307.584 
L 106.739712 307.584 
L 106.152087 307.584 
z
" style="fill:#1f77b4;"/>
   </g>
   <g id="patch_165">
    <path clip-path="url(#p1210ad7b85)" d="M 106.739712 307.584 
L 107.327337 307.584 
L 107.327337 307.584 
L 106.739712 307.584 
z
" style="fill:#1f77b4;"/>
   </g>
   <g id="patch_166">
    <path clip-path="url(#p1210ad7b85)" d="M 107.327337 307.584 
L 107.914961 307.584 
L 107.914961 307.584 
L 107.327337 307.584 
z
" style="fill:#1f77b4;"/>
   </g>
   <g id="patch_167">
    <path clip-path="url(#p1210ad7b85)" d="M 107.914961 307.584 
L 108.502586 307.584 
L 108.502586 307.584 
L 107.914961 307.584 
z
" style="fill:#1f77b4;"/>
   </g>
   <g id="patch_168">
    <path clip-path="url(#p1210ad7b85)" d="M 108.502586 307.584 
L 109.090211 307.584 
L 109.090211 307.584 
L 108.502586 307.584 
z
" style="fill:#1f77b4;"/>
   </g>
   <g id="patch_169">
    <path clip-path="url(#p1210ad7b85)" d="M 109.090211 307.584 
L 109.677836 307.584 
L 109.677836 307.584 
L 109.090211 307.584 
z
" style="fill:#1f77b4;"/>
   </g>
   <g id="patch_170">
    <path clip-path="url(#p1210ad7b85)" d="M 109.677836 307.584 
L 110.26546 307.584 
L 110.26546 307.584 
L 109.677836 307.584 
z
" style="fill:#1f77b4;"/>
   </g>
   <g id="patch_171">
    <path clip-path="url(#p1210ad7b85)" d="M 110.26546 307.584 
L 110.853085 307.584 
L 110.853085 307.584 
L 110.26546 307.584 
z
" style="fill:#1f77b4;"/>
   </g>
   <g id="patch_172">
    <path clip-path="url(#p1210ad7b85)" d="M 110.853085 307.584 
L 111.44071 307.584 
L 111.44071 307.584 
L 110.853085 307.584 
z
" style="fill:#1f77b4;"/>
   </g>
   <g id="patch_173">
    <path clip-path="url(#p1210ad7b85)" d="M 111.44071 307.584 
L 112.028335 307.584 
L 112.028335 307.584 
L 111.44071 307.584 
z
" style="fill:#1f77b4;"/>
   </g>
   <g id="patch_174">
    <path clip-path="url(#p1210ad7b85)" d="M 112.028335 307.584 
L 112.615959 307.584 
L 112.615959 307.584 
L 112.028335 307.584 
z
" style="fill:#1f77b4;"/>
   </g>
   <g id="patch_175">
    <path clip-path="url(#p1210ad7b85)" d="M 112.615959 307.584 
L 113.203584 307.584 
L 113.203584 307.584 
L 112.615959 307.584 
z
" style="fill:#1f77b4;"/>
   </g>
   <g id="patch_176">
    <path clip-path="url(#p1210ad7b85)" d="M 113.203584 307.584 
L 113.791209 307.584 
L 113.791209 307.584 
L 113.203584 307.584 
z
" style="fill:#1f77b4;"/>
   </g>
   <g id="patch_177">
    <path clip-path="url(#p1210ad7b85)" d="M 113.791209 307.584 
L 114.378833 307.584 
L 114.378833 307.584 
L 113.791209 307.584 
z
" style="fill:#1f77b4;"/>
   </g>
   <g id="patch_178">
    <path clip-path="url(#p1210ad7b85)" d="M 114.378833 307.584 
L 114.966458 307.584 
L 114.966458 307.584 
L 114.378833 307.584 
z
" style="fill:#1f77b4;"/>
   </g>
   <g id="patch_179">
    <path clip-path="url(#p1210ad7b85)" d="M 114.966458 307.584 
L 115.554083 307.584 
L 115.554083 307.584 
L 114.966458 307.584 
z
" style="fill:#1f77b4;"/>
   </g>
   <g id="patch_180">
    <path clip-path="url(#p1210ad7b85)" d="M 115.554083 307.584 
L 116.141708 307.584 
L 116.141708 307.584 
L 115.554083 307.584 
z
" style="fill:#1f77b4;"/>
   </g>
   <g id="patch_181">
    <path clip-path="url(#p1210ad7b85)" d="M 116.141708 307.584 
L 116.729332 307.584 
L 116.729332 307.584 
L 116.141708 307.584 
z
" style="fill:#1f77b4;"/>
   </g>
   <g id="patch_182">
    <path clip-path="url(#p1210ad7b85)" d="M 116.729332 307.584 
L 117.316957 307.584 
L 117.316957 307.584 
L 116.729332 307.584 
z
" style="fill:#1f77b4;"/>
   </g>
   <g id="patch_183">
    <path clip-path="url(#p1210ad7b85)" d="M 117.316957 307.584 
L 117.904582 307.584 
L 117.904582 307.584 
L 117.316957 307.584 
z
" style="fill:#1f77b4;"/>
   </g>
   <g id="patch_184">
    <path clip-path="url(#p1210ad7b85)" d="M 117.904582 307.584 
L 118.492207 307.584 
L 118.492207 307.584 
L 117.904582 307.584 
z
" style="fill:#1f77b4;"/>
   </g>
   <g id="patch_185">
    <path clip-path="url(#p1210ad7b85)" d="M 118.492207 307.584 
L 119.079831 307.584 
L 119.079831 307.584 
L 118.492207 307.584 
z
" style="fill:#1f77b4;"/>
   </g>
   <g id="patch_186">
    <path clip-path="url(#p1210ad7b85)" d="M 119.079831 307.584 
L 119.667456 307.584 
L 119.667456 278.784 
L 119.079831 278.784 
z
" style="fill:#1f77b4;"/>
   </g>
   <g id="patch_187">
    <path clip-path="url(#p1210ad7b85)" d="M 119.667456 307.584 
L 120.255081 307.584 
L 120.255081 307.584 
L 119.667456 307.584 
z
" style="fill:#1f77b4;"/>
   </g>
   <g id="patch_188">
    <path clip-path="url(#p1210ad7b85)" d="M 120.255081 307.584 
L 120.842705 307.584 
L 120.842705 307.584 
L 120.255081 307.584 
z
" style="fill:#1f77b4;"/>
   </g>
   <g id="patch_189">
    <path clip-path="url(#p1210ad7b85)" d="M 120.842705 307.584 
L 121.43033 307.584 
L 121.43033 307.584 
L 120.842705 307.584 
z
" style="fill:#1f77b4;"/>
   </g>
   <g id="patch_190">
    <path clip-path="url(#p1210ad7b85)" d="M 121.43033 307.584 
L 122.017955 307.584 
L 122.017955 307.584 
L 121.43033 307.584 
z
" style="fill:#1f77b4;"/>
   </g>
   <g id="patch_191">
    <path clip-path="url(#p1210ad7b85)" d="M 122.017955 307.584 
L 122.60558 307.584 
L 122.60558 307.584 
L 122.017955 307.584 
z
" style="fill:#1f77b4;"/>
   </g>
   <g id="patch_192">
    <path clip-path="url(#p1210ad7b85)" d="M 122.60558 307.584 
L 123.193204 307.584 
L 123.193204 307.584 
L 122.60558 307.584 
z
" style="fill:#1f77b4;"/>
   </g>
   <g id="patch_193">
    <path clip-path="url(#p1210ad7b85)" d="M 123.193204 307.584 
L 123.780829 307.584 
L 123.780829 307.584 
L 123.193204 307.584 
z
" style="fill:#1f77b4;"/>
   </g>
   <g id="patch_194">
    <path clip-path="url(#p1210ad7b85)" d="M 123.780829 307.584 
L 124.368454 307.584 
L 124.368454 307.584 
L 123.780829 307.584 
z
" style="fill:#1f77b4;"/>
   </g>
   <g id="patch_195">
    <path clip-path="url(#p1210ad7b85)" d="M 124.368454 307.584 
L 124.956079 307.584 
L 124.956079 307.584 
L 124.368454 307.584 
z
" style="fill:#1f77b4;"/>
   </g>
   <g id="patch_196">
    <path clip-path="url(#p1210ad7b85)" d="M 124.956079 307.584 
L 125.543703 307.584 
L 125.543703 307.584 
L 124.956079 307.584 
z
" style="fill:#1f77b4;"/>
   </g>
   <g id="patch_197">
    <path clip-path="url(#p1210ad7b85)" d="M 125.543703 307.584 
L 126.131328 307.584 
L 126.131328 307.584 
L 125.543703 307.584 
z
" style="fill:#1f77b4;"/>
   </g>
   <g id="patch_198">
    <path clip-path="url(#p1210ad7b85)" d="M 126.131328 307.584 
L 126.718953 307.584 
L 126.718953 307.584 
L 126.131328 307.584 
z
" style="fill:#1f77b4;"/>
   </g>
   <g id="patch_199">
    <path clip-path="url(#p1210ad7b85)" d="M 126.718953 307.584 
L 127.306577 307.584 
L 127.306577 307.584 
L 126.718953 307.584 
z
" style="fill:#1f77b4;"/>
   </g>
   <g id="patch_200">
    <path clip-path="url(#p1210ad7b85)" d="M 127.306577 307.584 
L 127.894202 307.584 
L 127.894202 278.784 
L 127.306577 278.784 
z
" style="fill:#1f77b4;"/>
   </g>
   <g id="patch_201">
    <path clip-path="url(#p1210ad7b85)" d="M 127.894202 307.584 
L 128.481827 307.584 
L 128.481827 307.584 
L 127.894202 307.584 
z
" style="fill:#1f77b4;"/>
   </g>
   <g id="patch_202">
    <path clip-path="url(#p1210ad7b85)" d="M 128.481827 307.584 
L 129.069452 307.584 
L 129.069452 307.584 
L 128.481827 307.584 
z
" style="fill:#1f77b4;"/>
   </g>
   <g id="patch_203">
    <path clip-path="url(#p1210ad7b85)" d="M 129.069452 307.584 
L 129.657076 307.584 
L 129.657076 307.584 
L 129.069452 307.584 
z
" style="fill:#1f77b4;"/>
   </g>
   <g id="patch_204">
    <path clip-path="url(#p1210ad7b85)" d="M 129.657076 307.584 
L 130.244701 307.584 
L 130.244701 307.584 
L 129.657076 307.584 
z
" style="fill:#1f77b4;"/>
   </g>
   <g id="patch_205">
    <path clip-path="url(#p1210ad7b85)" d="M 130.244701 307.584 
L 130.832326 307.584 
L 130.832326 307.584 
L 130.244701 307.584 
z
" style="fill:#1f77b4;"/>
   </g>
   <g id="patch_206">
    <path clip-path="url(#p1210ad7b85)" d="M 130.832326 307.584 
L 131.419951 307.584 
L 131.419951 307.584 
L 130.832326 307.584 
z
" style="fill:#1f77b4;"/>
   </g>
   <g id="patch_207">
    <path clip-path="url(#p1210ad7b85)" d="M 131.419951 307.584 
L 132.007575 307.584 
L 132.007575 307.584 
L 131.419951 307.584 
z
" style="fill:#1f77b4;"/>
   </g>
   <g id="patch_208">
    <path clip-path="url(#p1210ad7b85)" d="M 132.007575 307.584 
L 132.5952 307.584 
L 132.5952 278.784 
L 132.007575 278.784 
z
" style="fill:#1f77b4;"/>
   </g>
   <g id="matplotlib.axis_3">
    <g id="xtick_7">
     <g id="line2d_18">
      <g>
       <use style="stroke:#000000;stroke-width:0.8;" x="73.832727" xlink:href="#m99b82bc5f7" y="307.584"/>
      </g>
     </g>
     <g id="text_15">
      <!-- 0 -->
      <g transform="translate(70.651477 322.182437)scale(0.1 -0.1)">
       <use xlink:href="#DejaVuSans-48"/>
      </g>
     </g>
    </g>
    <g id="xtick_8">
     <g id="line2d_19">
      <g>
       <use style="stroke:#000000;stroke-width:0.8;" x="138.763636" xlink:href="#m99b82bc5f7" y="307.584"/>
      </g>
     </g>
     <g id="text_16">
      <!-- 20 -->
      <g transform="translate(132.401136 322.182437)scale(0.1 -0.1)">
       <use xlink:href="#DejaVuSans-50"/>
       <use x="63.623047" xlink:href="#DejaVuSans-48"/>
      </g>
     </g>
    </g>
    <g id="xtick_9">
     <g id="line2d_20">
      <g>
       <use style="stroke:#000000;stroke-width:0.8;" x="203.694545" xlink:href="#m99b82bc5f7" y="307.584"/>
      </g>
     </g>
     <g id="text_17">
      <!-- 40 -->
      <g transform="translate(197.332045 322.182437)scale(0.1 -0.1)">
       <use xlink:href="#DejaVuSans-52"/>
       <use x="63.623047" xlink:href="#DejaVuSans-48"/>
      </g>
     </g>
    </g>
    <g id="xtick_10">
     <g id="line2d_21">
      <g>
       <use style="stroke:#000000;stroke-width:0.8;" x="268.625455" xlink:href="#m99b82bc5f7" y="307.584"/>
      </g>
     </g>
     <g id="text_18">
      <!-- 60 -->
      <g transform="translate(262.262955 322.182437)scale(0.1 -0.1)">
       <use xlink:href="#DejaVuSans-54"/>
       <use x="63.623047" xlink:href="#DejaVuSans-48"/>
      </g>
     </g>
    </g>
    <g id="xtick_11">
     <g id="line2d_22">
      <g>
       <use style="stroke:#000000;stroke-width:0.8;" x="333.556364" xlink:href="#m99b82bc5f7" y="307.584"/>
      </g>
     </g>
     <g id="text_19">
      <!-- 80 -->
      <g transform="translate(327.193864 322.182437)scale(0.1 -0.1)">
       <use xlink:href="#DejaVuSans-56"/>
       <use x="63.623047" xlink:href="#DejaVuSans-48"/>
      </g>
     </g>
    </g>
    <g id="xtick_12">
     <g id="line2d_23">
      <g>
       <use style="stroke:#000000;stroke-width:0.8;" x="398.487273" xlink:href="#m99b82bc5f7" y="307.584"/>
      </g>
     </g>
     <g id="text_20">
      <!-- 100 -->
      <g transform="translate(388.943523 322.182437)scale(0.1 -0.1)">
       <use xlink:href="#DejaVuSans-49"/>
       <use x="63.623047" xlink:href="#DejaVuSans-48"/>
       <use x="127.246094" xlink:href="#DejaVuSans-48"/>
      </g>
     </g>
    </g>
   </g>
   <g id="matplotlib.axis_4">
    <g id="ytick_6">
     <g id="line2d_24">
      <g>
       <use style="stroke:#000000;stroke-width:0.8;" x="57.6" xlink:href="#m9f40181ea0" y="307.584"/>
      </g>
     </g>
     <g id="text_21">
      <!-- 0.0 -->
      <g transform="translate(34.696875 311.383219)scale(0.1 -0.1)">
       <use xlink:href="#DejaVuSans-48"/>
       <use x="63.623047" xlink:href="#DejaVuSans-46"/>
       <use x="95.410156" xlink:href="#DejaVuSans-48"/>
      </g>
     </g>
    </g>
    <g id="ytick_7">
     <g id="line2d_25">
      <g>
       <use style="stroke:#000000;stroke-width:0.8;" x="57.6" xlink:href="#m9f40181ea0" y="281.52"/>
      </g>
     </g>
     <g id="text_22">
      <!-- 0.1 -->
      <g transform="translate(34.696875 285.319219)scale(0.1 -0.1)">
       <use xlink:href="#DejaVuSans-48"/>
       <use x="63.623047" xlink:href="#DejaVuSans-46"/>
       <use x="95.410156" xlink:href="#DejaVuSans-49"/>
      </g>
     </g>
    </g>
    <g id="ytick_8">
     <g id="line2d_26">
      <g>
       <use style="stroke:#000000;stroke-width:0.8;" x="57.6" xlink:href="#m9f40181ea0" y="255.456"/>
      </g>
     </g>
     <g id="text_23">
      <!-- 0.2 -->
      <g transform="translate(34.696875 259.255219)scale(0.1 -0.1)">
       <use xlink:href="#DejaVuSans-48"/>
       <use x="63.623047" xlink:href="#DejaVuSans-46"/>
       <use x="95.410156" xlink:href="#DejaVuSans-50"/>
      </g>
     </g>
    </g>
    <g id="ytick_9">
     <g id="line2d_27">
      <g>
       <use style="stroke:#000000;stroke-width:0.8;" x="57.6" xlink:href="#m9f40181ea0" y="229.392"/>
      </g>
     </g>
     <g id="text_24">
      <!-- 0.3 -->
      <defs>
       <path d="M 40.578125 39.3125 
Q 47.65625 37.796875 51.625 33 
Q 55.609375 28.21875 55.609375 21.1875 
Q 55.609375 10.40625 48.1875 4.484375 
Q 40.765625 -1.421875 27.09375 -1.421875 
Q 22.515625 -1.421875 17.65625 -0.515625 
Q 12.796875 0.390625 7.625 2.203125 
L 7.625 11.71875 
Q 11.71875 9.328125 16.59375 8.109375 
Q 21.484375 6.890625 26.8125 6.890625 
Q 36.078125 6.890625 40.9375 10.546875 
Q 45.796875 14.203125 45.796875 21.1875 
Q 45.796875 27.640625 41.28125 31.265625 
Q 36.765625 34.90625 28.71875 34.90625 
L 20.21875 34.90625 
L 20.21875 43.015625 
L 29.109375 43.015625 
Q 36.375 43.015625 40.234375 45.921875 
Q 44.09375 48.828125 44.09375 54.296875 
Q 44.09375 59.90625 40.109375 62.90625 
Q 36.140625 65.921875 28.71875 65.921875 
Q 24.65625 65.921875 20.015625 65.03125 
Q 15.375 64.15625 9.8125 62.3125 
L 9.8125 71.09375 
Q 15.4375 72.65625 20.34375 73.4375 
Q 25.25 74.21875 29.59375 74.21875 
Q 40.828125 74.21875 47.359375 69.109375 
Q 53.90625 64.015625 53.90625 55.328125 
Q 53.90625 49.265625 50.4375 45.09375 
Q 46.96875 40.921875 40.578125 39.3125 
z
" id="DejaVuSans-51"/>
      </defs>
      <g transform="translate(34.696875 233.191219)scale(0.1 -0.1)">
       <use xlink:href="#DejaVuSans-48"/>
       <use x="63.623047" xlink:href="#DejaVuSans-46"/>
       <use x="95.410156" xlink:href="#DejaVuSans-51"/>
      </g>
     </g>
    </g>
    <g id="ytick_10">
     <g id="line2d_28">
      <g>
       <use style="stroke:#000000;stroke-width:0.8;" x="57.6" xlink:href="#m9f40181ea0" y="203.328"/>
      </g>
     </g>
     <g id="text_25">
      <!-- 0.4 -->
      <g transform="translate(34.696875 207.127219)scale(0.1 -0.1)">
       <use xlink:href="#DejaVuSans-48"/>
       <use x="63.623047" xlink:href="#DejaVuSans-46"/>
       <use x="95.410156" xlink:href="#DejaVuSans-52"/>
      </g>
     </g>
    </g>
   </g>
   <g id="line2d_29">
    <path clip-path="url(#p1210ad7b85)" d="M 73.832727 307.584 
L 74.157707 301.630924 
L 74.807666 278.627366 
L 75.457625 264.566425 
L 75.782604 260.56001 
L 76.107584 257.957992 
L 76.432563 256.406783 
L 76.757543 255.637613 
L 77.082523 255.448744 
L 77.407502 255.689065 
L 77.732482 256.245145 
L 78.382441 257.983546 
L 79.682359 262.625857 
L 82.282195 272.142588 
L 83.907093 277.179196 
L 85.53199 281.425269 
L 87.156888 284.975312 
L 88.781785 287.942715 
L 90.406683 290.431229 
L 92.031581 292.528189 
L 93.656478 294.304786 
L 95.606355 296.093713 
L 97.556233 297.58127 
L 99.831089 299.015199 
L 102.105946 300.192701 
L 104.705782 301.293571 
L 107.630598 302.290852 
L 110.880393 303.171624 
L 114.780147 303.99429 
L 119.329861 304.720899 
L 124.854513 305.368492 
L 131.679083 305.931755 
L 140.45353 306.414518 
L 151.827813 306.80412 
L 167.75181 307.112831 
L 192.125274 307.341817 
L 235.022572 307.491417 
L 335.441245 307.566462 
L 398.487273 307.576153 
L 398.487273 307.576153 
" style="fill:none;stroke:#ff7f0e;stroke-linecap:square;stroke-width:1.5;"/>
   </g>
   <g id="line2d_30">
    <path clip-path="url(#p1210ad7b85)" d="M 73.832727 292.597604 
L 74.482686 271.401989 
L 75.132645 257.910379 
L 75.782604 251.062074 
L 76.107584 249.378271 
L 76.432563 248.525926 
L 76.757543 248.315542 
L 77.082523 248.596458 
L 77.407502 249.249813 
L 78.057461 251.320356 
L 79.0324 255.455292 
L 82.282195 269.982606 
L 83.907093 275.952766 
L 85.207011 280 
L 86.506929 283.46885 
L 88.131826 287.109342 
L 89.756724 290.109506 
L 91.381622 292.591249 
L 93.006519 294.654147 
L 94.631417 296.378023 
L 96.581294 298.087706 
L 98.531171 299.485683 
L 100.806028 300.808936 
L 103.080885 301.874296 
L 105.680721 302.8496 
L 108.605536 303.71246 
L 112.180311 304.518984 
L 116.405045 305.222066 
L 121.279738 305.803156 
L 127.454349 306.308177 
L 135.578837 306.732289 
L 146.628141 307.066366 
L 162.877117 307.313297 
L 190.175397 307.476789 
L 249.321671 307.561699 
L 398.487273 307.582472 
L 398.487273 307.582472 
" style="fill:none;stroke:#2ca02c;stroke-dasharray:5.55,2.4;stroke-dashoffset:0;stroke-width:1.5;"/>
   </g>
   <g id="patch_209">
    <path d="M 57.6 307.584 
L 57.6 186.624 
" style="fill:none;stroke:#000000;stroke-linecap:square;stroke-linejoin:miter;stroke-width:0.8;"/>
   </g>
   <g id="patch_210">
    <path d="M 414.72 307.584 
L 414.72 186.624 
" style="fill:none;stroke:#000000;stroke-linecap:square;stroke-linejoin:miter;stroke-width:0.8;"/>
   </g>
   <g id="patch_211">
    <path d="M 57.6 307.584 
L 414.72 307.584 
" style="fill:none;stroke:#000000;stroke-linecap:square;stroke-linejoin:miter;stroke-width:0.8;"/>
   </g>
   <g id="patch_212">
    <path d="M 57.6 186.624 
L 414.72 186.624 
" style="fill:none;stroke:#000000;stroke-linecap:square;stroke-linejoin:miter;stroke-width:0.8;"/>
   </g>
   <g id="text_26">
    <!-- I -->
    <defs>
     <path d="M 9.8125 72.90625 
L 19.671875 72.90625 
L 19.671875 0 
L 9.8125 0 
z
" id="DejaVuSans-73"/>
    </defs>
    <g transform="translate(234.39 180.624)scale(0.12 -0.12)">
     <use xlink:href="#DejaVuSans-73"/>
    </g>
   </g>
   <g id="legend_2">
    <g id="patch_213">
     <path d="M 187.487187 223.98025 
L 407.72 223.98025 
Q 409.72 223.98025 409.72 221.98025 
L 409.72 193.624 
Q 409.72 191.624 407.72 191.624 
L 187.487187 191.624 
Q 185.487187 191.624 185.487187 193.624 
L 185.487187 221.98025 
Q 185.487187 223.98025 187.487187 223.98025 
z
" style="fill:#ffffff;opacity:0.8;stroke:#cccccc;stroke-linejoin:miter;"/>
    </g>
    <g id="line2d_31">
     <path d="M 189.487187 199.722437 
L 209.487187 199.722437 
" style="fill:none;stroke:#ff7f0e;stroke-linecap:square;stroke-width:1.5;"/>
    </g>
    <g id="line2d_32"/>
    <g id="text_27">
     <!-- targetDist (Buzsaki &amp; Mizuseki, 2014) -->
     <g transform="translate(217.487187 203.222437)scale(0.1 -0.1)">
      <use xlink:href="#DejaVuSans-116"/>
      <use x="39.208984" xlink:href="#DejaVuSans-97"/>
      <use x="100.488281" xlink:href="#DejaVuSans-114"/>
      <use x="139.851562" xlink:href="#DejaVuSans-103"/>
      <use x="203.328125" xlink:href="#DejaVuSans-101"/>
      <use x="264.851562" xlink:href="#DejaVuSans-116"/>
      <use x="304.060547" xlink:href="#DejaVuSans-68"/>
      <use x="381.0625" xlink:href="#DejaVuSans-105"/>
      <use x="408.845703" xlink:href="#DejaVuSans-115"/>
      <use x="460.945312" xlink:href="#DejaVuSans-116"/>
      <use x="500.154297" xlink:href="#DejaVuSans-32"/>
      <use x="531.941406" xlink:href="#DejaVuSans-40"/>
      <use x="570.955078" xlink:href="#DejaVuSans-66"/>
      <use x="639.558594" xlink:href="#DejaVuSans-117"/>
      <use x="702.9375" xlink:href="#DejaVuSans-122"/>
      <use x="755.427734" xlink:href="#DejaVuSans-115"/>
      <use x="807.527344" xlink:href="#DejaVuSans-97"/>
      <use x="868.806641" xlink:href="#DejaVuSans-107"/>
      <use x="926.716797" xlink:href="#DejaVuSans-105"/>
      <use x="954.5" xlink:href="#DejaVuSans-32"/>
      <use x="986.287109" xlink:href="#DejaVuSans-38"/>
      <use x="1064.265625" xlink:href="#DejaVuSans-32"/>
      <use x="1096.052734" xlink:href="#DejaVuSans-77"/>
      <use x="1182.332031" xlink:href="#DejaVuSans-105"/>
      <use x="1210.115234" xlink:href="#DejaVuSans-122"/>
      <use x="1262.605469" xlink:href="#DejaVuSans-117"/>
      <use x="1325.984375" xlink:href="#DejaVuSans-115"/>
      <use x="1378.083984" xlink:href="#DejaVuSans-101"/>
      <use x="1439.607422" xlink:href="#DejaVuSans-107"/>
      <use x="1497.517578" xlink:href="#DejaVuSans-105"/>
      <use x="1525.300781" xlink:href="#DejaVuSans-44"/>
      <use x="1557.087891" xlink:href="#DejaVuSans-32"/>
      <use x="1588.875" xlink:href="#DejaVuSans-50"/>
      <use x="1652.498047" xlink:href="#DejaVuSans-48"/>
      <use x="1716.121094" xlink:href="#DejaVuSans-49"/>
      <use x="1779.744141" xlink:href="#DejaVuSans-52"/>
      <use x="1843.367188" xlink:href="#DejaVuSans-41"/>
     </g>
    </g>
    <g id="line2d_33">
     <path d="M 189.487187 214.400562 
L 209.487187 214.400562 
" style="fill:none;stroke:#2ca02c;stroke-dasharray:5.55,2.4;stroke-dashoffset:0;stroke-width:1.5;"/>
    </g>
    <g id="line2d_34"/>
    <g id="text_28">
     <!-- simulatedDist -->
     <g transform="translate(217.487187 217.900562)scale(0.1 -0.1)">
      <use xlink:href="#DejaVuSans-115"/>
      <use x="52.099609" xlink:href="#DejaVuSans-105"/>
      <use x="79.882812" xlink:href="#DejaVuSans-109"/>
      <use x="177.294922" xlink:href="#DejaVuSans-117"/>
      <use x="240.673828" xlink:href="#DejaVuSans-108"/>
      <use x="268.457031" xlink:href="#DejaVuSans-97"/>
      <use x="329.736328" xlink:href="#DejaVuSans-116"/>
      <use x="368.945312" xlink:href="#DejaVuSans-101"/>
      <use x="430.46875" xlink:href="#DejaVuSans-100"/>
      <use x="493.945312" xlink:href="#DejaVuSans-68"/>
      <use x="570.947266" xlink:href="#DejaVuSans-105"/>
      <use x="598.730469" xlink:href="#DejaVuSans-115"/>
      <use x="650.830078" xlink:href="#DejaVuSans-116"/>
     </g>
    </g>
   </g>
  </g>
 </g>
 <defs>
  <clipPath id="p8617960971">
   <rect height="120.96" width="357.12" x="57.6" y="41.472"/>
  </clipPath>
  <clipPath id="p1210ad7b85">
   <rect height="120.96" width="357.12" x="57.6" y="186.624"/>
  </clipPath>
 </defs>
</svg>
