<?xml version="1.0" encoding="utf-8" standalone="no"?>
<!DOCTYPE svg PUBLIC "-//W3C//DTD SVG 1.1//EN"
  "http://www.w3.org/Graphics/SVG/1.1/DTD/svg11.dtd">
<!-- Created with matplotlib (https://matplotlib.org/) -->
<svg height="345.6pt" version="1.1" viewBox="0 0 460.8 345.6" width="460.8pt" xmlns="http://www.w3.org/2000/svg" xmlns:xlink="http://www.w3.org/1999/xlink">
 <defs>
  <style type="text/css">
*{stroke-linecap:butt;stroke-linejoin:round;}
  </style>
 </defs>
 <g id="figure_1">
  <g id="patch_1">
   <path d="M 0 345.6 
L 460.8 345.6 
L 460.8 0 
L 0 0 
z
" style="fill:#ffffff;"/>
  </g>
  <g id="axes_1">
   <g id="patch_2">
    <path d="M 57.6 162.432 
L 414.72 162.432 
L 414.72 41.472 
L 57.6 41.472 
z
" style="fill:#ffffff;"/>
   </g>
   <g id="patch_3">
    <path clip-path="url(#p532f6aa528)" d="M 73.832727 162.432 
L 75.686505 162.432 
L 75.686505 126.985846 
L 73.832727 126.985846 
z
" style="fill:#1f77b4;"/>
   </g>
   <g id="patch_4">
    <path clip-path="url(#p532f6aa528)" d="M 75.686505 162.432 
L 77.540282 162.432 
L 77.540282 149.139692 
L 75.686505 149.139692 
z
" style="fill:#1f77b4;"/>
   </g>
   <g id="patch_5">
    <path clip-path="url(#p532f6aa528)" d="M 77.540282 162.432 
L 79.39406 162.432 
L 79.39406 140.278154 
L 77.540282 140.278154 
z
" style="fill:#1f77b4;"/>
   </g>
   <g id="patch_6">
    <path clip-path="url(#p532f6aa528)" d="M 79.39406 162.432 
L 81.247837 162.432 
L 81.247837 131.416615 
L 79.39406 131.416615 
z
" style="fill:#1f77b4;"/>
   </g>
   <g id="patch_7">
    <path clip-path="url(#p532f6aa528)" d="M 81.247837 162.432 
L 83.101615 162.432 
L 83.101615 91.539692 
L 81.247837 91.539692 
z
" style="fill:#1f77b4;"/>
   </g>
   <g id="patch_8">
    <path clip-path="url(#p532f6aa528)" d="M 83.101615 162.432 
L 84.955392 162.432 
L 84.955392 73.816615 
L 83.101615 73.816615 
z
" style="fill:#1f77b4;"/>
   </g>
   <g id="patch_9">
    <path clip-path="url(#p532f6aa528)" d="M 84.955392 162.432 
L 86.809169 162.432 
L 86.809169 104.832 
L 84.955392 104.832 
z
" style="fill:#1f77b4;"/>
   </g>
   <g id="patch_10">
    <path clip-path="url(#p532f6aa528)" d="M 86.809169 162.432 
L 88.662947 162.432 
L 88.662947 69.385846 
L 86.809169 69.385846 
z
" style="fill:#1f77b4;"/>
   </g>
   <g id="patch_11">
    <path clip-path="url(#p532f6aa528)" d="M 88.662947 162.432 
L 90.516724 162.432 
L 90.516724 47.232 
L 88.662947 47.232 
z
" style="fill:#1f77b4;"/>
   </g>
   <g id="patch_12">
    <path clip-path="url(#p532f6aa528)" d="M 90.516724 162.432 
L 92.370502 162.432 
L 92.370502 109.262769 
L 90.516724 109.262769 
z
" style="fill:#1f77b4;"/>
   </g>
   <g id="patch_13">
    <path clip-path="url(#p532f6aa528)" d="M 92.370502 162.432 
L 94.224279 162.432 
L 94.224279 100.401231 
L 92.370502 100.401231 
z
" style="fill:#1f77b4;"/>
   </g>
   <g id="patch_14">
    <path clip-path="url(#p532f6aa528)" d="M 94.224279 162.432 
L 96.078057 162.432 
L 96.078057 140.278154 
L 94.224279 140.278154 
z
" style="fill:#1f77b4;"/>
   </g>
   <g id="patch_15">
    <path clip-path="url(#p532f6aa528)" d="M 96.078057 162.432 
L 97.931834 162.432 
L 97.931834 144.708923 
L 96.078057 144.708923 
z
" style="fill:#1f77b4;"/>
   </g>
   <g id="patch_16">
    <path clip-path="url(#p532f6aa528)" d="M 97.931834 162.432 
L 99.785612 162.432 
L 99.785612 131.416615 
L 97.931834 131.416615 
z
" style="fill:#1f77b4;"/>
   </g>
   <g id="patch_17">
    <path clip-path="url(#p532f6aa528)" d="M 99.785612 162.432 
L 101.639389 162.432 
L 101.639389 140.278154 
L 99.785612 140.278154 
z
" style="fill:#1f77b4;"/>
   </g>
   <g id="patch_18">
    <path clip-path="url(#p532f6aa528)" d="M 101.639389 162.432 
L 103.493167 162.432 
L 103.493167 158.001231 
L 101.639389 158.001231 
z
" style="fill:#1f77b4;"/>
   </g>
   <g id="patch_19">
    <path clip-path="url(#p532f6aa528)" d="M 103.493167 162.432 
L 105.346944 162.432 
L 105.346944 144.708923 
L 103.493167 144.708923 
z
" style="fill:#1f77b4;"/>
   </g>
   <g id="patch_20">
    <path clip-path="url(#p532f6aa528)" d="M 105.346944 162.432 
L 107.200721 162.432 
L 107.200721 158.001231 
L 105.346944 158.001231 
z
" style="fill:#1f77b4;"/>
   </g>
   <g id="patch_21">
    <path clip-path="url(#p532f6aa528)" d="M 107.200721 162.432 
L 109.054499 162.432 
L 109.054499 144.708923 
L 107.200721 144.708923 
z
" style="fill:#1f77b4;"/>
   </g>
   <g id="patch_22">
    <path clip-path="url(#p532f6aa528)" d="M 109.054499 162.432 
L 110.908276 162.432 
L 110.908276 144.708923 
L 109.054499 144.708923 
z
" style="fill:#1f77b4;"/>
   </g>
   <g id="patch_23">
    <path clip-path="url(#p532f6aa528)" d="M 110.908276 162.432 
L 112.762054 162.432 
L 112.762054 153.570462 
L 110.908276 153.570462 
z
" style="fill:#1f77b4;"/>
   </g>
   <g id="patch_24">
    <path clip-path="url(#p532f6aa528)" d="M 112.762054 162.432 
L 114.615831 162.432 
L 114.615831 144.708923 
L 112.762054 144.708923 
z
" style="fill:#1f77b4;"/>
   </g>
   <g id="patch_25">
    <path clip-path="url(#p532f6aa528)" d="M 114.615831 162.432 
L 116.469609 162.432 
L 116.469609 162.432 
L 114.615831 162.432 
z
" style="fill:#1f77b4;"/>
   </g>
   <g id="patch_26">
    <path clip-path="url(#p532f6aa528)" d="M 116.469609 162.432 
L 118.323386 162.432 
L 118.323386 158.001231 
L 116.469609 158.001231 
z
" style="fill:#1f77b4;"/>
   </g>
   <g id="patch_27">
    <path clip-path="url(#p532f6aa528)" d="M 118.323386 162.432 
L 120.177164 162.432 
L 120.177164 158.001231 
L 118.323386 158.001231 
z
" style="fill:#1f77b4;"/>
   </g>
   <g id="patch_28">
    <path clip-path="url(#p532f6aa528)" d="M 120.177164 162.432 
L 122.030941 162.432 
L 122.030941 158.001231 
L 120.177164 158.001231 
z
" style="fill:#1f77b4;"/>
   </g>
   <g id="patch_29">
    <path clip-path="url(#p532f6aa528)" d="M 122.030941 162.432 
L 123.884719 162.432 
L 123.884719 162.432 
L 122.030941 162.432 
z
" style="fill:#1f77b4;"/>
   </g>
   <g id="patch_30">
    <path clip-path="url(#p532f6aa528)" d="M 123.884719 162.432 
L 125.738496 162.432 
L 125.738496 158.001231 
L 123.884719 158.001231 
z
" style="fill:#1f77b4;"/>
   </g>
   <g id="patch_31">
    <path clip-path="url(#p532f6aa528)" d="M 125.738496 162.432 
L 127.592273 162.432 
L 127.592273 162.432 
L 125.738496 162.432 
z
" style="fill:#1f77b4;"/>
   </g>
   <g id="patch_32">
    <path clip-path="url(#p532f6aa528)" d="M 127.592273 162.432 
L 129.446051 162.432 
L 129.446051 158.001231 
L 127.592273 158.001231 
z
" style="fill:#1f77b4;"/>
   </g>
   <g id="patch_33">
    <path clip-path="url(#p532f6aa528)" d="M 129.446051 162.432 
L 131.299828 162.432 
L 131.299828 162.432 
L 129.446051 162.432 
z
" style="fill:#1f77b4;"/>
   </g>
   <g id="patch_34">
    <path clip-path="url(#p532f6aa528)" d="M 131.299828 162.432 
L 133.153606 162.432 
L 133.153606 162.432 
L 131.299828 162.432 
z
" style="fill:#1f77b4;"/>
   </g>
   <g id="patch_35">
    <path clip-path="url(#p532f6aa528)" d="M 133.153606 162.432 
L 135.007383 162.432 
L 135.007383 162.432 
L 133.153606 162.432 
z
" style="fill:#1f77b4;"/>
   </g>
   <g id="patch_36">
    <path clip-path="url(#p532f6aa528)" d="M 135.007383 162.432 
L 136.861161 162.432 
L 136.861161 158.001231 
L 135.007383 158.001231 
z
" style="fill:#1f77b4;"/>
   </g>
   <g id="patch_37">
    <path clip-path="url(#p532f6aa528)" d="M 136.861161 162.432 
L 138.714938 162.432 
L 138.714938 162.432 
L 136.861161 162.432 
z
" style="fill:#1f77b4;"/>
   </g>
   <g id="patch_38">
    <path clip-path="url(#p532f6aa528)" d="M 138.714938 162.432 
L 140.568716 162.432 
L 140.568716 162.432 
L 138.714938 162.432 
z
" style="fill:#1f77b4;"/>
   </g>
   <g id="patch_39">
    <path clip-path="url(#p532f6aa528)" d="M 140.568716 162.432 
L 142.422493 162.432 
L 142.422493 158.001231 
L 140.568716 158.001231 
z
" style="fill:#1f77b4;"/>
   </g>
   <g id="patch_40">
    <path clip-path="url(#p532f6aa528)" d="M 142.422493 162.432 
L 144.276271 162.432 
L 144.276271 162.432 
L 142.422493 162.432 
z
" style="fill:#1f77b4;"/>
   </g>
   <g id="patch_41">
    <path clip-path="url(#p532f6aa528)" d="M 144.276271 162.432 
L 146.130048 162.432 
L 146.130048 162.432 
L 144.276271 162.432 
z
" style="fill:#1f77b4;"/>
   </g>
   <g id="patch_42">
    <path clip-path="url(#p532f6aa528)" d="M 146.130048 162.432 
L 147.983825 162.432 
L 147.983825 162.432 
L 146.130048 162.432 
z
" style="fill:#1f77b4;"/>
   </g>
   <g id="patch_43">
    <path clip-path="url(#p532f6aa528)" d="M 147.983825 162.432 
L 149.837603 162.432 
L 149.837603 158.001231 
L 147.983825 158.001231 
z
" style="fill:#1f77b4;"/>
   </g>
   <g id="patch_44">
    <path clip-path="url(#p532f6aa528)" d="M 149.837603 162.432 
L 151.69138 162.432 
L 151.69138 162.432 
L 149.837603 162.432 
z
" style="fill:#1f77b4;"/>
   </g>
   <g id="patch_45">
    <path clip-path="url(#p532f6aa528)" d="M 151.69138 162.432 
L 153.545158 162.432 
L 153.545158 162.432 
L 151.69138 162.432 
z
" style="fill:#1f77b4;"/>
   </g>
   <g id="patch_46">
    <path clip-path="url(#p532f6aa528)" d="M 153.545158 162.432 
L 155.398935 162.432 
L 155.398935 162.432 
L 153.545158 162.432 
z
" style="fill:#1f77b4;"/>
   </g>
   <g id="patch_47">
    <path clip-path="url(#p532f6aa528)" d="M 155.398935 162.432 
L 157.252713 162.432 
L 157.252713 158.001231 
L 155.398935 158.001231 
z
" style="fill:#1f77b4;"/>
   </g>
   <g id="patch_48">
    <path clip-path="url(#p532f6aa528)" d="M 157.252713 162.432 
L 159.10649 162.432 
L 159.10649 162.432 
L 157.252713 162.432 
z
" style="fill:#1f77b4;"/>
   </g>
   <g id="patch_49">
    <path clip-path="url(#p532f6aa528)" d="M 159.10649 162.432 
L 160.960268 162.432 
L 160.960268 162.432 
L 159.10649 162.432 
z
" style="fill:#1f77b4;"/>
   </g>
   <g id="patch_50">
    <path clip-path="url(#p532f6aa528)" d="M 160.960268 162.432 
L 162.814045 162.432 
L 162.814045 162.432 
L 160.960268 162.432 
z
" style="fill:#1f77b4;"/>
   </g>
   <g id="patch_51">
    <path clip-path="url(#p532f6aa528)" d="M 162.814045 162.432 
L 164.667823 162.432 
L 164.667823 162.432 
L 162.814045 162.432 
z
" style="fill:#1f77b4;"/>
   </g>
   <g id="patch_52">
    <path clip-path="url(#p532f6aa528)" d="M 164.667823 162.432 
L 166.5216 162.432 
L 166.5216 162.432 
L 164.667823 162.432 
z
" style="fill:#1f77b4;"/>
   </g>
   <g id="patch_53">
    <path clip-path="url(#p532f6aa528)" d="M 166.5216 162.432 
L 168.375377 162.432 
L 168.375377 162.432 
L 166.5216 162.432 
z
" style="fill:#1f77b4;"/>
   </g>
   <g id="patch_54">
    <path clip-path="url(#p532f6aa528)" d="M 168.375377 162.432 
L 170.229155 162.432 
L 170.229155 158.001231 
L 168.375377 158.001231 
z
" style="fill:#1f77b4;"/>
   </g>
   <g id="patch_55">
    <path clip-path="url(#p532f6aa528)" d="M 170.229155 162.432 
L 172.082932 162.432 
L 172.082932 162.432 
L 170.229155 162.432 
z
" style="fill:#1f77b4;"/>
   </g>
   <g id="patch_56">
    <path clip-path="url(#p532f6aa528)" d="M 172.082932 162.432 
L 173.93671 162.432 
L 173.93671 162.432 
L 172.082932 162.432 
z
" style="fill:#1f77b4;"/>
   </g>
   <g id="patch_57">
    <path clip-path="url(#p532f6aa528)" d="M 173.93671 162.432 
L 175.790487 162.432 
L 175.790487 162.432 
L 173.93671 162.432 
z
" style="fill:#1f77b4;"/>
   </g>
   <g id="patch_58">
    <path clip-path="url(#p532f6aa528)" d="M 175.790487 162.432 
L 177.644265 162.432 
L 177.644265 162.432 
L 175.790487 162.432 
z
" style="fill:#1f77b4;"/>
   </g>
   <g id="patch_59">
    <path clip-path="url(#p532f6aa528)" d="M 177.644265 162.432 
L 179.498042 162.432 
L 179.498042 162.432 
L 177.644265 162.432 
z
" style="fill:#1f77b4;"/>
   </g>
   <g id="patch_60">
    <path clip-path="url(#p532f6aa528)" d="M 179.498042 162.432 
L 181.35182 162.432 
L 181.35182 162.432 
L 179.498042 162.432 
z
" style="fill:#1f77b4;"/>
   </g>
   <g id="patch_61">
    <path clip-path="url(#p532f6aa528)" d="M 181.35182 162.432 
L 183.205597 162.432 
L 183.205597 158.001231 
L 181.35182 158.001231 
z
" style="fill:#1f77b4;"/>
   </g>
   <g id="patch_62">
    <path clip-path="url(#p532f6aa528)" d="M 183.205597 162.432 
L 185.059375 162.432 
L 185.059375 162.432 
L 183.205597 162.432 
z
" style="fill:#1f77b4;"/>
   </g>
   <g id="patch_63">
    <path clip-path="url(#p532f6aa528)" d="M 185.059375 162.432 
L 186.913152 162.432 
L 186.913152 162.432 
L 185.059375 162.432 
z
" style="fill:#1f77b4;"/>
   </g>
   <g id="patch_64">
    <path clip-path="url(#p532f6aa528)" d="M 186.913152 162.432 
L 188.766929 162.432 
L 188.766929 162.432 
L 186.913152 162.432 
z
" style="fill:#1f77b4;"/>
   </g>
   <g id="patch_65">
    <path clip-path="url(#p532f6aa528)" d="M 188.766929 162.432 
L 190.620707 162.432 
L 190.620707 162.432 
L 188.766929 162.432 
z
" style="fill:#1f77b4;"/>
   </g>
   <g id="patch_66">
    <path clip-path="url(#p532f6aa528)" d="M 190.620707 162.432 
L 192.474484 162.432 
L 192.474484 162.432 
L 190.620707 162.432 
z
" style="fill:#1f77b4;"/>
   </g>
   <g id="patch_67">
    <path clip-path="url(#p532f6aa528)" d="M 192.474484 162.432 
L 194.328262 162.432 
L 194.328262 162.432 
L 192.474484 162.432 
z
" style="fill:#1f77b4;"/>
   </g>
   <g id="patch_68">
    <path clip-path="url(#p532f6aa528)" d="M 194.328262 162.432 
L 196.182039 162.432 
L 196.182039 162.432 
L 194.328262 162.432 
z
" style="fill:#1f77b4;"/>
   </g>
   <g id="patch_69">
    <path clip-path="url(#p532f6aa528)" d="M 196.182039 162.432 
L 198.035817 162.432 
L 198.035817 158.001231 
L 196.182039 158.001231 
z
" style="fill:#1f77b4;"/>
   </g>
   <g id="patch_70">
    <path clip-path="url(#p532f6aa528)" d="M 198.035817 162.432 
L 199.889594 162.432 
L 199.889594 162.432 
L 198.035817 162.432 
z
" style="fill:#1f77b4;"/>
   </g>
   <g id="patch_71">
    <path clip-path="url(#p532f6aa528)" d="M 199.889594 162.432 
L 201.743372 162.432 
L 201.743372 162.432 
L 199.889594 162.432 
z
" style="fill:#1f77b4;"/>
   </g>
   <g id="patch_72">
    <path clip-path="url(#p532f6aa528)" d="M 201.743372 162.432 
L 203.597149 162.432 
L 203.597149 162.432 
L 201.743372 162.432 
z
" style="fill:#1f77b4;"/>
   </g>
   <g id="patch_73">
    <path clip-path="url(#p532f6aa528)" d="M 203.597149 162.432 
L 205.450927 162.432 
L 205.450927 162.432 
L 203.597149 162.432 
z
" style="fill:#1f77b4;"/>
   </g>
   <g id="patch_74">
    <path clip-path="url(#p532f6aa528)" d="M 205.450927 162.432 
L 207.304704 162.432 
L 207.304704 162.432 
L 205.450927 162.432 
z
" style="fill:#1f77b4;"/>
   </g>
   <g id="patch_75">
    <path clip-path="url(#p532f6aa528)" d="M 207.304704 162.432 
L 209.158481 162.432 
L 209.158481 162.432 
L 207.304704 162.432 
z
" style="fill:#1f77b4;"/>
   </g>
   <g id="patch_76">
    <path clip-path="url(#p532f6aa528)" d="M 209.158481 162.432 
L 211.012259 162.432 
L 211.012259 162.432 
L 209.158481 162.432 
z
" style="fill:#1f77b4;"/>
   </g>
   <g id="patch_77">
    <path clip-path="url(#p532f6aa528)" d="M 211.012259 162.432 
L 212.866036 162.432 
L 212.866036 162.432 
L 211.012259 162.432 
z
" style="fill:#1f77b4;"/>
   </g>
   <g id="patch_78">
    <path clip-path="url(#p532f6aa528)" d="M 212.866036 162.432 
L 214.719814 162.432 
L 214.719814 162.432 
L 212.866036 162.432 
z
" style="fill:#1f77b4;"/>
   </g>
   <g id="patch_79">
    <path clip-path="url(#p532f6aa528)" d="M 214.719814 162.432 
L 216.573591 162.432 
L 216.573591 158.001231 
L 214.719814 158.001231 
z
" style="fill:#1f77b4;"/>
   </g>
   <g id="patch_80">
    <path clip-path="url(#p532f6aa528)" d="M 216.573591 162.432 
L 218.427369 162.432 
L 218.427369 162.432 
L 216.573591 162.432 
z
" style="fill:#1f77b4;"/>
   </g>
   <g id="patch_81">
    <path clip-path="url(#p532f6aa528)" d="M 218.427369 162.432 
L 220.281146 162.432 
L 220.281146 162.432 
L 218.427369 162.432 
z
" style="fill:#1f77b4;"/>
   </g>
   <g id="patch_82">
    <path clip-path="url(#p532f6aa528)" d="M 220.281146 162.432 
L 222.134924 162.432 
L 222.134924 162.432 
L 220.281146 162.432 
z
" style="fill:#1f77b4;"/>
   </g>
   <g id="patch_83">
    <path clip-path="url(#p532f6aa528)" d="M 222.134924 162.432 
L 223.988701 162.432 
L 223.988701 162.432 
L 222.134924 162.432 
z
" style="fill:#1f77b4;"/>
   </g>
   <g id="patch_84">
    <path clip-path="url(#p532f6aa528)" d="M 223.988701 162.432 
L 225.842479 162.432 
L 225.842479 162.432 
L 223.988701 162.432 
z
" style="fill:#1f77b4;"/>
   </g>
   <g id="patch_85">
    <path clip-path="url(#p532f6aa528)" d="M 225.842479 162.432 
L 227.696256 162.432 
L 227.696256 162.432 
L 225.842479 162.432 
z
" style="fill:#1f77b4;"/>
   </g>
   <g id="patch_86">
    <path clip-path="url(#p532f6aa528)" d="M 227.696256 162.432 
L 229.550033 162.432 
L 229.550033 162.432 
L 227.696256 162.432 
z
" style="fill:#1f77b4;"/>
   </g>
   <g id="patch_87">
    <path clip-path="url(#p532f6aa528)" d="M 229.550033 162.432 
L 231.403811 162.432 
L 231.403811 162.432 
L 229.550033 162.432 
z
" style="fill:#1f77b4;"/>
   </g>
   <g id="patch_88">
    <path clip-path="url(#p532f6aa528)" d="M 231.403811 162.432 
L 233.257588 162.432 
L 233.257588 162.432 
L 231.403811 162.432 
z
" style="fill:#1f77b4;"/>
   </g>
   <g id="patch_89">
    <path clip-path="url(#p532f6aa528)" d="M 233.257588 162.432 
L 235.111366 162.432 
L 235.111366 162.432 
L 233.257588 162.432 
z
" style="fill:#1f77b4;"/>
   </g>
   <g id="patch_90">
    <path clip-path="url(#p532f6aa528)" d="M 235.111366 162.432 
L 236.965143 162.432 
L 236.965143 162.432 
L 235.111366 162.432 
z
" style="fill:#1f77b4;"/>
   </g>
   <g id="patch_91">
    <path clip-path="url(#p532f6aa528)" d="M 236.965143 162.432 
L 238.818921 162.432 
L 238.818921 162.432 
L 236.965143 162.432 
z
" style="fill:#1f77b4;"/>
   </g>
   <g id="patch_92">
    <path clip-path="url(#p532f6aa528)" d="M 238.818921 162.432 
L 240.672698 162.432 
L 240.672698 162.432 
L 238.818921 162.432 
z
" style="fill:#1f77b4;"/>
   </g>
   <g id="patch_93">
    <path clip-path="url(#p532f6aa528)" d="M 240.672698 162.432 
L 242.526476 162.432 
L 242.526476 162.432 
L 240.672698 162.432 
z
" style="fill:#1f77b4;"/>
   </g>
   <g id="patch_94">
    <path clip-path="url(#p532f6aa528)" d="M 242.526476 162.432 
L 244.380253 162.432 
L 244.380253 162.432 
L 242.526476 162.432 
z
" style="fill:#1f77b4;"/>
   </g>
   <g id="patch_95">
    <path clip-path="url(#p532f6aa528)" d="M 244.380253 162.432 
L 246.234031 162.432 
L 246.234031 162.432 
L 244.380253 162.432 
z
" style="fill:#1f77b4;"/>
   </g>
   <g id="patch_96">
    <path clip-path="url(#p532f6aa528)" d="M 246.234031 162.432 
L 248.087808 162.432 
L 248.087808 162.432 
L 246.234031 162.432 
z
" style="fill:#1f77b4;"/>
   </g>
   <g id="patch_97">
    <path clip-path="url(#p532f6aa528)" d="M 248.087808 162.432 
L 249.941585 162.432 
L 249.941585 162.432 
L 248.087808 162.432 
z
" style="fill:#1f77b4;"/>
   </g>
   <g id="patch_98">
    <path clip-path="url(#p532f6aa528)" d="M 249.941585 162.432 
L 251.795363 162.432 
L 251.795363 162.432 
L 249.941585 162.432 
z
" style="fill:#1f77b4;"/>
   </g>
   <g id="patch_99">
    <path clip-path="url(#p532f6aa528)" d="M 251.795363 162.432 
L 253.64914 162.432 
L 253.64914 162.432 
L 251.795363 162.432 
z
" style="fill:#1f77b4;"/>
   </g>
   <g id="patch_100">
    <path clip-path="url(#p532f6aa528)" d="M 253.64914 162.432 
L 255.502918 162.432 
L 255.502918 162.432 
L 253.64914 162.432 
z
" style="fill:#1f77b4;"/>
   </g>
   <g id="patch_101">
    <path clip-path="url(#p532f6aa528)" d="M 255.502918 162.432 
L 257.356695 162.432 
L 257.356695 162.432 
L 255.502918 162.432 
z
" style="fill:#1f77b4;"/>
   </g>
   <g id="patch_102">
    <path clip-path="url(#p532f6aa528)" d="M 257.356695 162.432 
L 259.210473 162.432 
L 259.210473 158.001231 
L 257.356695 158.001231 
z
" style="fill:#1f77b4;"/>
   </g>
   <g id="matplotlib.axis_1">
    <g id="xtick_1">
     <g id="line2d_1">
      <defs>
       <path d="M 0 0 
L 0 3.5 
" id="m74e7380deb" style="stroke:#000000;stroke-width:0.8;"/>
      </defs>
      <g>
       <use style="stroke:#000000;stroke-width:0.8;" x="73.832727" xlink:href="#m74e7380deb" y="162.432"/>
      </g>
     </g>
     <g id="text_1">
      <!-- 0 -->
      <defs>
       <path d="M 31.78125 66.40625 
Q 24.171875 66.40625 20.328125 58.90625 
Q 16.5 51.421875 16.5 36.375 
Q 16.5 21.390625 20.328125 13.890625 
Q 24.171875 6.390625 31.78125 6.390625 
Q 39.453125 6.390625 43.28125 13.890625 
Q 47.125 21.390625 47.125 36.375 
Q 47.125 51.421875 43.28125 58.90625 
Q 39.453125 66.40625 31.78125 66.40625 
z
M 31.78125 74.21875 
Q 44.046875 74.21875 50.515625 64.515625 
Q 56.984375 54.828125 56.984375 36.375 
Q 56.984375 17.96875 50.515625 8.265625 
Q 44.046875 -1.421875 31.78125 -1.421875 
Q 19.53125 -1.421875 13.0625 8.265625 
Q 6.59375 17.96875 6.59375 36.375 
Q 6.59375 54.828125 13.0625 64.515625 
Q 19.53125 74.21875 31.78125 74.21875 
z
" id="DejaVuSans-48"/>
      </defs>
      <g transform="translate(70.651477 177.030437)scale(0.1 -0.1)">
       <use xlink:href="#DejaVuSans-48"/>
      </g>
     </g>
    </g>
    <g id="xtick_2">
     <g id="line2d_2">
      <g>
       <use style="stroke:#000000;stroke-width:0.8;" x="138.763636" xlink:href="#m74e7380deb" y="162.432"/>
      </g>
     </g>
     <g id="text_2">
      <!-- 20 -->
      <defs>
       <path d="M 19.1875 8.296875 
L 53.609375 8.296875 
L 53.609375 0 
L 7.328125 0 
L 7.328125 8.296875 
Q 12.9375 14.109375 22.625 23.890625 
Q 32.328125 33.6875 34.8125 36.53125 
Q 39.546875 41.84375 41.421875 45.53125 
Q 43.3125 49.21875 43.3125 52.78125 
Q 43.3125 58.59375 39.234375 62.25 
Q 35.15625 65.921875 28.609375 65.921875 
Q 23.96875 65.921875 18.8125 64.3125 
Q 13.671875 62.703125 7.8125 59.421875 
L 7.8125 69.390625 
Q 13.765625 71.78125 18.9375 73 
Q 24.125 74.21875 28.421875 74.21875 
Q 39.75 74.21875 46.484375 68.546875 
Q 53.21875 62.890625 53.21875 53.421875 
Q 53.21875 48.921875 51.53125 44.890625 
Q 49.859375 40.875 45.40625 35.40625 
Q 44.1875 33.984375 37.640625 27.21875 
Q 31.109375 20.453125 19.1875 8.296875 
z
" id="DejaVuSans-50"/>
      </defs>
      <g transform="translate(132.401136 177.030437)scale(0.1 -0.1)">
       <use xlink:href="#DejaVuSans-50"/>
       <use x="63.623047" xlink:href="#DejaVuSans-48"/>
      </g>
     </g>
    </g>
    <g id="xtick_3">
     <g id="line2d_3">
      <g>
       <use style="stroke:#000000;stroke-width:0.8;" x="203.694545" xlink:href="#m74e7380deb" y="162.432"/>
      </g>
     </g>
     <g id="text_3">
      <!-- 40 -->
      <defs>
       <path d="M 37.796875 64.3125 
L 12.890625 25.390625 
L 37.796875 25.390625 
z
M 35.203125 72.90625 
L 47.609375 72.90625 
L 47.609375 25.390625 
L 58.015625 25.390625 
L 58.015625 17.1875 
L 47.609375 17.1875 
L 47.609375 0 
L 37.796875 0 
L 37.796875 17.1875 
L 4.890625 17.1875 
L 4.890625 26.703125 
z
" id="DejaVuSans-52"/>
      </defs>
      <g transform="translate(197.332045 177.030437)scale(0.1 -0.1)">
       <use xlink:href="#DejaVuSans-52"/>
       <use x="63.623047" xlink:href="#DejaVuSans-48"/>
      </g>
     </g>
    </g>
    <g id="xtick_4">
     <g id="line2d_4">
      <g>
       <use style="stroke:#000000;stroke-width:0.8;" x="268.625455" xlink:href="#m74e7380deb" y="162.432"/>
      </g>
     </g>
     <g id="text_4">
      <!-- 60 -->
      <defs>
       <path d="M 33.015625 40.375 
Q 26.375 40.375 22.484375 35.828125 
Q 18.609375 31.296875 18.609375 23.390625 
Q 18.609375 15.53125 22.484375 10.953125 
Q 26.375 6.390625 33.015625 6.390625 
Q 39.65625 6.390625 43.53125 10.953125 
Q 47.40625 15.53125 47.40625 23.390625 
Q 47.40625 31.296875 43.53125 35.828125 
Q 39.65625 40.375 33.015625 40.375 
z
M 52.59375 71.296875 
L 52.59375 62.3125 
Q 48.875 64.0625 45.09375 64.984375 
Q 41.3125 65.921875 37.59375 65.921875 
Q 27.828125 65.921875 22.671875 59.328125 
Q 17.53125 52.734375 16.796875 39.40625 
Q 19.671875 43.65625 24.015625 45.921875 
Q 28.375 48.1875 33.59375 48.1875 
Q 44.578125 48.1875 50.953125 41.515625 
Q 57.328125 34.859375 57.328125 23.390625 
Q 57.328125 12.15625 50.6875 5.359375 
Q 44.046875 -1.421875 33.015625 -1.421875 
Q 20.359375 -1.421875 13.671875 8.265625 
Q 6.984375 17.96875 6.984375 36.375 
Q 6.984375 53.65625 15.1875 63.9375 
Q 23.390625 74.21875 37.203125 74.21875 
Q 40.921875 74.21875 44.703125 73.484375 
Q 48.484375 72.75 52.59375 71.296875 
z
" id="DejaVuSans-54"/>
      </defs>
      <g transform="translate(262.262955 177.030437)scale(0.1 -0.1)">
       <use xlink:href="#DejaVuSans-54"/>
       <use x="63.623047" xlink:href="#DejaVuSans-48"/>
      </g>
     </g>
    </g>
    <g id="xtick_5">
     <g id="line2d_5">
      <g>
       <use style="stroke:#000000;stroke-width:0.8;" x="333.556364" xlink:href="#m74e7380deb" y="162.432"/>
      </g>
     </g>
     <g id="text_5">
      <!-- 80 -->
      <defs>
       <path d="M 31.78125 34.625 
Q 24.75 34.625 20.71875 30.859375 
Q 16.703125 27.09375 16.703125 20.515625 
Q 16.703125 13.921875 20.71875 10.15625 
Q 24.75 6.390625 31.78125 6.390625 
Q 38.8125 6.390625 42.859375 10.171875 
Q 46.921875 13.96875 46.921875 20.515625 
Q 46.921875 27.09375 42.890625 30.859375 
Q 38.875 34.625 31.78125 34.625 
z
M 21.921875 38.8125 
Q 15.578125 40.375 12.03125 44.71875 
Q 8.5 49.078125 8.5 55.328125 
Q 8.5 64.0625 14.71875 69.140625 
Q 20.953125 74.21875 31.78125 74.21875 
Q 42.671875 74.21875 48.875 69.140625 
Q 55.078125 64.0625 55.078125 55.328125 
Q 55.078125 49.078125 51.53125 44.71875 
Q 48 40.375 41.703125 38.8125 
Q 48.828125 37.15625 52.796875 32.3125 
Q 56.78125 27.484375 56.78125 20.515625 
Q 56.78125 9.90625 50.3125 4.234375 
Q 43.84375 -1.421875 31.78125 -1.421875 
Q 19.734375 -1.421875 13.25 4.234375 
Q 6.78125 9.90625 6.78125 20.515625 
Q 6.78125 27.484375 10.78125 32.3125 
Q 14.796875 37.15625 21.921875 38.8125 
z
M 18.3125 54.390625 
Q 18.3125 48.734375 21.84375 45.5625 
Q 25.390625 42.390625 31.78125 42.390625 
Q 38.140625 42.390625 41.71875 45.5625 
Q 45.3125 48.734375 45.3125 54.390625 
Q 45.3125 60.0625 41.71875 63.234375 
Q 38.140625 66.40625 31.78125 66.40625 
Q 25.390625 66.40625 21.84375 63.234375 
Q 18.3125 60.0625 18.3125 54.390625 
z
" id="DejaVuSans-56"/>
      </defs>
      <g transform="translate(327.193864 177.030437)scale(0.1 -0.1)">
       <use xlink:href="#DejaVuSans-56"/>
       <use x="63.623047" xlink:href="#DejaVuSans-48"/>
      </g>
     </g>
    </g>
    <g id="xtick_6">
     <g id="line2d_6">
      <g>
       <use style="stroke:#000000;stroke-width:0.8;" x="398.487273" xlink:href="#m74e7380deb" y="162.432"/>
      </g>
     </g>
     <g id="text_6">
      <!-- 100 -->
      <defs>
       <path d="M 12.40625 8.296875 
L 28.515625 8.296875 
L 28.515625 63.921875 
L 10.984375 60.40625 
L 10.984375 69.390625 
L 28.421875 72.90625 
L 38.28125 72.90625 
L 38.28125 8.296875 
L 54.390625 8.296875 
L 54.390625 0 
L 12.40625 0 
z
" id="DejaVuSans-49"/>
      </defs>
      <g transform="translate(388.943523 177.030437)scale(0.1 -0.1)">
       <use xlink:href="#DejaVuSans-49"/>
       <use x="63.623047" xlink:href="#DejaVuSans-48"/>
       <use x="127.246094" xlink:href="#DejaVuSans-48"/>
      </g>
     </g>
    </g>
   </g>
   <g id="matplotlib.axis_2">
    <g id="ytick_1">
     <g id="line2d_7">
      <defs>
       <path d="M 0 0 
L -3.5 0 
" id="m2e5c54e87b" style="stroke:#000000;stroke-width:0.8;"/>
      </defs>
      <g>
       <use style="stroke:#000000;stroke-width:0.8;" x="57.6" xlink:href="#m2e5c54e87b" y="162.432"/>
      </g>
     </g>
     <g id="text_7">
      <!-- 0.00 -->
      <defs>
       <path d="M 10.6875 12.40625 
L 21 12.40625 
L 21 0 
L 10.6875 0 
z
" id="DejaVuSans-46"/>
      </defs>
      <g transform="translate(28.334375 166.231219)scale(0.1 -0.1)">
       <use xlink:href="#DejaVuSans-48"/>
       <use x="63.623047" xlink:href="#DejaVuSans-46"/>
       <use x="95.410156" xlink:href="#DejaVuSans-48"/>
       <use x="159.033203" xlink:href="#DejaVuSans-48"/>
      </g>
     </g>
    </g>
    <g id="ytick_2">
     <g id="line2d_8">
      <g>
       <use style="stroke:#000000;stroke-width:0.8;" x="57.6" xlink:href="#m2e5c54e87b" y="137.132308"/>
      </g>
     </g>
     <g id="text_8">
      <!-- 0.05 -->
      <defs>
       <path d="M 10.796875 72.90625 
L 49.515625 72.90625 
L 49.515625 64.59375 
L 19.828125 64.59375 
L 19.828125 46.734375 
Q 21.96875 47.46875 24.109375 47.828125 
Q 26.265625 48.1875 28.421875 48.1875 
Q 40.625 48.1875 47.75 41.5 
Q 54.890625 34.8125 54.890625 23.390625 
Q 54.890625 11.625 47.5625 5.09375 
Q 40.234375 -1.421875 26.90625 -1.421875 
Q 22.3125 -1.421875 17.546875 -0.640625 
Q 12.796875 0.140625 7.71875 1.703125 
L 7.71875 11.625 
Q 12.109375 9.234375 16.796875 8.0625 
Q 21.484375 6.890625 26.703125 6.890625 
Q 35.15625 6.890625 40.078125 11.328125 
Q 45.015625 15.765625 45.015625 23.390625 
Q 45.015625 31 40.078125 35.4375 
Q 35.15625 39.890625 26.703125 39.890625 
Q 22.75 39.890625 18.8125 39.015625 
Q 14.890625 38.140625 10.796875 36.28125 
z
" id="DejaVuSans-53"/>
      </defs>
      <g transform="translate(28.334375 140.931526)scale(0.1 -0.1)">
       <use xlink:href="#DejaVuSans-48"/>
       <use x="63.623047" xlink:href="#DejaVuSans-46"/>
       <use x="95.410156" xlink:href="#DejaVuSans-48"/>
       <use x="159.033203" xlink:href="#DejaVuSans-53"/>
      </g>
     </g>
    </g>
    <g id="ytick_3">
     <g id="line2d_9">
      <g>
       <use style="stroke:#000000;stroke-width:0.8;" x="57.6" xlink:href="#m2e5c54e87b" y="111.832615"/>
      </g>
     </g>
     <g id="text_9">
      <!-- 0.10 -->
      <g transform="translate(28.334375 115.631834)scale(0.1 -0.1)">
       <use xlink:href="#DejaVuSans-48"/>
       <use x="63.623047" xlink:href="#DejaVuSans-46"/>
       <use x="95.410156" xlink:href="#DejaVuSans-49"/>
       <use x="159.033203" xlink:href="#DejaVuSans-48"/>
      </g>
     </g>
    </g>
    <g id="ytick_4">
     <g id="line2d_10">
      <g>
       <use style="stroke:#000000;stroke-width:0.8;" x="57.6" xlink:href="#m2e5c54e87b" y="86.532923"/>
      </g>
     </g>
     <g id="text_10">
      <!-- 0.15 -->
      <g transform="translate(28.334375 90.332142)scale(0.1 -0.1)">
       <use xlink:href="#DejaVuSans-48"/>
       <use x="63.623047" xlink:href="#DejaVuSans-46"/>
       <use x="95.410156" xlink:href="#DejaVuSans-49"/>
       <use x="159.033203" xlink:href="#DejaVuSans-53"/>
      </g>
     </g>
    </g>
    <g id="ytick_5">
     <g id="line2d_11">
      <g>
       <use style="stroke:#000000;stroke-width:0.8;" x="57.6" xlink:href="#m2e5c54e87b" y="61.233231"/>
      </g>
     </g>
     <g id="text_11">
      <!-- 0.20 -->
      <g transform="translate(28.334375 65.03245)scale(0.1 -0.1)">
       <use xlink:href="#DejaVuSans-48"/>
       <use x="63.623047" xlink:href="#DejaVuSans-46"/>
       <use x="95.410156" xlink:href="#DejaVuSans-50"/>
       <use x="159.033203" xlink:href="#DejaVuSans-48"/>
      </g>
     </g>
    </g>
   </g>
   <g id="line2d_12">
    <path clip-path="url(#p532f6aa528)" d="M 73.832727 162.432 
L 74.157707 150.874988 
L 74.807666 106.216997 
L 75.457625 78.919768 
L 75.782604 71.141908 
L 76.107584 66.090476 
L 76.432563 63.079034 
L 76.757543 61.585805 
L 77.082523 61.219143 
L 77.407502 61.685691 
L 77.732482 62.765239 
L 78.382441 66.140086 
L 79.682359 75.152443 
L 82.282195 93.627763 
L 83.907093 103.405588 
L 85.53199 111.648709 
L 87.156888 118.540591 
L 88.781785 124.301362 
L 90.406683 129.132442 
L 92.031581 133.20338 
L 93.656478 136.652379 
L 95.281376 139.590728 
L 96.906274 142.107758 
L 98.856151 144.672138 
L 100.806028 146.830752 
L 102.755905 148.660068 
L 105.030762 150.457367 
L 107.305618 151.961663 
L 109.905455 153.394498 
L 112.505291 154.583573 
L 115.430106 155.690829 
L 118.679902 156.696257 
L 122.579656 157.662606 
L 127.129369 158.541983 
L 132.329042 159.309045 
L 138.503653 159.987107 
L 145.978182 160.577285 
L 155.402588 161.087762 
L 167.75181 161.517295 
L 184.325766 161.856982 
L 208.69923 162.116157 
L 248.671712 162.294204 
L 330.566552 162.395549 
L 398.487273 162.416767 
L 398.487273 162.416767 
" style="fill:none;stroke:#ff7f0e;stroke-linecap:square;stroke-width:1.5;"/>
   </g>
   <g id="line2d_13">
    <path clip-path="url(#p532f6aa528)" d="M 73.832727 157.942705 
L 74.482686 153.448846 
L 75.457625 144.425827 
L 78.382441 115.205506 
L 79.357379 107.979533 
L 80.332318 102.547479 
L 80.982277 99.890842 
L 81.632236 97.947086 
L 82.282195 96.651019 
L 82.932154 95.931943 
L 83.582113 95.718288 
L 84.232072 95.940677 
L 84.882031 96.533854 
L 85.53199 97.437774 
L 86.506929 99.259077 
L 87.806847 102.316683 
L 89.756724 107.672033 
L 95.281376 123.307875 
L 97.556233 128.923621 
L 99.50611 133.201347 
L 101.455987 136.986994 
L 103.405864 140.30865 
L 105.355741 143.206186 
L 107.305618 145.723802 
L 109.255495 147.905698 
L 111.205373 149.793697 
L 113.480229 151.675742 
L 115.755086 153.263568 
L 118.354922 154.777278 
L 120.954758 156.025671 
L 123.879574 157.172625 
L 127.129369 158.19158 
L 130.704144 159.070148 
L 134.928878 159.86064 
L 139.803571 160.528917 
L 145.653202 161.090636 
L 152.802752 161.543197 
L 162.227158 161.902345 
L 175.551319 162.165917 
L 196.674988 162.334305 
L 240.547224 162.415993 
L 398.487273 162.431862 
L 398.487273 162.431862 
" style="fill:none;stroke:#2ca02c;stroke-dasharray:5.55,2.4;stroke-dashoffset:0;stroke-width:1.5;"/>
   </g>
   <g id="patch_103">
    <path d="M 57.6 162.432 
L 57.6 41.472 
" style="fill:none;stroke:#000000;stroke-linecap:square;stroke-linejoin:miter;stroke-width:0.8;"/>
   </g>
   <g id="patch_104">
    <path d="M 414.72 162.432 
L 414.72 41.472 
" style="fill:none;stroke:#000000;stroke-linecap:square;stroke-linejoin:miter;stroke-width:0.8;"/>
   </g>
   <g id="patch_105">
    <path d="M 57.6 162.432 
L 414.72 162.432 
" style="fill:none;stroke:#000000;stroke-linecap:square;stroke-linejoin:miter;stroke-width:0.8;"/>
   </g>
   <g id="patch_106">
    <path d="M 57.6 41.472 
L 414.72 41.472 
" style="fill:none;stroke:#000000;stroke-linecap:square;stroke-linejoin:miter;stroke-width:0.8;"/>
   </g>
   <g id="text_12">
    <!-- E -->
    <defs>
     <path d="M 9.8125 72.90625 
L 55.90625 72.90625 
L 55.90625 64.59375 
L 19.671875 64.59375 
L 19.671875 43.015625 
L 54.390625 43.015625 
L 54.390625 34.71875 
L 19.671875 34.71875 
L 19.671875 8.296875 
L 56.78125 8.296875 
L 56.78125 0 
L 9.8125 0 
z
" id="DejaVuSans-69"/>
    </defs>
    <g transform="translate(232.36875 35.472)scale(0.12 -0.12)">
     <use xlink:href="#DejaVuSans-69"/>
    </g>
   </g>
   <g id="legend_1">
    <g id="patch_107">
     <path d="M 187.487187 78.82825 
L 407.72 78.82825 
Q 409.72 78.82825 409.72 76.82825 
L 409.72 48.472 
Q 409.72 46.472 407.72 46.472 
L 187.487187 46.472 
Q 185.487187 46.472 185.487187 48.472 
L 185.487187 76.82825 
Q 185.487187 78.82825 187.487187 78.82825 
z
" style="fill:#ffffff;opacity:0.8;stroke:#cccccc;stroke-linejoin:miter;"/>
    </g>
    <g id="line2d_14">
     <path d="M 189.487187 54.570437 
L 209.487187 54.570437 
" style="fill:none;stroke:#ff7f0e;stroke-linecap:square;stroke-width:1.5;"/>
    </g>
    <g id="line2d_15"/>
    <g id="text_13">
     <!-- targetDist (Buzsaki &amp; Mizuseki, 2014) -->
     <defs>
      <path d="M 18.3125 70.21875 
L 18.3125 54.6875 
L 36.8125 54.6875 
L 36.8125 47.703125 
L 18.3125 47.703125 
L 18.3125 18.015625 
Q 18.3125 11.328125 20.140625 9.421875 
Q 21.96875 7.515625 27.59375 7.515625 
L 36.8125 7.515625 
L 36.8125 0 
L 27.59375 0 
Q 17.1875 0 13.234375 3.875 
Q 9.28125 7.765625 9.28125 18.015625 
L 9.28125 47.703125 
L 2.6875 47.703125 
L 2.6875 54.6875 
L 9.28125 54.6875 
L 9.28125 70.21875 
z
" id="DejaVuSans-116"/>
      <path d="M 34.28125 27.484375 
Q 23.390625 27.484375 19.1875 25 
Q 14.984375 22.515625 14.984375 16.5 
Q 14.984375 11.71875 18.140625 8.90625 
Q 21.296875 6.109375 26.703125 6.109375 
Q 34.1875 6.109375 38.703125 11.40625 
Q 43.21875 16.703125 43.21875 25.484375 
L 43.21875 27.484375 
z
M 52.203125 31.203125 
L 52.203125 0 
L 43.21875 0 
L 43.21875 8.296875 
Q 40.140625 3.328125 35.546875 0.953125 
Q 30.953125 -1.421875 24.3125 -1.421875 
Q 15.921875 -1.421875 10.953125 3.296875 
Q 6 8.015625 6 15.921875 
Q 6 25.140625 12.171875 29.828125 
Q 18.359375 34.515625 30.609375 34.515625 
L 43.21875 34.515625 
L 43.21875 35.40625 
Q 43.21875 41.609375 39.140625 45 
Q 35.0625 48.390625 27.6875 48.390625 
Q 23 48.390625 18.546875 47.265625 
Q 14.109375 46.140625 10.015625 43.890625 
L 10.015625 52.203125 
Q 14.9375 54.109375 19.578125 55.046875 
Q 24.21875 56 28.609375 56 
Q 40.484375 56 46.34375 49.84375 
Q 52.203125 43.703125 52.203125 31.203125 
z
" id="DejaVuSans-97"/>
      <path d="M 41.109375 46.296875 
Q 39.59375 47.171875 37.8125 47.578125 
Q 36.03125 48 33.890625 48 
Q 26.265625 48 22.1875 43.046875 
Q 18.109375 38.09375 18.109375 28.8125 
L 18.109375 0 
L 9.078125 0 
L 9.078125 54.6875 
L 18.109375 54.6875 
L 18.109375 46.1875 
Q 20.953125 51.171875 25.484375 53.578125 
Q 30.03125 56 36.53125 56 
Q 37.453125 56 38.578125 55.875 
Q 39.703125 55.765625 41.0625 55.515625 
z
" id="DejaVuSans-114"/>
      <path d="M 45.40625 27.984375 
Q 45.40625 37.75 41.375 43.109375 
Q 37.359375 48.484375 30.078125 48.484375 
Q 22.859375 48.484375 18.828125 43.109375 
Q 14.796875 37.75 14.796875 27.984375 
Q 14.796875 18.265625 18.828125 12.890625 
Q 22.859375 7.515625 30.078125 7.515625 
Q 37.359375 7.515625 41.375 12.890625 
Q 45.40625 18.265625 45.40625 27.984375 
z
M 54.390625 6.78125 
Q 54.390625 -7.171875 48.1875 -13.984375 
Q 42 -20.796875 29.203125 -20.796875 
Q 24.46875 -20.796875 20.265625 -20.09375 
Q 16.0625 -19.390625 12.109375 -17.921875 
L 12.109375 -9.1875 
Q 16.0625 -11.328125 19.921875 -12.34375 
Q 23.78125 -13.375 27.78125 -13.375 
Q 36.625 -13.375 41.015625 -8.765625 
Q 45.40625 -4.15625 45.40625 5.171875 
L 45.40625 9.625 
Q 42.625 4.78125 38.28125 2.390625 
Q 33.9375 0 27.875 0 
Q 17.828125 0 11.671875 7.65625 
Q 5.515625 15.328125 5.515625 27.984375 
Q 5.515625 40.671875 11.671875 48.328125 
Q 17.828125 56 27.875 56 
Q 33.9375 56 38.28125 53.609375 
Q 42.625 51.21875 45.40625 46.390625 
L 45.40625 54.6875 
L 54.390625 54.6875 
z
" id="DejaVuSans-103"/>
      <path d="M 56.203125 29.59375 
L 56.203125 25.203125 
L 14.890625 25.203125 
Q 15.484375 15.921875 20.484375 11.0625 
Q 25.484375 6.203125 34.421875 6.203125 
Q 39.59375 6.203125 44.453125 7.46875 
Q 49.3125 8.734375 54.109375 11.28125 
L 54.109375 2.78125 
Q 49.265625 0.734375 44.1875 -0.34375 
Q 39.109375 -1.421875 33.890625 -1.421875 
Q 20.796875 -1.421875 13.15625 6.1875 
Q 5.515625 13.8125 5.515625 26.8125 
Q 5.515625 40.234375 12.765625 48.109375 
Q 20.015625 56 32.328125 56 
Q 43.359375 56 49.78125 48.890625 
Q 56.203125 41.796875 56.203125 29.59375 
z
M 47.21875 32.234375 
Q 47.125 39.59375 43.09375 43.984375 
Q 39.0625 48.390625 32.421875 48.390625 
Q 24.90625 48.390625 20.390625 44.140625 
Q 15.875 39.890625 15.1875 32.171875 
z
" id="DejaVuSans-101"/>
      <path d="M 19.671875 64.796875 
L 19.671875 8.109375 
L 31.59375 8.109375 
Q 46.6875 8.109375 53.6875 14.9375 
Q 60.6875 21.78125 60.6875 36.53125 
Q 60.6875 51.171875 53.6875 57.984375 
Q 46.6875 64.796875 31.59375 64.796875 
z
M 9.8125 72.90625 
L 30.078125 72.90625 
Q 51.265625 72.90625 61.171875 64.09375 
Q 71.09375 55.28125 71.09375 36.53125 
Q 71.09375 17.671875 61.125 8.828125 
Q 51.171875 0 30.078125 0 
L 9.8125 0 
z
" id="DejaVuSans-68"/>
      <path d="M 9.421875 54.6875 
L 18.40625 54.6875 
L 18.40625 0 
L 9.421875 0 
z
M 9.421875 75.984375 
L 18.40625 75.984375 
L 18.40625 64.59375 
L 9.421875 64.59375 
z
" id="DejaVuSans-105"/>
      <path d="M 44.28125 53.078125 
L 44.28125 44.578125 
Q 40.484375 46.53125 36.375 47.5 
Q 32.28125 48.484375 27.875 48.484375 
Q 21.1875 48.484375 17.84375 46.4375 
Q 14.5 44.390625 14.5 40.28125 
Q 14.5 37.15625 16.890625 35.375 
Q 19.28125 33.59375 26.515625 31.984375 
L 29.59375 31.296875 
Q 39.15625 29.25 43.1875 25.515625 
Q 47.21875 21.78125 47.21875 15.09375 
Q 47.21875 7.46875 41.1875 3.015625 
Q 35.15625 -1.421875 24.609375 -1.421875 
Q 20.21875 -1.421875 15.453125 -0.5625 
Q 10.6875 0.296875 5.421875 2 
L 5.421875 11.28125 
Q 10.40625 8.6875 15.234375 7.390625 
Q 20.0625 6.109375 24.8125 6.109375 
Q 31.15625 6.109375 34.5625 8.28125 
Q 37.984375 10.453125 37.984375 14.40625 
Q 37.984375 18.0625 35.515625 20.015625 
Q 33.0625 21.96875 24.703125 23.78125 
L 21.578125 24.515625 
Q 13.234375 26.265625 9.515625 29.90625 
Q 5.8125 33.546875 5.8125 39.890625 
Q 5.8125 47.609375 11.28125 51.796875 
Q 16.75 56 26.8125 56 
Q 31.78125 56 36.171875 55.265625 
Q 40.578125 54.546875 44.28125 53.078125 
z
" id="DejaVuSans-115"/>
      <path id="DejaVuSans-32"/>
      <path d="M 31 75.875 
Q 24.46875 64.65625 21.28125 53.65625 
Q 18.109375 42.671875 18.109375 31.390625 
Q 18.109375 20.125 21.3125 9.0625 
Q 24.515625 -2 31 -13.1875 
L 23.1875 -13.1875 
Q 15.875 -1.703125 12.234375 9.375 
Q 8.59375 20.453125 8.59375 31.390625 
Q 8.59375 42.28125 12.203125 53.3125 
Q 15.828125 64.359375 23.1875 75.875 
z
" id="DejaVuSans-40"/>
      <path d="M 19.671875 34.8125 
L 19.671875 8.109375 
L 35.5 8.109375 
Q 43.453125 8.109375 47.28125 11.40625 
Q 51.125 14.703125 51.125 21.484375 
Q 51.125 28.328125 47.28125 31.5625 
Q 43.453125 34.8125 35.5 34.8125 
z
M 19.671875 64.796875 
L 19.671875 42.828125 
L 34.28125 42.828125 
Q 41.5 42.828125 45.03125 45.53125 
Q 48.578125 48.25 48.578125 53.8125 
Q 48.578125 59.328125 45.03125 62.0625 
Q 41.5 64.796875 34.28125 64.796875 
z
M 9.8125 72.90625 
L 35.015625 72.90625 
Q 46.296875 72.90625 52.390625 68.21875 
Q 58.5 63.53125 58.5 54.890625 
Q 58.5 48.1875 55.375 44.234375 
Q 52.25 40.28125 46.1875 39.3125 
Q 53.46875 37.75 57.5 32.78125 
Q 61.53125 27.828125 61.53125 20.40625 
Q 61.53125 10.640625 54.890625 5.3125 
Q 48.25 0 35.984375 0 
L 9.8125 0 
z
" id="DejaVuSans-66"/>
      <path d="M 8.5 21.578125 
L 8.5 54.6875 
L 17.484375 54.6875 
L 17.484375 21.921875 
Q 17.484375 14.15625 20.5 10.265625 
Q 23.53125 6.390625 29.59375 6.390625 
Q 36.859375 6.390625 41.078125 11.03125 
Q 45.3125 15.671875 45.3125 23.6875 
L 45.3125 54.6875 
L 54.296875 54.6875 
L 54.296875 0 
L 45.3125 0 
L 45.3125 8.40625 
Q 42.046875 3.421875 37.71875 1 
Q 33.40625 -1.421875 27.6875 -1.421875 
Q 18.265625 -1.421875 13.375 4.4375 
Q 8.5 10.296875 8.5 21.578125 
z
M 31.109375 56 
z
" id="DejaVuSans-117"/>
      <path d="M 5.515625 54.6875 
L 48.1875 54.6875 
L 48.1875 46.484375 
L 14.40625 7.171875 
L 48.1875 7.171875 
L 48.1875 0 
L 4.296875 0 
L 4.296875 8.203125 
L 38.09375 47.515625 
L 5.515625 47.515625 
z
" id="DejaVuSans-122"/>
      <path d="M 9.078125 75.984375 
L 18.109375 75.984375 
L 18.109375 31.109375 
L 44.921875 54.6875 
L 56.390625 54.6875 
L 27.390625 29.109375 
L 57.625 0 
L 45.90625 0 
L 18.109375 26.703125 
L 18.109375 0 
L 9.078125 0 
z
" id="DejaVuSans-107"/>
      <path d="M 24.3125 39.203125 
Q 19.875 35.25 17.796875 31.3125 
Q 15.71875 27.390625 15.71875 23.09375 
Q 15.71875 15.96875 20.890625 11.234375 
Q 26.078125 6.5 33.890625 6.5 
Q 38.53125 6.5 42.578125 8.03125 
Q 46.625 9.578125 50.203125 12.703125 
z
M 31.203125 44.671875 
L 56 19.28125 
Q 58.890625 23.640625 60.5 28.59375 
Q 62.109375 33.546875 62.40625 39.109375 
L 71.484375 39.109375 
Q 70.90625 32.671875 68.359375 26.359375 
Q 65.828125 20.0625 61.28125 13.921875 
L 74.90625 0 
L 62.59375 0 
L 55.609375 7.171875 
Q 50.53125 2.828125 44.96875 0.703125 
Q 39.40625 -1.421875 33.015625 -1.421875 
Q 21.234375 -1.421875 13.765625 5.296875 
Q 6.296875 12.015625 6.296875 22.515625 
Q 6.296875 28.765625 9.5625 34.25 
Q 12.84375 39.75 19.390625 44.578125 
Q 17.046875 47.65625 15.8125 50.703125 
Q 14.59375 53.765625 14.59375 56.6875 
Q 14.59375 64.59375 20.015625 69.40625 
Q 25.4375 74.21875 34.421875 74.21875 
Q 38.484375 74.21875 42.5 73.34375 
Q 46.53125 72.46875 50.6875 70.703125 
L 50.6875 61.8125 
Q 46.4375 64.109375 42.578125 65.296875 
Q 38.71875 66.5 35.40625 66.5 
Q 30.28125 66.5 27.078125 63.78125 
Q 23.875 61.078125 23.875 56.78125 
Q 23.875 54.296875 25.3125 51.78125 
Q 26.765625 49.265625 31.203125 44.671875 
z
" id="DejaVuSans-38"/>
      <path d="M 9.8125 72.90625 
L 24.515625 72.90625 
L 43.109375 23.296875 
L 61.8125 72.90625 
L 76.515625 72.90625 
L 76.515625 0 
L 66.890625 0 
L 66.890625 64.015625 
L 48.09375 14.015625 
L 38.1875 14.015625 
L 19.390625 64.015625 
L 19.390625 0 
L 9.8125 0 
z
" id="DejaVuSans-77"/>
      <path d="M 11.71875 12.40625 
L 22.015625 12.40625 
L 22.015625 4 
L 14.015625 -11.625 
L 7.71875 -11.625 
L 11.71875 4 
z
" id="DejaVuSans-44"/>
      <path d="M 8.015625 75.875 
L 15.828125 75.875 
Q 23.140625 64.359375 26.78125 53.3125 
Q 30.421875 42.28125 30.421875 31.390625 
Q 30.421875 20.453125 26.78125 9.375 
Q 23.140625 -1.703125 15.828125 -13.1875 
L 8.015625 -13.1875 
Q 14.5 -2 17.703125 9.0625 
Q 20.90625 20.125 20.90625 31.390625 
Q 20.90625 42.671875 17.703125 53.65625 
Q 14.5 64.65625 8.015625 75.875 
z
" id="DejaVuSans-41"/>
     </defs>
     <g transform="translate(217.487187 58.070437)scale(0.1 -0.1)">
      <use xlink:href="#DejaVuSans-116"/>
      <use x="39.208984" xlink:href="#DejaVuSans-97"/>
      <use x="100.488281" xlink:href="#DejaVuSans-114"/>
      <use x="139.851562" xlink:href="#DejaVuSans-103"/>
      <use x="203.328125" xlink:href="#DejaVuSans-101"/>
      <use x="264.851562" xlink:href="#DejaVuSans-116"/>
      <use x="304.060547" xlink:href="#DejaVuSans-68"/>
      <use x="381.0625" xlink:href="#DejaVuSans-105"/>
      <use x="408.845703" xlink:href="#DejaVuSans-115"/>
      <use x="460.945312" xlink:href="#DejaVuSans-116"/>
      <use x="500.154297" xlink:href="#DejaVuSans-32"/>
      <use x="531.941406" xlink:href="#DejaVuSans-40"/>
      <use x="570.955078" xlink:href="#DejaVuSans-66"/>
      <use x="639.558594" xlink:href="#DejaVuSans-117"/>
      <use x="702.9375" xlink:href="#DejaVuSans-122"/>
      <use x="755.427734" xlink:href="#DejaVuSans-115"/>
      <use x="807.527344" xlink:href="#DejaVuSans-97"/>
      <use x="868.806641" xlink:href="#DejaVuSans-107"/>
      <use x="926.716797" xlink:href="#DejaVuSans-105"/>
      <use x="954.5" xlink:href="#DejaVuSans-32"/>
      <use x="986.287109" xlink:href="#DejaVuSans-38"/>
      <use x="1064.265625" xlink:href="#DejaVuSans-32"/>
      <use x="1096.052734" xlink:href="#DejaVuSans-77"/>
      <use x="1182.332031" xlink:href="#DejaVuSans-105"/>
      <use x="1210.115234" xlink:href="#DejaVuSans-122"/>
      <use x="1262.605469" xlink:href="#DejaVuSans-117"/>
      <use x="1325.984375" xlink:href="#DejaVuSans-115"/>
      <use x="1378.083984" xlink:href="#DejaVuSans-101"/>
      <use x="1439.607422" xlink:href="#DejaVuSans-107"/>
      <use x="1497.517578" xlink:href="#DejaVuSans-105"/>
      <use x="1525.300781" xlink:href="#DejaVuSans-44"/>
      <use x="1557.087891" xlink:href="#DejaVuSans-32"/>
      <use x="1588.875" xlink:href="#DejaVuSans-50"/>
      <use x="1652.498047" xlink:href="#DejaVuSans-48"/>
      <use x="1716.121094" xlink:href="#DejaVuSans-49"/>
      <use x="1779.744141" xlink:href="#DejaVuSans-52"/>
      <use x="1843.367188" xlink:href="#DejaVuSans-41"/>
     </g>
    </g>
    <g id="line2d_16">
     <path d="M 189.487187 69.248562 
L 209.487187 69.248562 
" style="fill:none;stroke:#2ca02c;stroke-dasharray:5.55,2.4;stroke-dashoffset:0;stroke-width:1.5;"/>
    </g>
    <g id="line2d_17"/>
    <g id="text_14">
     <!-- simulatedDist -->
     <defs>
      <path d="M 52 44.1875 
Q 55.375 50.25 60.0625 53.125 
Q 64.75 56 71.09375 56 
Q 79.640625 56 84.28125 50.015625 
Q 88.921875 44.046875 88.921875 33.015625 
L 88.921875 0 
L 79.890625 0 
L 79.890625 32.71875 
Q 79.890625 40.578125 77.09375 44.375 
Q 74.3125 48.1875 68.609375 48.1875 
Q 61.625 48.1875 57.5625 43.546875 
Q 53.515625 38.921875 53.515625 30.90625 
L 53.515625 0 
L 44.484375 0 
L 44.484375 32.71875 
Q 44.484375 40.625 41.703125 44.40625 
Q 38.921875 48.1875 33.109375 48.1875 
Q 26.21875 48.1875 22.15625 43.53125 
Q 18.109375 38.875 18.109375 30.90625 
L 18.109375 0 
L 9.078125 0 
L 9.078125 54.6875 
L 18.109375 54.6875 
L 18.109375 46.1875 
Q 21.1875 51.21875 25.484375 53.609375 
Q 29.78125 56 35.6875 56 
Q 41.65625 56 45.828125 52.96875 
Q 50 49.953125 52 44.1875 
z
" id="DejaVuSans-109"/>
      <path d="M 9.421875 75.984375 
L 18.40625 75.984375 
L 18.40625 0 
L 9.421875 0 
z
" id="DejaVuSans-108"/>
      <path d="M 45.40625 46.390625 
L 45.40625 75.984375 
L 54.390625 75.984375 
L 54.390625 0 
L 45.40625 0 
L 45.40625 8.203125 
Q 42.578125 3.328125 38.25 0.953125 
Q 33.9375 -1.421875 27.875 -1.421875 
Q 17.96875 -1.421875 11.734375 6.484375 
Q 5.515625 14.40625 5.515625 27.296875 
Q 5.515625 40.1875 11.734375 48.09375 
Q 17.96875 56 27.875 56 
Q 33.9375 56 38.25 53.625 
Q 42.578125 51.265625 45.40625 46.390625 
z
M 14.796875 27.296875 
Q 14.796875 17.390625 18.875 11.75 
Q 22.953125 6.109375 30.078125 6.109375 
Q 37.203125 6.109375 41.296875 11.75 
Q 45.40625 17.390625 45.40625 27.296875 
Q 45.40625 37.203125 41.296875 42.84375 
Q 37.203125 48.484375 30.078125 48.484375 
Q 22.953125 48.484375 18.875 42.84375 
Q 14.796875 37.203125 14.796875 27.296875 
z
" id="DejaVuSans-100"/>
     </defs>
     <g transform="translate(217.487187 72.748562)scale(0.1 -0.1)">
      <use xlink:href="#DejaVuSans-115"/>
      <use x="52.099609" xlink:href="#DejaVuSans-105"/>
      <use x="79.882812" xlink:href="#DejaVuSans-109"/>
      <use x="177.294922" xlink:href="#DejaVuSans-117"/>
      <use x="240.673828" xlink:href="#DejaVuSans-108"/>
      <use x="268.457031" xlink:href="#DejaVuSans-97"/>
      <use x="329.736328" xlink:href="#DejaVuSans-116"/>
      <use x="368.945312" xlink:href="#DejaVuSans-101"/>
      <use x="430.46875" xlink:href="#DejaVuSans-100"/>
      <use x="493.945312" xlink:href="#DejaVuSans-68"/>
      <use x="570.947266" xlink:href="#DejaVuSans-105"/>
      <use x="598.730469" xlink:href="#DejaVuSans-115"/>
      <use x="650.830078" xlink:href="#DejaVuSans-116"/>
     </g>
    </g>
   </g>
  </g>
  <g id="axes_2">
   <g id="patch_108">
    <path d="M 57.6 307.584 
L 414.72 307.584 
L 414.72 186.624 
L 57.6 186.624 
z
" style="fill:#ffffff;"/>
   </g>
   <g id="patch_109">
    <path clip-path="url(#p288b656c7d)" d="M 73.995055 307.584 
L 74.683322 307.584 
L 74.683322 192.384 
L 73.995055 192.384 
z
" style="fill:#1f77b4;"/>
   </g>
   <g id="patch_110">
    <path clip-path="url(#p288b656c7d)" d="M 74.683322 307.584 
L 75.37159 307.584 
L 75.37159 269.184 
L 74.683322 269.184 
z
" style="fill:#1f77b4;"/>
   </g>
   <g id="patch_111">
    <path clip-path="url(#p288b656c7d)" d="M 75.37159 307.584 
L 76.059857 307.584 
L 76.059857 281.984 
L 75.37159 281.984 
z
" style="fill:#1f77b4;"/>
   </g>
   <g id="patch_112">
    <path clip-path="url(#p288b656c7d)" d="M 76.059857 307.584 
L 76.748125 307.584 
L 76.748125 281.984 
L 76.059857 281.984 
z
" style="fill:#1f77b4;"/>
   </g>
   <g id="patch_113">
    <path clip-path="url(#p288b656c7d)" d="M 76.748125 307.584 
L 77.436393 307.584 
L 77.436393 307.584 
L 76.748125 307.584 
z
" style="fill:#1f77b4;"/>
   </g>
   <g id="patch_114">
    <path clip-path="url(#p288b656c7d)" d="M 77.436393 307.584 
L 78.12466 307.584 
L 78.12466 281.984 
L 77.436393 281.984 
z
" style="fill:#1f77b4;"/>
   </g>
   <g id="patch_115">
    <path clip-path="url(#p288b656c7d)" d="M 78.12466 307.584 
L 78.812928 307.584 
L 78.812928 281.984 
L 78.12466 281.984 
z
" style="fill:#1f77b4;"/>
   </g>
   <g id="patch_116">
    <path clip-path="url(#p288b656c7d)" d="M 78.812928 307.584 
L 79.501196 307.584 
L 79.501196 269.184 
L 78.812928 269.184 
z
" style="fill:#1f77b4;"/>
   </g>
   <g id="patch_117">
    <path clip-path="url(#p288b656c7d)" d="M 79.501196 307.584 
L 80.189463 307.584 
L 80.189463 281.984 
L 79.501196 281.984 
z
" style="fill:#1f77b4;"/>
   </g>
   <g id="patch_118">
    <path clip-path="url(#p288b656c7d)" d="M 80.189463 307.584 
L 80.877731 307.584 
L 80.877731 281.984 
L 80.189463 281.984 
z
" style="fill:#1f77b4;"/>
   </g>
   <g id="patch_119">
    <path clip-path="url(#p288b656c7d)" d="M 80.877731 307.584 
L 81.565999 307.584 
L 81.565999 294.784 
L 80.877731 294.784 
z
" style="fill:#1f77b4;"/>
   </g>
   <g id="patch_120">
    <path clip-path="url(#p288b656c7d)" d="M 81.565999 307.584 
L 82.254266 307.584 
L 82.254266 281.984 
L 81.565999 281.984 
z
" style="fill:#1f77b4;"/>
   </g>
   <g id="patch_121">
    <path clip-path="url(#p288b656c7d)" d="M 82.254266 307.584 
L 82.942534 307.584 
L 82.942534 294.784 
L 82.254266 294.784 
z
" style="fill:#1f77b4;"/>
   </g>
   <g id="patch_122">
    <path clip-path="url(#p288b656c7d)" d="M 82.942534 307.584 
L 83.630801 307.584 
L 83.630801 294.784 
L 82.942534 294.784 
z
" style="fill:#1f77b4;"/>
   </g>
   <g id="patch_123">
    <path clip-path="url(#p288b656c7d)" d="M 83.630801 307.584 
L 84.319069 307.584 
L 84.319069 307.584 
L 83.630801 307.584 
z
" style="fill:#1f77b4;"/>
   </g>
   <g id="patch_124">
    <path clip-path="url(#p288b656c7d)" d="M 84.319069 307.584 
L 85.007337 307.584 
L 85.007337 294.784 
L 84.319069 294.784 
z
" style="fill:#1f77b4;"/>
   </g>
   <g id="patch_125">
    <path clip-path="url(#p288b656c7d)" d="M 85.007337 307.584 
L 85.695604 307.584 
L 85.695604 281.984 
L 85.007337 281.984 
z
" style="fill:#1f77b4;"/>
   </g>
   <g id="patch_126">
    <path clip-path="url(#p288b656c7d)" d="M 85.695604 307.584 
L 86.383872 307.584 
L 86.383872 307.584 
L 85.695604 307.584 
z
" style="fill:#1f77b4;"/>
   </g>
   <g id="patch_127">
    <path clip-path="url(#p288b656c7d)" d="M 86.383872 307.584 
L 87.07214 307.584 
L 87.07214 307.584 
L 86.383872 307.584 
z
" style="fill:#1f77b4;"/>
   </g>
   <g id="patch_128">
    <path clip-path="url(#p288b656c7d)" d="M 87.07214 307.584 
L 87.760407 307.584 
L 87.760407 294.784 
L 87.07214 294.784 
z
" style="fill:#1f77b4;"/>
   </g>
   <g id="patch_129">
    <path clip-path="url(#p288b656c7d)" d="M 87.760407 307.584 
L 88.448675 307.584 
L 88.448675 307.584 
L 87.760407 307.584 
z
" style="fill:#1f77b4;"/>
   </g>
   <g id="patch_130">
    <path clip-path="url(#p288b656c7d)" d="M 88.448675 307.584 
L 89.136943 307.584 
L 89.136943 307.584 
L 88.448675 307.584 
z
" style="fill:#1f77b4;"/>
   </g>
   <g id="patch_131">
    <path clip-path="url(#p288b656c7d)" d="M 89.136943 307.584 
L 89.82521 307.584 
L 89.82521 307.584 
L 89.136943 307.584 
z
" style="fill:#1f77b4;"/>
   </g>
   <g id="patch_132">
    <path clip-path="url(#p288b656c7d)" d="M 89.82521 307.584 
L 90.513478 307.584 
L 90.513478 307.584 
L 89.82521 307.584 
z
" style="fill:#1f77b4;"/>
   </g>
   <g id="patch_133">
    <path clip-path="url(#p288b656c7d)" d="M 90.513478 307.584 
L 91.201745 307.584 
L 91.201745 294.784 
L 90.513478 294.784 
z
" style="fill:#1f77b4;"/>
   </g>
   <g id="patch_134">
    <path clip-path="url(#p288b656c7d)" d="M 91.201745 307.584 
L 91.890013 307.584 
L 91.890013 294.784 
L 91.201745 294.784 
z
" style="fill:#1f77b4;"/>
   </g>
   <g id="patch_135">
    <path clip-path="url(#p288b656c7d)" d="M 91.890013 307.584 
L 92.578281 307.584 
L 92.578281 294.784 
L 91.890013 294.784 
z
" style="fill:#1f77b4;"/>
   </g>
   <g id="patch_136">
    <path clip-path="url(#p288b656c7d)" d="M 92.578281 307.584 
L 93.266548 307.584 
L 93.266548 294.784 
L 92.578281 294.784 
z
" style="fill:#1f77b4;"/>
   </g>
   <g id="patch_137">
    <path clip-path="url(#p288b656c7d)" d="M 93.266548 307.584 
L 93.954816 307.584 
L 93.954816 281.984 
L 93.266548 281.984 
z
" style="fill:#1f77b4;"/>
   </g>
   <g id="patch_138">
    <path clip-path="url(#p288b656c7d)" d="M 93.954816 307.584 
L 94.643084 307.584 
L 94.643084 307.584 
L 93.954816 307.584 
z
" style="fill:#1f77b4;"/>
   </g>
   <g id="patch_139">
    <path clip-path="url(#p288b656c7d)" d="M 94.643084 307.584 
L 95.331351 307.584 
L 95.331351 307.584 
L 94.643084 307.584 
z
" style="fill:#1f77b4;"/>
   </g>
   <g id="patch_140">
    <path clip-path="url(#p288b656c7d)" d="M 95.331351 307.584 
L 96.019619 307.584 
L 96.019619 307.584 
L 95.331351 307.584 
z
" style="fill:#1f77b4;"/>
   </g>
   <g id="patch_141">
    <path clip-path="url(#p288b656c7d)" d="M 96.019619 307.584 
L 96.707887 307.584 
L 96.707887 307.584 
L 96.019619 307.584 
z
" style="fill:#1f77b4;"/>
   </g>
   <g id="patch_142">
    <path clip-path="url(#p288b656c7d)" d="M 96.707887 307.584 
L 97.396154 307.584 
L 97.396154 307.584 
L 96.707887 307.584 
z
" style="fill:#1f77b4;"/>
   </g>
   <g id="patch_143">
    <path clip-path="url(#p288b656c7d)" d="M 97.396154 307.584 
L 98.084422 307.584 
L 98.084422 307.584 
L 97.396154 307.584 
z
" style="fill:#1f77b4;"/>
   </g>
   <g id="patch_144">
    <path clip-path="url(#p288b656c7d)" d="M 98.084422 307.584 
L 98.772689 307.584 
L 98.772689 307.584 
L 98.084422 307.584 
z
" style="fill:#1f77b4;"/>
   </g>
   <g id="patch_145">
    <path clip-path="url(#p288b656c7d)" d="M 98.772689 307.584 
L 99.460957 307.584 
L 99.460957 307.584 
L 98.772689 307.584 
z
" style="fill:#1f77b4;"/>
   </g>
   <g id="patch_146">
    <path clip-path="url(#p288b656c7d)" d="M 99.460957 307.584 
L 100.149225 307.584 
L 100.149225 307.584 
L 99.460957 307.584 
z
" style="fill:#1f77b4;"/>
   </g>
   <g id="patch_147">
    <path clip-path="url(#p288b656c7d)" d="M 100.149225 307.584 
L 100.837492 307.584 
L 100.837492 307.584 
L 100.149225 307.584 
z
" style="fill:#1f77b4;"/>
   </g>
   <g id="patch_148">
    <path clip-path="url(#p288b656c7d)" d="M 100.837492 307.584 
L 101.52576 307.584 
L 101.52576 307.584 
L 100.837492 307.584 
z
" style="fill:#1f77b4;"/>
   </g>
   <g id="patch_149">
    <path clip-path="url(#p288b656c7d)" d="M 101.52576 307.584 
L 102.214028 307.584 
L 102.214028 307.584 
L 101.52576 307.584 
z
" style="fill:#1f77b4;"/>
   </g>
   <g id="patch_150">
    <path clip-path="url(#p288b656c7d)" d="M 102.214028 307.584 
L 102.902295 307.584 
L 102.902295 294.784 
L 102.214028 294.784 
z
" style="fill:#1f77b4;"/>
   </g>
   <g id="patch_151">
    <path clip-path="url(#p288b656c7d)" d="M 102.902295 307.584 
L 103.590563 307.584 
L 103.590563 307.584 
L 102.902295 307.584 
z
" style="fill:#1f77b4;"/>
   </g>
   <g id="patch_152">
    <path clip-path="url(#p288b656c7d)" d="M 103.590563 307.584 
L 104.278831 307.584 
L 104.278831 307.584 
L 103.590563 307.584 
z
" style="fill:#1f77b4;"/>
   </g>
   <g id="patch_153">
    <path clip-path="url(#p288b656c7d)" d="M 104.278831 307.584 
L 104.967098 307.584 
L 104.967098 307.584 
L 104.278831 307.584 
z
" style="fill:#1f77b4;"/>
   </g>
   <g id="patch_154">
    <path clip-path="url(#p288b656c7d)" d="M 104.967098 307.584 
L 105.655366 307.584 
L 105.655366 281.984 
L 104.967098 281.984 
z
" style="fill:#1f77b4;"/>
   </g>
   <g id="patch_155">
    <path clip-path="url(#p288b656c7d)" d="M 105.655366 307.584 
L 106.343633 307.584 
L 106.343633 307.584 
L 105.655366 307.584 
z
" style="fill:#1f77b4;"/>
   </g>
   <g id="patch_156">
    <path clip-path="url(#p288b656c7d)" d="M 106.343633 307.584 
L 107.031901 307.584 
L 107.031901 307.584 
L 106.343633 307.584 
z
" style="fill:#1f77b4;"/>
   </g>
   <g id="patch_157">
    <path clip-path="url(#p288b656c7d)" d="M 107.031901 307.584 
L 107.720169 307.584 
L 107.720169 307.584 
L 107.031901 307.584 
z
" style="fill:#1f77b4;"/>
   </g>
   <g id="patch_158">
    <path clip-path="url(#p288b656c7d)" d="M 107.720169 307.584 
L 108.408436 307.584 
L 108.408436 307.584 
L 107.720169 307.584 
z
" style="fill:#1f77b4;"/>
   </g>
   <g id="patch_159">
    <path clip-path="url(#p288b656c7d)" d="M 108.408436 307.584 
L 109.096704 307.584 
L 109.096704 307.584 
L 108.408436 307.584 
z
" style="fill:#1f77b4;"/>
   </g>
   <g id="patch_160">
    <path clip-path="url(#p288b656c7d)" d="M 109.096704 307.584 
L 109.784972 307.584 
L 109.784972 307.584 
L 109.096704 307.584 
z
" style="fill:#1f77b4;"/>
   </g>
   <g id="patch_161">
    <path clip-path="url(#p288b656c7d)" d="M 109.784972 307.584 
L 110.473239 307.584 
L 110.473239 307.584 
L 109.784972 307.584 
z
" style="fill:#1f77b4;"/>
   </g>
   <g id="patch_162">
    <path clip-path="url(#p288b656c7d)" d="M 110.473239 307.584 
L 111.161507 307.584 
L 111.161507 307.584 
L 110.473239 307.584 
z
" style="fill:#1f77b4;"/>
   </g>
   <g id="patch_163">
    <path clip-path="url(#p288b656c7d)" d="M 111.161507 307.584 
L 111.849775 307.584 
L 111.849775 307.584 
L 111.161507 307.584 
z
" style="fill:#1f77b4;"/>
   </g>
   <g id="patch_164">
    <path clip-path="url(#p288b656c7d)" d="M 111.849775 307.584 
L 112.538042 307.584 
L 112.538042 307.584 
L 111.849775 307.584 
z
" style="fill:#1f77b4;"/>
   </g>
   <g id="patch_165">
    <path clip-path="url(#p288b656c7d)" d="M 112.538042 307.584 
L 113.22631 307.584 
L 113.22631 294.784 
L 112.538042 294.784 
z
" style="fill:#1f77b4;"/>
   </g>
   <g id="patch_166">
    <path clip-path="url(#p288b656c7d)" d="M 113.22631 307.584 
L 113.914577 307.584 
L 113.914577 294.784 
L 113.22631 294.784 
z
" style="fill:#1f77b4;"/>
   </g>
   <g id="patch_167">
    <path clip-path="url(#p288b656c7d)" d="M 113.914577 307.584 
L 114.602845 307.584 
L 114.602845 307.584 
L 113.914577 307.584 
z
" style="fill:#1f77b4;"/>
   </g>
   <g id="patch_168">
    <path clip-path="url(#p288b656c7d)" d="M 114.602845 307.584 
L 115.291113 307.584 
L 115.291113 307.584 
L 114.602845 307.584 
z
" style="fill:#1f77b4;"/>
   </g>
   <g id="patch_169">
    <path clip-path="url(#p288b656c7d)" d="M 115.291113 307.584 
L 115.97938 307.584 
L 115.97938 294.784 
L 115.291113 294.784 
z
" style="fill:#1f77b4;"/>
   </g>
   <g id="patch_170">
    <path clip-path="url(#p288b656c7d)" d="M 115.97938 307.584 
L 116.667648 307.584 
L 116.667648 307.584 
L 115.97938 307.584 
z
" style="fill:#1f77b4;"/>
   </g>
   <g id="patch_171">
    <path clip-path="url(#p288b656c7d)" d="M 116.667648 307.584 
L 117.355916 307.584 
L 117.355916 307.584 
L 116.667648 307.584 
z
" style="fill:#1f77b4;"/>
   </g>
   <g id="patch_172">
    <path clip-path="url(#p288b656c7d)" d="M 117.355916 307.584 
L 118.044183 307.584 
L 118.044183 307.584 
L 117.355916 307.584 
z
" style="fill:#1f77b4;"/>
   </g>
   <g id="patch_173">
    <path clip-path="url(#p288b656c7d)" d="M 118.044183 307.584 
L 118.732451 307.584 
L 118.732451 307.584 
L 118.044183 307.584 
z
" style="fill:#1f77b4;"/>
   </g>
   <g id="patch_174">
    <path clip-path="url(#p288b656c7d)" d="M 118.732451 307.584 
L 119.420719 307.584 
L 119.420719 307.584 
L 118.732451 307.584 
z
" style="fill:#1f77b4;"/>
   </g>
   <g id="patch_175">
    <path clip-path="url(#p288b656c7d)" d="M 119.420719 307.584 
L 120.108986 307.584 
L 120.108986 307.584 
L 119.420719 307.584 
z
" style="fill:#1f77b4;"/>
   </g>
   <g id="patch_176">
    <path clip-path="url(#p288b656c7d)" d="M 120.108986 307.584 
L 120.797254 307.584 
L 120.797254 307.584 
L 120.108986 307.584 
z
" style="fill:#1f77b4;"/>
   </g>
   <g id="patch_177">
    <path clip-path="url(#p288b656c7d)" d="M 120.797254 307.584 
L 121.485521 307.584 
L 121.485521 307.584 
L 120.797254 307.584 
z
" style="fill:#1f77b4;"/>
   </g>
   <g id="patch_178">
    <path clip-path="url(#p288b656c7d)" d="M 121.485521 307.584 
L 122.173789 307.584 
L 122.173789 307.584 
L 121.485521 307.584 
z
" style="fill:#1f77b4;"/>
   </g>
   <g id="patch_179">
    <path clip-path="url(#p288b656c7d)" d="M 122.173789 307.584 
L 122.862057 307.584 
L 122.862057 294.784 
L 122.173789 294.784 
z
" style="fill:#1f77b4;"/>
   </g>
   <g id="patch_180">
    <path clip-path="url(#p288b656c7d)" d="M 122.862057 307.584 
L 123.550324 307.584 
L 123.550324 307.584 
L 122.862057 307.584 
z
" style="fill:#1f77b4;"/>
   </g>
   <g id="patch_181">
    <path clip-path="url(#p288b656c7d)" d="M 123.550324 307.584 
L 124.238592 307.584 
L 124.238592 307.584 
L 123.550324 307.584 
z
" style="fill:#1f77b4;"/>
   </g>
   <g id="patch_182">
    <path clip-path="url(#p288b656c7d)" d="M 124.238592 307.584 
L 124.92686 307.584 
L 124.92686 307.584 
L 124.238592 307.584 
z
" style="fill:#1f77b4;"/>
   </g>
   <g id="patch_183">
    <path clip-path="url(#p288b656c7d)" d="M 124.92686 307.584 
L 125.615127 307.584 
L 125.615127 307.584 
L 124.92686 307.584 
z
" style="fill:#1f77b4;"/>
   </g>
   <g id="patch_184">
    <path clip-path="url(#p288b656c7d)" d="M 125.615127 307.584 
L 126.303395 307.584 
L 126.303395 307.584 
L 125.615127 307.584 
z
" style="fill:#1f77b4;"/>
   </g>
   <g id="patch_185">
    <path clip-path="url(#p288b656c7d)" d="M 126.303395 307.584 
L 126.991663 307.584 
L 126.991663 307.584 
L 126.303395 307.584 
z
" style="fill:#1f77b4;"/>
   </g>
   <g id="patch_186">
    <path clip-path="url(#p288b656c7d)" d="M 126.991663 307.584 
L 127.67993 307.584 
L 127.67993 307.584 
L 126.991663 307.584 
z
" style="fill:#1f77b4;"/>
   </g>
   <g id="patch_187">
    <path clip-path="url(#p288b656c7d)" d="M 127.67993 307.584 
L 128.368198 307.584 
L 128.368198 307.584 
L 127.67993 307.584 
z
" style="fill:#1f77b4;"/>
   </g>
   <g id="patch_188">
    <path clip-path="url(#p288b656c7d)" d="M 128.368198 307.584 
L 129.056465 307.584 
L 129.056465 307.584 
L 128.368198 307.584 
z
" style="fill:#1f77b4;"/>
   </g>
   <g id="patch_189">
    <path clip-path="url(#p288b656c7d)" d="M 129.056465 307.584 
L 129.744733 307.584 
L 129.744733 307.584 
L 129.056465 307.584 
z
" style="fill:#1f77b4;"/>
   </g>
   <g id="patch_190">
    <path clip-path="url(#p288b656c7d)" d="M 129.744733 307.584 
L 130.433001 307.584 
L 130.433001 307.584 
L 129.744733 307.584 
z
" style="fill:#1f77b4;"/>
   </g>
   <g id="patch_191">
    <path clip-path="url(#p288b656c7d)" d="M 130.433001 307.584 
L 131.121268 307.584 
L 131.121268 307.584 
L 130.433001 307.584 
z
" style="fill:#1f77b4;"/>
   </g>
   <g id="patch_192">
    <path clip-path="url(#p288b656c7d)" d="M 131.121268 307.584 
L 131.809536 307.584 
L 131.809536 307.584 
L 131.121268 307.584 
z
" style="fill:#1f77b4;"/>
   </g>
   <g id="patch_193">
    <path clip-path="url(#p288b656c7d)" d="M 131.809536 307.584 
L 132.497804 307.584 
L 132.497804 307.584 
L 131.809536 307.584 
z
" style="fill:#1f77b4;"/>
   </g>
   <g id="patch_194">
    <path clip-path="url(#p288b656c7d)" d="M 132.497804 307.584 
L 133.186071 307.584 
L 133.186071 307.584 
L 132.497804 307.584 
z
" style="fill:#1f77b4;"/>
   </g>
   <g id="patch_195">
    <path clip-path="url(#p288b656c7d)" d="M 133.186071 307.584 
L 133.874339 307.584 
L 133.874339 307.584 
L 133.186071 307.584 
z
" style="fill:#1f77b4;"/>
   </g>
   <g id="patch_196">
    <path clip-path="url(#p288b656c7d)" d="M 133.874339 307.584 
L 134.562607 307.584 
L 134.562607 307.584 
L 133.874339 307.584 
z
" style="fill:#1f77b4;"/>
   </g>
   <g id="patch_197">
    <path clip-path="url(#p288b656c7d)" d="M 134.562607 307.584 
L 135.250874 307.584 
L 135.250874 307.584 
L 134.562607 307.584 
z
" style="fill:#1f77b4;"/>
   </g>
   <g id="patch_198">
    <path clip-path="url(#p288b656c7d)" d="M 135.250874 307.584 
L 135.939142 307.584 
L 135.939142 307.584 
L 135.250874 307.584 
z
" style="fill:#1f77b4;"/>
   </g>
   <g id="patch_199">
    <path clip-path="url(#p288b656c7d)" d="M 135.939142 307.584 
L 136.627409 307.584 
L 136.627409 307.584 
L 135.939142 307.584 
z
" style="fill:#1f77b4;"/>
   </g>
   <g id="patch_200">
    <path clip-path="url(#p288b656c7d)" d="M 136.627409 307.584 
L 137.315677 307.584 
L 137.315677 307.584 
L 136.627409 307.584 
z
" style="fill:#1f77b4;"/>
   </g>
   <g id="patch_201">
    <path clip-path="url(#p288b656c7d)" d="M 137.315677 307.584 
L 138.003945 307.584 
L 138.003945 307.584 
L 137.315677 307.584 
z
" style="fill:#1f77b4;"/>
   </g>
   <g id="patch_202">
    <path clip-path="url(#p288b656c7d)" d="M 138.003945 307.584 
L 138.692212 307.584 
L 138.692212 307.584 
L 138.003945 307.584 
z
" style="fill:#1f77b4;"/>
   </g>
   <g id="patch_203">
    <path clip-path="url(#p288b656c7d)" d="M 138.692212 307.584 
L 139.38048 307.584 
L 139.38048 307.584 
L 138.692212 307.584 
z
" style="fill:#1f77b4;"/>
   </g>
   <g id="patch_204">
    <path clip-path="url(#p288b656c7d)" d="M 139.38048 307.584 
L 140.068748 307.584 
L 140.068748 307.584 
L 139.38048 307.584 
z
" style="fill:#1f77b4;"/>
   </g>
   <g id="patch_205">
    <path clip-path="url(#p288b656c7d)" d="M 140.068748 307.584 
L 140.757015 307.584 
L 140.757015 307.584 
L 140.068748 307.584 
z
" style="fill:#1f77b4;"/>
   </g>
   <g id="patch_206">
    <path clip-path="url(#p288b656c7d)" d="M 140.757015 307.584 
L 141.445283 307.584 
L 141.445283 307.584 
L 140.757015 307.584 
z
" style="fill:#1f77b4;"/>
   </g>
   <g id="patch_207">
    <path clip-path="url(#p288b656c7d)" d="M 141.445283 307.584 
L 142.133551 307.584 
L 142.133551 307.584 
L 141.445283 307.584 
z
" style="fill:#1f77b4;"/>
   </g>
   <g id="patch_208">
    <path clip-path="url(#p288b656c7d)" d="M 142.133551 307.584 
L 142.821818 307.584 
L 142.821818 294.784 
L 142.133551 294.784 
z
" style="fill:#1f77b4;"/>
   </g>
   <g id="matplotlib.axis_3">
    <g id="xtick_7">
     <g id="line2d_18">
      <g>
       <use style="stroke:#000000;stroke-width:0.8;" x="73.832727" xlink:href="#m74e7380deb" y="307.584"/>
      </g>
     </g>
     <g id="text_15">
      <!-- 0 -->
      <g transform="translate(70.651477 322.182437)scale(0.1 -0.1)">
       <use xlink:href="#DejaVuSans-48"/>
      </g>
     </g>
    </g>
    <g id="xtick_8">
     <g id="line2d_19">
      <g>
       <use style="stroke:#000000;stroke-width:0.8;" x="138.763636" xlink:href="#m74e7380deb" y="307.584"/>
      </g>
     </g>
     <g id="text_16">
      <!-- 20 -->
      <g transform="translate(132.401136 322.182437)scale(0.1 -0.1)">
       <use xlink:href="#DejaVuSans-50"/>
       <use x="63.623047" xlink:href="#DejaVuSans-48"/>
      </g>
     </g>
    </g>
    <g id="xtick_9">
     <g id="line2d_20">
      <g>
       <use style="stroke:#000000;stroke-width:0.8;" x="203.694545" xlink:href="#m74e7380deb" y="307.584"/>
      </g>
     </g>
     <g id="text_17">
      <!-- 40 -->
      <g transform="translate(197.332045 322.182437)scale(0.1 -0.1)">
       <use xlink:href="#DejaVuSans-52"/>
       <use x="63.623047" xlink:href="#DejaVuSans-48"/>
      </g>
     </g>
    </g>
    <g id="xtick_10">
     <g id="line2d_21">
      <g>
       <use style="stroke:#000000;stroke-width:0.8;" x="268.625455" xlink:href="#m74e7380deb" y="307.584"/>
      </g>
     </g>
     <g id="text_18">
      <!-- 60 -->
      <g transform="translate(262.262955 322.182437)scale(0.1 -0.1)">
       <use xlink:href="#DejaVuSans-54"/>
       <use x="63.623047" xlink:href="#DejaVuSans-48"/>
      </g>
     </g>
    </g>
    <g id="xtick_11">
     <g id="line2d_22">
      <g>
       <use style="stroke:#000000;stroke-width:0.8;" x="333.556364" xlink:href="#m74e7380deb" y="307.584"/>
      </g>
     </g>
     <g id="text_19">
      <!-- 80 -->
      <g transform="translate(327.193864 322.182437)scale(0.1 -0.1)">
       <use xlink:href="#DejaVuSans-56"/>
       <use x="63.623047" xlink:href="#DejaVuSans-48"/>
      </g>
     </g>
    </g>
    <g id="xtick_12">
     <g id="line2d_23">
      <g>
       <use style="stroke:#000000;stroke-width:0.8;" x="398.487273" xlink:href="#m74e7380deb" y="307.584"/>
      </g>
     </g>
     <g id="text_20">
      <!-- 100 -->
      <g transform="translate(388.943523 322.182437)scale(0.1 -0.1)">
       <use xlink:href="#DejaVuSans-49"/>
       <use x="63.623047" xlink:href="#DejaVuSans-48"/>
       <use x="127.246094" xlink:href="#DejaVuSans-48"/>
      </g>
     </g>
    </g>
   </g>
   <g id="matplotlib.axis_4">
    <g id="ytick_6">
     <g id="line2d_24">
      <g>
       <use style="stroke:#000000;stroke-width:0.8;" x="57.6" xlink:href="#m2e5c54e87b" y="307.584"/>
      </g>
     </g>
     <g id="text_21">
      <!-- 0.0 -->
      <g transform="translate(34.696875 311.383219)scale(0.1 -0.1)">
       <use xlink:href="#DejaVuSans-48"/>
       <use x="63.623047" xlink:href="#DejaVuSans-46"/>
       <use x="95.410156" xlink:href="#DejaVuSans-48"/>
      </g>
     </g>
    </g>
    <g id="ytick_7">
     <g id="line2d_25">
      <g>
       <use style="stroke:#000000;stroke-width:0.8;" x="57.6" xlink:href="#m2e5c54e87b" y="280.448"/>
      </g>
     </g>
     <g id="text_22">
      <!-- 0.2 -->
      <g transform="translate(34.696875 284.247219)scale(0.1 -0.1)">
       <use xlink:href="#DejaVuSans-48"/>
       <use x="63.623047" xlink:href="#DejaVuSans-46"/>
       <use x="95.410156" xlink:href="#DejaVuSans-50"/>
      </g>
     </g>
    </g>
    <g id="ytick_8">
     <g id="line2d_26">
      <g>
       <use style="stroke:#000000;stroke-width:0.8;" x="57.6" xlink:href="#m2e5c54e87b" y="253.312"/>
      </g>
     </g>
     <g id="text_23">
      <!-- 0.4 -->
      <g transform="translate(34.696875 257.111219)scale(0.1 -0.1)">
       <use xlink:href="#DejaVuSans-48"/>
       <use x="63.623047" xlink:href="#DejaVuSans-46"/>
       <use x="95.410156" xlink:href="#DejaVuSans-52"/>
      </g>
     </g>
    </g>
    <g id="ytick_9">
     <g id="line2d_27">
      <g>
       <use style="stroke:#000000;stroke-width:0.8;" x="57.6" xlink:href="#m2e5c54e87b" y="226.176"/>
      </g>
     </g>
     <g id="text_24">
      <!-- 0.6 -->
      <g transform="translate(34.696875 229.975219)scale(0.1 -0.1)">
       <use xlink:href="#DejaVuSans-48"/>
       <use x="63.623047" xlink:href="#DejaVuSans-46"/>
       <use x="95.410156" xlink:href="#DejaVuSans-54"/>
      </g>
     </g>
    </g>
    <g id="ytick_10">
     <g id="line2d_28">
      <g>
       <use style="stroke:#000000;stroke-width:0.8;" x="57.6" xlink:href="#m2e5c54e87b" y="199.04"/>
      </g>
     </g>
     <g id="text_25">
      <!-- 0.8 -->
      <g transform="translate(34.696875 202.839219)scale(0.1 -0.1)">
       <use xlink:href="#DejaVuSans-48"/>
       <use x="63.623047" xlink:href="#DejaVuSans-46"/>
       <use x="95.410156" xlink:href="#DejaVuSans-56"/>
      </g>
     </g>
    </g>
   </g>
   <g id="line2d_29">
    <path clip-path="url(#p288b656c7d)" d="M 73.832727 307.584 
L 74.157707 304.485039 
L 74.807666 292.510197 
L 75.457625 285.190566 
L 75.782604 283.104968 
L 76.107584 281.750449 
L 76.432563 280.942944 
L 76.757543 280.542541 
L 77.082523 280.444223 
L 77.407502 280.569325 
L 78.057461 281.268161 
L 79.0324 282.917523 
L 82.932154 290.234298 
L 84.557052 292.687641 
L 86.181949 294.746049 
L 87.806847 296.465798 
L 89.431744 297.904783 
L 91.381622 299.331745 
L 93.331499 300.498159 
L 95.606355 301.602562 
L 98.206192 302.605817 
L 101.131007 303.487998 
L 104.705782 304.309424 
L 108.930516 305.025046 
L 113.805209 305.618653 
L 119.97982 306.139281 
L 128.104308 306.584019 
L 139.153612 306.944503 
L 155.077609 307.219685 
L 180.750991 307.414327 
L 230.472858 307.531144 
L 377.363604 307.57873 
L 398.487273 307.579915 
L 398.487273 307.579915 
" style="fill:none;stroke:#ff7f0e;stroke-linecap:square;stroke-width:1.5;"/>
   </g>
   <g id="line2d_30">
    <path clip-path="url(#p288b656c7d)" d="M 73.832727 307.584 
L 74.157707 240.031915 
L 74.482686 235.537798 
L 76.432563 266.78194 
L 77.082523 273.190617 
L 78.057461 280.212388 
L 79.0324 285.212027 
L 80.007338 288.914574 
L 80.982277 291.743988 
L 81.957215 293.96157 
L 82.932154 295.736039 
L 84.232072 297.603279 
L 85.53199 299.058666 
L 86.831908 300.216949 
L 88.456806 301.361658 
L 90.406683 302.417578 
L 92.68154 303.346011 
L 95.281376 304.135487 
L 98.206192 304.791455 
L 102.105946 305.417322 
L 106.980639 305.950461 
L 113.15525 306.392341 
L 121.604717 306.764703 
L 133.953939 307.068608 
L 153.452711 307.300325 
L 188.22552 307.459103 
L 267.195545 307.549566 
L 398.487273 307.575407 
L 398.487273 307.575407 
" style="fill:none;stroke:#2ca02c;stroke-dasharray:5.55,2.4;stroke-dashoffset:0;stroke-width:1.5;"/>
   </g>
   <g id="patch_209">
    <path d="M 57.6 307.584 
L 57.6 186.624 
" style="fill:none;stroke:#000000;stroke-linecap:square;stroke-linejoin:miter;stroke-width:0.8;"/>
   </g>
   <g id="patch_210">
    <path d="M 414.72 307.584 
L 414.72 186.624 
" style="fill:none;stroke:#000000;stroke-linecap:square;stroke-linejoin:miter;stroke-width:0.8;"/>
   </g>
   <g id="patch_211">
    <path d="M 57.6 307.584 
L 414.72 307.584 
" style="fill:none;stroke:#000000;stroke-linecap:square;stroke-linejoin:miter;stroke-width:0.8;"/>
   </g>
   <g id="patch_212">
    <path d="M 57.6 186.624 
L 414.72 186.624 
" style="fill:none;stroke:#000000;stroke-linecap:square;stroke-linejoin:miter;stroke-width:0.8;"/>
   </g>
   <g id="text_26">
    <!-- I -->
    <defs>
     <path d="M 9.8125 72.90625 
L 19.671875 72.90625 
L 19.671875 0 
L 9.8125 0 
z
" id="DejaVuSans-73"/>
    </defs>
    <g transform="translate(234.39 180.624)scale(0.12 -0.12)">
     <use xlink:href="#DejaVuSans-73"/>
    </g>
   </g>
   <g id="legend_2">
    <g id="patch_213">
     <path d="M 187.487187 223.98025 
L 407.72 223.98025 
Q 409.72 223.98025 409.72 221.98025 
L 409.72 193.624 
Q 409.72 191.624 407.72 191.624 
L 187.487187 191.624 
Q 185.487187 191.624 185.487187 193.624 
L 185.487187 221.98025 
Q 185.487187 223.98025 187.487187 223.98025 
z
" style="fill:#ffffff;opacity:0.8;stroke:#cccccc;stroke-linejoin:miter;"/>
    </g>
    <g id="line2d_31">
     <path d="M 189.487187 199.722437 
L 209.487187 199.722437 
" style="fill:none;stroke:#ff7f0e;stroke-linecap:square;stroke-width:1.5;"/>
    </g>
    <g id="line2d_32"/>
    <g id="text_27">
     <!-- targetDist (Buzsaki &amp; Mizuseki, 2014) -->
     <g transform="translate(217.487187 203.222437)scale(0.1 -0.1)">
      <use xlink:href="#DejaVuSans-116"/>
      <use x="39.208984" xlink:href="#DejaVuSans-97"/>
      <use x="100.488281" xlink:href="#DejaVuSans-114"/>
      <use x="139.851562" xlink:href="#DejaVuSans-103"/>
      <use x="203.328125" xlink:href="#DejaVuSans-101"/>
      <use x="264.851562" xlink:href="#DejaVuSans-116"/>
      <use x="304.060547" xlink:href="#DejaVuSans-68"/>
      <use x="381.0625" xlink:href="#DejaVuSans-105"/>
      <use x="408.845703" xlink:href="#DejaVuSans-115"/>
      <use x="460.945312" xlink:href="#DejaVuSans-116"/>
      <use x="500.154297" xlink:href="#DejaVuSans-32"/>
      <use x="531.941406" xlink:href="#DejaVuSans-40"/>
      <use x="570.955078" xlink:href="#DejaVuSans-66"/>
      <use x="639.558594" xlink:href="#DejaVuSans-117"/>
      <use x="702.9375" xlink:href="#DejaVuSans-122"/>
      <use x="755.427734" xlink:href="#DejaVuSans-115"/>
      <use x="807.527344" xlink:href="#DejaVuSans-97"/>
      <use x="868.806641" xlink:href="#DejaVuSans-107"/>
      <use x="926.716797" xlink:href="#DejaVuSans-105"/>
      <use x="954.5" xlink:href="#DejaVuSans-32"/>
      <use x="986.287109" xlink:href="#DejaVuSans-38"/>
      <use x="1064.265625" xlink:href="#DejaVuSans-32"/>
      <use x="1096.052734" xlink:href="#DejaVuSans-77"/>
      <use x="1182.332031" xlink:href="#DejaVuSans-105"/>
      <use x="1210.115234" xlink:href="#DejaVuSans-122"/>
      <use x="1262.605469" xlink:href="#DejaVuSans-117"/>
      <use x="1325.984375" xlink:href="#DejaVuSans-115"/>
      <use x="1378.083984" xlink:href="#DejaVuSans-101"/>
      <use x="1439.607422" xlink:href="#DejaVuSans-107"/>
      <use x="1497.517578" xlink:href="#DejaVuSans-105"/>
      <use x="1525.300781" xlink:href="#DejaVuSans-44"/>
      <use x="1557.087891" xlink:href="#DejaVuSans-32"/>
      <use x="1588.875" xlink:href="#DejaVuSans-50"/>
      <use x="1652.498047" xlink:href="#DejaVuSans-48"/>
      <use x="1716.121094" xlink:href="#DejaVuSans-49"/>
      <use x="1779.744141" xlink:href="#DejaVuSans-52"/>
      <use x="1843.367188" xlink:href="#DejaVuSans-41"/>
     </g>
    </g>
    <g id="line2d_33">
     <path d="M 189.487187 214.400562 
L 209.487187 214.400562 
" style="fill:none;stroke:#2ca02c;stroke-dasharray:5.55,2.4;stroke-dashoffset:0;stroke-width:1.5;"/>
    </g>
    <g id="line2d_34"/>
    <g id="text_28">
     <!-- simulatedDist -->
     <g transform="translate(217.487187 217.900562)scale(0.1 -0.1)">
      <use xlink:href="#DejaVuSans-115"/>
      <use x="52.099609" xlink:href="#DejaVuSans-105"/>
      <use x="79.882812" xlink:href="#DejaVuSans-109"/>
      <use x="177.294922" xlink:href="#DejaVuSans-117"/>
      <use x="240.673828" xlink:href="#DejaVuSans-108"/>
      <use x="268.457031" xlink:href="#DejaVuSans-97"/>
      <use x="329.736328" xlink:href="#DejaVuSans-116"/>
      <use x="368.945312" xlink:href="#DejaVuSans-101"/>
      <use x="430.46875" xlink:href="#DejaVuSans-100"/>
      <use x="493.945312" xlink:href="#DejaVuSans-68"/>
      <use x="570.947266" xlink:href="#DejaVuSans-105"/>
      <use x="598.730469" xlink:href="#DejaVuSans-115"/>
      <use x="650.830078" xlink:href="#DejaVuSans-116"/>
     </g>
    </g>
   </g>
  </g>
 </g>
 <defs>
  <clipPath id="p532f6aa528">
   <rect height="120.96" width="357.12" x="57.6" y="41.472"/>
  </clipPath>
  <clipPath id="p288b656c7d">
   <rect height="120.96" width="357.12" x="57.6" y="186.624"/>
  </clipPath>
 </defs>
</svg>
